<?xml version="1.0" standalone="no"?>
<!DOCTYPE svg PUBLIC "-//W3C//DTD SVG 20010904//EN"
 "http://www.w3.org/TR/2001/REC-SVG-20010904/DTD/svg10.dtd">
<svg version="1.0" xmlns="http://www.w3.org/2000/svg"
 width="1754.000000pt" height="1754.000000pt" viewBox="0 0 1754.000000 1754.000000"
 preserveAspectRatio="xMidYMid meet">
<metadata>
Created by potrace 1.14, written by Peter Selinger 2001-2017
</metadata>
<g transform="translate(0.000000,1754.000000) scale(0.100000,-0.100000)"
fill="#000000" stroke="none">
<path d="M9560 15728 c-37 -12 -83 -57 -419 -403 -102 -105 -191 -206 -199
-225 -19 -45 -18 -119 2 -157 15 -29 14 -31 -11 -54 -32 -30 -58 -87 -73 -164
-16 -77 -44 -129 -89 -158 -48 -31 -84 -43 -217 -72 -127 -26 -180 -50 -229
-102 -36 -38 -61 -95 -50 -113 11 -18 22 -10 29 20 17 86 98 136 279 174 228
48 281 98 314 291 7 40 26 75 57 104 l26 24 23 -20 c43 -41 137 -49 197 -18
33 17 43 27 345 338 121 125 230 246 243 270 47 85 14 198 -74 249 -38 22
-111 29 -154 16z"/>
<path d="M7285 15689 c-184 -25 -326 -187 -328 -374 -1 -129 53 -237 156 -315
238 -180 584 -24 612 276 22 241 -195 445 -440 413z"/>
<path d="M5555 15515 c-50 -27 -83 -79 -120 -193 -24 -75 -67 -122 -112 -122
-18 0 -47 7 -62 14 -30 16 -91 80 -91 96 0 6 -4 10 -10 10 -36 0 35 -98 90
-125 52 -25 71 -27 110 -10 46 20 72 61 110 165 49 137 116 183 200 139 93
-49 114 -104 71 -188 -33 -64 -25 -129 22 -179 62 -66 143 -72 275 -19 49 21
103 37 118 37 65 -1 154 -62 189 -130 17 -33 17 -34 -6 -51 -13 -10 -26 -16
-28 -13 -3 2 -11 -10 -18 -27 -8 -19 -17 -28 -25 -23 -8 5 -9 2 -5 -9 7 -20
-9 -68 -26 -79 -9 -6 -9 -8 1 -8 6 0 12 -11 12 -25 0 -14 -6 -25 -12 -25 -9 0
-9 -3 1 -9 8 -5 14 -23 15 -40 0 -17 4 -31 7 -31 13 0 17 -55 6 -62 -8 -5 -6
-8 6 -8 23 0 43 -50 25 -62 -10 -6 -8 -8 5 -8 18 0 39 -38 29 -54 -3 -5 -1 -6
5 -3 12 7 36 -40 28 -54 -4 -5 1 -9 9 -9 8 0 20 -8 25 -18 6 -11 24 -34 41
-52 19 -21 29 -39 25 -49 -5 -12 -3 -13 5 -5 9 9 18 6 36 -11 13 -12 24 -28
24 -35 0 -7 3 -10 6 -7 10 9 64 -25 64 -40 0 -7 6 -10 13 -7 7 2 23 -5 35 -16
12 -11 25 -19 29 -18 19 5 53 -15 53 -30 0 -13 2 -14 8 -4 7 10 15 10 38 1 16
-6 42 -12 58 -13 19 -1 32 -8 37 -21 6 -17 8 -17 8 -2 1 20 51 25 51 5 0 -6 6
-4 14 7 8 12 20 16 35 12 11 -3 21 -1 21 4 0 12 57 41 63 31 2 -4 3 -2 2 3 -3
13 31 56 38 49 5 -5 6 12 6 76 -1 52 -3 70 -8 64 -8 -7 -40 49 -34 59 3 6 1 7
-4 4 -14 -9 -65 32 -56 46 4 6 0 8 -11 4 -16 -6 -88 21 -94 36 -2 4 -7 5 -12
2 -4 -3 -22 0 -39 6 -24 8 -31 16 -26 28 5 12 4 13 -6 4 -21 -21 -76 20 -144
110 -23 32 -26 40 -14 48 11 7 11 9 -4 9 -16 0 -33 28 -41 69 -2 9 -6 23 -10
32 -4 8 -8 29 -9 45 -1 16 -5 34 -10 39 -29 38 -53 82 -50 92 2 6 -2 11 -9 10
-32 -1 -49 4 -43 13 5 9 -13 8 -77 -4 -10 -2 -27 13 -46 43 -38 57 -65 83
-120 111 -56 29 -134 24 -217 -15 -62 -29 -136 -42 -179 -31 -37 9 -93 71
-100 111 -5 25 0 49 16 87 40 94 27 148 -49 201 -50 34 -117 44 -158 22z"/>
<path d="M10750 15370 c-19 -10 -123 -109 -230 -220 -379 -392 -364 -374 -376
-449 -5 -29 -1 -55 11 -86 l17 -45 -36 -41 c-28 -33 -39 -60 -56 -132 -23
-103 -47 -144 -103 -180 -37 -24 -70 -34 -251 -76 -134 -31 -215 -93 -232
-179 -5 -25 -3 -32 10 -32 10 0 16 8 16 23 0 22 22 61 51 90 34 33 97 57 226
86 144 32 182 48 231 95 44 41 59 71 77 156 17 81 27 104 62 142 l25 26 35
-24 c63 -43 147 -43 208 -1 16 11 57 49 90 83 33 34 150 155 260 268 110 114
208 220 218 235 10 16 20 51 23 78 8 69 -33 147 -95 180 -55 29 -131 30 -181
3z"/>
<path d="M4830 14965 c0 -32 8 -46 55 -93 30 -31 56 -63 56 -71 4 -58 -12 -88
-100 -177 -93 -95 -112 -163 -71 -244 11 -22 20 -41 20 -43 0 -3 -33 -7 -72
-11 -40 -4 -93 -9 -118 -12 -45 -6 -45 -5 -58 30 -7 20 -33 52 -57 72 -61 50
-67 84 -30 190 22 63 27 90 21 123 -7 43 -29 86 -56 109 -41 34 -115 57 -146
45 -27 -10 -14 -20 36 -27 79 -10 140 -75 140 -148 0 -18 -12 -66 -27 -108
-36 -103 -29 -137 43 -206 58 -56 71 -94 32 -94 -47 -1 -144 -12 -174 -20 -29
-7 -31 -6 -31 16 0 38 -36 87 -81 112 -35 19 -64 25 -171 31 -162 10 -180 19
-238 122 -51 89 -107 143 -167 158 -64 16 -106 14 -106 -4 0 -10 10 -15 33
-15 88 0 154 -43 201 -132 71 -132 100 -149 271 -158 163 -9 215 -35 229 -113
4 -22 -2 -34 -26 -55 -36 -32 -67 -89 -70 -130 -2 -29 -4 -30 -60 -34 -49 -4
-67 -11 -116 -46 -136 -100 -129 -97 -212 -97 -76 0 -79 1 -223 74 -123 63
-156 75 -207 79 -67 5 -135 -15 -164 -47 -28 -31 -1 -34 41 -5 34 23 46 25
109 22 66 -3 83 -9 216 -77 123 -63 153 -74 209 -78 78 -6 132 13 207 75 64
54 103 72 154 72 41 0 45 -3 56 -33 13 -37 74 -103 103 -112 17 -6 18 -9 5
-34 -17 -32 -39 -44 -127 -71 -67 -20 -118 -58 -120 -89 0 -9 -2 -24 -4 -34
-2 -10 5 -48 16 -85 34 -119 28 -138 -69 -227 -42 -39 -61 -63 -57 -74 5 -18
-84 -242 -113 -280 -23 -31 -116 -79 -173 -89 -58 -11 -100 -1 -162 39 -94 59
-128 72 -188 71 -54 -1 -57 1 -62 26 -8 39 -48 94 -84 117 -26 16 -32 27 -33
56 0 68 51 109 160 128 36 7 90 16 120 22 90 15 125 46 175 152 59 126 95 159
188 175 54 10 49 27 -7 26 -89 -4 -156 -63 -204 -182 -48 -117 -84 -140 -242
-157 -113 -13 -173 -44 -206 -107 -8 -15 -14 -38 -14 -53 l0 -25 -115 0 c-101
0 -115 2 -115 17 0 19 48 93 60 93 14 0 40 67 40 103 0 19 -13 59 -31 91 -38
72 -47 141 -26 183 24 45 71 80 117 88 49 8 49 31 0 27 -81 -7 -150 -77 -158
-162 -4 -42 1 -61 32 -126 44 -92 46 -131 9 -176 -15 -18 -30 -35 -34 -38 -11
-9 -39 -69 -39 -85 0 -13 -18 -15 -119 -15 l-119 0 14 47 c30 100 7 157 -99
240 -94 74 -112 97 -112 149 0 34 7 49 38 83 49 54 62 88 47 120 -9 19 -13 22
-20 11 -4 -7 -6 -19 -3 -26 6 -16 -13 -52 -45 -84 -27 -27 -52 -79 -52 -108 0
-40 47 -103 121 -162 107 -84 129 -139 93 -230 l-16 -40 -160 0 -160 0 4 30
c8 55 -28 99 -126 156 -90 52 -118 82 -130 145 -9 43 -44 77 -102 98 -89 34
-106 48 -102 90 2 27 -1 36 -12 36 -10 0 -16 -12 -18 -37 -4 -48 27 -79 110
-109 60 -23 98 -57 98 -91 0 -30 36 -91 67 -114 16 -12 57 -36 91 -53 34 -17
68 -41 76 -54 33 -51 21 -102 -32 -138 -23 -16 -47 -45 -60 -71 l-21 -46 -86
18 c-98 20 -175 18 -231 -5 -21 -8 -77 -40 -125 -71 -159 -100 -216 -105 -364
-35 -103 49 -167 63 -216 47 -33 -11 -40 -35 -9 -28 58 13 115 1 213 -45 90
-42 110 -48 167 -48 75 1 124 20 240 94 125 81 164 88 327 61 l81 -13 6 -41
c6 -37 19 -64 58 -118 9 -12 9 -22 0 -42 -21 -46 -54 -58 -169 -63 -65 -3
-117 -10 -134 -19 -32 -16 -64 -57 -105 -133 -33 -63 -60 -83 -106 -81 -48 3
-52 2 -38 -15 7 -9 29 -15 50 -15 51 0 87 32 130 115 38 72 79 114 113 116 12
1 61 2 108 4 98 2 139 20 175 72 15 22 25 28 35 22 23 -12 66 -17 167 -18 55
-1 91 -5 87 -10 -3 -5 -12 -57 -20 -115 -8 -58 -22 -121 -32 -140 -21 -45 -76
-72 -156 -79 -81 -7 -110 -29 -193 -142 -54 -74 -102 -105 -161 -105 -43 0
-96 -28 -113 -60 -20 -37 1 -41 34 -5 28 29 40 35 77 35 73 0 122 32 192 126
70 95 106 118 201 128 122 13 158 60 182 243 7 57 16 108 19 113 4 6 84 10
201 10 l194 0 0 -29 c0 -43 -13 -71 -59 -121 -48 -52 -81 -110 -81 -140 0 -29
21 -67 69 -125 31 -38 41 -58 41 -85 -1 -48 -29 -81 -75 -89 -48 -8 -60 -31
-15 -31 67 0 120 53 120 120 0 38 -12 61 -61 120 -62 74 -61 121 6 190 58 62
85 109 85 154 l0 41 99 0 c97 0 98 0 114 -27 18 -31 61 -52 132 -62 119 -18
145 -55 124 -180 -16 -96 -3 -146 53 -199 45 -43 112 -80 136 -75 11 2 -9 20
-55 51 -40 26 -82 64 -94 83 -19 32 -21 43 -14 102 22 187 -2 226 -150 247
-60 9 -101 28 -114 54 -9 15 -4 24 23 47 35 31 76 97 76 125 0 21 52 32 102
20 20 -5 71 -30 114 -57 76 -47 81 -49 154 -49 64 0 85 5 136 30 l61 30 -44
-105 c-101 -239 -105 -252 -99 -303 6 -52 37 -111 66 -127 18 -10 18 -12 -2
-57 -20 -44 -20 -52 -8 -144 23 -173 2 -214 -168 -330 -62 -41 -126 -88 -143
-105 -54 -51 -89 -143 -75 -199 10 -41 26 -28 26 22 0 58 28 118 76 163 34 32
36 33 28 10 -5 -14 -9 -50 -9 -81 0 -99 76 -177 177 -180 49 -2 91 15 443 186
358 173 342 164 375 214 25 37 32 60 32 101 0 3 -3 25 -6 50 -7 45 -6 46 30
64 32 15 53 16 150 10 103 -6 116 -5 158 15 60 30 103 79 176 205 34 58 81
123 105 145 46 42 111 67 151 57 17 -5 24 -2 24 9 0 28 -90 22 -145 -10 -58
-34 -95 -78 -160 -188 -103 -178 -150 -213 -275 -207 -135 7 -165 4 -203 -14
l-38 -19 -27 26 c-35 34 -72 47 -131 47 -39 0 -85 -19 -296 -121 -138 -67
-269 -129 -293 -140 l-42 -18 34 35 c20 20 43 56 52 80 17 44 17 48 -2 209 -5
45 -2 70 10 99 14 35 18 38 43 31 71 -19 164 10 205 65 10 14 84 183 165 375
139 330 147 354 148 417 0 59 -3 70 -31 105 -39 49 -108 85 -154 81 l-36 -3
10 37 c8 28 5 55 -12 121 -12 47 -19 95 -17 108 7 37 49 66 127 90 73 21 128
62 128 93 0 12 11 16 48 16 26 0 71 3 100 6 51 6 52 6 52 -19 0 -45 17 -73 80
-133 63 -61 90 -100 90 -131 0 -10 -18 -47 -41 -82 -22 -35 -42 -76 -46 -91
-8 -44 15 -99 51 -121 38 -23 106 -26 106 -4 0 11 -11 15 -37 15 -42 1 -64 13
-81 47 -20 37 -14 68 28 132 66 101 59 151 -30 235 -26 24 -57 56 -68 71 -24
30 -29 83 -9 90 6 2 91 13 187 24 136 16 177 18 186 8 11 -12 37 -95 49 -156
18 -88 67 -155 123 -170 20 -6 65 -10 99 -10 79 0 105 -14 180 -95 89 -96 121
-111 251 -115 13 -1 33 -12 46 -26 29 -32 40 -32 34 0 -3 13 0 26 6 29 6 2 0
5 -14 5 -15 1 -30 5 -35 10 -6 6 -42 12 -82 14 -83 5 -99 13 -174 93 -94 99
-121 114 -206 114 -120 0 -168 34 -193 135 -5 22 -19 71 -29 110 -11 38 -18
72 -15 74 2 2 52 10 110 17 59 7 117 20 130 29 23 15 25 14 35 -8 6 -14 29
-34 50 -46 36 -21 47 -22 152 -15 146 9 152 6 222 -100 21 -32 52 -67 69 -77
32 -20 91 -25 115 -10 24 15 2 29 -38 24 -50 -7 -72 6 -114 69 -82 123 -100
132 -258 123 -115 -7 -116 -6 -147 20 -39 32 -39 39 -7 103 14 28 25 67 25 88
l0 39 83 25 c54 16 106 25 152 25 64 0 80 -5 180 -52 200 -95 249 -95 406 0
92 55 110 62 167 65 82 6 79 27 -4 27 -61 0 -59 1 -233 -101 -26 -15 -67 -28
-98 -31 -58 -6 -90 3 -231 68 -148 68 -202 72 -351 25 l-74 -24 -31 46 c-18
25 -46 53 -65 63 -41 22 -60 47 -60 79 0 42 24 73 100 125 85 58 114 96 124
162 8 59 24 77 96 113 69 35 80 49 87 105 4 36 1 46 -12 51 -23 9 -28 1 -18
-27 15 -39 -6 -67 -78 -105 -73 -38 -99 -72 -107 -137 -6 -56 -21 -77 -88
-121 -107 -72 -150 -134 -131 -194 7 -20 10 -20 -255 -48 l-56 -6 -23 47 c-18
36 -21 56 -16 92 7 53 27 83 95 145 114 104 120 190 19 276 -26 22 -41 51 -42
81 -1 8 -7 16 -13 18 -9 3 -13 -7 -13 -32z"/>
<path d="M9267 14858 c-163 -34 -253 -218 -179 -365 46 -89 141 -146 239 -142
230 9 331 291 160 445 -59 53 -145 78 -220 62z"/>
<path d="M13006 14764 c-122 -38 -184 -119 -191 -254 -10 -176 70 -369 204
-493 69 -63 123 -84 226 -86 99 -3 98 -2 110 -116 13 -121 32 -155 152 -255
42 -35 116 -74 198 -101 58 -20 90 -24 185 -24 106 0 119 2 173 28 41 20 66
42 89 75 112 163 42 472 -149 654 -62 59 -107 77 -213 84 -52 3 -99 9 -103 14
-5 4 -15 50 -22 103 -7 52 -21 109 -30 127 -40 78 -185 183 -311 226 -98 33
-242 41 -318 18z"/>
<path d="M12340 14434 c-179 -40 -211 -54 -268 -119 -36 -41 -43 -45 -62 -35
-12 6 -49 11 -82 11 -84 0 -160 -38 -210 -106 -53 -71 -67 -180 -33 -260 12
-30 12 -35 -6 -51 -31 -28 -59 -98 -63 -155 -5 -91 28 -167 96 -222 45 -37 74
-49 123 -53 17 -1 33 -3 38 -3 4 -1 4 -25 1 -54 -23 -197 166 -349 352 -283
26 9 46 11 55 5 54 -35 159 -39 228 -8 61 27 97 62 131 130 22 43 36 58 57 64
45 11 110 71 137 128 33 68 42 126 26 182 -11 38 -10 46 4 61 61 60 81 186 44
274 -38 92 -122 154 -223 165 -16 2 -32 4 -35 4 -3 1 -3 28 -2 61 10 166 -147
301 -308 264z"/>
<path d="M8396 13901 c-4 -6 -5 -15 -1 -20 10 -18 8 -110 -4 -139 -7 -15 -26
-36 -42 -46 -41 -24 -90 -16 -181 30 -93 47 -155 57 -207 33 -90 -40 -117
-197 -45 -261 11 -9 41 -25 69 -36 59 -23 82 -51 93 -112 6 -34 4 -54 -9 -80
-25 -51 -45 -65 -149 -110 -52 -22 -107 -52 -122 -67 -52 -50 -70 -127 -54
-243 7 -54 6 -55 -28 -80 -19 -14 -34 -27 -34 -30 2 -38 -4 -52 -19 -46 -15 6
-15 4 2 -14 10 -11 15 -20 12 -20 -3 0 0 -18 8 -41 8 -23 12 -46 8 -52 -3 -5
-2 -7 4 -4 10 6 48 -51 39 -60 -3 -3 3 -13 13 -22 22 -20 44 -71 31 -71 -6 0
-10 -5 -10 -11 0 -5 4 -8 9 -5 5 3 11 -2 14 -12 2 -9 8 -25 12 -34 5 -13 2
-18 -11 -18 -17 0 -17 -1 0 -13 14 -10 16 -23 12 -67 -2 -30 -5 -61 -5 -68 -1
-7 -5 -11 -10 -7 -6 3 -9 -3 -9 -12 1 -26 -20 -73 -32 -73 -6 0 -9 -4 -6 -9 7
-10 -28 -94 -35 -86 -3 2 -3 -11 -1 -31 2 -19 -1 -41 -7 -48 -7 -8 -8 -17 -3
-20 12 -7 22 -56 11 -56 -4 0 3 -12 16 -26 14 -15 22 -31 19 -36 -3 -4 -2 -7
3 -6 14 4 53 -22 53 -35 -1 -7 -9 -22 -19 -33 -15 -19 -27 -22 -89 -21 l-71 1
-14 37 c-8 20 -13 58 -11 85 l3 49 -10 -44 c-8 -33 -8 -56 1 -84 6 -21 10 -40
8 -42 -2 -2 -28 -13 -58 -24 l-55 -21 -17 20 c-12 16 -15 33 -11 73 3 39 1 57
-12 72 -16 20 -16 19 -5 -3 7 -14 9 -44 5 -77 -5 -40 -3 -59 8 -75 14 -20 13
-24 -24 -57 -21 -19 -43 -32 -48 -29 -5 3 -12 24 -16 47 -4 22 -17 50 -28 63
-12 12 -16 15 -10 6 7 -9 17 -40 23 -69 5 -29 12 -56 15 -61 3 -5 -3 -25 -12
-44 -13 -25 -22 -34 -33 -29 -8 4 -37 8 -64 8 -44 2 -53 6 -84 41 -19 21 -29
30 -21 19 39 -58 62 -75 105 -75 56 0 68 -16 54 -70 -10 -37 -14 -41 -33 -35
-61 18 -104 17 -146 -5 -24 -12 -41 -23 -39 -25 2 -3 24 5 47 17 39 19 48 20
89 9 63 -16 70 -24 74 -82 2 -39 0 -50 -13 -54 -9 -3 -35 -31 -58 -63 l-42
-57 48 53 c27 28 53 52 60 52 7 0 21 -21 33 -47 11 -26 32 -62 46 -80 l25 -33
-26 -47 c-25 -46 -20 -42 20 11 l18 24 38 -28 c21 -15 52 -33 69 -40 22 -9 29
-17 25 -29 -4 -9 -8 -43 -10 -76 -2 -33 -2 -46 1 -30 2 17 9 50 16 73 11 42
13 44 41 38 16 -3 43 -6 60 -6 29 0 30 0 24 -47 -4 -27 -9 -61 -12 -78 -3 -16
3 -3 15 30 11 33 20 67 20 77 0 11 12 18 43 23 23 4 61 15 85 26 48 20 49 19
55 -46 3 -31 4 -26 5 19 2 48 7 64 30 90 l28 33 38 -33 38 -33 -17 -44 c-9
-25 -15 -55 -12 -68 4 -22 4 -21 6 4 1 34 29 97 43 97 5 0 22 -7 37 -15 16 -8
47 -17 70 -21 41 -7 41 -7 43 -53 l1 -46 4 42 4 41 62 7 c34 4 82 16 106 26
24 10 47 19 50 19 4 0 20 -27 36 -60 37 -77 43 -72 9 8 l-27 61 57 56 c31 31
56 61 56 66 0 5 24 -2 53 -16 52 -26 45 -15 -12 17 l-30 16 20 51 c10 28 19
65 19 82 0 29 1 30 33 24 71 -15 79 -14 27 3 l-55 18 -6 49 c-4 28 -12 63 -18
78 -6 16 -11 32 -11 37 0 5 31 19 70 31 91 30 83 37 -10 9 -40 -12 -73 -20
-74 -18 -1 2 -13 18 -25 36 -13 18 -46 51 -73 73 l-50 39 37 35 c20 19 42 35
49 35 7 0 23 12 37 28 l24 27 -25 -21 c-14 -11 -40 -27 -58 -34 -18 -7 -43
-25 -56 -40 -16 -20 -27 -25 -37 -19 -8 5 -38 13 -66 19 -29 6 -53 15 -53 19
0 4 11 18 24 30 29 27 56 81 55 108 0 10 -6 2 -12 -19 -7 -20 -31 -57 -55 -82
-33 -36 -49 -46 -75 -46 -28 -1 -92 -20 -149 -45 -15 -6 -18 -2 -18 30 0 21
10 54 21 74 l21 36 -25 -30 c-26 -30 -44 -95 -32 -115 4 -6 -7 -26 -24 -46
-17 -19 -31 -40 -31 -46 0 -6 -16 7 -36 31 -20 23 -59 53 -88 68 -28 14 -53
27 -55 29 -2 1 7 17 19 33 22 32 47 39 68 21 6 -6 10 -7 7 -3 -9 12 49 31 63
20 8 -7 12 -5 12 6 0 13 32 35 37 25 0 -2 11 10 23 25 19 23 24 26 38 15 14
-11 14 -11 5 6 -12 22 10 56 37 56 12 0 12 2 2 9 -12 7 -12 12 -1 30 8 11 21
21 29 21 12 0 12 2 2 9 -18 11 5 61 27 61 12 0 13 2 3 9 -13 8 -7 61 7 61 3 0
6 16 7 36 0 20 7 40 15 45 10 6 11 9 1 9 -13 0 -12 55 1 77 4 6 3 14 -2 17
-11 7 -9 56 3 75 6 9 5 12 -1 8 -6 -4 -13 7 -16 26 -2 17 0 35 5 38 5 3 2 9
-7 13 -12 4 -16 15 -13 36 2 16 1 27 -3 25 -12 -8 -19 38 -7 52 8 10 7 12 -4
8 -11 -4 -19 3 -27 26 -6 18 -9 34 -7 36 2 3 -5 14 -16 25 -11 11 -17 26 -14
34 3 8 -1 14 -9 14 -13 0 -31 36 -27 53 1 5 -1 6 -6 3 -5 -3 -19 5 -31 18 -12
13 -19 26 -14 28 4 3 3 3 -4 2 -18 -4 -63 20 -63 34 0 14 -17 16 -22 2 -2 -6
-14 -4 -31 5 -15 8 -25 9 -21 3 5 -7 -3 -9 -25 -6 -17 2 -31 1 -31 -4 0 -13
-17 -9 -18 5 -15 125 -14 157 8 201 26 55 51 73 153 116 85 35 130 68 151 109
48 91 6 205 -86 233 -57 17 -98 58 -99 100 -3 74 21 129 66 154 44 23 97 15
193 -32 130 -63 211 -55 251 24 27 55 15 219 -13 173z"/>
<path d="M7849 13873 c-1 -5 0 -17 1 -27 1 -10 -4 -40 -11 -65 -18 -63 -82
-124 -194 -186 -52 -29 -114 -73 -145 -105 -71 -70 -85 -112 -74 -224 4 -45 6
-94 5 -111 -4 -42 -30 -88 -46 -81 -72 27 -156 11 -207 -39 -23 -23 -86 -144
-202 -387 -154 -322 -169 -358 -169 -408 -2 -165 199 -250 316 -134 24 24 83
137 199 382 92 191 169 364 173 383 9 48 -10 113 -44 151 l-28 32 19 44 c18
39 19 57 13 156 -4 70 -3 121 4 138 19 51 85 110 191 171 128 75 191 135 214
203 16 49 13 114 -5 114 -5 0 -10 -3 -10 -7z"/>
<path d="M6111 13844 c0 -11 3 -14 6 -6 3 7 2 16 -1 19 -3 4 -6 -2 -5 -13z"/>
<path d="M6245 13836 c-6 -10 -30 -16 -65 -17 -37 -2 -67 -10 -92 -26 -26 -16
-38 -19 -39 -11 -1 7 -4 4 -8 -7 -4 -11 -17 -42 -30 -68 -23 -48 -23 -48 -44
-30 l-22 18 21 -25 c12 -14 24 -37 27 -51 6 -24 4 -26 -35 -27 -23 -1 -47 -7
-52 -12 -13 -13 -24 -13 -29 3 -2 7 -4 7 -3 -2 1 -8 -12 -27 -27 -43 -27 -27
-29 -27 -60 -12 -28 13 -30 13 -13 0 10 -8 24 -17 29 -19 14 -4 -11 -67 -26
-67 -6 0 -25 12 -41 28 l-31 27 29 -32 c17 -18 36 -33 43 -33 9 0 13 -11 11
-30 -3 -34 -2 -34 -31 -19 -21 10 -21 9 -3 -5 10 -8 22 -17 26 -18 13 -5 22
-48 11 -48 -6 0 -20 -9 -31 -20 -11 -11 -16 -20 -11 -20 5 0 14 7 21 15 17 20
37 19 49 -2 8 -14 4 -23 -17 -41 l-27 -23 28 17 c39 23 76 4 78 -40 1 -25 3
-27 6 -8 4 19 9 23 26 17 52 -15 95 -16 134 -2 39 13 43 13 48 -3 3 -9 17 -28
32 -41 l27 -24 -27 33 c-33 41 -34 56 -5 76 17 12 25 13 37 3 14 -10 14 -10 3
5 -11 14 -10 23 8 57 22 44 31 49 50 26 7 -8 17 -15 24 -15 6 0 -4 10 -21 23
-24 16 -33 30 -33 51 0 26 3 28 30 24 17 -3 30 -1 30 4 0 4 11 10 25 14 13 3
30 12 36 20 10 13 16 11 38 -8 l26 -23 -23 26 c-22 25 -22 26 -3 44 11 9 25
32 31 51 8 24 16 31 28 27 14 -5 14 -3 -2 9 -14 11 -17 24 -15 61 2 26 2 48
-1 49 -14 7 -51 69 -46 77 3 5 0 8 -7 8 -6 -1 -29 7 -50 18 -28 14 -36 23 -31
37 7 22 2 23 -11 4z"/>
<path d="M8817 13830 c-385 -123 -385 -691 1 -810 56 -17 93 -20 282 -20 183
0 228 3 277 18 182 57 293 215 293 417 0 183 -118 342 -293 397 -87 27 -475
26 -560 -2z"/>
<path d="M14589 13609 c-59 -9 -100 -30 -132 -68 -78 -93 -42 -315 72 -443 68
-76 93 -90 183 -99 44 -4 82 -10 84 -12 2 -2 8 -36 13 -76 14 -108 63 -169
189 -230 145 -72 311 -66 381 14 39 45 54 104 48 185 -8 111 -58 218 -138 298
-48 49 -86 65 -166 70 -81 5 -78 3 -88 90 -8 74 -17 93 -70 145 -98 94 -250
146 -376 126z"/>
<path d="M6001 13164 c0 -11 3 -14 6 -6 3 7 2 16 -1 19 -3 4 -6 -2 -5 -13z"/>
<path d="M8393 12984 c-50 -18 -122 -89 -145 -143 -22 -52 -19 -153 6 -206 25
-51 79 -103 133 -127 162 -72 357 55 355 232 0 99 -57 191 -144 236 -45 23
-152 28 -205 8z"/>
<path d="M11220 12972 c-83 -28 -158 -69 -176 -98 -33 -50 -15 -123 38 -150
39 -20 51 -18 138 21 83 38 135 44 178 21 37 -19 61 -47 122 -141 105 -161
160 -200 285 -200 67 0 88 4 130 26 199 103 216 110 260 111 63 1 103 -33 181
-150 73 -111 114 -156 169 -182 86 -41 180 -30 308 37 53 28 73 45 85 72 9 20
17 37 18 39 1 2 17 -4 35 -14 48 -24 146 -21 263 10 l98 26 56 -50 c30 -27 75
-59 99 -70 47 -22 129 -31 180 -19 30 6 36 3 79 -47 47 -56 118 -102 129 -84
3 5 -12 18 -33 29 -39 20 -118 106 -105 114 5 3 40 10 78 16 52 9 83 9 119 1
27 -6 51 -8 55 -5 7 8 -20 25 -40 25 -10 0 -16 7 -15 17 1 12 -17 24 -59 41
-65 26 -152 31 -213 13 -26 -8 -39 -7 -56 4 -41 27 -111 46 -171 46 -52 1 -66
5 -106 35 -131 96 -196 99 -329 13 -80 -51 -81 -52 -96 -31 -8 12 -31 26 -52
31 -33 10 -45 7 -114 -25 -123 -58 -120 -60 -227 104 -63 95 -117 148 -190
184 -39 19 -62 23 -146 23 -110 0 -137 -9 -280 -89 -45 -25 -84 -39 -109 -40
-39 -1 -40 -1 -109 104 -121 182 -205 242 -347 247 -52 2 -92 -3 -130 -15z
m2051 -483 c32 -17 66 -41 76 -53 18 -21 18 -21 -2 -4 -36 30 -109 58 -155 58
-32 0 -66 -11 -117 -36 -40 -20 -78 -34 -85 -32 -10 4 96 77 132 91 39 15 95
6 151 -24z m0 -40 c27 -12 49 -25 49 -28 0 -4 -38 -17 -84 -29 -96 -25 -199
-28 -236 -7 -23 13 -24 14 -4 15 12 0 43 12 70 26 92 50 132 54 205 23z m306
-105 c62 0 76 -4 98 -24 14 -13 25 -27 25 -32 0 -4 -32 -8 -70 -8 -84 0 -133
20 -205 85 l-50 46 64 -33 c55 -28 76 -33 138 -34z m-23 50 c31 -11 44 -20 38
-26 -12 -12 -112 7 -138 27 -18 13 -16 14 17 15 19 0 57 -7 83 -16z m331 -45
c31 -12 55 -22 53 -24 -2 -1 -32 -5 -68 -9 -36 -3 -81 -10 -100 -16 -31 -9
-37 -7 -68 23 l-33 32 28 6 c59 14 133 9 188 -12z"/>
<path d="M5855 12938 c13 -54 12 -98 -5 -136 -34 -76 -91 -81 -224 -20 -145
67 -224 57 -270 -36 -22 -44 -24 -122 -5 -161 15 -28 33 -40 109 -75 57 -25
80 -62 80 -127 0 -80 -53 -131 -192 -183 -117 -44 -169 -145 -144 -284 3 -21
8 -42 11 -46 5 -9 -57 -66 -68 -62 -4 1 -7 -3 -6 -10 4 -32 -2 -48 -18 -48
-15 0 -15 -1 -1 -12 14 -12 25 -48 31 -100 1 -9 4 -15 8 -12 7 4 44 -66 41
-78 -1 -5 2 -8 7 -8 5 0 15 -15 22 -32 7 -18 14 -36 16 -40 2 -3 -4 -8 -14
-11 -15 -4 -14 -5 3 -6 26 -1 43 -59 22 -73 -9 -5 -9 -8 -2 -8 14 0 25 -48 12
-56 -4 -3 -6 -10 -2 -15 11 -18 -7 -69 -24 -69 -13 0 -14 -2 -4 -9 11 -6 10
-15 -4 -44 -10 -20 -22 -33 -27 -30 -6 3 -7 1 -3 -5 8 -13 -22 -92 -36 -92 -5
0 -6 -6 -1 -12 9 -16 5 -49 -9 -65 -7 -9 -7 -13 1 -13 6 0 11 -16 11 -35 0
-22 8 -44 20 -58 11 -12 18 -27 15 -35 -2 -7 -1 -10 5 -7 13 8 50 -17 50 -35
0 -13 1 -13 10 0 7 12 15 13 40 3 16 -6 28 -7 24 -2 -3 5 6 10 20 11 14 0 32
1 39 2 6 1 20 9 29 18 10 10 24 15 33 12 10 -4 13 -2 10 8 -8 20 20 42 42 34
14 -6 15 -4 6 5 -9 9 -8 17 4 35 8 13 19 21 25 18 5 -3 8 0 7 7 -6 28 11 58
29 52 13 -5 14 -3 6 6 -15 17 4 71 26 71 11 0 12 2 2 8 -10 7 -10 15 -1 38 7
16 13 40 14 54 1 14 3 31 4 38 0 7 6 10 11 7 6 -3 10 -1 10 4 0 6 -4 11 -8 11
-7 0 -8 54 -2 70 1 3 1 10 0 15 -9 36 -7 75 3 75 9 0 9 3 1 8 -15 10 -24 51
-13 58 5 3 2 12 -7 21 -9 9 -14 26 -11 39 2 13 1 25 -3 26 -13 5 -22 48 -11
48 6 0 11 4 11 10 0 5 -6 7 -14 4 -19 -7 -39 49 -23 65 9 9 8 11 -4 6 -18 -7
-44 39 -33 57 4 7 2 8 -4 4 -10 -6 -38 31 -35 45 1 3 -9 12 -23 20 -18 9 -24
19 -20 32 3 14 2 17 -6 9 -10 -10 -47 6 -68 28 -3 3 -36 5 -75 6 -69 1 -70 1
-76 30 -31 140 20 234 152 283 123 46 177 99 183 182 4 46 -13 101 -40 130 -9
10 -38 26 -65 35 -67 24 -91 52 -97 112 -3 36 1 59 17 90 41 80 103 86 242 21
151 -70 228 -53 259 56 11 40 8 114 -5 136 -12 18 -25 9 -20 -13z"/>
<path d="M13924 12901 c-48 -29 -71 -68 -120 -206 -46 -131 -157 -140 -242
-20 -23 32 -42 45 -42 29 0 -18 46 -77 82 -105 31 -25 50 -32 84 -33 75 0 112
40 161 175 14 41 35 87 46 103 53 76 166 63 225 -24 25 -38 24 -78 -5 -133
-56 -109 38 -240 166 -231 25 1 80 17 121 35 103 45 171 46 231 4 44 -31 109
-107 109 -127 0 -6 -3 -8 -7 -5 -3 4 -13 -2 -21 -14 -8 -11 -20 -18 -29 -15
-8 3 -12 2 -9 -2 8 -14 -24 -53 -37 -45 -9 5 -9 3 -1 -8 12 -16 -7 -85 -20
-72 -4 4 -2 -6 4 -22 9 -24 8 -31 -5 -41 -13 -10 -13 -13 -2 -17 18 -7 29 -57
13 -57 -7 0 -7 -3 1 -8 19 -12 34 -60 20 -66 -9 -3 -9 -5 0 -5 15 -1 48 -61
33 -61 -5 0 -10 -5 -10 -11 0 -5 4 -8 9 -5 13 8 34 -21 27 -39 -3 -8 -1 -14 5
-12 5 1 17 -11 27 -28 9 -16 25 -38 35 -49 10 -11 15 -27 12 -35 -3 -9 -3 -12
1 -8 10 9 65 -43 58 -55 -3 -4 0 -8 7 -8 22 0 58 -41 52 -59 -5 -13 -3 -13 7
-4 10 9 19 7 41 -9 15 -12 25 -26 22 -31 -3 -6 -1 -7 5 -3 18 11 61 -14 55
-33 -5 -12 -3 -13 6 -5 18 16 73 -5 66 -25 -4 -10 -2 -11 7 -4 7 5 19 8 26 7
6 -1 17 -2 22 -3 6 0 10 -9 10 -18 0 -14 2 -15 9 -5 11 18 59 5 64 -16 4 -14
5 -14 6 1 1 14 8 18 34 16 17 -1 40 2 50 6 9 4 24 4 33 1 8 -3 13 -2 10 3 -5
8 31 29 47 27 5 0 15 11 23 27 8 15 22 27 32 28 10 0 12 3 4 6 -6 2 -9 10 -5
16 9 15 10 127 2 121 -11 -6 -41 45 -33 57 3 6 0 9 -7 7 -23 -4 -68 32 -62 50
4 13 2 14 -4 4 -8 -11 -18 -10 -51 4 -23 9 -42 20 -42 26 0 5 -4 7 -8 4 -16
-9 -83 17 -78 30 3 8 -1 11 -10 7 -22 -8 -64 16 -57 33 3 10 0 12 -10 8 -17
-6 -43 31 -39 56 2 12 1 12 -6 2 -7 -10 -14 -5 -30 20 -20 30 -20 34 -4 40 15
6 14 7 -3 7 -22 1 -64 81 -42 81 9 0 9 2 1 8 -17 11 -35 82 -21 82 6 0 4 6 -4
13 -20 16 -61 86 -55 95 2 4 -8 8 -22 9 -15 0 -28 5 -29 10 -2 4 -25 6 -52 5
-46 -4 -51 -2 -65 25 -21 41 -84 101 -127 124 -58 29 -118 24 -221 -17 -74
-30 -98 -36 -142 -32 -114 9 -168 106 -116 208 24 48 25 90 3 133 -19 38 -35
52 -88 77 -51 25 -92 25 -131 1z"/>
<path d="M15594 12484 c-106 -43 -164 -128 -164 -240 0 -223 273 -338 430
-181 54 53 71 88 77 156 10 111 -40 204 -137 254 -73 37 -134 40 -206 11z"/>
<path d="M11123 12424 c2 -23 -3 -28 -44 -38 -40 -11 -48 -10 -57 3 -9 14 -11
13 -11 -5 -1 -15 -14 -29 -40 -42 -36 -19 -40 -19 -55 -4 -16 16 -17 15 -12
-8 5 -20 -3 -34 -36 -69 -37 -39 -42 -42 -54 -27 -7 10 -15 13 -18 7 -3 -5 0
-16 9 -24 12 -13 12 -20 -6 -56 -16 -34 -24 -41 -39 -36 -11 4 -20 2 -20 -4 0
-5 8 -11 17 -13 22 -4 29 -108 7 -108 -8 0 -14 -4 -14 -10 0 -5 8 -10 18 -10
22 0 65 -89 51 -106 -6 -8 -6 -14 0 -18 5 -3 11 -1 13 6 3 7 22 -3 50 -26 32
-27 44 -44 41 -57 -3 -10 0 -19 6 -19 6 0 11 6 11 14 0 10 16 7 66 -13 52 -20
64 -29 61 -43 -7 -25 10 -33 18 -8 9 28 29 25 43 -5 17 -38 15 -53 -15 -122
-19 -41 -35 -64 -50 -67 -11 -3 -28 -9 -36 -12 -10 -3 -18 2 -22 15 -3 11 -21
29 -40 40 -30 17 -34 25 -38 68 l-3 48 -2 -48 c-2 -44 1 -52 33 -80 19 -17 35
-38 35 -46 0 -22 -72 -79 -78 -61 -10 29 -75 89 -103 94 -72 14 -95 16 -74 7
11 -5 32 -10 47 -10 33 -1 91 -50 107 -90 11 -26 9 -33 -16 -69 -22 -32 -34
-41 -58 -40 -16 0 -55 -7 -85 -15 -65 -18 -44 -22 28 -6 72 17 84 10 66 -38
-7 -21 -13 -64 -14 -95 0 -48 -3 -58 -17 -59 -18 0 -104 -37 -92 -38 4 -1 25
5 47 13 48 17 66 8 76 -39 4 -16 14 -45 24 -62 16 -32 16 -33 -8 -50 -14 -9
-46 -39 -71 -66 l-47 -50 -7 32 c-18 82 -128 169 -224 179 l-46 4 3 54 c12
183 -161 320 -338 268 -30 -9 -66 -18 -80 -21 -66 -12 -149 -67 -177 -118 -10
-16 -15 -17 -54 -6 -121 34 -253 -29 -310 -146 -28 -57 -30 -162 -6 -209 14
-28 15 -34 2 -44 -8 -7 -26 -36 -41 -66 -79 -161 27 -366 194 -375 l41 -3 -6
-65 c-9 -112 46 -209 146 -259 50 -25 70 -29 120 -27 34 2 74 8 91 15 24 10
37 9 87 -10 129 -48 279 18 327 144 13 33 24 45 58 59 115 48 188 184 159 297
-12 47 -12 51 14 84 32 42 55 114 55 172 0 39 5 46 62 98 34 31 66 56 73 56 6
0 29 -18 50 -41 l40 -41 -55 -50 c-37 -34 -44 -42 -20 -27 19 13 47 34 61 46
l25 23 50 -25 c27 -14 66 -28 86 -31 37 -6 37 -7 23 -34 -8 -16 -22 -35 -31
-45 -9 -9 -14 -18 -11 -21 2 -3 21 17 40 43 20 27 44 49 54 49 10 0 30 3 46 7
25 7 27 5 27 -25 0 -18 3 -43 6 -55 5 -16 2 -23 -8 -23 -8 0 -32 -16 -54 -36
-26 -24 -29 -28 -7 -11 47 37 75 44 88 22 5 -10 24 -40 42 -67 l32 -49 -24
-37 c-13 -20 -34 -48 -47 -61 -23 -24 -23 -24 -1 -12 13 6 28 21 34 34 6 12
21 32 32 44 l20 22 31 -24 c37 -28 120 -65 146 -65 26 0 31 -11 21 -51 -5 -19
-12 -47 -15 -64 -10 -51 10 -5 24 53 12 51 13 52 48 53 21 0 46 2 57 4 11 2
34 6 50 9 28 6 32 3 52 -42 13 -26 23 -41 23 -34 0 7 -9 30 -20 51 l-19 38 22
10 c12 6 44 27 71 48 l50 38 19 -24 c68 -84 69 -85 56 -59 -6 14 -15 27 -18
30 -4 3 -17 19 -29 37 l-22 32 29 46 c17 26 33 60 36 76 8 34 6 34 80 9 79
-27 80 -19 3 11 l-63 25 -6 79 c-3 44 -9 92 -13 107 -10 34 10 41 106 34 l73
-5 -59 9 c-32 5 -61 11 -63 14 -2 2 -19 0 -38 -4 -32 -7 -36 -5 -55 25 -11 18
-31 44 -45 58 -30 29 -27 32 35 42 25 4 58 14 74 22 28 15 30 14 55 -18 32
-41 93 -99 105 -99 4 0 5 -11 2 -24 -3 -14 -2 -28 4 -31 5 -3 10 1 10 9 0 8 4
17 8 20 13 8 92 -15 92 -27 0 -5 8 -3 18 6 10 10 29 17 43 17 13 0 43 9 65 19
l42 19 38 -40 c62 -63 178 -136 256 -159 54 -17 87 -20 146 -17 99 7 158 34
282 132 112 89 192 134 252 142 42 6 44 5 93 -51 61 -68 143 -132 193 -149 34
-12 37 -16 38 -52 0 -21 -5 -64 -11 -94 -14 -70 -10 -122 14 -168 63 -122 255
-198 393 -156 11 3 42 -16 89 -55 88 -75 244 -153 359 -181 208 -52 431 -24
532 65 218 191 136 697 -158 976 -107 101 -146 117 -308 125 -59 3 -119 9
-131 14 -27 10 -31 26 -45 165 -15 144 -53 212 -181 320 -125 106 -301 183
-474 206 -283 37 -484 -68 -531 -278 -36 -161 -3 -363 87 -541 27 -52 49 -97
49 -99 0 -1 -10 -3 -21 -3 -24 0 -160 -63 -181 -83 -37 -37 -199 -153 -238
-171 -96 -43 -250 -21 -358 52 -96 64 -168 142 -132 142 6 0 10 -5 10 -11 0
-5 5 -7 10 -4 8 5 8 11 0 20 -8 10 -8 15 0 20 7 4 20 21 31 39 10 17 19 25 19
19 0 -7 7 -13 16 -13 13 0 14 3 4 15 -10 12 -10 24 1 60 12 40 29 61 29 35 0
-5 5 -10 10 -10 14 0 12 16 -3 32 -9 9 -14 36 -13 76 1 52 4 62 19 62 9 0 17
5 17 10 0 6 -8 10 -19 10 -14 0 -22 12 -30 44 -14 58 -14 66 4 66 8 0 15 5 15
11 0 7 -10 9 -25 7 -16 -4 -25 -1 -25 8 0 7 -9 29 -21 48 -12 20 -16 36 -10
36 6 0 11 5 11 11 0 6 -7 9 -15 5 -10 -4 -21 7 -35 34 -11 21 -25 42 -31 45
-7 5 -3 12 10 22 12 8 21 19 21 26 0 8 -3 8 -12 -1 -21 -21 -42 -12 -75 33
-38 51 -39 53 -15 72 15 13 14 13 -14 8 -25 -5 -35 0 -62 30 -18 19 -28 35
-22 35 5 0 10 5 10 11 0 6 -6 9 -13 6 -18 -7 -103 68 -88 77 19 12 13 28 -7
17 -14 -7 -27 -2 -59 25 -25 21 -40 41 -37 49 4 9 0 12 -14 9 -26 -7 -135 69
-121 83 8 8 7 13 0 17 -6 4 -11 2 -11 -3 0 -16 -12 -14 -78 16 -58 27 -60 29
-55 58 l6 30 -19 -23 -19 -23 -61 22 c-52 19 -61 25 -57 43 4 20 4 20 -10 3
-13 -16 -20 -16 -73 -4 -34 8 -53 16 -46 21 7 4 9 12 6 18 -5 7 -11 5 -20 -6
-10 -15 -21 -16 -71 -9 -52 8 -58 11 -56 31 2 12 -2 22 -7 22 -6 0 -10 -9 -10
-20 0 -18 -7 -20 -55 -20 -48 0 -55 2 -55 20 0 11 -4 20 -10 20 -5 0 -10 -9
-10 -20 0 -17 -7 -20 -45 -21 -25 -1 -51 -2 -57 -3 -7 -1 -14 9 -16 22 -5 31
-21 28 -19 -4z m140 -730 c11 -20 28 -17 20 3 -4 11 -3 14 6 9 7 -5 36 -9 64
-11 29 -1 60 -3 70 -4 14 -1 17 -6 12 -21 -7 -23 10 -27 19 -4 6 17 36 15 94
-6 25 -10 31 -16 27 -31 -7 -21 10 -27 18 -6 3 9 18 5 53 -14 43 -23 49 -30
48 -58 -1 -17 3 -31 7 -31 5 0 9 9 9 20 0 30 11 25 65 -31 46 -46 49 -51 33
-63 -10 -7 -18 -16 -18 -20 0 -12 23 -6 34 10 10 13 19 4 63 -53 31 -41 47
-72 42 -77 -5 -6 -9 -17 -9 -25 1 -13 3 -13 14 2 12 16 17 10 50 -53 l37 -71
-22 -18 c-14 -11 -48 -21 -86 -25 -56 -6 -67 -4 -104 19 -22 15 -63 32 -90 38
-27 6 -49 17 -49 23 0 14 39 50 70 64 24 10 24 10 -5 5 -17 -3 -44 -21 -62
-41 -20 -23 -43 -37 -65 -41 -18 -2 -37 -9 -42 -14 -18 -17 -22 -9 -22 44 0
38 -8 69 -26 107 -15 30 -25 56 -23 58 2 2 25 10 52 17 26 7 39 14 28 14 -11
1 -37 -4 -58 -10 -35 -9 -39 -8 -69 21 -17 17 -41 38 -54 46 -21 15 -22 16 -6
57 9 23 23 49 32 57 8 9 28 31 45 50 23 27 18 24 -19 -10 -27 -25 -57 -63 -67
-86 l-19 -41 -60 21 c-51 18 -60 25 -60 45 0 13 16 41 35 62 19 22 35 45 35
52 0 6 -6 3 -12 -8 -7 -11 -27 -34 -45 -51 -20 -19 -33 -41 -33 -56 0 -24 -3
-25 -56 -27 -53 -1 -55 0 -48 22 3 12 13 34 20 49 17 32 18 72 3 99 -10 19 -8
19 53 13 37 -4 66 -12 71 -20z m2704 -849 l51 -6 11 -47 c6 -26 13 -76 16
-112 9 -99 14 -121 46 -177 16 -29 29 -56 29 -59 0 -15 -157 4 -203 25 -65 28
-134 100 -143 148 -6 31 3 112 21 203 2 8 4 20 4 25 1 11 78 11 168 0z"/>
<path d="M11649 11443 c-13 -16 -12 -17 4 -4 9 7 17 15 17 17 0 8 -8 3 -21
-13z"/>
<path d="M11610 11420 c-9 -6 -10 -10 -3 -10 6 0 15 5 18 10 8 12 4 12 -15 0z"/>
<path d="M11786 11285 c-11 -8 -15 -15 -9 -15 6 0 16 7 23 15 16 19 11 19 -14
0z"/>
<path d="M10140 12386 c-116 -34 -202 -106 -252 -212 -91 -194 -7 -420 190
-512 50 -24 69 -27 157 -27 91 0 106 3 165 31 82 40 142 99 183 183 30 61 32
73 32 166 0 90 -3 106 -30 160 -63 128 -186 211 -325 220 -47 3 -92 0 -120 -9z"/>
<path d="M2100 12033 c0 -6 -16 -30 -35 -53 -19 -23 -35 -50 -35 -59 0 -26
-20 -41 -55 -41 -16 0 -45 -4 -63 -9 -36 -11 -39 -4 -21 48 6 18 9 34 6 37 -3
3 -13 -19 -23 -49 -14 -45 -24 -59 -54 -76 -20 -11 -56 -41 -78 -65 -36 -39
-42 -42 -54 -29 -7 9 -16 39 -19 67 l-6 51 -2 -48 c0 -26 5 -60 13 -75 11 -22
12 -38 3 -77 -6 -28 -11 -51 -12 -52 -1 -1 -19 6 -41 17 -23 12 -67 21 -104
24 -71 4 -68 -2 -55 81 l5 40 -15 -45 c-8 -25 -15 -52 -15 -61 0 -9 -25 -25
-67 -42 l-68 -26 -24 22 c-13 12 -32 40 -42 62 -10 22 -19 35 -19 28 0 -24 22
-69 47 -95 l26 -27 -47 -46 c-46 -46 -47 -47 -72 -31 -13 10 -27 30 -30 45 -3
15 -17 41 -30 57 l-25 29 21 -35 c11 -19 20 -43 20 -53 0 -10 13 -32 29 -48
l29 -29 -21 -50 -21 -51 -47 51 c-25 28 -54 50 -65 49 -18 0 -18 -1 1 -8 11
-5 39 -32 63 -60 37 -43 42 -56 40 -91 -2 -36 -4 -40 -29 -40 -15 0 -41 -8
-58 -17 -24 -15 -35 -16 -58 -7 -58 23 -67 25 -33 5 42 -24 67 -26 110 -7 39
16 70 10 70 -14 0 -10 3 -31 6 -47 6 -29 5 -30 -40 -35 -59 -7 -87 -26 -125
-85 l-31 -48 30 35 c16 19 30 37 30 40 0 12 56 38 92 43 42 5 58 -4 86 -52 18
-29 19 -37 7 -55 -7 -12 -16 -41 -19 -66 -4 -32 -3 -39 3 -25 5 11 10 29 11
40 0 11 7 29 15 39 15 19 16 19 53 -16 20 -20 55 -46 78 -57 41 -21 41 -22 34
-66 -4 -24 -3 -42 2 -39 4 3 8 15 8 27 0 40 11 45 93 39 53 -3 77 -9 77 -17 0
-19 41 -148 45 -143 2 2 -2 26 -10 53 -8 26 -15 61 -15 76 0 24 6 29 50 44 27
9 54 14 59 11 5 -4 15 -31 21 -62 7 -31 13 -54 16 -52 4 5 -11 97 -20 118 -4
10 3 21 23 33 16 9 47 35 67 57 21 22 41 40 44 40 4 0 15 -16 25 -35 26 -48
31 -36 6 14 -19 35 -20 46 -10 84 l12 43 48 -15 c46 -14 49 -17 50 -51 0 -19
4 -44 9 -55 5 -13 7 -2 6 35 l-1 55 50 3 c28 2 63 6 79 10 28 8 31 5 59 -50
17 -32 32 -56 35 -54 2 3 -5 20 -16 38 -39 66 -38 73 20 107 29 16 69 48 87
70 l35 40 35 -26 c20 -14 50 -38 67 -52 17 -14 2 1 -32 34 l-63 60 19 35 c10
19 22 54 26 78 6 41 7 42 47 42 46 0 47 7 2 13 -28 3 -30 7 -41 73 -7 38 -14
76 -16 83 -2 10 12 19 47 28 l50 13 -57 -6 c-56 -5 -57 -5 -73 26 -9 17 -32
48 -51 69 l-34 39 67 62 c76 72 55 66 -26 -7 l-54 -48 -57 28 c-31 16 -76 31
-100 34 -40 6 -42 7 -36 35 3 16 20 49 38 74 17 24 28 47 25 51 -4 3 -7 2 -7
-4z"/>
<path d="M1891 12014 c0 -11 3 -14 6 -6 3 7 2 16 -1 19 -3 4 -6 -2 -5 -13z"/>
<path d="M1890 11980 c0 -5 5 -10 11 -10 5 0 7 5 4 10 -3 6 -8 10 -11 10 -2 0
-4 -4 -4 -10z"/>
<path d="M2483 11683 c9 -2 23 -2 30 0 6 3 -1 5 -18 5 -16 0 -22 -2 -12 -5z"/>
<path d="M16592 11595 c0 -16 2 -22 5 -12 2 9 2 23 0 30 -3 6 -5 -1 -5 -18z"/>
<path d="M16551 11520 c-17 -21 -34 -53 -37 -70 -5 -22 -12 -30 -28 -31 -11 0
-28 -2 -36 -4 -56 -12 -90 -17 -90 -14 0 2 7 26 15 53 8 27 15 59 14 70 -1 24
0 25 -28 -69 -18 -61 -26 -73 -56 -89 -20 -11 -56 -41 -80 -67 -44 -47 -45
-48 -57 -26 -6 12 -15 38 -19 57 l-7 35 -1 -35 c0 -19 7 -48 17 -65 16 -25 16
-34 6 -65 -7 -19 -13 -43 -14 -52 0 -16 -3 -15 -36 4 -23 14 -60 22 -106 26
l-70 5 6 36 c9 47 17 122 10 96 -32 -127 -39 -144 -63 -150 -14 -4 -41 -14
-61 -24 -36 -17 -37 -17 -65 6 -15 13 -36 45 -46 71 -20 52 -24 47 -8 -11 5
-20 21 -48 34 -62 14 -13 25 -26 25 -29 0 -3 -20 -25 -43 -49 -37 -37 -47 -42
-65 -34 -13 6 -27 26 -33 47 -6 20 -20 47 -30 61 l-20 24 15 -35 c8 -19 20
-49 26 -66 6 -17 21 -37 34 -43 l22 -12 -24 -51 -24 -51 -44 46 c-44 48 -75
62 -115 54 -16 -3 -11 -5 14 -6 39 -1 49 -9 117 -87 20 -23 24 -38 22 -70 -3
-35 -6 -41 -22 -37 -10 3 -37 -5 -58 -17 -38 -21 -41 -22 -72 -6 -47 23 -62
20 -17 -4 44 -24 66 -25 93 -5 20 15 60 20 67 8 3 -5 8 -30 12 -57 6 -35 5
-47 -3 -42 -36 22 -142 -43 -173 -107 -6 -13 -1 -10 13 8 49 64 83 83 148 84
32 0 37 -4 57 -44 20 -41 21 -47 8 -72 -8 -16 -15 -38 -15 -50 0 -12 -4 -33
-10 -48 -6 -15 -6 -24 -1 -20 5 3 12 20 16 38 9 44 26 87 35 87 4 0 24 -15 44
-34 21 -18 55 -41 76 -51 l38 -17 -3 -57 c-4 -47 -3 -49 3 -16 11 60 16 64 59
54 21 -5 54 -9 73 -9 l35 0 29 -91 c15 -49 30 -88 33 -86 2 3 -5 32 -17 66
-11 33 -20 73 -20 88 0 25 5 30 55 44 53 16 56 16 65 -2 6 -10 13 -39 17 -64
3 -25 10 -48 16 -52 6 -3 8 -2 5 3 -3 5 -9 33 -12 63 -4 30 -11 60 -17 67 -7
9 0 18 25 33 19 12 50 39 69 60 38 42 43 41 76 -14 11 -18 11 -18 5 5 -3 14
-13 33 -22 43 -12 14 -13 22 -4 43 7 13 12 34 12 46 0 13 5 18 14 15 8 -3 32
-11 54 -16 34 -10 39 -14 35 -35 -5 -26 13 -92 27 -101 5 -3 2 13 -7 34 -9 22
-13 51 -9 64 5 21 13 25 68 30 35 3 70 8 78 11 11 4 25 -12 48 -54 18 -33 35
-60 38 -60 3 0 -5 19 -19 43 -43 74 -43 81 3 102 23 10 63 41 90 68 l49 49 63
-47 63 -47 -59 55 -60 54 17 35 c9 18 22 55 28 80 l13 47 50 4 51 3 -52 2 -53
2 0 38 c0 22 -6 60 -14 85 -10 34 -11 47 -3 48 7 0 39 7 72 15 58 13 58 14 13
9 -27 -2 -58 -7 -71 -10 -19 -5 -28 1 -52 37 -16 24 -41 55 -57 69 l-28 27 65
61 c36 34 63 61 61 61 -3 0 -35 -25 -70 -55 l-65 -55 -63 30 c-35 17 -73 30
-85 30 -55 0 -62 35 -19 95 48 66 46 76 -3 15z"/>
<path d="M3841 11540 c-105 -22 -156 -95 -154 -220 2 -121 53 -237 140 -322
49 -47 99 -68 165 -68 29 0 59 -4 66 -8 6 -5 16 -40 21 -79 11 -86 16 -96 81
-157 147 -138 416 -164 499 -48 78 110 34 334 -92 463 -59 60 -98 79 -167 79
-76 0 -86 9 -94 82 -9 81 -29 120 -80 164 -109 94 -263 139 -385 114z"/>
<path d="M2478 11473 c6 -2 18 -2 25 0 6 3 1 5 -13 5 -14 0 -19 -2 -12 -5z"/>
<path d="M16152 11390 c0 -14 2 -19 5 -12 2 6 2 18 0 25 -3 6 -5 1 -5 -13z"/>
<path d="M16998 11213 c7 -3 16 -2 19 1 4 3 -2 6 -13 5 -11 0 -14 -3 -6 -6z"/>
<path d="M15540 11176 c0 -2 7 -7 16 -10 8 -3 12 -2 9 4 -6 10 -25 14 -25 6z"/>
<path d="M5880 11071 c-103 -32 -176 -120 -187 -226 -16 -153 116 -289 270
-279 224 15 321 287 158 442 -62 59 -165 86 -241 63z"/>
<path d="M2650 11064 c-8 -3 -24 -9 -35 -14 -11 -5 -34 -11 -51 -14 -63 -8
-134 -55 -176 -115 -13 -19 -19 -20 -43 -11 -110 42 -259 -21 -317 -134 -29
-56 -34 -141 -13 -205 16 -48 16 -52 -1 -68 -52 -53 -76 -163 -54 -245 13 -45
-3 -76 -57 -109 -30 -19 -42 -21 -96 -14 -160 20 -192 2 -216 -128 -12 -66
-24 -93 -50 -106 -14 -8 -22 -4 -40 19 -22 31 -88 70 -117 70 -14 0 -16 9 -12
59 3 47 12 71 39 113 49 76 59 102 59 161 0 61 -30 131 -94 221 -89 125 -110
196 -82 275 21 57 20 68 -3 47 -42 -38 -44 -153 -5 -228 9 -18 43 -70 74 -118
102 -150 110 -215 41 -325 -47 -75 -65 -127 -58 -171 4 -22 2 -34 -5 -34 -30
0 -99 -45 -118 -76 -25 -40 -56 -44 -105 -14 -42 26 -58 66 -70 170 -15 131
-51 183 -151 219 -93 34 -154 104 -154 176 0 16 -6 25 -16 25 -13 0 -15 -7 -9
-37 17 -91 67 -147 169 -188 102 -41 117 -65 140 -225 9 -58 22 -103 34 -119
28 -38 81 -71 107 -67 21 4 22 2 20 -97 -1 -121 -9 -128 -79 -68 -66 58 -113
63 -195 21 -119 -60 -212 -29 -235 78 -12 53 -30 52 -24 -2 9 -76 80 -136 160
-136 18 0 62 14 96 30 88 41 120 40 177 -10 39 -34 64 -45 95 -42 5 0 5 -205
1 -216 0 -1 -11 2 -22 9 -12 6 -43 11 -71 11 -63 -1 -105 -27 -161 -100 -48
-63 -98 -102 -133 -102 -12 0 -42 16 -65 36 -51 42 -84 57 -110 49 -29 -10
-23 -25 10 -25 19 0 45 -14 76 -39 26 -22 57 -41 69 -43 40 -8 87 13 126 55
122 132 126 135 163 142 26 5 51 2 80 -9 l42 -16 0 -140 1 -140 -32 0 c-48 0
-93 -38 -131 -110 -47 -87 -58 -98 -120 -116 -59 -17 -87 -45 -105 -106 -17
-57 -51 -90 -84 -82 -20 5 -26 3 -22 -7 2 -8 18 -15 34 -17 38 -4 76 32 92 86
18 60 48 91 99 103 55 14 82 40 123 118 64 119 112 134 183 58 24 -26 57 -51
74 -57 l30 -11 -14 -67 c-8 -37 -13 -99 -11 -138 3 -66 7 -77 60 -165 107
-177 112 -211 47 -351 -45 -98 -57 -157 -40 -201 13 -32 35 -26 25 6 -14 43
-4 90 37 180 23 50 44 112 47 137 5 55 -22 131 -74 210 -82 124 -93 175 -67
311 l14 77 40 5 c22 3 58 17 79 32 31 22 42 25 59 16 38 -21 51 -52 51 -126 1
-135 23 -176 125 -229 73 -39 90 -58 88 -107 -2 -43 13 -53 23 -14 15 59 -14
98 -105 146 -86 45 -101 71 -101 177 0 98 -17 145 -60 170 -21 12 -28 22 -23
32 4 8 9 64 11 123 4 106 4 109 25 103 12 -4 45 -9 72 -12 85 -9 140 -24 168
-47 22 -18 30 -36 41 -98 16 -96 34 -125 119 -189 81 -61 95 -81 107 -153 10
-64 26 -94 54 -101 32 -8 44 12 14 23 -29 11 -34 20 -43 87 -11 73 -28 98
-110 160 -90 68 -103 86 -114 168 -5 36 -17 79 -27 95 -23 39 -90 68 -174 76
-36 3 -80 11 -98 16 l-32 11 2 171 3 172 31 3 c26 3 43 -7 93 -48 108 -90 152
-93 241 -17 52 44 71 49 112 28 30 -15 36 -24 55 -91 4 -12 6 -12 14 3 26 46
-39 127 -101 127 -28 0 -82 -30 -123 -68 -43 -41 -92 -37 -152 13 -84 71 -94
76 -134 77 l-40 0 -3 87 c-2 48 1 88 6 90 40 17 64 65 81 165 3 21 18 50 32
63 23 24 29 25 86 18 114 -13 126 -13 154 2 15 8 42 27 58 43 l30 29 37 -39
c47 -49 86 -69 149 -77 43 -5 49 -8 43 -25 -3 -11 -6 -42 -6 -70 2 -179 167
-299 342 -248 25 8 47 13 50 12 3 -1 25 -9 50 -18 70 -25 140 -20 213 15 34
17 58 31 54 31 -4 0 4 12 18 27 14 15 33 47 42 70 14 34 26 45 59 58 114 43
192 197 158 312 -10 37 -10 44 6 58 32 29 63 116 63 177 0 133 -108 251 -239
260 l-40 3 0 70 c0 107 -48 184 -154 244 -25 15 -153 25 -180 15z"/>
<path d="M8491 10844 c0 -11 3 -14 6 -6 3 7 2 16 -1 19 -3 4 -6 -2 -5 -13z"/>
<path d="M1361 10804 c0 -11 3 -14 6 -6 3 7 2 16 -1 19 -3 4 -6 -2 -5 -13z"/>
<path d="M7795 10804 c-105 -22 -207 -85 -265 -165 -65 -91 -96 -241 -70 -350
31 -129 115 -236 230 -292 62 -29 72 -31 220 -36 85 -4 205 -4 265 -1 96 5
119 10 176 37 154 72 241 209 241 380 0 167 -71 297 -207 378 -76 45 -141 55
-365 54 -113 -1 -214 -3 -225 -5z"/>
<path d="M1720 10796 c0 -2 8 -10 18 -17 15 -13 16 -12 3 4 -13 16 -21 21 -21
13z"/>
<path d="M16930 10726 c0 -2 8 -10 18 -17 15 -13 16 -12 3 4 -13 16 -21 21
-21 13z"/>
<path d="M4991 10660 c-1 -16 -71 -23 -71 -7 0 5 -6 4 -14 -2 -7 -6 -27 -11
-42 -10 -16 0 -44 -4 -61 -9 -28 -9 -33 -8 -34 6 0 12 -3 10 -10 -7 -7 -19
-15 -22 -38 -19 -20 3 -27 0 -24 -8 5 -13 -42 -28 -57 -19 -6 4 -10 1 -10 -5
0 -16 -28 -42 -38 -36 -4 2 -14 -9 -21 -25 -7 -16 -16 -27 -21 -24 -4 3 -11
-11 -15 -31 -4 -25 -10 -34 -21 -30 -8 3 -14 1 -14 -4 0 -6 4 -10 9 -10 5 0 9
-11 9 -25 0 -14 -4 -25 -9 -25 -5 0 -9 -5 -9 -12 0 -6 3 -8 7 -5 3 4 14 -11
24 -33 10 -22 25 -43 34 -46 8 -3 15 -11 15 -18 0 -6 12 -12 27 -13 15 0 33
-9 40 -19 7 -10 13 -12 13 -6 0 7 15 12 35 12 21 0 35 -5 35 -12 0 -10 2 -10
8 -1 12 18 88 33 102 19 8 -8 11 -8 8 3 -3 13 14 20 59 25 13 1 26 6 30 9 11
12 61 8 66 -5 4 -9 6 -9 6 -2 1 14 79 0 96 -17 5 -5 17 -9 27 -9 10 0 18 -7
18 -16 0 -8 5 -12 10 -9 15 9 82 -34 74 -47 -4 -6 -2 -8 4 -4 12 7 74 -42 67
-54 -3 -4 1 -7 8 -7 23 2 97 -38 97 -52 0 -11 3 -10 13 3 7 10 22 16 33 14 17
-3 44 14 78 48 7 8 23 5 56 -10 34 -15 65 -21 126 -21 73 0 84 3 118 28 20 16
63 68 94 115 67 101 112 134 178 128 75 -7 118 -47 129 -121 14 -93 69 -136
165 -131 72 4 103 20 129 66 30 54 26 118 -17 256 -28 89 19 164 102 164 24 0
63 -7 86 -15 50 -18 50 -18 50 -5 0 17 -73 42 -125 43 -63 0 -108 -23 -129
-67 -22 -46 -20 -79 8 -176 29 -100 27 -172 -4 -205 -47 -49 -163 -52 -210 -5
-10 10 -24 46 -31 79 -17 89 -78 141 -162 141 -75 0 -125 -37 -193 -145 -21
-33 -47 -70 -58 -82 -51 -55 -188 -64 -263 -17 -20 13 -21 17 -10 42 6 15 16
30 22 34 6 5 5 8 -2 8 -15 0 -13 50 2 50 7 0 7 3 0 8 -6 4 -16 20 -23 36 -10
22 -10 32 -1 42 9 12 9 13 -4 9 -20 -8 -52 35 -34 47 9 7 8 8 -3 6 -23 -4
-109 72 -103 91 4 12 3 13 -5 3 -7 -11 -20 -7 -66 18 -31 18 -56 36 -56 42 0
5 -4 7 -9 4 -10 -7 -63 18 -56 26 3 3 -5 3 -18 1 -13 -3 -30 1 -38 9 -8 7 -18
13 -24 14 -5 0 -38 4 -72 8 -35 5 -66 8 -70 7 -4 -2 -10 6 -14 16 -6 13 -8 14
-8 3z"/>
<path d="M11139 10593 c-13 -16 -12 -17 4 -4 9 7 17 15 17 17 0 8 -8 3 -21
-13z"/>
<path d="M5350 10549 c0 -5 5 -7 10 -4 6 3 10 8 10 11 0 2 -4 4 -10 4 -5 0
-10 -5 -10 -11z"/>
<path d="M16366 10507 c3 -10 9 -15 12 -12 3 3 0 11 -7 18 -10 9 -11 8 -5 -6z"/>
<path d="M15619 10403 c-13 -16 -12 -17 4 -4 16 13 21 21 13 21 -2 0 -10 -8
-17 -17z"/>
<path d="M11802 10340 c0 -14 2 -19 5 -12 2 6 2 18 0 25 -3 6 -5 1 -5 -13z"/>
<path d="M4082 9979 c-57 -12 -108 -54 -135 -111 -62 -131 -290 -696 -295
-730 -6 -48 19 -116 57 -152 28 -27 28 -28 12 -59 -17 -35 -19 -91 -6 -204 14
-127 -20 -178 -190 -291 -49 -33 -102 -71 -116 -84 -71 -66 -109 -180 -75
-223 14 -19 15 -17 16 35 0 45 6 67 33 110 26 45 51 68 145 131 140 94 175
127 203 192 17 42 20 62 15 109 -18 167 -18 173 -2 209 l15 36 49 -10 c65 -14
130 10 173 62 20 23 84 163 181 396 139 335 149 364 146 412 -9 114 -115 195
-226 172z"/>
<path d="M5973 9968 c-6 -7 -12 -20 -16 -29 -3 -10 -20 -18 -42 -21 -35 -4
-36 -3 -30 26 l5 31 -13 -32 c-6 -18 -28 -44 -49 -58 -20 -13 -38 -30 -41 -37
-4 -10 -8 -10 -17 2 -9 12 -10 11 -5 -7 3 -12 3 -32 0 -46 -6 -23 -8 -24 -33
-12 -40 20 -82 20 -126 2 -37 -16 -40 -16 -60 0 -20 17 -20 17 -7 0 13 -16 11
-21 -13 -45 -26 -26 -27 -27 -42 -8 -7 11 -14 15 -14 9 0 -6 7 -16 15 -23 13
-11 9 -36 -11 -59 -2 -2 -15 10 -29 25 l-27 29 26 -36 c30 -42 34 -79 9 -79
-10 0 -25 -5 -33 -10 -11 -7 -6 -8 18 -4 29 6 32 4 33 -17 1 -13 1 -28 0 -32
-1 -4 6 -15 14 -24 11 -10 14 -26 10 -51 -4 -31 -4 -33 5 -14 l10 23 27 -26
c16 -14 36 -28 45 -31 11 -3 15 -11 12 -22 -5 -13 -4 -14 4 -3 13 19 89 5 95
-17 3 -12 5 -10 6 6 1 14 8 23 21 24 11 0 25 1 31 2 7 1 30 18 53 38 29 27 43
34 49 25 6 -8 7 -6 3 6 -3 10 -3 29 0 43 5 19 9 22 24 14 27 -14 105 -12 143
4 18 7 45 25 61 39 l30 26 30 -20 31 -21 -28 24 -27 24 16 48 c23 66 14 127
-25 183 -17 24 -30 47 -27 51 2 4 -6 8 -17 9 -12 0 -39 7 -59 14 -39 14 -48
35 -26 57 7 7 9 12 6 12 -3 0 -10 -6 -15 -12z"/>
<path d="M5651 9864 c0 -11 3 -14 6 -6 3 7 2 16 -1 19 -3 4 -6 -2 -5 -13z"/>
<path d="M6158 9803 c6 -2 18 -2 25 0 6 3 1 5 -13 5 -14 0 -19 -2 -12 -5z"/>
<path d="M5456 9777 c3 -10 9 -15 12 -12 3 3 0 11 -7 18 -10 9 -11 8 -5 -6z"/>
<path d="M13390 9730 c-98 -15 -164 -53 -252 -143 -114 -117 -231 -247 -251
-279 -88 -145 -74 -343 34 -476 134 -165 340 -213 525 -122 52 25 88 58 206
181 163 171 201 226 225 323 69 281 -196 561 -487 516z"/>
<path d="M3223 9681 c-144 -59 -207 -216 -140 -353 92 -188 347 -193 455 -10
23 40 27 58 27 122 0 63 -4 82 -27 121 -31 53 -77 95 -128 117 -47 21 -139 22
-187 3z"/>
<path d="M2670 9656 c0 -2 9 -23 19 -47 27 -60 31 -92 20 -134 -17 -61 -83
-81 -198 -59 -174 33 -263 -21 -257 -156 4 -98 61 -150 162 -150 42 0 51 -4
84 -39 79 -83 54 -173 -75 -276 -91 -73 -110 -104 -112 -187 -2 -60 2 -76 31
-132 33 -62 33 -64 15 -87 -10 -13 -19 -30 -19 -36 0 -7 -4 -13 -9 -13 -4 0
-6 -12 -3 -26 3 -16 -1 -30 -9 -35 -12 -7 -11 -9 1 -9 15 0 66 -77 62 -92 -1
-5 4 -8 11 -8 6 0 39 -27 72 -61 48 -48 57 -62 45 -69 -12 -8 -11 -10 6 -10
27 0 52 -49 32 -61 -10 -7 -9 -9 4 -9 20 0 27 -10 33 -47 3 -16 7 -43 10 -60
4 -23 2 -33 -6 -33 -9 0 -10 -3 -3 -10 10 -10 6 -80 -5 -80 -8 0 -6 -158 2
-166 4 -4 2 -13 -4 -21 -9 -9 -8 -13 0 -13 6 0 17 -12 24 -27 18 -40 61 -78
93 -81 16 -2 32 -9 36 -15 6 -9 8 -9 8 -1 0 7 11 14 25 16 14 3 25 1 25 -3 0
-5 4 -9 10 -9 5 0 7 6 4 13 -6 16 42 41 58 31 7 -4 8 -2 4 5 -8 12 16 41 34
41 6 0 8 4 5 10 -10 16 15 52 32 46 13 -5 13 -4 4 8 -13 16 0 61 21 69 10 4
10 6 1 6 -18 1 -16 26 3 45 8 9 11 16 5 16 -15 0 -4 62 12 72 9 6 9 8 -1 8 -8
0 -12 13 -12 38 1 20 -1 50 -5 66 -4 19 -1 32 7 37 9 6 9 9 1 9 -6 0 -17 16
-23 36 -10 30 -10 38 1 45 11 7 11 9 -2 9 -9 0 -19 10 -23 23 -3 13 -13 41
-23 63 -9 21 -16 45 -14 53 1 7 -2 10 -8 7 -5 -4 -12 2 -16 13 -3 10 -15 29
-26 42 -14 16 -18 31 -14 49 4 19 3 22 -5 10 -9 -13 -13 -12 -30 9 -11 13 -20
30 -20 39 0 8 -3 13 -6 9 -8 -8 -44 25 -44 40 0 7 -3 12 -7 11 -15 -4 -102 57
-103 72 -1 10 -3 11 -7 3 -5 -14 -50 -8 -67 8 -12 11 -29 12 -22 1 6 -11 -36
-9 -53 2 -9 6 -12 5 -7 -2 3 -6 -8 -17 -26 -26 -36 -19 -37 -18 -69 54 -19 42
-25 86 -21 153 2 29 70 105 144 161 50 37 92 122 85 172 -12 88 -67 140 -160
148 -71 7 -92 18 -112 56 -36 69 -21 158 30 190 41 25 85 27 201 10 80 -12 96
-12 130 2 58 23 79 58 78 126 0 57 -33 142 -54 142 -6 0 -10 -2 -10 -4z"/>
<path d="M5377 9589 c7 -7 15 -10 18 -7 3 3 -2 9 -12 12 -14 6 -15 5 -6 -5z"/>
<path d="M5435 9530 c-16 -7 -17 -9 -3 -9 9 -1 20 4 23 9 7 11 7 11 -20 0z"/>
<path d="M6020 9500 c6 -11 13 -20 16 -20 2 0 0 9 -6 20 -6 11 -13 20 -16 20
-2 0 0 -9 6 -20z"/>
<path d="M5771 9374 c0 -11 3 -14 6 -6 3 7 2 16 -1 19 -3 4 -6 -2 -5 -13z"/>
<path d="M5701 9334 c0 -11 3 -14 6 -6 3 7 2 16 -1 19 -3 4 -6 -2 -5 -13z"/>
<path d="M14325 9040 c-53 -12 -89 -37 -155 -107 -36 -38 -157 -165 -270 -281
-167 -172 -208 -220 -222 -259 -19 -53 -16 -113 9 -151 13 -21 12 -25 -12 -44
-34 -27 -59 -79 -75 -158 -26 -131 -82 -186 -190 -184 -55 1 -75 8 -255 88
-96 43 -164 47 -270 15 -115 -35 -118 -35 -134 1 -7 17 -32 45 -55 61 -63 44
-76 60 -76 94 0 40 27 75 88 116 98 66 122 100 137 189 8 45 18 56 79 87 69
34 106 70 106 104 0 38 -9 59 -26 59 -11 0 -13 -9 -8 -38 7 -44 -2 -54 -86
-100 -68 -38 -87 -62 -100 -132 -12 -62 -36 -92 -119 -146 -77 -49 -96 -77
-96 -141 l0 -53 -40 -1 c-22 0 -48 -2 -58 -4 -9 -2 -50 -6 -90 -10 -39 -3 -84
-8 -98 -11 -21 -3 -29 3 -48 37 -44 78 -25 143 68 234 66 64 101 123 101 172
0 32 -17 58 -75 116 -19 19 -38 49 -41 66 -7 31 -18 39 -29 21 -13 -21 17 -77
65 -125 77 -76 70 -116 -41 -228 -39 -39 -78 -86 -85 -104 -19 -43 -18 -102 2
-149 9 -22 16 -41 15 -43 -1 -6 -5 -6 -96 -15 -38 -4 -84 -9 -100 -12 -28 -4
-32 -1 -43 30 -7 19 -30 50 -52 69 -21 20 -43 45 -49 56 -17 31 -13 85 10 138
60 134 -6 264 -141 280 -43 5 -52 3 -48 -8 3 -8 23 -17 47 -20 74 -10 133 -71
137 -141 1 -27 -7 -65 -22 -102 -41 -100 -31 -153 40 -220 24 -22 47 -51 51
-63 7 -24 1 -26 -110 -38 -27 -3 -65 -8 -82 -11 -30 -6 -33 -4 -33 18 0 37
-40 91 -85 113 -30 15 -70 21 -160 25 -81 4 -131 12 -155 23 -33 16 -100 99
-100 124 0 24 -92 112 -133 128 -46 17 -132 17 -132 0 0 -5 25 -12 55 -15 92
-9 143 -48 192 -146 53 -107 117 -140 278 -143 107 -2 167 -22 195 -65 26 -39
22 -72 -15 -108 -38 -39 -55 -71 -64 -118 -6 -34 -8 -36 -51 -38 -59 -2 -99
-20 -160 -71 -127 -106 -181 -106 -390 -2 -77 38 -156 73 -175 76 -29 5 -36
11 -38 31 -4 50 -45 125 -90 164 -43 38 -119 70 -167 70 -21 0 -22 5 -22 68 0
53 -5 78 -25 117 -44 84 -121 139 -209 148 -50 5 -207 -31 -268 -63 -37 -19
-101 -82 -101 -100 0 -5 -17 -3 -38 4 -104 37 -227 -7 -296 -106 -32 -47 -39
-66 -43 -121 -4 -45 -1 -79 10 -111 l16 -46 -34 -50 c-37 -55 -51 -117 -41
-186 15 -115 116 -213 222 -217 41 -1 43 -2 37 -27 -13 -46 -4 -127 17 -173
60 -127 205 -188 332 -140 32 13 40 12 66 -1 51 -26 132 -31 193 -11 63 21
140 93 158 148 10 31 21 41 62 58 115 50 191 208 150 312 -9 24 -8 33 13 60
28 37 56 101 56 128 0 34 44 22 185 -50 224 -115 307 -117 427 -11 53 46 91
66 143 74 47 7 57 2 74 -41 16 -39 62 -89 90 -98 12 -3 21 -14 21 -24 0 -29
-41 -58 -113 -80 -89 -27 -124 -52 -138 -101 -10 -34 -9 -52 10 -122 14 -49
20 -94 17 -113 -7 -38 -63 -105 -111 -135 -31 -19 -48 -50 -27 -50 17 0 108
78 134 115 38 55 41 86 17 179 -23 91 -19 138 14 161 12 9 53 25 90 37 70 21
122 55 132 87 4 15 20 20 88 25 45 4 90 9 100 12 13 4 17 -1 17 -25 0 -49 14
-73 80 -136 70 -68 95 -112 81 -147 -5 -13 -25 -50 -45 -83 -40 -67 -46 -111
-19 -156 20 -34 73 -62 110 -57 39 5 42 28 3 28 -99 0 -129 82 -65 177 40 59
56 118 43 153 -5 14 -43 59 -84 101 -64 66 -74 82 -74 112 0 34 2 36 43 42 48
6 315 35 328 35 15 0 35 -51 58 -145 24 -100 56 -157 100 -179 16 -9 66 -17
113 -19 46 -2 93 -9 104 -15 10 -6 53 -45 94 -87 41 -42 84 -82 95 -88 11 -6
56 -14 99 -17 71 -7 82 -10 102 -35 24 -30 42 -19 24 15 -16 30 -58 47 -124
49 -32 2 -68 6 -80 11 -12 5 -55 43 -96 85 -41 42 -88 83 -105 92 -17 9 -62
17 -113 19 -56 2 -92 8 -109 19 -27 18 -66 98 -77 160 -4 22 -16 63 -26 91
l-17 51 108 11 c60 6 121 18 137 26 27 14 29 13 55 -19 29 -36 78 -56 125 -50
15 1 57 6 95 10 l67 7 0 -26 c0 -16 6 -26 15 -26 8 0 15 9 15 20 0 18 2 19 20
8 11 -7 39 -40 62 -73 71 -102 119 -130 179 -105 36 15 27 33 -13 25 -46 -11
-83 11 -129 78 -24 34 -56 74 -72 89 -33 32 -27 47 31 89 44 31 105 51 222 74
100 19 145 38 237 97 103 66 142 82 201 81 54 0 68 12 30 26 -35 13 -87 4
-151 -28 -44 -21 -56 -24 -51 -12 3 9 13 45 20 81 20 93 22 98 56 136 l30 34
28 -20 c48 -34 110 -45 166 -30 44 13 67 33 235 204 344 352 378 389 395 433
53 135 -73 285 -211 253z m-1130 -1145 c55 -27 123 -54 150 -60 l50 -12 -70
-13 c-141 -26 -193 -47 -250 -103 -45 -43 -60 -52 -92 -53 -21 -1 -73 -3 -115
-5 -66 -3 -80 -1 -105 17 -37 28 -40 49 -14 95 12 21 23 58 25 84 2 25 6 48 8
51 3 2 40 15 84 29 125 39 202 32 329 -30z"/>
<path d="M16078 9026 c-114 -47 -175 -102 -225 -206 -24 -48 -27 -67 -28 -155
0 -93 2 -105 32 -165 77 -153 199 -226 366 -218 100 4 173 35 245 102 197 185
143 512 -104 628 -89 42 -203 47 -286 14z"/>
<path d="M3053 8999 c-96 -17 -171 -80 -202 -169 -33 -92 -15 -180 50 -255
117 -133 336 -103 420 56 32 60 33 166 2 225 -55 103 -165 161 -270 143z"/>
<path d="M8428 8986 c-43 -12 -102 -48 -138 -85 -19 -19 -60 -102 -60 -120 0
-7 -6 -10 -12 -7 -60 24 -160 47 -218 50 -165 7 -271 -32 -446 -163 -31 -22
-32 -22 -65 -6 -19 10 -86 52 -149 95 -192 129 -271 161 -386 154 -90 -5 -194
-64 -155 -89 5 -3 29 5 53 17 23 12 50 24 58 26 75 15 172 -1 245 -40 22 -12
100 -61 173 -110 73 -48 137 -88 143 -88 21 0 6 -17 -36 -40 l-45 -25 -136 69
c-75 38 -159 75 -188 82 -68 18 -170 18 -234 -1 -56 -17 -65 -24 -53 -44 6
-10 20 -9 66 4 42 13 80 16 136 12 70 -4 91 -11 204 -65 69 -34 125 -66 125
-71 0 -12 -142 -7 -250 8 -83 12 -238 7 -252 -7 -20 -20 8 -42 42 -32 33 9
170 6 245 -6 50 -9 175 -10 270 -4 32 2 76 -5 120 -19 91 -29 162 -33 233 -15
71 19 116 45 212 123 104 85 152 112 213 117 62 6 77 -2 84 -47 12 -79 81
-165 162 -203 45 -21 55 -21 661 -21 l615 0 46 23 c81 40 144 122 163 214 l6
27 33 -33 c17 -19 61 -50 97 -69 144 -80 278 -86 460 -24 l104 36 48 -25 c110
-56 245 -63 364 -20 38 13 101 36 139 50 80 29 134 32 193 12 36 -13 41 -13
46 1 3 8 6 16 6 18 0 1 -18 10 -40 19 -79 31 -117 25 -365 -64 -96 -35 -231
-28 -315 15 l-33 17 79 35 c204 90 422 102 609 33 79 -29 101 -34 108 -23 10
16 -6 29 -63 51 -126 50 -293 70 -428 51 -73 -10 -186 -47 -278 -90 -51 -23
-68 -27 -84 -19 -20 10 -28 30 -12 30 4 0 54 38 112 85 116 94 191 130 292
141 121 12 261 -36 358 -123 40 -36 54 -43 60 -33 13 21 -5 45 -63 89 -76 57
-122 78 -205 97 -91 20 -194 14 -276 -16 -50 -19 -194 -113 -221 -144 -17 -21
-92 -76 -103 -76 -5 0 -47 18 -93 39 -122 57 -186 71 -304 66 -55 -2 -130 -10
-167 -18 l-68 -14 -21 41 c-28 56 -84 111 -138 138 l-46 23 -595 2 c-457 2
-606 -1 -642 -11z m-379 -205 c42 -1 35 -9 -26 -30 -27 -9 -88 -42 -138 -73
-49 -31 -109 -62 -132 -68 -43 -11 -111 -7 -153 8 -22 8 -21 10 25 46 101 77
248 126 355 120 19 -1 50 -2 69 -3z m2234 -15 c83 -26 170 -69 155 -77 -49
-26 -269 -36 -357 -15 -60 14 -120 38 -150 60 l-32 24 73 12 c40 6 80 13 88
15 30 8 176 -5 223 -19z m-2328 -102 c-62 -54 -77 -66 -124 -99 -93 -67 -188
-84 -304 -54 -38 10 -71 20 -74 23 -3 2 14 17 38 31 37 24 46 26 78 16 123
-36 211 -21 331 58 85 56 99 62 55 25z m2563 -17 c9 -10 -6 -19 -73 -41 -151
-49 -261 -46 -387 11 -62 28 -71 42 -16 25 106 -34 342 -29 408 9 22 13 56 11
68 -4z"/>
<path d="M14778 8575 c-50 -17 -64 -29 -240 -210 -406 -419 -399 -410 -400
-494 0 -27 8 -63 17 -80 16 -31 16 -33 -8 -51 -30 -24 -63 -91 -71 -145 -23
-149 -86 -206 -263 -241 -167 -32 -221 -53 -275 -111 -30 -32 -62 -99 -53
-113 11 -18 22 -10 28 20 8 39 68 104 120 128 23 11 92 30 152 42 230 45 284
94 325 293 8 42 21 67 46 94 32 33 35 35 52 20 52 -47 155 -56 216 -18 17 11
67 57 110 103 44 46 163 170 267 276 103 106 195 208 203 227 18 38 21 111 5
152 -33 87 -143 139 -231 108z"/>
<path d="M6333 8555 c-61 -19 -126 -59 -163 -102 -47 -53 -77 -125 -106 -255
-28 -125 -44 -157 -77 -159 -12 -1 -29 -2 -37 -3 -8 0 -33 2 -55 6 -93 17
-204 20 -256 8 -166 -39 -253 -146 -299 -370 -12 -58 -29 -116 -37 -129 -15
-23 -18 -24 -112 -18 -85 5 -101 3 -129 -13 -17 -11 -34 -31 -38 -45 -7 -30
-29 -32 -119 -10 -81 20 -119 19 -164 -5 -42 -21 -100 -83 -134 -142 -11 -21
-25 -38 -31 -38 -29 0 -119 -53 -166 -98 -44 -42 -60 -51 -103 -56 -63 -9
-133 -45 -183 -97 -52 -54 -35 -61 23 -9 58 51 104 75 161 85 47 8 47 7 28
-39 -13 -31 -19 -34 -82 -46 -105 -19 -203 -67 -188 -92 3 -5 13 -3 22 5 29
25 79 47 134 57 29 6 63 13 75 15 l21 5 -19 -53 c-10 -28 -32 -71 -49 -94 -22
-32 -26 -43 -15 -43 20 0 70 78 90 141 15 44 20 50 58 59 104 26 159 71 217
175 45 82 29 74 185 91 80 8 158 39 199 78 l34 32 24 -29 c17 -22 36 -31 73
-38 81 -13 188 -10 236 6 104 35 152 108 189 285 45 211 88 245 276 221 185
-24 254 -14 333 48 54 43 86 110 115 243 27 128 41 160 81 198 25 23 34 25
135 26 122 0 151 10 173 57 31 64 -4 130 -79 147 -57 14 -192 11 -241 -5z
m-1396 -1120 c36 -10 42 -14 23 -15 -37 -4 -51 -3 -97 3 -82 12 -168 -31 -226
-113 -11 -15 -9 -9 4 15 26 49 101 122 132 128 30 6 105 -2 164 -18z m15 -40
c28 5 38 4 34 -4 -11 -18 -88 -59 -131 -70 -43 -11 -195 -30 -195 -24 0 2 7
15 16 28 36 54 136 90 202 72 19 -4 52 -5 74 -2z m-369 -187 c-43 -80 -101
-133 -167 -154 -31 -10 -58 -15 -61 -12 -3 3 2 21 11 40 12 27 25 37 57 46 55
14 116 55 147 97 38 52 45 42 13 -17z m-49 11 c-32 -34 -99 -72 -116 -67 -19
7 107 96 136 98 6 0 -3 -14 -20 -31z"/>
<path d="M7827 8282 c5 -41 4 -44 -51 -96 -31 -30 -56 -60 -56 -68 0 -9 -13
-15 -35 -16 -32 -2 -35 0 -35 25 0 15 7 53 15 83 22 84 19 116 -6 50 -11 -30
-28 -78 -36 -107 -15 -50 -18 -52 -50 -51 -39 1 -40 9 -12 68 17 35 19 52 13
89 l-8 46 -6 -50 c-3 -31 -16 -65 -33 -90 -15 -22 -27 -45 -27 -52 0 -9 -16
-12 -52 -10 l-53 2 1 35 c1 19 5 49 11 65 5 17 6 44 2 60 l-7 30 -1 -35 c-1
-19 -13 -53 -26 -75 -14 -22 -25 -50 -25 -63 0 -20 -4 -23 -32 -20 -32 3 -33
4 -30 43 3 43 -26 127 -50 141 -10 6 -11 5 -2 -7 6 -8 16 -36 23 -62 10 -40 9
-53 -5 -82 -9 -19 -24 -35 -33 -35 -9 0 -32 -3 -52 -6 l-36 -6 -28 71 c-15 39
-31 71 -36 71 -5 0 -4 -10 1 -22 17 -42 31 -143 20 -146 -6 -2 -24 -15 -41
-29 l-30 -25 -37 26 c-36 24 -137 53 -126 35 2 -5 19 -11 38 -14 31 -6 96 -56
96 -75 0 -4 -8 -22 -17 -39 -17 -29 -22 -31 -77 -31 -41 0 -66 5 -80 17 l-21
17 20 -22 c11 -12 44 -28 73 -34 l53 -13 -4 -38 c-3 -21 -8 -42 -13 -46 -19
-17 -96 -41 -131 -41 -20 0 -34 -2 -32 -5 11 -10 86 -8 124 3 53 16 55 15 55
-8 0 -11 6 -36 14 -55 8 -19 11 -37 7 -40 -5 -2 -21 -31 -36 -62 -15 -32 -32
-61 -39 -65 -8 -6 -8 -8 1 -8 7 0 25 19 42 43 48 70 53 72 89 33 17 -19 41
-41 54 -50 l23 -16 -33 -26 c-37 -29 -62 -72 -62 -106 0 -18 5 -14 19 18 13
28 33 50 67 70 44 26 53 29 87 20 35 -9 38 -12 32 -35 -3 -15 -9 -60 -13 -101
-4 -41 -11 -82 -15 -90 -5 -8 -2 -7 6 3 8 9 17 43 21 75 4 33 17 74 30 97 23
38 26 39 81 40 l57 1 -8 -35 c-10 -49 -7 -77 11 -109 l14 -27 -5 35 c-3 19 -7
40 -9 46 -2 6 7 28 18 49 17 29 29 39 49 40 44 3 52 -8 44 -61 -4 -27 -9 -71
-11 -99 -4 -46 -4 -47 5 -15 5 19 21 67 34 105 l25 70 43 1 c24 0 49 -2 56 -4
16 -6 15 -50 -3 -102 -8 -23 -15 -54 -14 -69 1 -25 1 -25 8 4 4 17 17 49 29
72 12 23 22 56 22 72 0 26 3 29 23 26 12 -3 27 -12 32 -21 6 -9 22 -32 38 -51
15 -21 27 -49 28 -67 0 -26 2 -28 8 -11 9 23 2 56 -23 104 -10 18 -15 36 -11
39 11 11 135 9 136 -2 1 -6 1 -40 0 -76 0 -36 5 -87 13 -115 l14 -50 -5 85
c-3 60 0 97 10 125 l14 40 74 0 c41 1 82 -1 92 -3 27 -7 21 -56 -11 -94 -44
-51 -46 -72 -2 -28 44 44 60 70 60 98 0 11 6 22 13 24 10 4 67 3 87 -1 15 -3
31 -75 26 -118 l-6 -48 15 40 c9 22 15 60 13 85 l-3 45 68 -1 c76 0 77 -1 103
-74 9 -25 20 -54 24 -65 13 -31 0 53 -15 102 l-13 41 32 6 c17 3 48 15 68 26
l37 19 11 -34 c13 -41 63 -85 93 -85 19 1 17 3 -8 14 -32 14 -50 43 -59 98 -5
28 0 39 34 78 37 42 40 43 58 27 10 -9 24 -39 31 -66 14 -55 42 -87 86 -96
l30 -6 -32 15 c-37 17 -52 42 -58 94 -5 54 -21 89 -45 102 -23 12 -27 40 -6
40 8 0 22 -10 30 -21 20 -29 66 -59 91 -59 15 0 13 4 -11 16 -17 8 -37 27 -45
41 -7 14 -26 35 -41 48 -28 24 -37 58 -18 70 5 3 36 1 67 -4 116 -21 123 -21
123 -11 0 5 -10 10 -22 10 -13 0 -47 9 -76 20 -29 11 -64 20 -77 20 -36 0 -44
28 -15 52 23 18 33 22 102 33 21 3 50 17 65 31 l28 25 -27 -16 c-17 -10 -56
-19 -98 -21 -39 -2 -79 -8 -90 -14 -15 -8 -22 -4 -39 24 -12 18 -21 41 -21 50
0 26 28 62 70 90 22 15 40 32 40 39 0 8 -2 9 -8 1 -4 -6 -26 -21 -49 -33 -24
-12 -52 -34 -64 -51 -22 -29 -23 -29 -51 -12 -15 9 -28 25 -28 35 0 11 25 44
55 75 30 31 55 60 55 64 0 4 -9 -1 -19 -11 -11 -11 -34 -27 -51 -36 -17 -9
-43 -33 -58 -54 -22 -30 -32 -36 -47 -30 -11 4 -32 8 -48 8 l-27 1 21 42 c29
56 40 96 28 103 -5 4 -9 -2 -9 -13 0 -10 -17 -44 -37 -74 -36 -54 -39 -56 -83
-55 -25 0 -48 2 -52 4 -4 2 0 25 8 51 23 68 32 129 23 144 -6 8 -9 2 -9 -18 0
-16 -11 -52 -24 -80 -14 -27 -29 -61 -35 -75 -8 -23 -16 -27 -50 -27 -35 -1
-41 2 -42 21 -2 40 2 68 17 102 8 19 14 45 13 57 -1 22 -1 22 -8 -2 -5 -14
-18 -43 -30 -65 -12 -22 -24 -57 -28 -78 -5 -35 -8 -37 -39 -35 -43 3 -47 16
-40 131 3 65 2 80 -4 52 -4 -22 -13 -53 -19 -68 -6 -16 -11 -48 -11 -72 l0
-43 -52 1 c-48 2 -52 4 -60 32 -5 17 -3 52 3 83 6 30 9 55 7 58 -8 8 -50 -136
-45 -155 4 -17 -1 -19 -64 -18 -83 0 -86 9 -29 69 22 24 40 50 41 58 2 29 -3
65 -11 80 -5 9 -6 -2 -3 -28z"/>
<path d="M15798 8219 c-2 -6 -18 -12 -35 -13 -17 0 -29 -4 -27 -7 7 -11 -47
-41 -62 -35 -9 3 -12 1 -9 -5 9 -13 -42 -79 -61 -79 -8 0 -13 -4 -10 -9 7 -11
-39 -73 -47 -64 -4 3 -7 1 -7 -5 0 -16 -41 -52 -52 -46 -4 3 -8 1 -8 -4 0 -5
-12 -14 -26 -21 -20 -9 -30 -9 -40 0 -12 10 -13 8 -8 -6 5 -12 4 -16 -4 -11
-6 3 -13 2 -17 -4 -8 -13 -45 -13 -45 1 0 6 -7 3 -16 -5 -18 -19 -80 -21 -87
-3 -4 10 -6 10 -6 0 -1 -18 -57 -16 -75 3 -12 11 -16 12 -16 2 0 -12 -21 -17
-97 -22 -13 0 -23 -6 -23 -13 0 -7 -9 -17 -21 -23 -11 -7 -18 -14 -16 -17 3
-2 -1 -20 -9 -39 -8 -19 -11 -34 -7 -34 18 0 -24 -20 -42 -20 -31 0 -117 -44
-149 -76 -44 -44 -63 -95 -61 -162 2 -31 4 -82 5 -112 3 -63 -7 -93 -45 -138
-24 -28 -72 -48 -112 -45 -7 0 -20 1 -28 2 -9 0 -34 18 -58 39 -71 65 -117 71
-193 27 -75 -44 -104 -128 -68 -197 20 -38 33 -52 109 -113 86 -69 108 -101
102 -149 -5 -38 -52 -100 -68 -90 -4 2 -10 0 -14 -6 -3 -5 -24 -14 -45 -20
-48 -13 -55 -35 -9 -25 141 31 199 131 135 231 -9 12 -47 47 -85 76 -74 57
-121 117 -121 156 0 41 29 87 72 115 66 43 110 36 177 -29 64 -62 170 -52 233
21 40 46 48 110 35 260 -7 79 53 162 140 195 55 20 111 28 85 11 -11 -6 -10
-10 3 -15 11 -4 15 -13 12 -26 -3 -12 0 -20 8 -20 11 0 29 -27 25 -39 -2 -5
33 -25 93 -54 26 -12 45 -26 41 -30 -4 -4 -2 -7 4 -7 7 0 12 5 12 11 0 7 8 9
23 4 12 -3 39 -6 60 -5 24 0 37 -4 37 -12 0 -9 3 -10 8 -2 13 19 62 23 72 5 8
-14 9 -14 10 3 0 15 6 17 34 14 19 -2 32 0 30 4 -5 7 22 12 56 10 8 0 18 4 21
10 4 5 18 11 33 11 14 1 26 5 26 8 0 9 60 33 66 26 3 -3 17 6 32 20 15 14 34
22 44 20 10 -3 16 -1 13 3 -3 5 7 18 22 29 16 12 41 33 56 46 15 14 33 23 39
19 7 -5 8 -2 3 5 -8 14 33 63 46 55 5 -3 6 1 3 9 -3 8 6 23 20 34 14 11 23 23
20 26 -10 10 16 47 34 47 11 0 13 3 5 8 -6 4 -9 19 -6 34 3 15 8 26 12 24 4
-3 5 11 3 30 -3 24 0 34 9 34 11 0 11 2 1 8 -7 5 -14 22 -15 37 -1 16 -10 37
-20 48 -10 10 -16 25 -13 33 3 8 2 13 -3 10 -10 -7 -63 18 -56 26 3 2 -9 3
-25 0 -17 -2 -36 1 -44 7 -11 9 -15 9 -18 0z"/>
<path d="M16231 7734 c0 -11 3 -14 6 -6 3 7 2 16 -1 19 -3 4 -6 -2 -5 -13z"/>
<path d="M16407 7700 c-14 -16 -31 -45 -37 -65 -10 -30 -16 -35 -43 -35 -18 0
-48 -4 -66 -10 -19 -5 -37 -8 -39 -5 -3 2 2 29 11 60 8 30 12 57 7 60 -4 3
-10 -10 -13 -28 -11 -68 -33 -107 -78 -136 -25 -15 -59 -45 -77 -67 -31 -37
-32 -38 -47 -19 -8 11 -15 40 -15 64 0 24 -3 42 -6 38 -12 -12 -5 -89 11 -114
13 -20 14 -31 6 -55 -6 -17 -11 -42 -11 -55 l0 -24 -32 22 c-24 18 -51 25
-108 29 -41 3 -74 9 -73 15 0 6 4 33 7 60 l6 50 -18 -63 -17 -63 -60 -24 c-33
-14 -63 -25 -66 -25 -15 0 -68 65 -74 91 -4 17 -9 28 -12 25 -9 -9 19 -77 43
-103 l24 -26 -45 -45 c-42 -43 -46 -45 -70 -32 -14 8 -28 25 -32 39 -10 44
-32 80 -56 91 l-22 11 21 -18 c27 -22 44 -55 44 -82 0 -21 27 -55 50 -63 8 -2
5 -18 -11 -56 l-23 -53 -48 51 c-32 33 -56 50 -71 49 -22 -2 -22 -2 1 -6 12
-3 39 -27 59 -54 21 -27 41 -49 46 -49 4 0 7 -20 6 -45 -3 -41 -5 -45 -29 -45
-14 0 -36 -7 -48 -16 -23 -16 -55 -15 -97 1 l-20 7 20 -14 c29 -22 72 -27 92
-12 19 14 69 19 76 7 3 -5 8 -27 12 -50 6 -41 6 -43 -19 -43 -54 0 -103 -30
-146 -88 l-41 -57 48 52 c57 61 79 73 131 73 36 0 42 -4 65 -42 21 -36 23 -45
12 -63 -7 -11 -16 -40 -20 -65 -4 -25 -12 -54 -17 -65 -9 -19 -9 -19 6 -1 8
10 18 37 21 60 4 22 13 49 20 59 13 17 15 17 51 -17 20 -19 56 -45 79 -57 41
-22 42 -24 39 -63 -3 -40 -3 -40 5 -8 5 18 11 35 13 37 2 3 29 1 58 -4 30 -5
64 -7 75 -5 17 3 22 -4 32 -44 6 -26 18 -63 27 -82 9 -19 14 -26 10 -15 -3 11
-11 47 -18 80 l-13 60 56 17 c31 10 57 18 57 18 3 0 23 -56 27 -75 3 -12 5 -7
6 13 0 18 -3 42 -9 52 -8 15 -3 23 28 46 20 15 51 44 69 63 l32 34 18 -33 c34
-62 52 -76 26 -20 -14 30 -29 56 -33 58 -3 1 1 24 9 50 l15 47 48 -15 c46 -15
48 -16 48 -55 0 -22 4 -45 8 -52 4 -7 8 11 7 39 l0 51 40 2 c22 1 58 5 80 9
40 7 40 6 64 -39 13 -25 26 -44 28 -41 2 2 -5 19 -16 37 -12 19 -21 39 -21 46
0 6 24 25 54 42 30 16 69 48 87 70 l33 39 66 -50 65 -50 -62 56 -61 56 19 40
c11 22 23 56 27 77 8 38 8 38 67 44 l60 6 -57 1 -58 2 0 33 c0 19 -7 56 -15
82 -8 27 -13 50 -12 52 2 1 28 9 58 17 58 16 30 22 -33 7 -34 -8 -37 -7 -48
18 -6 15 -29 46 -51 71 l-40 43 53 56 c52 54 38 47 -30 -15 l-34 -32 -56 29
c-32 16 -76 31 -100 35 -41 6 -43 8 -37 33 3 14 14 37 24 51 40 57 39 69 -2
20z"/>
<path d="M6204 7546 c-16 -8 -43 -16 -60 -18 -60 -8 -152 -69 -181 -121 -8
-15 -14 -16 -39 -7 -52 21 -137 15 -193 -14 -135 -68 -186 -212 -127 -357 4
-9 -3 -27 -19 -45 -37 -43 -58 -116 -53 -182 5 -67 27 -118 72 -165 42 -45 81
-64 143 -73 l50 -6 -7 -38 c-34 -185 134 -346 320 -305 19 4 40 12 47 17 7 6
22 4 41 -6 27 -14 96 -30 132 -30 79 -1 194 79 226 158 15 35 27 47 65 64 59
28 103 73 135 139 27 58 33 130 15 177 -10 24 -9 32 7 50 80 89 84 239 9 338
-39 51 -125 98 -184 101 l-40 2 0 65 c0 103 -46 186 -131 236 -37 22 -62 28
-122 31 -49 2 -86 -2 -106 -11z"/>
<path d="M9016 7419 c-34 -9 -82 -52 -102 -92 -8 -15 -23 -54 -33 -88 -40
-128 -103 -174 -180 -135 -30 16 -91 80 -91 96 0 6 -7 10 -15 10 -21 0 -19 -8
12 -49 55 -71 86 -91 144 -91 71 0 116 52 158 181 12 38 36 84 55 105 31 36
38 39 84 39 57 0 93 -21 130 -76 25 -36 25 -63 -2 -122 -32 -71 -25 -126 22
-179 63 -70 138 -77 268 -23 100 41 155 45 211 13 45 -26 64 -44 98 -94 l25
-37 -27 -23 c-15 -12 -31 -20 -36 -17 -6 3 -7 1 -3 -5 4 -6 -2 -20 -12 -30
-11 -11 -22 -36 -26 -56 -5 -24 -12 -36 -24 -37 -14 0 -15 -1 -2 -7 20 -9 20
-55 0 -64 -13 -6 -13 -7 1 -7 18 -1 33 -61 15 -61 -5 0 -3 -6 6 -12 24 -20 29
-46 10 -58 -16 -11 -16 -11 1 -6 25 8 52 -56 28 -66 -12 -5 -11 -7 6 -7 23 -1
39 -32 27 -52 -4 -7 -3 -9 3 -6 12 7 29 -9 35 -32 2 -7 13 -25 25 -39 13 -13
20 -28 17 -33 -3 -5 0 -9 6 -9 14 0 56 -51 53 -62 -2 -5 0 -7 5 -5 13 4 64
-42 57 -52 -3 -6 0 -8 8 -6 18 8 69 -33 60 -48 -4 -7 1 -6 10 2 9 7 17 9 17 3
0 -5 9 -12 21 -15 13 -4 18 -10 13 -18 -4 -8 -3 -10 5 -5 19 12 73 -14 66 -32
-4 -11 -2 -12 7 -4 14 11 71 4 63 -8 -2 -4 7 -5 22 -2 18 3 30 -1 40 -13 7
-11 13 -14 13 -8 0 6 14 13 30 15 17 3 30 0 30 -6 0 -8 2 -8 8 0 11 16 50 24
56 10 2 -6 5 -4 5 5 1 18 47 42 63 33 7 -5 8 -2 4 5 -8 13 22 54 33 46 4 -2 5
12 3 31 -3 28 -1 34 14 34 16 0 16 1 2 13 -20 16 -29 55 -14 61 6 2 4 5 -5 5
-20 1 -44 45 -33 63 6 10 5 11 -7 1 -11 -9 -19 -7 -40 11 -14 12 -23 28 -21
36 4 13 3 13 -10 2 -11 -9 -18 -10 -23 -2 -3 5 -15 10 -25 10 -10 0 -25 6 -32
13 -7 6 -17 12 -23 13 -29 1 -65 18 -65 30 0 8 -6 11 -15 8 -20 -8 -68 23 -59
39 4 7 3 9 -1 4 -12 -11 -55 32 -48 49 3 9 0 12 -9 9 -18 -7 -44 47 -32 66 4
8 3 10 -4 5 -15 -9 -45 50 -39 75 3 11 2 17 -3 14 -4 -3 -12 13 -18 35 -7 29
-7 40 2 40 6 0 3 5 -6 11 -10 5 -18 15 -18 20 0 6 -9 24 -20 39 -12 16 -18 36
-14 47 5 14 4 15 -4 4 -9 -12 -14 -12 -34 1 -14 9 -41 14 -70 12 -46 -2 -48
-1 -72 41 -71 120 -192 159 -316 102 -80 -37 -112 -45 -162 -43 -53 2 -91 25
-118 69 -25 41 -25 83 0 138 24 53 25 90 4 134 -28 61 -128 110 -188 94z"/>
<path d="M15308 7183 c6 -2 18 -2 25 0 6 3 1 5 -13 5 -14 0 -19 -2 -12 -5z"/>
<path d="M16532 6745 c0 -16 2 -22 5 -12 2 9 2 23 0 30 -3 6 -5 -1 -5 -18z"/>
<path d="M7359 6756 c-2 -2 -27 -6 -55 -10 -240 -28 -515 -208 -608 -397 -45
-94 -55 -164 -31 -244 63 -218 369 -438 653 -471 216 -24 296 -5 417 100 33
29 76 64 96 79 l36 27 39 -28 c21 -16 68 -54 104 -85 79 -70 145 -96 247 -100
256 -10 525 98 694 280 111 119 151 232 124 353 -22 105 -137 251 -264 336
-156 105 -323 157 -511 158 -114 1 -130 -2 -180 -25 -30 -14 -91 -56 -134 -93
-44 -38 -90 -73 -102 -78 -26 -12 -47 1 -147 89 -96 84 -145 104 -269 109 -58
2 -107 2 -109 0z"/>
<path d="M16336 6707 c3 -10 9 -15 12 -12 3 3 0 11 -7 18 -10 9 -11 8 -5 -6z"/>
<path d="M4527 6613 c-4 -3 -7 -15 -7 -25 0 -16 -7 -18 -55 -16 -47 3 -55 6
-55 23 0 19 -1 19 -18 -2 -12 -15 -31 -22 -64 -25 -40 -3 -48 0 -50 16 -2 11
-8 21 -14 23 -7 2 -10 -5 -7 -19 4 -21 -2 -25 -46 -39 -41 -13 -51 -13 -51 -2
0 7 -4 13 -10 13 -5 0 -10 -8 -10 -17 0 -10 -17 -28 -39 -40 -33 -19 -40 -20
-45 -8 -3 8 -10 15 -16 15 -7 0 -8 -6 -1 -18 7 -14 0 -27 -34 -63 -40 -42 -45
-45 -59 -30 -14 13 -16 13 -16 0 0 -8 5 -20 11 -26 8 -8 5 -22 -10 -51 -17
-33 -24 -39 -42 -35 -15 4 -20 3 -15 -5 4 -7 14 -12 22 -12 10 0 14 -14 14
-55 0 -45 -3 -55 -17 -56 -14 0 -13 -2 4 -9 24 -10 65 -93 57 -115 -4 -9 0
-12 13 -9 27 6 96 -61 88 -87 -7 -22 10 -27 18 -5 5 11 18 9 70 -11 58 -23 63
-28 60 -52 l-3 -26 12 23 c10 21 17 23 47 18 20 -3 60 -9 89 -12 34 -5 52 -11
52 -20 0 -8 5 -14 10 -14 6 0 10 7 10 15 0 14 24 14 115 0 11 -2 24 -4 29 -4
4 -1 6 -8 2 -16 -3 -8 -1 -15 5 -15 5 0 12 7 15 15 7 17 17 15 90 -11 35 -12
41 -19 37 -37 -4 -19 -3 -20 9 -6 15 19 30 15 78 -20 28 -21 34 -32 32 -55 -2
-18 0 -26 7 -21 6 3 9 10 6 15 -3 5 -1 11 4 14 12 8 101 -72 101 -90 0 -7 -8
-18 -17 -23 -16 -9 -16 -10 5 -11 12 0 22 5 22 11 0 18 20 -1 66 -63 35 -48
42 -64 33 -75 -7 -7 -9 -17 -5 -20 4 -4 11 -1 15 6 6 10 19 -5 46 -50 31 -53
35 -67 25 -82 -13 -22 -5 -36 11 -20 8 8 23 -3 53 -40 23 -29 56 -61 73 -72
24 -17 28 -25 22 -43 -5 -12 -4 -24 1 -27 6 -4 10 1 10 9 0 22 14 27 59 20 25
-4 41 -12 41 -20 0 -8 5 -14 10 -14 6 0 10 7 10 15 0 9 9 15 25 15 14 0 48 9
76 20 l52 19 70 -64 c163 -149 343 -192 498 -119 36 18 74 39 85 47 149 125
224 172 304 193 105 27 197 0 275 -81 66 -69 79 -121 58 -230 -20 -105 -17
-145 15 -205 61 -119 249 -190 393 -150 44 12 110 74 137 126 38 76 48 122 57
259 12 191 33 263 95 319 86 77 212 57 350 -58 58 -49 74 -55 83 -32 11 28
-152 147 -228 167 -57 16 -140 12 -180 -7 -52 -24 -103 -82 -125 -141 -25 -68
-29 -90 -35 -203 -11 -195 -37 -281 -106 -348 -59 -58 -155 -66 -270 -23 -64
24 -127 82 -145 133 -11 34 -11 99 2 148 16 64 12 145 -9 190 -32 68 -112 143
-180 168 -132 50 -265 15 -419 -111 -31 -25 -84 -64 -118 -88 -158 -107 -337
-78 -517 85 -56 51 -67 72 -31 61 17 -6 20 -4 15 9 -10 25 36 89 51 74 16 -16
28 -2 13 15 -8 11 -7 26 6 62 15 44 17 47 29 30 13 -18 14 -18 14 2 0 11 -6
23 -12 26 -9 3 -12 24 -10 71 3 57 6 66 23 66 10 0 19 4 19 10 0 5 -10 9 -22
7 -21 -2 -23 2 -42 76 -5 23 -3 27 14 27 11 0 20 5 20 11 0 7 -10 9 -24 7 -21
-4 -27 2 -48 45 -17 37 -20 51 -10 55 6 2 10 8 7 12 -3 5 -12 7 -19 4 -8 -3
-24 13 -41 42 -24 42 -26 48 -11 56 24 13 21 31 -3 18 -26 -14 -22 -16 -65 40
-37 49 -40 70 -8 70 12 0 13 3 4 12 -8 8 -15 8 -27 -2 -14 -12 -21 -8 -53 24
-31 30 -34 38 -22 46 15 10 8 13 -20 11 -9 -1 -33 17 -55 39 -28 29 -34 40
-22 40 9 0 17 5 17 10 0 6 -10 8 -23 5 -15 -4 -35 4 -64 26 -35 27 -40 35 -30
48 10 12 8 14 -11 8 -34 -8 -134 60 -126 85 6 19 -6 24 -22 8 -6 -6 -31 1 -71
22 -56 28 -61 33 -52 54 5 14 5 24 -1 24 -5 0 -12 -9 -15 -21 -4 -11 -12 -18
-18 -16 -7 2 -36 13 -65 23 -41 15 -52 23 -48 37 5 21 -3 22 -18 2 -10 -14
-17 -14 -58 -1 -26 7 -50 11 -53 7 -4 -3 -4 8 0 24 l6 30 -18 -21 c-17 -19
-25 -20 -69 -13 -27 4 -55 8 -62 8 -8 1 -10 9 -6 26 6 25 3 31 -9 18z"/>
<path d="M15702 6530 c0 -14 2 -19 5 -12 2 6 2 18 0 25 -3 6 -5 1 -5 -13z"/>
<path d="M16050 6536 c0 -8 4 -17 9 -20 5 -4 7 3 4 14 -6 23 -13 26 -13 6z"/>
<path d="M12345 6523 c-41 -10 -101 -43 -132 -72 -34 -31 -83 -113 -83 -139 0
-10 -5 -12 -17 -7 -106 45 -267 60 -373 35 -74 -17 -165 -59 -221 -102 -92
-71 -93 -71 -131 -52 -18 9 -96 58 -173 109 -153 101 -226 134 -314 139 -100
5 -237 -52 -204 -85 7 -7 22 -4 49 10 122 64 251 38 430 -85 135 -93 183 -124
194 -124 5 0 10 -4 10 -8 0 -10 -73 -52 -91 -52 -8 0 -66 27 -129 60 -142 75
-221 100 -311 100 -97 0 -198 -35 -173 -60 7 -7 29 -6 69 5 73 19 144 19 211
1 59 -15 254 -113 254 -127 0 -11 -174 -4 -260 10 -89 14 -217 8 -237 -12 -24
-24 -6 -39 33 -28 33 9 218 6 235 -4 18 -12 223 -14 271 -4 34 7 53 7 68 -1
29 -15 120 -39 180 -46 96 -12 207 31 311 119 105 88 173 128 232 133 61 6 76
-2 83 -42 9 -52 54 -133 92 -162 91 -71 43 -67 697 -70 407 -2 606 0 641 8 65
14 120 50 162 105 33 44 66 136 53 152 -6 9 28 -20 69 -56 91 -81 274 -130
395 -106 17 3 42 8 57 11 15 3 61 19 103 35 l76 29 51 -26 c66 -34 161 -53
241 -49 48 3 95 15 182 50 136 53 212 65 266 42 20 -8 42 -12 48 -8 22 14 -1
41 -43 52 -67 18 -150 5 -281 -47 -105 -41 -129 -47 -195 -47 -103 0 -230 38
-205 61 23 22 197 83 271 95 76 13 198 14 267 3 43 -7 156 -41 189 -56 27 -13
58 -8 58 9 0 12 -109 56 -190 77 -99 25 -283 23 -389 -5 -46 -12 -103 -30
-125 -40 -137 -62 -146 -65 -162 -49 -14 13 -4 24 92 101 161 128 233 158 373
152 111 -5 201 -43 293 -125 67 -59 93 -32 29 30 -82 78 -187 126 -302 136
-152 13 -251 -25 -419 -161 -58 -47 -112 -85 -120 -85 -8 0 -29 9 -47 20 -18
10 -72 33 -120 51 -111 39 -214 45 -361 20 l-103 -18 -24 46 c-30 60 -75 104
-133 133 l-47 23 -600 1 c-330 1 -609 0 -620 -3z m-370 -224 c5 -5 0 -9 -14
-9 -31 0 -99 -32 -187 -90 -107 -70 -153 -81 -254 -59 l-51 11 63 45 c99 70
187 104 298 116 43 4 135 -5 145 -14z m2230 -12 c39 -13 89 -33 110 -45 l40
-20 -40 -12 c-63 -19 -229 -24 -309 -10 -70 12 -196 63 -196 80 0 4 33 14 73
20 39 7 77 13 82 15 36 11 178 -6 240 -28z m-2329 -80 c-10 -7 -49 -38 -87
-69 -125 -104 -209 -129 -342 -101 -102 21 -105 25 -58 56 40 27 41 27 103 12
123 -29 195 -13 327 73 35 23 67 42 70 41 3 0 -2 -6 -13 -12z m2552 -42 c-2
-2 -39 -15 -83 -29 -96 -32 -202 -43 -275 -27 -51 11 -174 60 -167 67 1 2 32
-4 67 -12 117 -27 339 -14 409 25 11 7 21 5 34 -6 9 -9 16 -17 15 -18z"/>
<path d="M15941 6434 c0 -11 3 -14 6 -6 3 7 2 16 -1 19 -3 4 -6 -2 -5 -13z"/>
<path d="M6235 5892 c-50 -24 -107 -77 -130 -121 -22 -45 -30 -135 -16 -188
28 -104 133 -183 242 -183 101 0 179 45 229 133 25 43 30 63 30 117 -1 107
-52 191 -146 238 -54 26 -156 28 -209 4z"/>
<path d="M13936 5387 c3 -10 9 -15 12 -12 3 3 0 11 -7 18 -10 9 -11 8 -5 -6z"/>
<path d="M14208 5361 c3 -28 -4 -54 -27 -99 -17 -34 -31 -68 -31 -77 0 -19
-89 -22 -91 -2 -3 30 4 73 17 110 8 22 14 47 14 56 0 24 -58 -103 -66 -144 -6
-32 -9 -35 -40 -35 -42 0 -49 21 -41 123 l6 72 -19 -55 c-10 -30 -19 -74 -19
-97 l-1 -43 -48 0 c-64 0 -78 24 -62 112 6 33 9 63 6 66 -3 3 -6 -2 -6 -12 0
-9 -7 -31 -16 -49 -9 -17 -17 -51 -17 -74 l0 -43 -68 0 c-80 0 -86 10 -38 56
56 52 70 126 30 156 -13 10 -14 10 -3 -2 24 -27 15 -79 -20 -111 -18 -16 -36
-29 -40 -29 -5 0 -16 -16 -25 -35 -14 -30 -22 -35 -50 -35 -30 0 -33 3 -33 28
0 16 7 51 15 78 8 27 14 63 14 79 -1 28 -1 28 -10 -8 -5 -20 -18 -55 -28 -76
-11 -21 -22 -51 -24 -67 -3 -25 -8 -29 -40 -32 -20 -2 -37 1 -37 6 0 5 10 32
21 61 18 43 20 58 12 94 l-11 42 -1 -40 c0 -24 -13 -65 -33 -103 l-33 -63 -50
3 c-44 3 -50 6 -53 26 -2 13 4 41 12 63 18 45 20 59 7 59 -5 0 -12 -13 -16
-29 -3 -16 -13 -35 -20 -41 -8 -7 -17 -27 -21 -46 -6 -30 -10 -34 -39 -34 -32
0 -33 0 -28 43 4 31 -1 57 -17 91 -25 57 -35 57 -15 1 19 -52 18 -71 -1 -104
-12 -21 -28 -30 -65 -38 -57 -11 -59 -10 -83 63 -9 29 -26 60 -38 70 l-21 19
16 -25 c8 -14 21 -53 27 -88 11 -60 10 -64 -12 -82 -50 -41 -66 -45 -91 -22
-12 11 -44 26 -72 32 -27 6 -59 16 -70 22 -18 9 -18 9 -5 -4 8 -8 33 -20 55
-26 23 -6 55 -26 73 -43 l32 -31 -20 -28 c-11 -16 -20 -33 -20 -38 0 -17 -121
-4 -144 15 -20 17 -20 17 -7 0 18 -22 75 -47 108 -47 24 0 25 -2 20 -47 -3
-27 -6 -48 -6 -49 -2 -2 -86 -28 -92 -29 -3 0 -29 28 -57 62 -119 142 -312
237 -504 248 -315 16 -610 -186 -714 -490 -38 -113 -45 -275 -15 -393 63 -253
266 -458 517 -522 134 -34 298 -25 434 24 116 42 255 152 329 259 106 155 150
357 116 536 l-15 75 26 34 27 34 37 -40 c21 -22 46 -45 56 -50 18 -10 16 -13
-18 -45 -39 -36 -59 -73 -57 -110 1 -18 3 -16 10 8 12 39 25 54 76 88 48 31
46 30 95 17 l37 -11 -15 -34 c-8 -19 -14 -60 -14 -90 0 -31 -5 -65 -10 -76 -6
-10 -8 -19 -6 -19 11 0 25 37 30 80 4 25 16 66 28 93 22 48 24 49 93 49 46 0
47 -1 40 -29 -11 -39 -7 -75 10 -115 15 -33 15 -33 9 23 -9 80 12 119 65 119
45 0 51 -9 39 -65 -5 -22 -11 -62 -13 -90 l-5 -50 13 40 c7 22 22 68 32 102
21 67 25 70 92 64 40 -3 43 -5 43 -31 0 -15 -7 -47 -15 -70 -8 -23 -15 -54
-14 -69 1 -25 1 -25 8 4 4 17 18 48 29 70 12 22 22 52 22 67 0 22 5 28 23 28
28 0 97 -96 98 -138 0 -23 1 -24 8 -7 9 22 2 56 -23 103 -20 39 -16 48 21 46
15 -1 47 -3 70 -3 l43 -1 -6 -59 c-7 -60 1 -131 14 -131 4 0 6 19 4 42 -3 23
1 65 8 95 l13 53 94 0 93 0 0 -29 c0 -16 -12 -44 -30 -66 -16 -21 -30 -45 -29
-54 0 -12 2 -11 9 4 4 11 22 30 39 43 22 16 33 34 37 61 7 42 24 50 86 43 35
-4 53 -54 44 -120 -6 -40 -5 -44 6 -27 7 11 12 48 13 82 l0 63 71 0 72 0 21
-49 c11 -27 21 -56 21 -63 0 -8 7 -23 16 -34 15 -18 15 -18 5 3 -6 12 -11 33
-11 46 0 14 -7 43 -15 66 -14 41 -14 41 11 41 14 0 42 9 64 20 22 11 42 20 44
20 3 0 12 -15 20 -33 15 -37 60 -77 85 -77 11 0 7 6 -11 17 -27 17 -41 42 -54
96 -5 22 0 33 25 59 17 17 31 35 31 40 0 13 37 9 47 -4 6 -7 16 -35 24 -61 15
-52 40 -81 79 -92 21 -6 20 -4 -7 14 -18 11 -35 31 -37 43 -27 120 -32 133
-53 143 -13 5 -23 18 -23 27 0 26 13 22 49 -13 18 -17 48 -37 66 -45 47 -19
57 -17 18 4 -17 9 -45 36 -62 60 -17 23 -35 42 -40 42 -13 0 -23 34 -15 53 5
13 14 15 42 11 21 -3 39 -7 42 -9 3 -2 33 -6 65 -9 l60 -6 -60 21 c-33 11 -82
26 -110 33 -31 8 -51 19 -53 29 -4 20 32 44 78 52 76 12 88 17 116 47 l29 30
-36 -24 c-28 -19 -51 -25 -97 -26 -34 0 -71 -6 -83 -13 -19 -10 -25 -7 -45 17
-13 16 -23 36 -24 45 0 30 26 69 69 99 22 17 41 32 41 34 0 12 -98 -50 -121
-76 -27 -29 -27 -30 -54 -12 -36 24 -27 57 29 109 24 22 49 51 56 65 l12 25
-24 -26 c-12 -14 -42 -38 -65 -52 -23 -15 -49 -40 -57 -56 -15 -28 -16 -28
-61 -18 -51 12 -53 17 -26 61 10 17 22 47 25 66 l7 35 -23 -41 c-61 -109 -66
-114 -119 -114 -45 0 -49 2 -49 24 0 13 7 41 16 62 18 42 22 120 8 134 -6 6
-8 -5 -6 -29z m-1379 -619 c7 -13 3 -28 -14 -55 l-22 -38 -37 77 c-20 42 -35
78 -33 80 2 2 21 7 43 12 38 8 39 8 46 -26 5 -18 12 -41 17 -50z"/>
<path d="M10235 5229 c-221 -78 -321 -324 -218 -536 36 -72 125 -154 200 -184
45 -18 78 -23 148 -23 80 -1 97 3 155 30 188 90 272 296 199 488 -37 98 -99
164 -202 213 -75 37 -199 42 -282 12z"/>
<path d="M9554 5115 c-160 -36 -244 -210 -174 -359 76 -160 295 -194 416 -64
52 54 68 95 68 173 0 81 -17 125 -72 180 -67 67 -147 91 -238 70z"/>
<path d="M15590 4849 c0 -11 -51 -29 -63 -23 -7 4 -9 3 -4 -1 9 -11 -31 -55
-50 -55 -8 0 -12 -4 -8 -9 8 -14 -35 -81 -53 -82 -10 0 -12 -3 -5 -5 8 -4 6
-15 -9 -40 -11 -19 -25 -31 -31 -27 -6 4 -8 0 -4 -9 6 -17 -35 -63 -46 -51 -4
3 -7 0 -7 -8 0 -21 -38 -41 -63 -34 -15 4 -18 3 -9 -3 16 -11 0 -26 -35 -35
-17 -4 -23 -1 -24 11 0 12 -3 10 -9 -5 -5 -13 -15 -24 -22 -24 -53 -5 -88 -10
-117 -15 -23 -5 -36 -2 -42 7 -6 10 -9 11 -9 2 0 -7 -5 -13 -10 -13 -6 0 -28
-8 -50 -19 -28 -14 -41 -16 -50 -7 -8 8 -10 7 -5 -6 4 -10 -1 -24 -12 -35 -10
-10 -18 -26 -19 -35 -3 -73 -3 -72 -57 -96 -30 -13 -71 -40 -92 -60 -69 -67
-82 -132 -51 -250 32 -125 15 -199 -56 -242 -48 -29 -101 -26 -153 9 -24 16
-53 32 -65 36 -12 4 -19 12 -16 20 3 8 8 30 12 49 6 36 6 36 63 38 l56 1 -55
6 -54 6 -4 45 c-2 25 -8 60 -14 78 -5 18 -7 36 -4 39 3 3 29 11 58 19 29 7 44
13 33 13 -11 0 -36 -3 -56 -8 -42 -10 -51 -6 -68 27 -7 13 -29 42 -48 63 l-36
40 54 56 c45 47 48 51 17 28 -21 -15 -38 -30 -38 -34 0 -3 -11 -14 -24 -23
-23 -17 -26 -17 -68 7 -24 13 -67 29 -96 35 -44 10 -52 15 -52 34 0 12 16 45
35 72 19 27 35 56 35 64 0 8 -7 2 -15 -13 -8 -16 -26 -42 -39 -58 -13 -16 -27
-42 -31 -57 -5 -27 -11 -30 -60 -36 -29 -3 -61 -9 -71 -13 -14 -5 -16 -2 -10
28 16 84 18 118 8 135 -8 15 -10 10 -5 -21 3 -26 -2 -60 -15 -98 -16 -48 -26
-62 -63 -86 -24 -15 -58 -44 -76 -64 -18 -20 -35 -37 -38 -37 -14 0 -34 71
-30 102 l5 33 -10 -30 c-13 -36 -6 -82 15 -105 12 -13 13 -23 5 -44 -5 -15
-10 -40 -10 -56 l0 -29 -46 24 c-36 19 -62 25 -112 25 l-64 0 6 28 c3 15 8 50
11 77 l4 50 -9 -45 c-25 -117 -22 -112 -72 -129 -26 -9 -50 -19 -54 -23 -27
-28 -75 13 -104 88 -23 59 -26 46 -4 -18 8 -25 26 -56 39 -68 l24 -23 -44 -43
c-24 -24 -50 -44 -58 -44 -19 0 -43 29 -51 62 -3 15 -18 40 -32 55 l-26 28 21
-29 c11 -15 23 -43 27 -62 4 -20 18 -44 34 -57 l27 -22 -21 -45 c-11 -25 -22
-47 -23 -49 -1 -2 -24 19 -51 48 -46 49 -50 51 -98 50 l-49 -2 54 -6 c42 -5
58 -12 70 -31 9 -14 28 -39 43 -56 23 -26 26 -37 21 -67 -4 -29 -10 -37 -27
-37 -11 0 -36 -9 -54 -20 l-33 -20 -46 20 c-25 11 -51 20 -57 20 -6 0 15 -12
47 -27 56 -25 59 -26 87 -10 15 9 39 17 53 17 21 0 26 -6 31 -36 4 -19 9 -41
12 -48 3 -9 -8 -15 -34 -19 -61 -8 -93 -28 -130 -82 -19 -27 -24 -39 -13 -25
68 79 86 90 149 90 34 0 40 -4 62 -44 18 -33 21 -48 13 -58 -6 -7 -14 -31 -18
-53 -4 -22 -9 -49 -12 -60 -3 -16 -2 -17 6 -5 6 8 11 23 11 33 0 10 7 34 15
53 l15 36 46 -41 c26 -22 64 -48 85 -58 21 -9 36 -20 33 -25 -3 -5 -7 -32 -10
-61 l-3 -52 12 55 c10 46 15 55 32 53 11 -2 47 -5 80 -7 49 -3 61 -7 63 -22 6
-38 33 -126 37 -122 2 2 -2 28 -10 58 -22 82 -21 83 42 102 65 19 68 17 79
-47 3 -22 10 -47 15 -55 10 -19 1 52 -13 100 -9 27 -8 35 3 39 8 2 40 29 71
59 l57 54 21 -41 c11 -23 23 -41 25 -41 7 0 -23 72 -35 84 -4 4 -1 28 7 53 12
34 19 43 32 38 9 -4 30 -9 47 -12 30 -5 32 -8 32 -49 1 -25 5 -52 10 -60 5
-10 7 5 4 40 -2 31 -1 56 4 56 50 3 104 9 125 15 23 6 29 1 53 -39 35 -60 43
-59 11 1 -20 36 -22 48 -13 55 21 13 36 9 42 -10 11 -34 60 -80 121 -112 146
-79 179 -132 129 -209 -23 -34 -41 -48 -86 -67 -21 -9 -38 -20 -38 -25 0 -31
108 27 142 77 59 84 27 149 -114 231 -73 42 -138 101 -138 125 0 12 106 118
118 118 4 0 36 -25 72 -56 l65 -56 -68 66 c-58 58 -66 69 -57 86 6 11 14 20
18 20 3 0 32 -16 63 -35 71 -43 110 -49 170 -24 49 22 98 84 100 129 3 60 0
89 -15 148 -18 68 -19 135 -2 167 22 40 72 87 118 111 44 22 79 32 65 18 -3
-3 3 -16 14 -27 14 -16 16 -23 7 -29 -10 -6 -9 -8 3 -8 20 0 51 -34 42 -45 -5
-4 -3 -5 4 -1 16 9 63 -14 63 -32 0 -11 3 -12 13 -4 16 13 57 4 57 -12 0 -6 4
-5 9 3 6 10 20 12 45 8 20 -3 38 -1 41 4 9 14 45 11 45 -3 0 -10 2 -10 8 0 5
7 23 16 40 21 27 8 32 7 33 -7 0 -12 3 -10 10 7 7 18 15 22 34 19 13 -3 26 0
29 7 5 14 46 27 46 15 0 -5 11 2 25 16 14 14 31 24 38 21 6 -2 19 5 27 16 9
10 27 20 42 20 14 1 24 7 21 13 -5 13 47 50 66 46 7 -2 10 1 6 8 -8 14 22 50
42 50 8 0 12 4 9 9 -8 12 31 54 43 46 6 -3 8 0 5 9 -3 8 2 26 12 40 14 22 19
24 33 14 14 -12 14 -11 3 4 -16 20 -7 58 14 58 8 0 13 4 9 10 -10 16 6 59 23
63 15 4 15 5 1 6 -12 1 -15 8 -11 26 2 14 9 25 14 25 5 0 6 6 1 13 -13 20 -13
41 0 49 8 5 9 8 1 8 -16 0 -38 56 -28 71 4 7 3 10 -3 6 -12 -8 -47 28 -40 40
3 4 -8 9 -25 9 -17 1 -33 5 -37 10 -7 10 -81 13 -81 3z"/>
<path d="M9021 4679 c-48 -19 -90 -85 -126 -197 -18 -57 -56 -109 -89 -121
-11 -5 -37 -4 -57 2 -36 9 -59 27 -113 92 -37 44 -33 9 4 -42 37 -50 109 -87
154 -79 60 11 105 74 146 204 18 56 76 120 114 127 40 6 105 -24 139 -64 33
-40 35 -86 7 -141 -42 -81 -13 -169 69 -213 62 -33 117 -29 232 18 97 39 138
41 198 10 36 -18 92 -74 111 -110 13 -23 12 -27 -11 -43 -13 -9 -26 -15 -28
-14 -2 2 -10 -11 -17 -28 -9 -20 -18 -29 -26 -24 -8 5 -9 2 -5 -9 7 -20 -9
-68 -26 -79 -9 -6 -9 -8 1 -8 6 0 12 -10 12 -23 0 -13 -6 -29 -12 -36 -8 -9
-8 -11 -2 -8 13 8 28 -38 19 -53 -4 -6 -2 -10 3 -10 15 0 22 -54 9 -62 -8 -5
-7 -8 3 -8 18 0 45 -53 30 -58 -5 -2 -10 -8 -10 -13 0 -4 6 -6 14 -3 9 3 17
-3 22 -18 4 -13 6 -24 5 -25 0 -2 8 -12 20 -24 11 -11 18 -27 15 -35 -3 -8 1
-14 10 -14 8 0 21 -15 29 -32 8 -18 14 -29 15 -24 0 5 11 -4 25 -20 14 -16 23
-34 21 -41 -3 -7 0 -10 7 -7 7 2 33 -14 57 -36 25 -21 51 -40 58 -40 6 0 12
-6 12 -14 0 -8 5 -18 12 -22 7 -4 8 -3 4 4 -10 16 5 14 28 -3 11 -8 15 -19 11
-27 -6 -10 -5 -10 5 -1 17 15 70 -3 70 -25 0 -13 2 -14 8 -4 12 18 67 -2 56
-20 -6 -9 -3 -9 9 0 17 15 56 8 69 -12 6 -8 8 -7 8 2 0 6 11 12 25 12 14 0 25
-5 25 -11 0 -6 7 -3 16 6 10 9 25 14 35 12 11 -3 19 -1 19 4 0 5 13 15 29 24
23 11 31 12 35 2 3 -8 5 -7 4 3 -2 23 13 50 27 50 8 0 12 22 12 75 0 42 -2 73
-5 70 -8 -7 -42 47 -36 57 3 4 -1 6 -8 3 -18 -6 -61 32 -52 46 5 9 2 10 -10 6
-16 -6 -88 21 -94 36 -2 4 -7 5 -12 2 -12 -7 -70 15 -70 28 0 6 -3 8 -6 4 -9
-9 -64 21 -64 35 0 6 -3 8 -6 5 -10 -10 -46 42 -38 55 5 7 2 9 -8 6 -9 -4 -21
5 -33 24 -15 25 -15 32 -4 40 11 8 11 9 -2 5 -24 -8 -54 70 -36 92 9 12 9 13
-1 7 -14 -8 -35 37 -30 63 2 9 0 21 -4 26 -28 35 -54 82 -51 92 3 7 -3 9 -15
6 -11 -2 -23 0 -26 6 -4 6 -31 11 -59 11 -51 1 -52 1 -87 53 -23 34 -55 64
-90 85 -73 44 -123 43 -234 -3 -125 -52 -203 -45 -254 20 -34 43 -37 93 -8
154 41 89 15 160 -76 205 -55 27 -87 31 -127 15z"/>
<path d="M13802 4330 c0 -14 2 -19 5 -12 2 6 2 18 0 25 -3 6 -5 1 -5 -13z"/>
<path d="M10533 4239 c-132 -25 -188 -119 -163 -277 15 -91 59 -181 122 -248
67 -71 76 -75 171 -85 44 -4 81 -9 82 -11 2 -2 8 -36 14 -77 12 -88 35 -125
116 -185 66 -50 154 -83 241 -92 201 -21 303 111 249 319 -21 81 -59 152 -113
210 -58 62 -110 86 -183 87 -33 0 -61 5 -67 13 -6 7 -14 39 -17 72 -10 81 -16
95 -67 144 -102 101 -259 153 -385 130z"/>
<path d="M14171 3384 c0 -11 3 -14 6 -6 3 7 2 16 -1 19 -3 4 -6 -2 -5 -13z"/>
<path d="M13860 3326 c0 -2 8 -10 18 -17 15 -13 16 -12 3 4 -13 16 -21 21 -21
13z"/>
<path d="M11010 3030 c-14 -5 -44 -14 -67 -20 -25 -6 -59 -26 -82 -48 -38 -36
-41 -37 -114 -37 -69 0 -78 -2 -114 -31 -21 -17 -46 -45 -56 -62 -23 -39 -29
-116 -12 -156 12 -27 11 -33 -13 -64 -36 -48 -42 -133 -13 -190 27 -52 79 -92
130 -99 l40 -6 -4 -48 c-5 -68 32 -140 91 -175 47 -28 134 -36 170 -16 13 7
26 6 48 -5 20 -10 48 -14 87 -11 70 5 123 41 154 106 12 25 28 43 42 47 38 9
91 63 109 110 12 33 15 59 10 96 -6 40 -3 55 9 69 46 51 47 161 2 227 -23 35
-106 83 -143 83 -20 0 -22 5 -22 51 -1 62 -37 128 -87 159 -39 24 -126 35
-165 20z"/>
<path d="M11704 3022 c-115 -40 -174 -124 -174 -244 0 -112 75 -211 182 -242
209 -61 396 154 304 349 -58 122 -190 181 -312 137z"/>
<path d="M11700 2419 c-177 -34 -316 -197 -328 -387 -11 -185 72 -333 234
-415 74 -37 126 -43 359 -41 183 1 217 4 267 22 128 45 215 134 258 263 29 85
24 225 -10 311 -48 121 -176 223 -310 248 -64 12 -404 11 -470 -1z"/>
</g>
</svg>
