<?xml version="1.0" encoding="UTF-8" standalone="no"?>
<!-- Created with Inkscape (http://www.inkscape.org/) -->

<svg
   width="1000mm"
   height="1000mm"
   viewBox="0 0 1000 1000"
   version="1.1"
   id="svg1808"
   inkscape:version="1.2 (dc2aedaf03, 2022-05-15)"
   sodipodi:docname="annualreviews.svg"
   xmlns:inkscape="http://www.inkscape.org/namespaces/inkscape"
   xmlns:sodipodi="http://sodipodi.sourceforge.net/DTD/sodipodi-0.dtd"
   xmlns="http://www.w3.org/2000/svg"
   xmlns:svg="http://www.w3.org/2000/svg">
  <sodipodi:namedview
     id="namedview1810"
     pagecolor="#ffffff"
     bordercolor="#000000"
     borderopacity="0.25"
     inkscape:showpageshadow="2"
     inkscape:pageopacity="0.0"
     inkscape:pagecheckerboard="0"
     inkscape:deskcolor="#d1d1d1"
     inkscape:document-units="mm"
     showgrid="false"
     inkscape:zoom="0.2102413"
     inkscape:cx="-570.77272"
     inkscape:cy="1962.0312"
     inkscape:window-width="3000"
     inkscape:window-height="1890"
     inkscape:window-x="-12"
     inkscape:window-y="-12"
     inkscape:window-maximized="1"
     inkscape:current-layer="layer1" />
  <defs
     id="defs1805">
    <clipPath
       clipPathUnits="userSpaceOnUse"
       id="clipPath43">
      <path
         d="m 538.52,7276.56 h 1126.77 v 306.223 H 538.52 Z"
         id="path41" />
    </clipPath>
    <clipPath
       clipPathUnits="userSpaceOnUse"
       id="clipPath3367">
      <path
         d="m 52.441,738.595 h 277.625 v -72 H 52.441"
         id="path3365" />
    </clipPath>
    <clipPath
       clipPathUnits="userSpaceOnUse"
       id="clipPath3627">
      <path
         d="m 473.442,735.931 h 76.479 v -22.337 h -76.479 z"
         id="path3625" />
    </clipPath>
    <clipPath
       clipPathUnits="userSpaceOnUse"
       id="clipPath4680">
      <path
         d="M 0.029999,782.986 H 584.957 V 0.03 H 0.029999 Z"
         id="path4678" />
    </clipPath>
    <clipPath
       clipPathUnits="userSpaceOnUse"
       id="clipPath5252">
      <path
         d="M 0.029999,782.986 H 584.957 V 0.03 H 0.029999 Z"
         id="path5250" />
    </clipPath>
    <clipPath
       clipPathUnits="userSpaceOnUse"
       id="clipPath5557">
      <path
         d="M 46.35,612.564 H 176.551 V 578.199 H 46.35 Z"
         id="path5555" />
    </clipPath>
    <clipPath
       clipPathUnits="userSpaceOnUse"
       id="clipPath5585">
      <path
         d="M 46.35,612.564 H 176.551 V 578.199 H 46.35 Z"
         id="path5583" />
    </clipPath>
    <clipPath
       clipPathUnits="userSpaceOnUse"
       id="clipPath5643">
      <path
         d="M 46.35,612.564 H 176.551 V 578.199 H 46.35 Z"
         id="path5641" />
    </clipPath>
  </defs>
  <g
     inkscape:label="Layer 1"
     inkscape:groupmode="layer"
     id="layer1">
    <g
       id="g6861"
       transform="matrix(7.2964109,0,0,-7.2964109,-313.18864,4844.1481)">
      <g
         id="g5551">
        <g
           id="g5553"
           clip-path="url(#clipPath5557)">
          <g
             id="g5559"
             transform="translate(46.335,612.564)">
            <path
               d="M 0,0 V -13.121 L 4.171,0 H 0"
               style="fill:#231f20;fill-opacity:1;fill-rule:nonzero;stroke:none"
               id="path5561" />
          </g>
        </g>
      </g>
      <g
         id="g5563"
         transform="translate(62.163,593.418)">
        <path
           d="m 0,0 c 0,2.632 -1.465,3.2 -4.576,3.2 h -0.628 v -6.132 h 0.628 C -1.525,-2.932 0,-2.572 0,0"
           style="fill:#231f20;fill-opacity:1;fill-rule:nonzero;stroke:none"
           id="path5565" />
      </g>
      <g
         id="g5567"
         transform="translate(56.75,587.796)">
        <path
           d="M 0,0 V -9.239 H 7.259 L 0.388,0 H 0"
           style="fill:#231f20;fill-opacity:1;fill-rule:nonzero;stroke:none"
           id="path5569" />
      </g>
      <g
         id="g5571"
         transform="translate(54.776,599.625)">
        <path
           d="M 0,0 -2.424,7.944 -4.802,0 H 0"
           style="fill:#231f20;fill-opacity:1;fill-rule:nonzero;stroke:none"
           id="path5573" />
      </g>
      <g
         id="g5575"
         transform="translate(54.26,612.564)">
        <path
           d="m 0,0 4.259,-12.956 c 2.209,-0.01 3.859,-0.206 5.139,-1.196 1.286,-1.017 2.064,-2.692 2.064,-4.696 0,-3.439 -1.675,-5.382 -4.905,-5.772 l 7.106,-9.388 h 12.42 V 0 H 0"
           style="fill:#231f20;fill-opacity:1;fill-rule:nonzero;stroke:none"
           id="path5577" />
      </g>
      <g
         id="g5579">
        <g
           id="g5581"
           clip-path="url(#clipPath5585)">
          <g
             id="g5587"
             transform="translate(48.889,596.003)">
            <path
               d="m 0,0 -2.554,-8.276 v -9.171 H 4.6 V 0.01 L 0,0"
               style="fill:#231f20;fill-opacity:1;fill-rule:nonzero;stroke:none"
               id="path5589" />
          </g>
        </g>
      </g>
      <g
         id="g5591"
         transform="translate(91.157,612.564)">
        <path
           d="M 0,0 H 4.838 L 9.735,-14.177 H 5.889 l -0.714,2.538 h -5.492 l -0.734,-2.538 h -3.846 z m 4.362,-8.883 -1.448,4.68 C 2.855,-3.985 2.696,-3.351 2.438,-2.3 2.181,-3.351 2.003,-3.985 1.943,-4.203 l -1.428,-4.68 h 3.847"
           style="fill:#231f20;fill-opacity:1;fill-rule:nonzero;stroke:none"
           id="path5593" />
      </g>
      <g
         id="g5595"
         transform="translate(103.43,612.564)">
        <path
           d="m 0,0 h 3.728 l 5.353,-7.296 c 0.139,-0.179 0.595,-1.012 1.289,-2.499 -0.139,1.11 -0.218,2.042 -0.218,2.796 V 0 h 3.707 V -14.177 H 10.152 L 4.798,-6.86 c -0.139,0.178 -0.595,0.991 -1.289,2.478 0.139,-1.11 0.219,-2.042 0.219,-2.796 v -6.999 H 0 V 0"
           style="fill:#231f20;fill-opacity:1;fill-rule:nonzero;stroke:none"
           id="path5597" />
      </g>
      <g
         id="g5599"
         transform="translate(120.024,612.564)">
        <path
           d="M 0,0 H 3.728 L 9.08,-7.296 c 0.14,-0.179 0.596,-1.012 1.289,-2.499 -0.139,1.11 -0.218,2.042 -0.218,2.796 V 0 h 3.707 V -14.177 H 10.151 L 4.798,-6.86 c -0.139,0.178 -0.596,0.991 -1.289,2.478 0.139,-1.11 0.219,-2.042 0.219,-2.796 v -6.999 H 0 V 0"
           style="fill:#231f20;fill-opacity:1;fill-rule:nonzero;stroke:none"
           id="path5601" />
      </g>
      <g
         id="g5603"
         transform="translate(140.386,612.564)">
        <path
           d="m 0,0 v -7.693 c 0,-2.518 0.456,-3.609 2.458,-3.609 2.36,0 2.459,1.468 2.459,4.501 V 0 h 3.846 v -8.427 c 0,-4.282 -1.804,-6.126 -6.305,-6.126 -2.398,0 -4.063,0.555 -5.076,1.725 -1.13,1.288 -1.229,2.954 -1.229,5.174 V 0 H 0"
           style="fill:#231f20;fill-opacity:1;fill-rule:nonzero;stroke:none"
           id="path5605" />
      </g>
      <g
         id="g5607"
         transform="translate(155.514,612.564)">
        <path
           d="M 0,0 H 4.837 L 9.735,-14.177 H 5.889 l -0.715,2.538 h -5.491 l -0.734,-2.538 h -3.846 z m 4.362,-8.883 -1.447,4.68 C 2.855,-3.985 2.697,-3.351 2.439,-2.3 2.181,-3.351 2.002,-3.985 1.943,-4.203 l -1.428,-4.68 h 3.847"
           style="fill:#231f20;fill-opacity:1;fill-rule:nonzero;stroke:none"
           id="path5609" />
      </g>
      <g
         id="g5611"
         transform="translate(167.786,612.564)">
        <path
           d="m 0,0 v -14.177 h 8.663 v 3.311 H 3.865 V 0 H 0"
           style="fill:#231f20;fill-opacity:1;fill-rule:nonzero;stroke:none"
           id="path5613" />
      </g>
      <g
         id="g5615"
         transform="translate(86.599,592.738)">
        <path
           d="m 0,0 h 4.283 c 1.963,0 3.47,-0.02 4.679,-0.952 1.031,-0.793 1.586,-2.002 1.586,-3.47 0,-2.201 -1.11,-3.607 -3.172,-4.044 l 3.866,-5.711 H 6.88 l -3.252,5.552 v -5.552 H 0 Z m 4.342,-6.702 c 1.626,0 2.4,0.517 2.4,1.766 0,1.486 -0.734,1.962 -2.34,1.962 H 3.628 v -3.728 h 0.714"
           style="fill:#231f20;fill-opacity:1;fill-rule:nonzero;stroke:none"
           id="path5617" />
      </g>
      <g
         id="g5619"
         transform="translate(100.299,592.737)">
        <path
           d="m 0,0 v -14.176 h 8.684 v 3.173 H 3.767 v 2.399 h 4.64 v 3.034 h -4.64 v 2.459 H 8.684 V 0 H 0"
           style="fill:#231f20;fill-opacity:1;fill-rule:nonzero;stroke:none"
           id="path5621" />
      </g>
      <g
         id="g5623"
         transform="translate(110.846,592.738)">
        <path
           d="M 0,0 H 4.104 L 6.94,-7.931 c 0.058,-0.159 0.218,-0.793 0.475,-1.903 0.257,1.11 0.437,1.744 0.496,1.903 L 10.727,0 h 4.104 L 8.882,-14.177 H 5.948 L 0,0"
           style="fill:#231f20;fill-opacity:1;fill-rule:nonzero;stroke:none"
           id="path5625" />
      </g>
      <path
         d="m 128.115,578.561 h 3.9053 v 14.176 h -3.9053 z"
         style="fill:#231f20;fill-opacity:1;fill-rule:nonzero;stroke:none"
         id="path5627" />
      <g
         id="g5629"
         transform="translate(134.837,592.737)">
        <path
           d="m 0,0 v -14.176 h 8.684 v 3.173 H 3.767 v 2.399 h 4.64 v 3.034 h -4.64 v 2.459 H 8.684 V 0 H 0"
           style="fill:#231f20;fill-opacity:1;fill-rule:nonzero;stroke:none"
           id="path5631" />
      </g>
      <g
         id="g5633"
         transform="translate(158.708,585.997)">
        <path
           d="M 0,0 C 0.337,-1.269 0.435,-1.983 0.456,-2.082 0.634,-1.19 0.773,-0.496 0.892,0 L 2.558,6.74 H 6.464 L 2.459,-7.435 H -1.13 l -1.745,6.046 c -0.099,0.358 -0.258,0.992 -0.476,1.904 -0.178,-0.734 -0.317,-1.369 -0.476,-1.904 L -5.552,-7.435 H -9.14 L -13.146,6.74 h 3.907 l 1.625,-6.78 c 0.179,-0.715 0.318,-1.428 0.437,-2.121 0.138,0.732 0.317,1.446 0.495,2.121 l 1.784,6.78 h 3.114 L 0,0"
           style="fill:#231f20;fill-opacity:1;fill-rule:nonzero;stroke:none"
           id="path5635" />
      </g>
      <g
         id="g5637">
        <g
           id="g5639"
           clip-path="url(#clipPath5643)">
          <g
             id="g5645"
             transform="translate(171.198,581.198)">
            <path
               d="m 0,0 c 1.069,0 1.765,0.634 1.765,1.467 0,1.13 -0.775,1.467 -2.38,1.884 -2.557,0.674 -3.807,1.705 -3.807,3.926 0,2.637 1.924,4.6 4.898,4.6 1.586,0 2.973,-0.417 4.203,-1.269 L 3.469,7.832 c -0.892,0.754 -1.843,1.13 -2.716,1.13 -0.951,0 -1.566,-0.515 -1.566,-1.19 0,-1.011 0.972,-1.229 2.259,-1.566 C 3.965,5.532 5.353,4.6 5.353,1.983 c 0,-2.954 -2.102,-4.997 -5.433,-4.997 -2.002,0 -3.509,0.635 -5.036,2.082 l 1.745,2.875 C -2.241,0.655 -1.13,0 0,0"
               style="fill:#231f20;fill-opacity:1;fill-rule:nonzero;stroke:none"
               id="path5647" />
          </g>
        </g>
      </g>
    </g>
  </g>
</svg>
