<?xml version="1.0" encoding="UTF-8" standalone="no"?>
<!-- Created with Inkscape (http://www.inkscape.org/) -->

<svg
   width="1000mm"
   height="1000mm"
   viewBox="0 0 1000 1000"
   version="1.1"
   id="svg2653"
   inkscape:version="1.2 (dc2aedaf03, 2022-05-15)"
   sodipodi:docname="cell host microbe.svg"
   xmlns:inkscape="http://www.inkscape.org/namespaces/inkscape"
   xmlns:sodipodi="http://sodipodi.sourceforge.net/DTD/sodipodi-0.dtd"
   xmlns="http://www.w3.org/2000/svg"
   xmlns:svg="http://www.w3.org/2000/svg">
  <sodipodi:namedview
     id="namedview2655"
     pagecolor="#ffffff"
     bordercolor="#000000"
     borderopacity="0.25"
     inkscape:showpageshadow="2"
     inkscape:pageopacity="0.0"
     inkscape:pagecheckerboard="0"
     inkscape:deskcolor="#d1d1d1"
     inkscape:document-units="mm"
     showgrid="false"
     inkscape:zoom="0.2102413"
     inkscape:cx="-45.186174"
     inkscape:cy="2083.3204"
     inkscape:window-width="2400"
     inkscape:window-height="1494"
     inkscape:window-x="-11"
     inkscape:window-y="-11"
     inkscape:window-maximized="1"
     inkscape:current-layer="layer1" />
  <defs
     id="defs2650">
    <clipPath
       clipPathUnits="userSpaceOnUse"
       id="clipPath2052">
      <path
         d="M 53.121,731.735 H 204.604 V 714.784 H 53.121 Z"
         id="path2050" />
    </clipPath>
  </defs>
  <g
     inkscape:label="Layer 1"
     inkscape:groupmode="layer"
     id="layer1">
    <g
       id="g2046"
       transform="matrix(6.5353868,0,0,-6.5353868,-341.89515,5210.3178)">
      <g
         id="g2048"
         clip-path="url(#clipPath2052)">
        <g
           id="g2054"
           transform="translate(64.64,727.164)">
          <path
             d="m 0,0 c -0.144,1.908 -1.728,4.571 -5.579,4.571 -3.348,0 -5.94,-2.303 -5.94,-6.839 0,-4.462 2.484,-6.767 5.904,-6.767 3.239,0 5.075,1.944 5.615,4.788 h -2.7 c -0.324,-1.584 -1.368,-2.448 -2.879,-2.448 -2.268,0 -3.204,2.088 -3.204,4.391 0,3.672 1.944,4.536 3.204,4.536 2.231,0 2.663,-1.44 2.879,-2.232 z m 6.767,-5.867 c -0.18,-0.684 -0.9,-1.044 -1.62,-1.044 -2.016,0 -2.159,1.62 -2.232,2.34 H 9.502 V -4.14 C 9.466,0.252 6.839,1.152 4.968,1.152 c -4.213,0 -4.608,-3.708 -4.608,-4.86 0,-3.923 2.088,-5.219 4.751,-5.219 1.656,0 3.564,0.756 4.211,3.06 z m -3.815,2.916 c 0.144,1.259 0.755,2.015 1.979,2.015 0.792,0 1.8,-0.468 1.944,-2.015 z m 9.502,7.162 H 9.9345 V -8.711 h 2.5195 z m 3.132,0 h -2.52 V -8.711 h 2.52 z m 12.742,-7.126 v -5.796 h 2.7 V 4.211 h -2.7 v -4.895 h -5.039 v 4.895 h -2.7 V -8.711 h 2.7 v 5.796 z M 41.61,-3.888 c 0,3.456 -2.304,5.04 -4.895,5.04 -2.592,0 -4.895,-1.584 -4.895,-5.04 0,-3.455 2.303,-5.039 4.895,-5.039 2.591,0 4.895,1.584 4.895,5.039 m -2.592,0 c 0,-1.223 -0.359,-2.915 -2.303,-2.915 -1.944,0 -2.304,1.692 -2.304,2.915 0,1.225 0.36,2.916 2.304,2.916 1.944,-0.036 2.303,-1.691 2.303,-2.916 m 11.339,1.872 c -0.216,2.7 -2.448,3.168 -4.32,3.168 -2.987,0 -3.887,-1.8 -3.887,-3.204 0,-3.563 5.94,-2.375 5.94,-3.995 0,-0.36 -0.325,-1.009 -1.621,-1.009 -1.583,0 -2.087,0.613 -2.087,1.405 H 41.79 c 0.072,-2.556 2.448,-3.312 4.608,-3.312 1.475,0 4.174,0.504 4.174,3.312 0,3.528 -5.974,2.447 -5.974,3.923 0,0.432 0.18,0.936 1.548,0.936 1.367,0 1.583,-0.648 1.691,-1.26 h 2.52 z m 4.068,5.508 H 51.904 V 0.9 h -1.295 v -1.8 h 1.295 v -5.795 c 0,-1.26 0.396,-2.088 2.557,-2.088 h 0.324 c 0.395,0 0.791,0 1.187,0.037 v 1.907 c -0.18,0 -0.36,-0.036 -0.504,-0.036 -1.043,0 -1.043,0.217 -1.043,0.792 V -0.9 h 1.547 V 0.9 H 54.425 Z M 66.483,1.26 c 0,-0.648 -0.504,-1.152 -1.189,-1.584 -0.611,0.648 -0.935,1.188 -0.935,1.62 0,0.684 0.503,1.044 1.043,1.044 0.613,0 1.081,-0.36 1.081,-1.08 m 3.311,-7.127 c 0.864,1.152 1.332,2.159 1.476,3.888 h -2.231 c -0.072,-0.972 -0.361,-1.62 -0.648,-2.123 l -1.836,2.266 c 0.54,0.289 2.16,1.26 2.16,3.06 0,2.088 -1.729,2.987 -3.168,2.987 -2.016,0 -3.42,-1.188 -3.42,-2.951 0,-1.116 0.648,-2.088 1.152,-2.7 l -0.252,-0.143 c -2.16,-1.297 -2.483,-2.519 -2.483,-3.78 0,-1.907 1.583,-3.672 4.031,-3.672 1.944,0 2.951,0.684 3.671,1.44 l 0.9,-1.116 h 3.024 z m -2.879,-0.144 c -0.432,-0.396 -1.152,-0.9 -1.98,-0.9 -1.512,0 -1.908,1.187 -1.908,1.727 0,1.009 0.468,1.369 1.512,2.16 z M 89.195,4.211 H 85.308 L 83.005,-5.975 H 82.969 L 80.593,4.211 h -3.96 V -8.711 h 2.519 V 2.088 h 0.037 l 2.34,-10.799 h 2.663 L 86.604,2.088 H 86.64 V -8.711 h 2.519 V 4.211 Z m 1.548,-12.922 h 2.521 V 0.8998 H 90.743 Z M 93.264,4.356 H 90.743 V 2.0157 h 2.521 z m 7.198,-9.54 c 0,-0.431 -0.432,-1.691 -1.728,-1.691 -1.908,0 -1.943,2.088 -1.943,3.132 0,1.187 0.396,2.771 1.98,2.771 1.152,0.072 1.584,-0.9 1.691,-1.547 h 2.556 c -0.216,2.987 -2.701,3.671 -4.247,3.671 -3.241,0 -4.608,-2.232 -4.608,-5.292 0,-2.015 0.827,-4.787 4.428,-4.787 3.491,0 4.282,2.772 4.354,3.743 z m 3.42,-3.527 h 2.519 v 5.003 c 0,1.081 0.36,2.304 2.34,2.304 0.252,0 0.504,0 0.719,-0.036 v 2.556 c -0.179,0 -0.323,0.036 -0.467,0.036 -1.512,0 -2.124,-0.936 -2.628,-1.908 h -0.036 V 0.9 h -2.411 v -9.611 z m 15.874,4.823 c 0,3.456 -2.34,5.04 -4.896,5.04 -2.591,0 -4.895,-1.584 -4.895,-5.04 0,-3.455 2.339,-5.039 4.895,-5.039 2.591,0 4.896,1.584 4.896,5.039 m -2.592,0 c 0,-1.223 -0.36,-2.915 -2.304,-2.915 -1.944,0 -2.303,1.692 -2.303,2.915 0,1.225 0.359,2.916 2.303,2.916 1.944,-0.036 2.304,-1.691 2.304,-2.916 m 10.187,-0.107 c 0,-1.116 -0.432,-2.88 -2.088,-2.88 -1.619,0 -2.232,1.332 -2.232,2.773 0,1.511 0.432,3.059 2.16,3.059 1.62,0 2.16,-1.404 2.16,-2.952 m -4.211,8.206 h -2.521 V -8.711 h 2.448 v 1.188 h 0.037 c 0.611,-1.079 1.727,-1.44 2.771,-1.44 2.844,0 4.031,2.52 4.031,5.148 0,3.312 -1.872,4.931 -3.96,4.931 -1.619,0 -2.375,-0.9 -2.77,-1.512 h -0.036 z m 14.181,-10.078 c -0.18,-0.684 -0.899,-1.044 -1.62,-1.044 -2.015,0 -2.159,1.62 -2.231,2.34 h 6.551 v 0.431 c 0,4.356 -2.592,5.256 -4.499,5.256 -4.176,0 -4.608,-3.707 -4.608,-4.859 0,-3.924 2.088,-5.22 4.752,-5.22 1.619,0 3.563,0.756 4.211,3.06 h -2.556 z m -3.779,2.916 c 0.144,1.259 0.792,2.015 1.98,2.015 0.792,0 1.799,-0.468 1.944,-2.015 h -3.924"
             style="fill:#0296d3;fill-opacity:1;fill-rule:nonzero;stroke:none"
             id="path2056" />
        </g>
      </g>
    </g>
  </g>
</svg>
