<?xml version="1.0" encoding="UTF-8" standalone="no"?>
<!-- Created with Inkscape (http://www.inkscape.org/) -->

<svg
   width="1000mm"
   height="1000mm"
   viewBox="0 0 1000 1000"
   version="1.1"
   id="svg951"
   inkscape:version="1.2 (dc2aedaf03, 2022-05-15)"
   sodipodi:docname="commbio.svg"
   xmlns:inkscape="http://www.inkscape.org/namespaces/inkscape"
   xmlns:sodipodi="http://sodipodi.sourceforge.net/DTD/sodipodi-0.dtd"
   xmlns="http://www.w3.org/2000/svg"
   xmlns:svg="http://www.w3.org/2000/svg">
  <sodipodi:namedview
     id="namedview953"
     pagecolor="#ffffff"
     bordercolor="#000000"
     borderopacity="0.25"
     inkscape:showpageshadow="2"
     inkscape:pageopacity="0.0"
     inkscape:pagecheckerboard="0"
     inkscape:deskcolor="#d1d1d1"
     inkscape:document-units="mm"
     showgrid="false"
     inkscape:zoom="0.2102413"
     inkscape:cx="394.78447"
     inkscape:cy="561.25984"
     inkscape:window-width="3000"
     inkscape:window-height="1890"
     inkscape:window-x="-12"
     inkscape:window-y="-12"
     inkscape:window-maximized="1"
     inkscape:current-layer="layer1" />
  <defs
     id="defs948" />
  <g
     inkscape:label="Layer 1"
     inkscape:groupmode="layer"
     id="layer1">
    <g
       id="g896"
       transform="matrix(4.6710823,0,0,-4.6710823,-179.06549,3947.1718)">
      <g
         id="g391"
         transform="translate(43.587002,752.32397)">
        <path
           d="M 0,0 V 0.207 C 0,4.7150001 3.2390001,7.3070002 7.2290001,7.3070002 10.546,7.3070002 13.603,5.855 13.862,1.735 H 9.5089998 C 9.302,3.006 8.6800003,3.7049999 7.3330002,3.7049999 5.6999998,3.7049999 4.7420001,2.539 4.7420001,0.25799998 V 0.051 c 0,-2.3579999 0.9059997,-3.5760001 2.6689997,-3.5760001 1.2950005,0 2.2020001,0.7780001 2.3580003,2.2550001 L 13.94,-1.27 C 13.81,-4.691 11.504,-6.9190001 7.1259999,-6.9190001 3.0840001,-6.9190001 0,-4.5619998 0,0"
           style="fill:#231f20;fill-opacity:1;fill-rule:nonzero;stroke:none"
           id="path393" />
      </g>
      <g
         id="g395"
         transform="translate(68.185997,752.401)">
        <path
           d="m 0,0 v 0.207 c 0,2.28 -0.90600001,3.55 -2.668,3.55 -1.7359998,0 -2.6949999,-1.218 -2.6949999,-3.498 V 0.052 c 0,-2.332 0.9070001,-3.602 2.6949999,-3.602 C -0.93199998,-3.55 0,-2.2550001 0,0 Z M -10.104,-0.077 V 0.13 c 0,4.3519999 3.2379998,7.0990001 7.436,7.0990001 4.171,0 7.385,-2.6690002 7.385,-6.9700001 V 0.052 c 0,-4.4050002 -3.24,-7.0479998 -7.411,-7.0479998 -4.1720002,0 -7.41,2.539 -7.41,6.9189998"
           style="fill:#231f20;fill-opacity:1;fill-rule:nonzero;stroke:none"
           id="path397" />
      </g>
      <g
         id="g399"
         transform="translate(74.293999,759.26703)">
        <path
           d="M 0,0 H 4.638 V -2.072 C 5.3629999,-0.77700001 6.7880001,0.363 8.8879995,0.363 10.676,0.363 11.919,-0.414 12.566,-1.8919999 13.732,-0.31099998 15.34,0.363 17.049999,0.363 19.614,0.363 21.48,-1.2949999 21.48,-4.69 v -8.862 h -4.638001 v 8.085 c 0,1.3730001 -0.672998,2.0469999 -1.736999,2.0469999 -1.243,0 -2.072,-0.8039999 -2.072,-2.2799997 V -13.552 H 8.4460001 v 8.085 c 0,1.3730001 -0.6740003,2.0469999 -1.7350001,2.0469999 -1.244,0 -2.073,-0.8039999 -2.073,-2.2799997 V -13.552 H 0 V 0"
           style="fill:#231f20;fill-opacity:1;fill-rule:nonzero;stroke:none"
           id="path401" />
      </g>
      <g
         id="g403"
         transform="translate(97.863998,759.26703)">
        <path
           d="M 0,0 H 4.638 V -2.072 C 5.3629999,-0.77700001 6.7880001,0.363 8.8870001,0.363 10.675,0.363 11.919,-0.414 12.566,-1.8919999 13.732,-0.31099998 15.339,0.363 17.049,0.363 c 2.565,0 4.431,-1.6579999 4.431,-5.053 v -8.862 h -4.638001 v 8.085 c 0,1.3730001 -0.672998,2.0469999 -1.736999,2.0469999 -1.243,0 -2.072,-0.8039999 -2.072,-2.2799997 V -13.552 H 8.4460001 v 8.085 c 0,1.3730001 -0.6740003,2.0469999 -1.7350001,2.0469999 -1.244,0 -2.073,-0.8039999 -2.073,-2.2799997 V -13.552 H 0 V 0"
           style="fill:#231f20;fill-opacity:1;fill-rule:nonzero;stroke:none"
           id="path405" />
      </g>
      <g
         id="g407"
         transform="translate(121.292,750.43103)">
        <path
           d="M 0,0 V 8.8360004 H 4.6389999 V 0.75199997 c 0,-1.52899998 0.5950003,-2.27999997 1.9170003,-2.27999997 1.3989997,0 2.3060003,0.829 2.3060003,2.5649999 V 8.8360004 H 13.5 V -4.7160001 H 8.8620005 v 2.099 C 8.1370001,-4.0159998 6.8140001,-5.026 4.5609999,-5.026 1.9429999,-5.026 0,-3.4200001 0,0"
           style="fill:#231f20;fill-opacity:1;fill-rule:nonzero;stroke:none"
           id="path409" />
      </g>
      <g
         id="g411"
         transform="translate(136.922,759.26703)">
        <path
           d="m 0,0 h 4.638 v -2.177 c 0.7259998,1.39999999 2.2030001,2.54 4.4570003,2.54 C 11.712,0.363 13.526,-1.27 13.526,-4.7410002 V -13.552 H 8.8879995 v 7.8769998 C 8.8879995,-4.1459999 8.2910004,-3.395 6.9439998,-3.395 5.5710001,-3.395 4.638,-4.224 4.638,-5.9590001 V -13.552 H 0 V 0"
           style="fill:#231f20;fill-opacity:1;fill-rule:nonzero;stroke:none"
           id="path413" />
      </g>
      <g
         id="g415"
         transform="translate(152.54401,759.26703)">
        <path
           d="M 0,0 H 4.638 V -13.552 H 0 Z m -0.233,3.6800001 c 0,1.3729999 1.08800001,2.4090001 2.539,2.4090001 1.4519999,0 2.5649998,-1.0360002 2.5649998,-2.4090001 C 4.8709998,2.306 3.7579999,1.296 2.306,1.296 c -1.45099999,0 -2.539,1.01 -2.539,2.3840001"
           style="fill:#231f20;fill-opacity:1;fill-rule:nonzero;stroke:none"
           id="path417" />
      </g>
      <g
         id="g419"
         transform="translate(158.558,752.32397)">
        <path
           d="m 0,0 v 0.207 c 0,4.5080001 3.2390001,7.1000002 7.23,7.1000002 3.317,0 6.373,-1.4520002 6.633,-5.5720002 H 9.5089998 C 9.302,3.006 8.6800003,3.7049999 7.3330002,3.7049999 c -1.632,0 -2.5910001,-1.1659999 -2.5910001,-3.44699992 V 0.051 c 0,-2.3579999 0.9070001,-3.5760001 2.6689997,-3.5760001 1.296,0 2.2020001,0.7780001 2.3580003,2.2550001 H 13.94 C 13.81,-4.691 11.505,-6.9190001 7.1259999,-6.9190001 3.0840001,-6.9190001 0,-4.5619998 0,0"
           style="fill:#231f20;fill-opacity:1;fill-rule:nonzero;stroke:none"
           id="path421" />
      </g>
      <g
         id="g423"
         transform="translate(181.55701,750.45697)">
        <path
           d="m 0,0 v 0.82999998 h -1.217 c -1.8659999,0 -2.6949999,-0.36299998 -2.6949999,-1.47699999 C -3.9119999,-1.424 -3.394,-1.916 -2.306,-1.916 -0.98500001,-1.916 0,-1.166 0,0 Z M -8.4980001,-0.98400002 C -8.4980001,2.2030001 -5.8039999,3.447 -1.2949999,3.447 H 0 V 3.7579999 C 0,5.0539999 -0.31099998,5.908 -1.788,5.908 c -1.2689999,0 -1.7359999,-0.7509999 -1.8390001,-1.606 h -4.3539998 c 0.2069997,3.2649999 2.7740001,4.8719998 6.4789999,4.8719998 3.7299999,0 6.1149999,-1.5299998 6.1149999,-5.1309996 V -4.7410002 H 0.104 v 1.5810001 C -0.54400002,-4.145 -1.7359999,-5.052 -3.9119999,-5.052 c -2.4360001,0 -4.5860002,1.1920001 -4.5860002,4.06799998"
           style="fill:#231f20;fill-opacity:1;fill-rule:nonzero;stroke:none"
           id="path425" />
      </g>
      <g
         id="g427"
         transform="translate(188.662,750.06897)">
        <path
           d="M 0,0 V 6.0370002 H -1.633 V 9.198 H 0 v 2.824 H 4.6389999 V 9.198 H 7.3070002 V 6.0370002 H 4.6389999 V 0.44 c 0,-0.98400002 0.4920001,-1.42400002 1.3730002,-1.42400002 0.5169997,0 0.9060001,0.077 1.3210001,0.23300004 V -4.2750001 C 6.737,-4.4310002 5.8569999,-4.664 4.7680001,-4.664 1.71,-4.664 0,-3.187 0,0"
           style="fill:#231f20;fill-opacity:1;fill-rule:nonzero;stroke:none"
           id="path429" />
      </g>
      <g
         id="g431"
         transform="translate(197.591,759.26703)">
        <path
           d="M 0,0 H 4.6388998 V -13.552 H 0 Z m -0.233,3.6800001 c 0,1.3729999 1.08800001,2.4090001 2.5399999,2.4090001 1.451,0 2.5639999,-1.0360002 2.5639999,-2.4090001 C 4.8709998,2.306 3.7579999,1.296 2.3069999,1.296 0.85500001,1.296 -0.233,2.306 -0.233,3.6800001"
           style="fill:#231f20;fill-opacity:1;fill-rule:nonzero;stroke:none"
           id="path433" />
      </g>
      <g
         id="g435"
         transform="translate(213.711,752.401)">
        <path
           d="m 0,0 v 0.207 c 0,2.28 -0.907,3.55 -2.6689999,3.55 -1.7360003,0 -2.694,-1.218 -2.694,-3.498 V 0.052 c 0,-2.332 0.9060001,-3.602 2.694,-3.602 C -0.93400001,-3.55 0,-2.2550001 0,0 Z M -10.105,-0.077 V 0.13 c 0,4.3519999 3.2389998,7.0990001 7.4360001,7.0990001 4.1719999,0 7.384,-2.6690002 7.384,-6.9700001 V 0.052 c 0,-4.4050002 -3.2380001,-7.0479998 -7.4090001,-7.0479998 -4.1720002,0 -7.411,2.539 -7.411,6.9189998"
           style="fill:#231f20;fill-opacity:1;fill-rule:nonzero;stroke:none"
           id="path437" />
      </g>
      <g
         id="g439"
         transform="translate(219.817,759.26703)">
        <path
           d="m 0,0 h 4.6389999 v -2.177 c 0.7259999,1.39999999 2.2020002,2.54 4.4569998,2.54 C 11.713,0.363 13.527,-1.27 13.527,-4.7410002 V -13.552 H 8.8889999 v 7.8769998 c 0,1.5290003 -0.5970001,2.2800002 -1.9439997,2.2800002 -1.3720003,0 -2.3060003,-0.829 -2.3060003,-2.5640001 V -13.552 H 0 V 0"
           style="fill:#231f20;fill-opacity:1;fill-rule:nonzero;stroke:none"
           id="path441" />
      </g>
      <g
         id="g443"
         transform="translate(234.60699,750.01703)">
        <path
           d="m 0,0 h 4.2740002 c 0.1549997,-0.98400002 0.5969996,-1.529 1.9179997,-1.529 1.1399999,0 1.658,0.44 1.658,1.114 0,0.648 -0.6469998,0.95900002 -2.5139999,1.21799997 C 1.7079999,1.27 0.18,2.332 0.18,5.1560001 0.18,8.1619997 2.849,9.6129999 5.9850001,9.6129999 9.3269997,9.6129999 11.659,8.4729996 11.97,5.2329998 H 7.7719998 c -0.1819997,0.908 -0.6739998,1.348 -1.7349996,1.348 C 5.026,6.5809998 4.507,6.1409998 4.507,5.52 4.507,4.8709998 5.1290002,4.6110001 6.7880001,4.4039998 10.544,3.938 12.359,2.9530001 12.359,0.052 12.359,-3.161 9.9750004,-4.612 6.217,-4.612 2.3570001,-4.612 0.102,-3.006 0,0"
           style="fill:#231f20;fill-opacity:1;fill-rule:nonzero;stroke:none"
           id="path445" />
      </g>
      <g
         id="g447"
         transform="translate(55.791,724.88)">
        <path
           d="m 0,0 v 0.207 c 0,3.4200001 -1.8919999,5.1299999 -4.1719999,5.1299999 -2.514,0 -4.4300003,-1.658 -4.4300003,-5.1299999 V 0 c 0,-3.473 1.8140001,-5.105 4.4570002,-5.105 C -1.45,-5.105 0,-3.2909999 0,0 Z M -8.5249996,-4.4320002 V -6.6589999 H -10.676 V 13.369 h 2.1510004 V 4.6110001 C -7.7470002,5.934 -5.9070001,7.125 -3.938,7.125 c 3.549,0 6.1659999,-2.5910001 6.1659999,-6.81400002 V 0.104 c 0,-4.1470002 -2.4349999,-6.9970001 -6.1659999,-6.9970001 -2.2029998,0 -3.8090002,1.1140003 -4.5869996,2.4609999"
           style="fill:#231f20;fill-opacity:1;fill-rule:nonzero;stroke:none"
           id="path449" />
      </g>
      <g
         id="g451"
         transform="translate(60.433998,731.77197)">
        <path
           d="M 0,0 H 2.1503 V -13.551 H 0 Z m -0.389,4.25 c 0,0.776 0.648,1.4250002 1.4259999,1.4250002 C 1.813,5.6750002 2.461,5.026 2.461,4.25 2.461,3.4719999 1.813,2.8239999 1.0369999,2.8239999 0.259,2.8239999 -0.389,3.4719999 -0.389,4.25"
           style="fill:#231f20;fill-opacity:1;fill-rule:nonzero;stroke:none"
           id="path453" />
      </g>
      <g
         id="g455"
         transform="translate(76.003998,724.88)">
        <path
           d="M 0,0 V 0.181 C 0,3.316 -1.7359999,5.3369999 -4.4320002,5.3369999 -7.151,5.3369999 -8.8610001,3.316 -8.8610001,0.207 V 0 c 0,-3.0840001 1.6830001,-5.105 4.4289999,-5.105 C -1.71,-5.105 0,-3.059 0,0 Z m -11.091,0 v 0.207 c 0,4.0680001 2.8239998,6.918 6.6589998,6.918 C -0.597,7.125 2.227,4.3010001 2.227,0.232 V 0.025 c 0,-4.0929998 -2.824,-6.9180001 -6.6839998,-6.9180001 -3.861,0 -6.6340002,2.9280002 -6.6340002,6.8930001"
           style="fill:#231f20;fill-opacity:1;fill-rule:nonzero;stroke:none"
           id="path457" />
      </g>
      <path
         d="m 80.819,718.22101 h 2.1768 v 20.028 H 80.819 Z"
         style="fill:#231f20;fill-opacity:1;fill-rule:nonzero;stroke:none"
         id="path459" />
      <g
         id="g461"
         transform="translate(96.598,724.88)">
        <path
           d="M 0,0 V 0.181 C 0,3.316 -1.735,5.3369999 -4.4310002,5.3369999 -7.151,5.3369999 -8.8610001,3.316 -8.8610001,0.207 V 0 c 0,-3.0840001 1.6830001,-5.105 4.4299999,-5.105 C -1.71,-5.105 0,-3.059 0,0 Z m -11.09,0 v 0.207 c 0,4.0680001 2.8240002,6.918 6.6589998,6.918 3.83500019,0 6.6590001,-2.8239999 6.6590001,-6.893 V 0.025 c 0,-4.0929998 -2.82399991,-6.9180001 -6.6839997,-6.9180001 C -8.3170004,-6.8930001 -11.09,-3.9649999 -11.09,0"
           style="fill:#231f20;fill-opacity:1;fill-rule:nonzero;stroke:none"
           id="path463" />
      </g>
      <g
         id="g465"
         transform="translate(111.241,725.24298)">
        <path
           d="m 0,0 v 0.182 c 0,3.0310001 -1.658,4.7929999 -4.3010001,4.7929999 -2.6949997,0 -4.3010001,-1.9959998 -4.3010001,-4.8449999 v -0.207 c 0,-2.9539999 1.8910002,-4.7170001 4.171,-4.7170001 C -1.917,-4.7940001 0,-3.0309999 0,0 Z m -10.546,-7.8000002 h 2.2020001 C -8.0319996,-9.3529997 -6.7360001,-10.157 -4.4310002,-10.157 -1.762,-10.157 -0.077,-8.8879995 -0.077,-5.9850001 v 1.9679999 c -0.77800001,-1.3209996 -2.617,-2.5639996 -4.587,-2.5639996 -3.5499997,0 -6.167,2.6939997 -6.167,6.4259998 v 0.18 c 0,3.6799999 2.5919997,6.738 6.3220002,6.738 2.2549999,0 3.65399979,-1.0879998 4.4319998,-2.4099998 V 6.5289998 H 2.0729999 V -6.1149998 C 2.0480001,-10.054 -0.621,-11.971 -4.4039998,-11.971 c -4.0169997,0 -5.7790002,1.892 -6.1420002,4.1709998"
           style="fill:#231f20;fill-opacity:1;fill-rule:nonzero;stroke:none"
           id="path467" />
      </g>
      <g
         id="g469"
         transform="translate(120.432,719.62)">
        <path
           d="M 0,0 -5.3119998,12.152 H -3.006 L 1.14,2.4349999 4.8969998,12.152 H 7.0999999 L -0.389,-6.1139998 H -2.5650001 L 0,0"
           style="fill:#231f20;fill-opacity:1;fill-rule:nonzero;stroke:none"
           id="path471" />
      </g>
    </g>
  </g>
</svg>
