<?xml version="1.0" encoding="UTF-8" standalone="no"?>
<!-- Created with Inkscape (http://www.inkscape.org/) -->

<svg
   width="1000mm"
   height="1000mm"
   viewBox="0 0 1000 1000"
   version="1.1"
   id="svg6196"
   inkscape:version="1.2 (dc2aedaf03, 2022-05-15)"
   sodipodi:docname="frontiers.svg"
   xmlns:inkscape="http://www.inkscape.org/namespaces/inkscape"
   xmlns:sodipodi="http://sodipodi.sourceforge.net/DTD/sodipodi-0.dtd"
   xmlns="http://www.w3.org/2000/svg"
   xmlns:svg="http://www.w3.org/2000/svg">
  <sodipodi:namedview
     id="namedview6198"
     pagecolor="#ffffff"
     bordercolor="#000000"
     borderopacity="0.25"
     inkscape:showpageshadow="2"
     inkscape:pageopacity="0.0"
     inkscape:pagecheckerboard="0"
     inkscape:deskcolor="#d1d1d1"
     inkscape:document-units="mm"
     showgrid="false"
     inkscape:zoom="0.2102413"
     inkscape:cx="984.58294"
     inkscape:cy="2459.0791"
     inkscape:window-width="2400"
     inkscape:window-height="1494"
     inkscape:window-x="-11"
     inkscape:window-y="-11"
     inkscape:window-maximized="1"
     inkscape:current-layer="layer1" />
  <defs
     id="defs6193">
    <rect
       x="2601.7723"
       y="2768.2477"
       width="1227.1614"
       height="722.97878"
       id="rect7687" />
    <rect
       x="1398.3932"
       y="2164.1799"
       width="832.37689"
       height="1132.0326"
       id="rect7681" />
    <rect
       x="875.18484"
       y="1212.892"
       width="299.65568"
       height="1450.714"
       id="rect7621" />
    <clipPath
       clipPathUnits="userSpaceOnUse"
       id="clipPath8001">
      <path
         d="m 444.871,7537.09 v -336.9 H 2098.53 v 336.9 z"
         id="path7999" />
    </clipPath>
  </defs>
  <g
     inkscape:label="Layer 1"
     inkscape:groupmode="layer"
     id="layer1">
    <text
       xml:space="preserve"
       transform="scale(0.26458333)"
       id="text7619"
       style="white-space:pre;shape-inside:url(#rect7621);display:inline;fill:#000000" />
    <text
       xml:space="preserve"
       transform="scale(0.26458333)"
       id="text7679"
       style="white-space:pre;shape-inside:url(#rect7681);display:inline;fill:#000000" />
    <text
       xml:space="preserve"
       transform="scale(0.26458333)"
       id="text7685"
       style="font-style:normal;font-variant:normal;font-weight:normal;font-stretch:normal;font-size:266.667px;font-family:'Microsoft Sans Serif';-inkscape-font-specification:'Microsoft Sans Serif';white-space:pre;shape-inside:url(#rect7687);display:inline;fill:#000000" />
    <g
       id="g7995"
       transform="matrix(0.57448361,0,0,-0.57448361,-230.81197,4723.2883)">
      <g
         id="g7997"
         clip-path="url(#clipPath8001)">
        <path
           d="m 662.098,7320.36 h 10.175 v -11.23 h -10.175 z m -10.715,-85.52 h 11.242 v 51.69 h -11.906 v 7.4 h 20.89 v -59.09 h 11.239 v -7.4 h -31.465 v 7.4"
           style="fill:#7b7979;fill-opacity:1;fill-rule:nonzero;stroke:none"
           id="path8003" />
        <path
           d="m 689.539,7234.84 h 11.238 v 48.78 c 0,1.99 -1.062,2.91 -2.91,2.91 h -8.992 v 7.4 h 12.695 c 5.555,0 8.067,-2.37 8.067,-7.4 v -3.83 c 0,-2.65 -0.539,-4.77 -0.539,-4.77 h 0.273 c 1.848,5.03 10.442,17.59 27.102,17.59 16.386,0 22.07,-9.38 22.07,-25.78 v -34.9 h 11.238 v -7.4 h -20.222 v 39.92 c 0,10.45 -1.719,19.71 -14.543,19.71 -14.676,0 -25.254,-12.96 -25.254,-27.64 v -24.59 h 11.242 v -7.4 h -31.465 v 7.4"
           style="fill:#7b7979;fill-opacity:1;fill-rule:nonzero;stroke:none"
           id="path8005" />
        <path
           d="m 854.527,7321.96 c 11.243,0 34.641,-4.23 34.641,-18.51 v -9.91 h -8.859 v 7.4 c 0,9.12 -15.868,12.69 -25.379,12.69 -21.555,0 -37.813,-16.39 -37.813,-38.86 0,-23.14 16.258,-40.59 38.34,-40.59 7.527,0 26.309,2.91 26.309,12.69 v 7.27 h 8.847 v -9.92 c 0,-13.47 -22.597,-18.36 -35.422,-18.36 -27.761,0 -47.722,21.67 -47.722,48.64 0,27.11 20.488,47.46 47.058,47.46"
           style="fill:#7b7979;fill-opacity:1;fill-rule:nonzero;stroke:none"
           id="path8007" />
        <path
           d="m 950.992,7267.23 c -0.527,14.01 -8.984,20.75 -18.769,20.75 -11.102,0 -20.75,-7.27 -22.871,-20.75 z m -18.504,28.29 c 18.379,0 27.891,-14.15 27.891,-30.67 0,-1.58 -0.391,-4.23 -0.391,-4.23 h -51.027 c 0.391,-17.05 12.031,-26.7 25.773,-26.7 12.168,0 20.235,7.93 20.235,7.93 l 4.09,-6.75 c 0,0 -9.52,-9.24 -24.59,-9.24 -19.824,0 -34.766,14.27 -34.766,34.76 0,21.82 14.805,34.9 32.785,34.9"
           style="fill:#7b7979;fill-opacity:1;fill-rule:nonzero;stroke:none"
           id="path8009" />
        <path
           d="M 972.496,7312.97 H 960.73 v 7.39 h 20.75 v -75.6 c 0,-5.42 1.458,-9.92 7.54,-9.92 2.382,0 3.703,0.26 3.703,0.26 v -7.66 c 0,0 -2.512,-0.4 -5.157,-0.4 -8.722,0 -15.07,4.36 -15.07,17.06 v 68.87"
           style="fill:#7b7979;fill-opacity:1;fill-rule:nonzero;stroke:none"
           id="path8011" />
        <path
           d="m 1002.24,7312.97 h -11.763 v 7.39 h 20.763 v -75.6 c 0,-5.42 1.45,-9.92 7.53,-9.92 2.38,0 3.7,0.26 3.7,0.26 v -7.66 c 0,0 -2.51,-0.4 -5.16,-0.4 -8.72,0 -15.07,4.36 -15.07,17.06 v 68.87"
           style="fill:#7b7979;fill-opacity:1;fill-rule:nonzero;stroke:none"
           id="path8013" />
        <path
           d="m 1033.16,7286.53 h -11.89 v 7.4 h 20.89 v -40.05 c 0,-10.45 1.58,-19.7 14.54,-19.7 14.93,0 24.45,13.75 24.45,28.16 v 24.19 h -11.9 v 7.4 h 20.89 v -56.31 c 0,-1.98 1.06,-2.91 2.9,-2.91 h 7.54 v -7.27 h -11.24 c -5.54,0 -7.93,2.38 -7.93,7.4 v 3.31 c 0,2.64 0.14,4.76 0.14,4.76 h -0.26 c -1.72,-5.03 -9.93,-17.05 -26.31,-17.05 -15.34,0 -21.82,8.45 -21.82,25.77 v 34.9"
           style="fill:#7b7979;fill-opacity:1;fill-rule:nonzero;stroke:none"
           id="path8015" />
        <path
           d="m 1109.84,7312.97 h -11.76 v 7.39 h 20.76 v -75.6 c 0,-5.42 1.45,-9.92 7.54,-9.92 2.37,0 3.69,0.26 3.69,0.26 v -7.66 c 0,0 -2.52,-0.4 -5.15,-0.4 -8.73,0 -15.08,4.36 -15.08,17.06 v 68.87"
           style="fill:#7b7979;fill-opacity:1;fill-rule:nonzero;stroke:none"
           id="path8017" />
        <path
           d="m 1158.61,7233.25 c 13.35,0 20.89,13.36 20.89,24.99 v 3.17 h -3.84 c -5.42,0 -31.33,0.53 -31.33,-14.8 0,-6.88 5.03,-13.36 14.28,-13.36 z m 16.52,34.91 h 4.37 v 2.77 c 0,12.43 -6.74,16.79 -16,16.79 -11.24,0 -19.29,-6.48 -19.29,-6.48 l -4.23,6.74 c 0,0 8.98,7.54 24.05,7.54 16.13,0 24.46,-8.59 24.46,-24.99 v -32.78 c 0,-1.98 1.06,-2.91 2.9,-2.91 h 7.28 v -7.4 h -10.84 c -5.69,0 -7.93,2.51 -7.93,7.27 v 1.19 c 0,3.17 0.39,5.16 0.39,5.16 h -0.26 c 0,0 -5.69,-15.2 -22.74,-15.2 -10.84,0 -22.2,6.21 -22.2,19.82 0,21.55 28.81,22.48 40.04,22.48"
           style="fill:#7b7979;fill-opacity:1;fill-rule:nonzero;stroke:none"
           id="path8019" />
        <path
           d="m 1205.56,7234.84 h 10.31 v 48.78 c 0,1.99 -1.06,2.91 -2.91,2.91 h -8.99 v 7.4 h 12.56 c 5.56,0 8.07,-2.25 8.07,-7.53 v -4.5 c 0,-2.77 -0.27,-5.02 -0.27,-5.02 h 0.27 c 3.3,10.05 10.7,17.71 21.01,17.71 1.86,0 3.7,-0.39 3.7,-0.39 v -8.85 c 0,0 -1.72,0.26 -3.43,0.26 -14.93,0 -21.02,-16.8 -21.02,-30.01 v -20.76 h 10.31 v -7.4 h -29.61 v 7.4"
           style="fill:#7b7979;fill-opacity:1;fill-rule:nonzero;stroke:none"
           id="path8021" />
        <path
           d="m 1286.47,7235.1 h 12.16 v 77.61 h -12.16 v 7.65 h 21.16 L 1359.7,7247 c 1.33,-2.11 2.79,-5.68 2.79,-5.68 h 0.25 c 0,0 -0.52,3.97 -0.39,6.48 v 64.91 h -12.3 v 7.65 h 33.72 v -7.65 h -12.16 v -85.27 h -9 l -52.07,73.36 c -1.33,2.12 -2.79,5.69 -2.79,5.69 h -0.26 c 0,0 0.53,-3.97 0.4,-6.34 v -65.05 h 12.29 v -7.66 h -33.71 v 7.66"
           style="fill:#7b7979;fill-opacity:1;fill-rule:nonzero;stroke:none"
           id="path8023" />
        <path
           d="m 1439.23,7267.23 c -0.53,14.01 -8.99,20.75 -18.77,20.75 -11.11,0 -20.76,-7.27 -22.87,-20.75 z m -18.51,28.29 c 18.38,0 27.9,-14.15 27.9,-30.67 0,-1.58 -0.4,-4.23 -0.4,-4.23 h -51.02 c 0.39,-17.05 12.03,-26.7 25.78,-26.7 12.15,0 20.22,7.93 20.22,7.93 l 4.09,-6.75 c 0,0 -9.51,-9.24 -24.59,-9.24 -19.82,0 -34.76,14.27 -34.76,34.76 0,21.82 14.8,34.9 32.78,34.9"
           style="fill:#7b7979;fill-opacity:1;fill-rule:nonzero;stroke:none"
           id="path8025" />
        <path
           d="m 1463.19,7286.53 h -11.9 v 7.4 h 20.88 v -40.05 c 0,-10.45 1.6,-19.7 14.55,-19.7 14.94,0 24.46,13.75 24.46,28.16 v 24.19 h -11.91 v 7.4 h 20.89 v -56.31 c 0,-1.98 1.07,-2.91 2.91,-2.91 h 7.54 v -7.27 h -11.24 c -5.55,0 -7.93,2.38 -7.93,7.4 v 3.31 c 0,2.64 0.13,4.76 0.13,4.76 h -0.26 c -1.72,-5.03 -9.92,-17.05 -26.31,-17.05 -15.34,0 -21.81,8.45 -21.81,25.77 v 34.9"
           style="fill:#7b7979;fill-opacity:1;fill-rule:nonzero;stroke:none"
           id="path8027" />
        <path
           d="m 1538,7234.84 h 10.32 v 48.78 c 0,1.99 -1.06,2.91 -2.91,2.91 h -8.99 v 7.4 h 12.55 c 5.56,0 8.07,-2.25 8.07,-7.53 v -4.5 c 0,-2.77 -0.27,-5.02 -0.27,-5.02 h 0.27 c 3.31,10.05 10.71,17.71 21.02,17.71 1.85,0 3.7,-0.39 3.7,-0.39 v -8.85 c 0,0 -1.71,0.26 -3.43,0.26 -14.94,0 -21.03,-16.8 -21.03,-30.01 v -20.76 h 10.31 v -7.4 H 1538 v 7.4"
           style="fill:#7b7979;fill-opacity:1;fill-rule:nonzero;stroke:none"
           id="path8029" />
        <path
           d="m 1618.06,7233.92 c 14.28,0 25.91,11.63 25.91,27.1 0,15.07 -11.63,26.43 -25.91,26.43 -14.14,0 -25.78,-11.36 -25.78,-26.43 0,-15.47 11.64,-27.1 25.78,-27.1 z m 0,61.6 c 19.44,0 35.17,-14.81 35.17,-34.5 0,-20.1 -15.73,-35.16 -35.17,-35.16 -19.29,0 -35.03,15.06 -35.03,35.16 0,19.69 15.74,34.5 35.03,34.5"
           style="fill:#7b7979;fill-opacity:1;fill-rule:nonzero;stroke:none"
           id="path8031" />
        <path
           d="m 1660.22,7248.06 h 8.2 v -4.76 c 0,-6.74 9.65,-9.65 17.32,-9.65 8.46,0 15.59,3.71 15.59,10.45 0,7.66 -8.45,10.31 -17.97,13.87 -10.04,3.7 -20.62,8.21 -20.62,19.84 0,12.15 11.9,17.71 23,17.71 8.99,0 22.08,-3.84 22.08,-12.96 v -7.66 h -8.2 v 4.89 c 0,4.89 -6.62,7.93 -13.62,7.93 -7.4,0 -14.01,-3.18 -14.01,-9.65 0,-7.28 8.07,-10.31 16.79,-13.49 10.31,-3.7 21.68,-8.06 21.68,-19.96 0,-11.5 -10.31,-18.76 -25.12,-18.76 -12.3,0 -25.12,5.54 -25.12,15.73 v 6.47"
           style="fill:#7b7979;fill-opacity:1;fill-rule:nonzero;stroke:none"
           id="path8033" />
        <path
           d="m 1752.21,7295.52 c 8.32,0 24.58,-3.44 24.58,-14.41 v -7.27 h -8.33 v 4.89 c 0,5.95 -10.04,8.72 -16.12,8.72 -14.54,0 -25.64,-10.57 -25.64,-26.7 0,-16.53 11.76,-26.83 26.04,-26.83 12.95,0 20.63,8.19 21.81,9.12 l 3.84,-6.88 c -1.46,-1.32 -10.58,-10.3 -25.92,-10.3 -19.04,0 -35.03,13.48 -35.03,34.62 0,20.76 15.6,35.04 34.77,35.04"
           style="fill:#7b7979;fill-opacity:1;fill-rule:nonzero;stroke:none"
           id="path8035" />
        <path
           d="m 1796.66,7320.36 h 10.17 v -11.23 h -10.17 z m -10.71,-85.52 h 11.23 v 51.69 h -11.89 v 7.4 h 20.89 v -59.09 h 11.23 v -7.4 h -31.46 v 7.4"
           style="fill:#7b7979;fill-opacity:1;fill-rule:nonzero;stroke:none"
           id="path8037" />
        <path
           d="m 1871.85,7267.23 c -0.52,14.01 -8.98,20.75 -18.77,20.75 -11.1,0 -20.75,-7.27 -22.87,-20.75 z m -18.5,28.29 c 18.38,0 27.89,-14.15 27.89,-30.67 0,-1.58 -0.39,-4.23 -0.39,-4.23 h -51.04 c 0.4,-17.05 12.03,-26.7 25.78,-26.7 12.17,0 20.23,7.93 20.23,7.93 l 4.1,-6.75 c 0,0 -9.52,-9.24 -24.59,-9.24 -19.83,0 -34.77,14.27 -34.77,34.76 0,21.82 14.81,34.9 32.79,34.9"
           style="fill:#7b7979;fill-opacity:1;fill-rule:nonzero;stroke:none"
           id="path8039" />
        <path
           d="m 1888.29,7234.84 h 11.24 v 48.78 c 0,1.99 -1.07,2.91 -2.91,2.91 h -9 v 7.4 h 12.7 c 5.56,0 8.07,-2.37 8.07,-7.4 v -3.83 c 0,-2.65 -0.54,-4.77 -0.54,-4.77 h 0.27 c 1.85,5.03 10.44,17.59 27.1,17.59 16.39,0 22.07,-9.38 22.07,-25.78 v -34.9 h 11.24 v -7.4 h -20.22 v 39.92 c 0,10.45 -1.72,19.71 -14.54,19.71 -14.68,0 -25.26,-12.96 -25.26,-27.64 v -24.59 h 11.24 v -7.4 h -31.46 v 7.4"
           style="fill:#7b7979;fill-opacity:1;fill-rule:nonzero;stroke:none"
           id="path8041" />
        <path
           d="m 2005.51,7295.52 c 8.33,0 24.59,-3.44 24.59,-14.41 v -7.27 h -8.33 v 4.89 c 0,5.95 -10.04,8.72 -16.12,8.72 -14.55,0 -25.65,-10.57 -25.65,-26.7 0,-16.53 11.76,-26.83 26.04,-26.83 12.96,0 20.63,8.19 21.82,9.12 l 3.83,-6.88 c -1.46,-1.32 -10.58,-10.3 -25.91,-10.3 -19.03,0 -35.03,13.48 -35.03,34.62 0,20.76 15.59,35.04 34.76,35.04"
           style="fill:#7b7979;fill-opacity:1;fill-rule:nonzero;stroke:none"
           id="path8043" />
        <path
           d="m 2089.15,7267.23 c -0.53,14.01 -9,20.75 -18.78,20.75 -11.11,0 -20.75,-7.27 -22.86,-20.75 z m -18.51,28.29 c 18.37,0 27.89,-14.15 27.89,-30.67 0,-1.58 -0.4,-4.23 -0.4,-4.23 h -51.02 c 0.4,-17.05 12.03,-26.7 25.78,-26.7 12.16,0 20.22,7.93 20.22,7.93 l 4.09,-6.75 c 0,0 -9.51,-9.24 -24.58,-9.24 -19.83,0 -34.77,14.27 -34.77,34.76 0,21.82 14.8,34.9 32.79,34.9"
           style="fill:#7b7979;fill-opacity:1;fill-rule:nonzero;stroke:none"
           id="path8045" />
        <path
           d="m 444.871,7356.52 0.234,75.3 70.379,21.99 -0.234,-75.31 -70.379,-21.98"
           style="fill:#80cd3d;fill-opacity:1;fill-rule:nonzero;stroke:none"
           id="path8047" />
        <path
           d="m 515.25,7378.5 0.234,75.31 47.727,-32.8 -0.246,-75.31 -47.715,32.8"
           style="fill:#fab20b;fill-opacity:1;fill-rule:nonzero;stroke:none"
           id="path8049" />
        <path
           d="m 492.586,7323.7 -47.715,32.82 70.379,21.98 47.715,-32.8 -70.379,-22"
           style="fill:#0e3463;fill-opacity:1;fill-rule:nonzero;stroke:none"
           id="path8051" />
        <path
           d="m 513.875,7457.63 19.129,43.85 24.601,-57.97 -19.14,-43.84 -24.59,57.96"
           style="fill:#4c2c7a;fill-opacity:1;fill-rule:nonzero;stroke:none"
           id="path8053" />
        <path
           d="m 538.465,7399.67 19.14,43.84 64.598,10.48 -19.023,-43.31 -64.715,-11.01"
           style="fill:#1fa0cb;fill-opacity:1;fill-rule:nonzero;stroke:none"
           id="path8055" />
        <path
           d="m 557.605,7443.51 -24.601,57.97 64.601,10.48 24.598,-57.97 -64.598,-10.48"
           style="fill:#f46e47;fill-opacity:1;fill-rule:nonzero;stroke:none"
           id="path8057" />
        <path
           d="m 515.504,7453.81 -48.094,9.11 -5.676,47.59 48.086,-9.12 5.684,-47.58"
           style="fill:#c81d3c;fill-opacity:1;fill-rule:nonzero;stroke:none"
           id="path8059" />
        <path
           d="m 509.82,7501.39 -48.086,9.12 26.633,26.58 48.094,-9.1 -26.641,-26.6"
           style="fill:#73cfc4;fill-opacity:1;fill-rule:nonzero;stroke:none"
           id="path8061" />
        <path
           d="m 542.047,7480.24 -26.543,-26.43 -5.684,47.58 26.641,26.6 5.586,-47.75"
           style="fill:#378745;fill-opacity:1;fill-rule:nonzero;stroke:none"
           id="path8063" />
        <path
           d="m 652.145,7410.55 h -11.7 v 15.7 h 11.7 c 0,21.25 7.414,27.82 28.105,27.82 3.848,0 7.844,-0.29 11.691,-0.43 v -17.12 c -2.277,0.28 -4.425,0.43 -6.562,0.43 -5.559,0 -8.984,-0.72 -8.984,-7.42 v -3.28 h 14.55 v -15.7 h -14.55 v -58.34 h -24.25 v 58.34"
           style="fill:#656263;fill-opacity:1;fill-rule:nonzero;stroke:none"
           id="path8065" />
        <path
           d="m 695.633,7426.25 h 23.543 v -12.98 h 0.285 c 3.562,9.41 11.836,14.41 22.254,14.41 1.855,0 3.848,-0.15 5.703,-0.57 v -22.12 c -3.133,0.86 -5.984,1.43 -9.266,1.43 -11.984,0 -18.261,-8.28 -18.261,-17.55 v -36.66 h -24.258 v 74.04"
           style="fill:#656263;fill-opacity:1;fill-rule:nonzero;stroke:none"
           id="path8067" />
        <path
           d="m 786.57,7368.61 c 11.27,0 14.832,11.13 14.832,20.55 0,9.41 -3.562,20.68 -14.832,20.68 -11.269,0 -14.699,-11.27 -14.699,-20.68 0,-9.42 3.43,-20.55 14.699,-20.55 z m 0,59.78 c 22.969,0 39.082,-16.98 39.082,-39.23 0,-22.26 -16.113,-39.09 -39.082,-39.09 -22.968,0 -38.945,16.83 -38.945,39.09 0,22.25 15.977,39.23 38.945,39.23"
           style="fill:#656263;fill-opacity:1;fill-rule:nonzero;stroke:none"
           id="path8069" />
        <path
           d="m 830.496,7426.25 h 23.535 v -10.13 h 0.293 c 4.422,7.56 14.403,12.27 23.25,12.27 24.68,0 26.672,-17.98 26.672,-28.68 v -47.5 h -24.25 v 35.81 c 0,10.12 1.145,20.4 -12.129,20.4 -9.121,0 -13.113,-7.71 -13.113,-15.84 v -40.37 h -24.258 v 74.04"
           style="fill:#656263;fill-opacity:1;fill-rule:nonzero;stroke:none"
           id="path8071" />
        <path
           d="m 958.746,7410.55 h -14.98 v -33.66 c 0,-5.85 3.429,-7.14 8.703,-7.14 2,0 4.14,0.29 6.277,0.29 v -17.83 c -4.422,-0.14 -8.848,-0.71 -13.262,-0.71 -20.683,0 -25.964,5.99 -25.964,26.1 v 32.95 h -12.266 v 15.7 h 12.266 v 22.39 h 24.246 v -22.39 h 14.98 v -15.7"
           style="fill:#656263;fill-opacity:1;fill-rule:nonzero;stroke:none"
           id="path8073" />
        <path
           d="m 964.617,7426.25 h 24.246 v -74.04 h -24.246 z m 24.246,9.27 h -24.246 v 18.55 h 24.246 v -18.55"
           style="fill:#656263;fill-opacity:1;fill-rule:nonzero;stroke:none"
           id="path8075" />
        <path
           d="m 1049.16,7396.86 c -0.43,8.28 -6.28,15.12 -14.42,15.12 -8.55,0 -14.26,-6.13 -15.69,-15.12 z m -30.11,-13.55 c 0.43,-10.13 6.28,-16.84 16.55,-16.84 5.85,0 11.56,2.71 13.84,8.14 h 22.69 c -4.43,-17.12 -20.27,-24.54 -36.81,-24.54 -24.11,0 -40.519,14.55 -40.519,39.37 0,22.68 18.119,38.95 39.939,38.95 26.54,0 39.81,-19.97 38.67,-45.08 h -54.36"
           style="fill:#656263;fill-opacity:1;fill-rule:nonzero;stroke:none"
           id="path8077" />
        <path
           d="m 1079.37,7426.25 h 23.54 v -12.98 h 0.28 c 3.58,9.41 11.85,14.41 22.26,14.41 1.85,0 3.84,-0.15 5.7,-0.57 v -22.12 c -3.13,0.86 -5.99,1.43 -9.27,1.43 -11.98,0 -18.26,-8.28 -18.26,-17.55 v -36.66 h -24.25 v 74.04"
           style="fill:#656263;fill-opacity:1;fill-rule:nonzero;stroke:none"
           id="path8079" />
        <path
           d="m 1158.15,7376.61 c 0,-3.72 1.57,-6.43 4.01,-8.28 2.27,-1.71 5.55,-2.57 8.98,-2.57 4.71,0 11.41,2 11.41,7.85 0,5.7 -7.56,6.84 -11.84,7.84 -15.26,3.86 -34.39,4.28 -34.39,24.26 0,17.83 19.26,22.68 33.82,22.68 16.26,0 33.25,-4.71 34.09,-23.97 h -22.39 c 0,3.14 -1.15,5.13 -3.14,6.42 -2,1.28 -4.71,1.86 -7.71,1.86 -3.99,0 -10.41,-0.43 -10.41,-5.57 0,-6.99 16.26,-8.27 27.4,-10.7 14.97,-2.99 18.82,-13.84 18.82,-19.97 0,-19.83 -18.82,-26.39 -35.52,-26.39 -17.54,0 -35.52,5.84 -36.23,26.54 h 23.1"
           style="fill:#656263;fill-opacity:1;fill-rule:nonzero;stroke:none"
           id="path8081" />
      </g>
    </g>
  </g>
</svg>
