<?xml version="1.0" encoding="UTF-8" standalone="no"?>
<!DOCTYPE svg PUBLIC "-//W3C//DTD SVG 1.1//EN" "http://www.w3.org/Graphics/SVG/1.1/DTD/svg11.dtd">
<svg width="100%" height="100%" viewBox="0 0 162 32" version="1.1" xmlns="http://www.w3.org/2000/svg" xmlns:xlink="http://www.w3.org/1999/xlink" xml:space="preserve" xmlns:serif="http://www.serif.com/" style="fill-rule:evenodd;clip-rule:evenodd;stroke-linejoin:round;stroke-miterlimit:2;">
    <g transform="matrix(0.310078,0,0,0.310078,0.000348837,0)">
        <path d="M19.6,20.5L0,20.5L0,4.4L19.6,4.4L19.6,20.5ZM0,31.6L19.6,31.6L19.6,102.9L0,102.9L0,31.6Z" style="fill:rgb(0,125,189);fill-rule:nonzero;stroke:white;stroke-width:3.23px;"/>
    </g>
    <g transform="matrix(0.310078,0,0,0.310078,0.000348837,0)">
        <path d="M51,68.2C51,81.3 61.2,86.4 72.8,86.4C80.4,86.4 92,84.2 92,74.1C92,63.5 77.2,61.7 62.8,57.8C48.1,54 33.4,48.3 33.4,29.8C33.4,9.7 52.4,0 70.2,0C90.7,0 109.6,9 109.6,31.7L88.6,31.7C87.9,19.8 79.5,16.8 69.2,16.8C62.4,16.9 54.4,19.8 54.4,28C54.4,35.6 59.1,36.5 83.8,42.9C91,44.7 113,49.2 113,71.6C113,89.7 98.8,103.2 72,103.2C50.2,103.2 29.8,92.4 30.1,68.2L51,68.2Z" style="fill:rgb(0,125,189);fill-rule:nonzero;stroke:white;stroke-width:3.23px;"/>
    </g>
    <g transform="matrix(0.310078,0,0,0.310078,0.000348837,0)">
        <path d="M168.5,54.7C167.3,46.7 162.2,42.4 154,42.4C141.5,42.4 137.4,55.1 137.4,65.6C137.4,75.8 141.4,88.1 153.7,88.1C162.8,88.1 168,82.3 169.3,73.6L188.2,73.6C185.7,92.5 172.6,102.8 153.9,102.8C132.4,102.8 117.9,87.6 117.9,66.3C117.9,44.1 131.1,27.7 154.3,27.7C171.1,27.7 186.6,36.5 187.8,54.7L168.5,54.7Z" style="fill:rgb(0,125,189);fill-rule:nonzero;stroke:white;stroke-width:3.23px;"/>
    </g>
    <g transform="matrix(0.310078,0,0,0.310078,0.000348837,0)">
        <path d="M215.1,18.5L195.5,18.5L195.5,2.4L215.1,2.4L215.1,18.5ZM195.6,29.6L215.2,29.6L215.2,100.9L195.6,100.9L195.6,29.6Z" style="fill:rgb(0,125,189);fill-rule:nonzero;stroke:white;stroke-width:3.23px;"/>
    </g>
    <g transform="matrix(0.310078,0,0,0.310078,0.000348837,0)">
        <path d="M242.9,70C243.5,82.4 249.5,88.1 260.4,88.1C268.3,88.1 274.6,83.3 275.8,78.9L293,78.9C287.5,95.7 275.8,102.9 259.6,102.9C237.1,102.9 223.2,87.5 223.2,65.4C223.2,44 238,27.7 259.6,27.7C283.9,27.7 295.6,48.1 294.2,70L242.9,70ZM274.7,57.6C272.9,47.7 268.6,42.4 259.1,42.4C246.7,42.4 243.1,52.1 242.8,57.6L274.7,57.6Z" style="fill:rgb(0,125,189);fill-rule:nonzero;stroke:white;stroke-width:3.23px;"/>
    </g>
    <g transform="matrix(0.310078,0,0,0.310078,0.000348837,0)">
        <path d="M301.7,29.6L320.4,29.6L320.4,39.5L320.8,39.5C325.8,31.5 334.3,27.6 342.6,27.6C363.4,27.6 368.7,39.3 368.7,57L368.7,100.9L349.1,100.9L349.1,60.6C349.1,48.9 345.7,43.1 336.6,43.1C326,43.1 321.4,49 321.4,63.5L321.4,100.9L301.8,100.9L301.7,29.6Z" style="fill:rgb(0,125,189);fill-rule:nonzero;stroke:white;stroke-width:3.23px;"/>
    </g>
    <g transform="matrix(0.310078,0,0,0.310078,0.000348837,0)">
        <path d="M425.6,54.7C424.4,46.7 419.3,42.4 411.1,42.4C398.6,42.4 394.4,55.1 394.4,65.6C394.4,75.8 398.4,88.1 410.7,88.1C419.8,88.1 425,82.3 426.3,73.6L445.2,73.6C442.7,92.5 429.6,102.8 410.9,102.8C389.4,102.8 374.9,87.6 374.9,66.3C374.9,44.1 388.1,27.7 411.3,27.7C428.1,27.7 443.6,36.5 444.8,54.7L425.6,54.7Z" style="fill:rgb(0,125,189);fill-rule:nonzero;stroke:white;stroke-width:3.23px;"/>
    </g>
    <g transform="matrix(0.310078,0,0,0.310078,0.000348837,0)">
        <path d="M468.5,70C469.1,82.4 475.1,88.1 486,88.1C493.9,88.1 500.2,83.3 501.4,78.9L518.6,78.9C513.1,95.7 501.4,102.9 485.2,102.9C462.7,102.9 448.8,87.5 448.8,65.4C448.8,44 463.6,27.7 485.2,27.7C509.5,27.7 521.2,48.1 519.8,70L468.5,70ZM500.3,57.6C498.5,47.7 494.2,42.4 484.7,42.4C472.3,42.4 468.7,52.1 468.4,57.6L500.3,57.6Z" style="fill:rgb(0,125,189);fill-rule:nonzero;stroke:white;stroke-width:3.23px;"/>
    </g>
</svg>
