<?xml version="1.0" encoding="utf-8"?>
<!-- Generator: Adobe Illustrator 16.0.4, SVG Export Plug-In . SVG Version: 6.00 Build 0)  -->
<!DOCTYPE svg PUBLIC "-//W3C//DTD SVG 1.1//EN" "http://www.w3.org/Graphics/SVG/1.1/DTD/svg11.dtd">
<svg id="Layer_1" xmlns="http://www.w3.org/2000/svg" width="161.21" height="32" viewBox="0 0 519.9 103.2"><style>.st0{enable-background:new}.st1{fill:#fff}</style><g class="st0"><path class="st1" d="M19.6 20.5H0V4.4h19.6v16.1zM0 31.6h19.6v71.3H0V31.6z"/></g><g class="st0"><path class="st1" d="M51 68.2c0 13.1 10.2 18.2 21.8 18.2 7.6 0 19.2-2.2 19.2-12.3 0-10.6-14.8-12.4-29.2-16.3-14.7-3.8-29.4-9.5-29.4-28C33.4 9.7 52.4 0 70.2 0c20.5 0 39.4 9 39.4 31.7h-21c-.7-11.9-9.1-14.9-19.4-14.9-6.8.1-14.8 3-14.8 11.2 0 7.6 4.7 8.5 29.4 14.9C91 44.7 113 49.2 113 71.6c0 18.1-14.2 31.6-41 31.6-21.8 0-42.2-10.8-41.9-35H51z"/></g><g class="st0"><path class="st1" d="M168.5 54.7c-1.2-8-6.3-12.3-14.5-12.3-12.5 0-16.6 12.7-16.6 23.2 0 10.2 4 22.5 16.3 22.5 9.1 0 14.3-5.8 15.6-14.5h18.9c-2.5 18.9-15.6 29.2-34.3 29.2-21.5 0-36-15.2-36-36.5 0-22.2 13.2-38.6 36.4-38.6 16.8 0 32.3 8.8 33.5 27h-19.3z"/></g><g class="st0"><path class="st1" d="M215.1 18.5h-19.6V2.4h19.6v16.1zm-19.5 11.1h19.6v71.3h-19.6V29.6z"/></g><g class="st0"><path class="st1" d="M242.9 70c.6 12.4 6.6 18.1 17.5 18.1 7.9 0 14.2-4.8 15.4-9.2H293c-5.5 16.8-17.2 24-33.4 24-22.5 0-36.4-15.4-36.4-37.5 0-21.4 14.8-37.7 36.4-37.7 24.3 0 36 20.4 34.6 42.3h-51.3zm31.8-12.4c-1.8-9.9-6.1-15.2-15.6-15.2-12.4 0-16 9.7-16.3 15.2h31.9z"/></g><g class="st0"><path class="st1" d="M301.7 29.6h18.7v9.9h.4c5-8 13.5-11.9 21.8-11.9 20.8 0 26.1 11.7 26.1 29.4v43.9h-19.6V60.6c0-11.7-3.4-17.5-12.5-17.5-10.6 0-15.2 5.9-15.2 20.4v37.4h-19.6l-.1-71.3z"/></g><g class="st0"><path class="st1" d="M425.6 54.7c-1.2-8-6.3-12.3-14.5-12.3-12.5 0-16.7 12.7-16.7 23.2 0 10.2 4 22.5 16.3 22.5 9.1 0 14.3-5.8 15.6-14.5h18.9c-2.5 18.9-15.6 29.2-34.3 29.2-21.5 0-36-15.2-36-36.5 0-22.2 13.2-38.6 36.4-38.6 16.8 0 32.3 8.8 33.5 27h-19.2z"/></g><g class="st0"><path class="st1" d="M468.5 70c.6 12.4 6.6 18.1 17.5 18.1 7.9 0 14.2-4.8 15.4-9.2h17.2c-5.5 16.8-17.2 24-33.4 24-22.5 0-36.4-15.4-36.4-37.5 0-21.4 14.8-37.7 36.4-37.7 24.3 0 36 20.4 34.6 42.3h-51.3zm31.8-12.4c-1.8-9.9-6.1-15.2-15.6-15.2-12.4 0-16 9.7-16.3 15.2h31.9z"/></g></svg>