<?xml version="1.0" encoding="UTF-8" standalone="no"?>
<!-- Created with Inkscape (http://www.inkscape.org/) -->

<svg
   width="1000mm"
   height="1000mm"
   viewBox="0 0 1000 1000"
   version="1.1"
   id="svg9508"
   inkscape:version="1.2 (dc2aedaf03, 2022-05-15)"
   sodipodi:docname="jneuro.svg"
   xmlns:inkscape="http://www.inkscape.org/namespaces/inkscape"
   xmlns:sodipodi="http://sodipodi.sourceforge.net/DTD/sodipodi-0.dtd"
   xmlns="http://www.w3.org/2000/svg"
   xmlns:svg="http://www.w3.org/2000/svg">
  <sodipodi:namedview
     id="namedview9510"
     pagecolor="#ffffff"
     bordercolor="#000000"
     borderopacity="0.25"
     inkscape:showpageshadow="2"
     inkscape:pageopacity="0.0"
     inkscape:pagecheckerboard="0"
     inkscape:deskcolor="#d1d1d1"
     inkscape:document-units="mm"
     showgrid="false"
     inkscape:zoom="0.2102413"
     inkscape:cx="1764.639"
     inkscape:cy="1702.8053"
     inkscape:window-width="2400"
     inkscape:window-height="1494"
     inkscape:window-x="-11"
     inkscape:window-y="-11"
     inkscape:window-maximized="1"
     inkscape:current-layer="layer1" />
  <defs
     id="defs9505">
    <clipPath
       clipPathUnits="userSpaceOnUse"
       id="clipPath10354">
      <path
         d="m 93.023,415.852 h 255.106 v 78.961 H 93.023 Z"
         id="path10352" />
    </clipPath>
    <clipPath
       clipPathUnits="userSpaceOnUse"
       id="clipPath10390">
      <path
         d="m 93.023,421.948 h 255.106 v 66.121 H 93.023 Z"
         id="path10388" />
    </clipPath>
    <clipPath
       clipPathUnits="userSpaceOnUse"
       id="clipPath10406">
      <path
         d="m 93.023,415.852 h 255.106 v 78.961 H 93.023 Z"
         id="path10404" />
    </clipPath>
  </defs>
  <g
     inkscape:label="Layer 1"
     inkscape:groupmode="layer"
     id="layer1">
    <g
       id="g10986"
       transform="matrix(3.8778977,0,0,-3.8778977,-376.85906,2270.6365)">
      <g
         id="g10348"
         transform="matrix(0.9603,0,0,0.9603,14.23245,17.82743)">
        <g
           id="g10350"
           clip-path="url(#clipPath10354)">
          <g
             id="g10356"
             transform="translate(105.1252,477.7051)">
            <path
               d="m 0,0 c 0,7.422 -0.669,8.224 -4.614,8.559 l -1.671,0.133 c -0.401,0.268 -0.268,1.471 0.133,1.672 3.879,-0.134 6.152,-0.201 8.96,-0.201 2.675,0 4.948,0.067 7.622,0.201 0.402,-0.201 0.535,-1.404 0.135,-1.672 L 9.562,8.559 C 5.616,8.024 5.483,7.088 5.483,0 v -24.806 c 0,-5.282 -0.268,-9.896 -1.538,-12.971 -2.207,-5.35 -6.954,-9.629 -13.172,-9.629 -0.803,0 -2.875,0.067 -2.875,1.404 0,1.137 1.003,3.076 2.407,3.076 0.802,0 1.604,-0.134 2.474,-0.401 0.936,-0.268 1.872,-0.468 2.808,-0.468 1.404,0 2.206,0.802 2.675,1.738 C -0.201,-38.914 0,-28.885 0,-25.274 Z"
               style="fill:#155196;fill-opacity:1;fill-rule:nonzero;stroke:none"
               id="path10358" />
            <g
               id="g10360"
               transform="translate(58.0376,-22.5994)">
              <path
                 d="m 0,0 c 0,-2.006 0,-9.963 0.2,-11.701 -0.133,-0.401 -0.535,-0.736 -1.27,-0.736 -0.802,1.137 -2.741,3.477 -8.558,10.097 l -15.513,17.652 c -1.805,2.072 -6.352,7.555 -7.756,9.026 h -0.134 c -0.267,-0.802 -0.334,-2.341 -0.334,-4.346 V 5.416 c 0,-3.143 0.134,-11.835 1.203,-13.841 0.469,-0.735 1.739,-1.137 3.411,-1.27 l 2.072,-0.201 c 0.402,-0.535 0.334,-1.337 -0.133,-1.672 -3.009,0.134 -5.35,0.201 -7.823,0.201 -2.809,0 -4.614,-0.067 -6.954,-0.201 -0.468,0.335 -0.535,1.271 -0.134,1.672 l 1.805,0.201 c 1.538,0.133 2.608,0.601 2.942,1.337 0.936,2.407 0.87,10.564 0.87,13.774 v 19.323 c 0,1.872 -0.067,3.277 -1.471,4.814 -0.936,0.936 -2.541,1.404 -4.146,1.605 l -1.137,0.134 c -0.401,0.401 -0.401,1.404 0.134,1.671 2.808,-0.2 6.352,-0.2 7.556,-0.2 1.069,0 2.206,0.067 3.076,0.2 1.337,-3.41 9.293,-12.236 11.433,-14.709 l 6.486,-7.289 C -9.628,5.75 -6.286,2.073 -3.142,-1.137 h 0.133 c 0.267,0.335 0.267,1.404 0.267,2.808 V 15.98 c 0,3.142 -0.067,11.835 -1.337,13.84 -0.401,0.602 -1.471,1.004 -4.146,1.338 l -1.136,0.134 c -0.468,0.401 -0.401,1.471 0.134,1.671 3.075,-0.133 5.349,-0.2 7.89,-0.2 2.874,0 4.613,0.067 6.887,0.2 0.534,-0.334 0.534,-1.27 0.133,-1.671 L 4.747,31.158 C 2.608,30.824 1.27,30.289 1.003,29.754 -0.134,27.347 0,19.056 0,15.98 Z"
                 style="fill:#155196;fill-opacity:1;fill-rule:nonzero;stroke:none"
                 id="path10362" />
              <g
                 id="g10364"
                 transform="translate(18.6712,7.7561)">
                <path
                   d="m 0,0 c 4.948,0 6.419,0.267 6.953,0.668 0.201,0.134 0.402,0.402 0.402,1.271 0,1.872 -1.271,4.212 -5.149,4.212 -3.945,0 -7.355,-3.61 -7.421,-5.817 0,-0.133 0,-0.334 0.468,-0.334 z m -4.146,-2.006 c -1.738,0 -1.805,-0.134 -1.805,-1.805 0,-6.754 3.945,-12.504 11.099,-12.504 2.207,0 4.079,0.669 6.152,3.276 0.668,0.201 1.137,-0.2 1.204,-0.802 -2.207,-4.547 -7.021,-6.218 -10.498,-6.218 -4.347,0 -7.756,1.872 -9.695,4.413 -2.006,2.607 -2.809,5.75 -2.809,8.692 0,8.224 5.416,15.111 13.44,15.111 5.75,0 9.495,-3.945 9.495,-7.956 0,-0.937 -0.134,-1.472 -0.269,-1.739 -0.2,-0.401 -1.136,-0.468 -3.944,-0.468 z"
                   style="fill:#86898c;fill-opacity:1;fill-rule:nonzero;stroke:none"
                   id="path10366" />
                <g
                   id="g10368"
                   transform="translate(24.2719,-9.2944)">
                  <path
                     d="m 0,0 c 0,-4.614 1.137,-7.689 6.219,-7.689 1.805,0 3.944,0.735 5.416,2.006 0.869,0.802 1.338,1.805 1.338,3.878 V 9.16 c 0,4.347 -0.469,4.48 -2.475,5.283 l -0.869,0.334 c -0.469,0.267 -0.469,1.203 0.067,1.471 2.674,0.067 6.351,0.535 7.823,1.204 0.333,-0.067 0.534,-0.201 0.602,-0.468 C 17.986,15.713 17.92,13.64 17.92,11.166 V -0.067 c 0,-5.282 0.201,-7.288 2.073,-7.288 0.802,0 1.671,0.134 2.607,0.335 0.402,-0.335 0.468,-1.672 -0.066,-1.939 -2.609,-0.536 -6.487,-1.204 -8.76,-2.475 -0.334,0 -0.668,0.201 -0.801,0.469 v 2.741 c 0,0.602 -0.201,0.936 -0.603,0.936 -2.006,-1.271 -5.282,-3.477 -9.228,-3.477 -5.883,0 -8.09,2.942 -8.09,8.358 V 8.759 c 0,4.213 0,4.814 -2.005,5.684 l -0.803,0.334 c -0.401,0.334 -0.334,1.27 0.134,1.471 3.076,0.067 5.683,0.669 7.154,1.204 0.402,-0.067 0.602,-0.201 0.669,-0.468 C 0.067,15.847 0,14.443 0,11.166 Z"
                     style="fill:#86898c;fill-opacity:1;fill-rule:nonzero;stroke:none"
                     id="path10370" />
                  <g
                     id="g10372"
                     transform="translate(30.1573,9.361)">
                    <path
                       d="M 0,0 C 0,2.608 0,2.942 -1.805,4.146 L -2.407,4.547 C -2.674,4.814 -2.674,5.55 -2.341,5.75 -0.802,6.285 2.741,8.024 4.413,9.027 4.747,8.96 4.948,8.826 4.948,8.559 V 4.68 c 0,-0.334 0.066,-0.534 0.2,-0.601 2.34,1.939 4.881,4.012 7.356,4.012 1.671,0 3.008,-1.07 3.008,-2.675 0,-2.206 -1.805,-3.076 -2.875,-3.076 -0.669,0 -1.003,0.201 -1.472,0.468 C 10.163,3.477 9.16,3.878 8.224,3.878 7.154,3.878 6.352,3.276 5.817,2.541 5.148,1.605 4.948,-0.334 4.948,-2.608 v -9.093 c 0,-4.814 0.134,-5.617 2.674,-5.817 l 2.407,-0.201 c 0.468,-0.334 0.335,-1.471 -0.133,-1.671 -3.143,0.133 -5.082,0.2 -7.422,0.2 -2.407,0 -4.413,-0.067 -6.151,-0.2 -0.468,0.2 -0.602,1.337 -0.134,1.671 l 1.271,0.201 c 2.472,0.401 2.54,1.003 2.54,5.817 z"
                       style="fill:#86898c;fill-opacity:1;fill-rule:nonzero;stroke:none"
                       id="path10374" />
                    <g
                       id="g10376"
                       transform="translate(31.0343,6.0846)">
                      <path
                         d="m 0,0 c -4.413,0 -7.689,-4.212 -7.689,-11.567 0,-6.085 2.741,-12.638 8.625,-12.638 5.884,0 7.69,6.152 7.69,11.3 C 8.626,-7.221 6.352,0 0,0 m 14.375,-11.835 c 0,-8.358 -5.749,-14.375 -14.107,-14.375 -7.69,0 -13.708,5.415 -13.708,13.773 0,8.425 6.353,14.443 14.242,14.443 7.489,0 13.573,-5.617 13.573,-13.841"
                         style="fill:#86898c;fill-opacity:1;fill-rule:nonzero;stroke:none"
                         id="path10378" />
                      <g
                         id="g10380"
                         transform="translate(35.0379,0.8024)">
                        <path
                           d="m 0,0 c 0.601,-1.471 1.069,-3.611 1.069,-5.416 -0.267,-0.468 -1.27,-0.602 -1.604,-0.201 -1.137,2.942 -3.143,4.882 -5.884,4.882 -2.608,0 -4.28,-1.672 -4.28,-4.079 0,-2.742 2.809,-4.213 5.149,-5.55 3.544,-2.006 6.821,-4.279 6.821,-9.026 0,-5.082 -4.681,-7.623 -9.629,-7.623 -3.143,0 -5.484,0.669 -7.154,2.006 -0.535,1.27 -0.937,4.547 -0.803,6.753 0.334,0.401 1.204,0.468 1.538,0.067 1.137,-3.678 3.276,-6.887 7.087,-6.887 2.407,0 4.48,1.404 4.48,4.279 0,3.076 -2.674,4.748 -5.148,6.152 -3.879,2.206 -6.62,4.547 -6.62,8.224 0,4.881 4.012,7.623 9.094,7.623 C -3.076,1.204 -0.602,0.535 0,0"
                           style="fill:#86898c;fill-opacity:1;fill-rule:nonzero;stroke:none"
                           id="path10382" />
                      </g>
                    </g>
                  </g>
                </g>
              </g>
            </g>
          </g>
        </g>
      </g>
      <g
         id="g10384"
         transform="matrix(0.9603,0,0,0.9603,14.23245,17.82743)">
        <g
           id="g10386"
           clip-path="url(#clipPath10390)">
          <g
             id="g10392"
             transform="translate(330.1512,469.8824)">
            <path
               d="m 0,0 c 0.536,-0.468 1.003,-1.538 1.003,-2.675 0,-1.203 -0.668,-2.474 -1.471,-2.474 -0.334,0 -0.669,0.134 -0.936,0.468 -1.471,1.806 -3.944,3.544 -6.686,3.544 -4.681,0 -9.228,-3.677 -9.228,-10.765 0,-5.215 3.612,-11.433 10.765,-11.433 3.879,0 5.885,1.738 7.422,4.011 0.535,0.134 1.137,-0.334 1.204,-0.936 -2.274,-4.948 -7.288,-6.82 -11.167,-6.82 -3.543,0 -6.82,1.137 -9.159,3.41 -2.341,2.274 -3.878,5.55 -3.878,9.896 0,7.221 5.081,14.911 16.181,14.911 C -4.413,1.137 -1.805,0.802 0,0"
               style="fill:#86898c;fill-opacity:1;fill-rule:nonzero;stroke:none"
               id="path10394" />
            <g
               id="g10396"
               transform="translate(14.2423,14.7097)">
              <path
                 d="m 0,0 c 0,-2.34 -1.672,-3.41 -3.476,-3.41 -2.074,0 -3.411,1.471 -3.411,3.276 0,2.207 1.672,3.544 3.611,3.544 C -1.271,3.41 0,1.872 0,0 m -5.482,-21.664 c 0,2.608 0,2.942 -1.806,4.146 l -0.602,0.401 c -0.268,0.268 -0.268,1.003 0.067,1.204 1.538,0.534 5.35,2.273 6.887,3.276 0.335,0 0.602,-0.134 0.669,-0.401 -0.134,-2.341 -0.268,-5.55 -0.268,-8.291 v -12.035 c 0,-4.815 0.134,-5.483 2.541,-5.818 l 1.404,-0.201 c 0.468,-0.334 0.334,-1.47 -0.133,-1.671 -2.006,0.134 -3.945,0.201 -6.286,0.201 -2.407,0 -4.413,-0.067 -6.285,-0.201 -0.468,0.201 -0.602,1.337 -0.134,1.671 l 1.405,0.201 c 2.473,0.335 2.541,1.003 2.541,5.818 z"
                 style="fill:#86898c;fill-opacity:1;fill-rule:nonzero;stroke:none"
                 id="path10398" />
            </g>
          </g>
        </g>
      </g>
      <g
         id="g10400"
         transform="matrix(0.9603,0,0,0.9603,14.23245,17.82743)">
        <g
           id="g10402"
           clip-path="url(#clipPath10406)">
          <g
             id="g10408"
             transform="translate(126.0227,426.8416)">
            <path
               d="m 0,0 c 0,-1.464 0.027,-1.659 0.836,-1.743 l 0.446,-0.041 c 0.084,-0.056 0.056,-0.307 -0.028,-0.349 -0.794,0.028 -1.268,0.042 -1.826,0.042 -0.557,0 -1.045,-0.014 -1.937,-0.042 -0.084,0.042 -0.112,0.279 0,0.349 l 0.501,0.041 c 0.795,0.07 0.865,0.279 0.865,1.743 v 6.231 c 0,0.433 0,0.446 -0.419,0.446 H -2.328 C -2.927,6.677 -3.694,6.649 -4.043,6.329 -4.377,6.022 -4.517,5.715 -4.67,5.367 -4.782,5.283 -4.977,5.353 -5.033,5.465 c 0.223,0.627 0.433,1.519 0.53,2.077 0.042,0.028 0.223,0.042 0.265,0 C -4.154,7.095 -3.694,7.11 -3.053,7.11 H 2.593 C 3.346,7.11 3.471,7.137 3.68,7.5 3.75,7.528 3.903,7.514 3.931,7.458 3.778,6.887 3.68,5.757 3.722,5.339 3.666,5.228 3.429,5.228 3.36,5.311 3.318,5.66 3.22,6.175 3.011,6.329 2.69,6.566 2.161,6.677 1.394,6.677 H 0.404 C -0.014,6.677 0,6.664 0,6.203 Z"
               style="fill:#155196;fill-opacity:1;fill-rule:nonzero;stroke:none"
               id="path10410" />
            <g
               id="g10412"
               transform="translate(7.6953,2.4112)">
              <path
                 d="m 0,0 c -0.669,0 -0.697,-0.027 -0.697,-0.446 v -1.965 c 0,-1.464 0.069,-1.659 0.85,-1.743 l 0.404,-0.042 c 0.084,-0.056 0.056,-0.307 -0.028,-0.348 -0.752,0.027 -1.226,0.041 -1.77,0.041 -0.599,0 -1.073,-0.027 -1.617,-0.041 -0.084,0.041 -0.111,0.265 -0.028,0.348 l 0.237,0.042 c 0.781,0.139 0.809,0.279 0.809,1.743 v 5.018 c 0,1.464 -0.098,1.701 -0.823,1.757 l -0.362,0.028 c -0.084,0.055 -0.056,0.306 0.028,0.348 0.683,-0.014 1.157,-0.042 1.756,-0.042 0.544,0 1.018,0.014 1.617,0.042 C 0.46,4.698 0.488,4.447 0.404,4.392 L 0.139,4.364 C -0.669,4.28 -0.697,4.071 -0.697,2.607 V 1.004 C -0.697,0.572 -0.669,0.558 0,0.558 h 3.987 c 0.669,0 0.697,0.014 0.697,0.446 v 1.603 c 0,1.464 -0.028,1.673 -0.85,1.757 L 3.569,4.392 C 3.485,4.447 3.513,4.698 3.597,4.74 4.238,4.712 4.712,4.698 5.283,4.698 5.827,4.698 6.301,4.712 6.928,4.74 7.012,4.698 7.04,4.447 6.956,4.392 L 6.663,4.364 C 5.855,4.28 5.827,4.071 5.827,2.607 v -5.018 c 0,-1.464 0.028,-1.645 0.836,-1.743 L 6.998,-4.196 C 7.082,-4.252 7.054,-4.503 6.97,-4.544 6.301,-4.517 5.827,-4.503 5.283,-4.503 4.712,-4.503 4.21,-4.517 3.597,-4.544 3.513,-4.503 3.485,-4.279 3.569,-4.196 l 0.265,0.042 c 0.85,0.111 0.822,0.279 0.85,1.743 v 1.965 C 4.684,-0.027 4.656,0 3.987,0 Z"
                 style="fill:#155196;fill-opacity:1;fill-rule:nonzero;stroke:none"
                 id="path10414" />
              <g
                 id="g10416"
                 transform="translate(9.3959,2.6073)">
                <path
                   d="M 0,0 C 0,1.45 -0.028,1.659 -0.851,1.756 L -1.073,1.784 C -1.157,1.84 -1.129,2.091 -1.045,2.133 -0.446,2.105 0.028,2.091 0.599,2.091 H 3.22 c 0.893,0 1.715,0 1.882,0.042 C 5.186,1.896 5.27,0.892 5.325,0.279 5.27,0.195 5.046,0.167 4.977,0.251 4.768,0.906 4.642,1.394 3.917,1.575 3.624,1.645 3.178,1.659 2.565,1.659 H 1.561 C 1.143,1.659 1.143,1.631 1.143,1.101 v -2.788 c 0,-0.39 0.042,-0.39 0.46,-0.39 h 0.809 c 0.585,0 1.017,0.028 1.185,0.083 0.167,0.056 0.265,0.14 0.334,0.488 l 0.112,0.572 c 0.07,0.083 0.306,0.083 0.362,-0.014 0,-0.335 -0.056,-0.878 -0.056,-1.408 0,-0.502 0.056,-1.032 0.056,-1.338 C 4.349,-3.792 4.113,-3.792 4.043,-3.708 l -0.126,0.543 c -0.055,0.251 -0.153,0.46 -0.432,0.53 -0.195,0.056 -0.53,0.07 -1.073,0.07 H 1.603 c -0.418,0 -0.46,-0.014 -0.46,-0.377 v -1.965 c 0,-0.739 0.042,-1.213 0.265,-1.45 0.167,-0.167 0.46,-0.32 1.687,-0.32 1.073,0 1.478,0.055 1.784,0.209 0.251,0.139 0.627,0.627 0.99,1.352 0.098,0.07 0.293,0.028 0.349,-0.098 C 6.12,-5.702 5.771,-6.775 5.59,-7.152 4.335,-7.124 3.095,-7.11 1.854,-7.11 H 0.599 c -0.599,0 -1.073,-0.014 -1.896,-0.042 -0.083,0.042 -0.111,0.265 -0.027,0.349 l 0.46,0.042 C -0.07,-6.691 0,-6.482 0,-5.019 Z"
                   style="fill:#155196;fill-opacity:1;fill-rule:nonzero;stroke:none"
                   id="path10418" />
                <g
                   id="g10420"
                   transform="translate(11.836,-0.0281999)">
                  <path
                     d="M 0,0 C 0,1.547 -0.139,1.715 -0.962,1.784 L -1.311,1.813 C -1.394,1.868 -1.366,2.119 -1.283,2.161 -0.474,2.133 0,2.119 0.585,2.119 1.143,2.119 1.617,2.133 2.174,2.161 2.258,2.119 2.286,1.868 2.203,1.813 L 1.993,1.784 C 1.171,1.673 1.143,1.478 1.143,0 v -5.172 c 0,-1.101 -0.056,-2.063 -0.321,-2.704 -0.46,-1.115 -1.449,-2.008 -2.746,-2.008 -0.167,0 -0.599,0.014 -0.599,0.293 0,0.237 0.209,0.641 0.501,0.641 0.168,0 0.335,-0.027 0.516,-0.083 0.195,-0.056 0.39,-0.098 0.586,-0.098 0.293,0 0.46,0.168 0.557,0.363 C -0.042,-8.113 0,-6.022 0,-5.27 Z"
                     style="fill:#155196;fill-opacity:1;fill-rule:nonzero;stroke:none"
                     id="path10422" />
                  <g
                     id="g10424"
                     transform="translate(11.8628,-2.8715)">
                    <path
                       d="m 0,0 c 0,2.3 -1.017,4.782 -3.68,4.782 -1.45,0 -3.332,-0.99 -3.332,-4.043 0,-2.064 1.004,-4.74 3.75,-4.74 C -1.588,-4.001 0,-2.746 0,0 m -8.406,0.292 c 0,2.789 2.091,4.922 4.963,4.922 3.22,0 4.837,-2.328 4.837,-4.782 0,-2.816 -2.146,-4.865 -4.837,-4.865 -3.095,0 -4.963,2.216 -4.963,4.725"
                       style="fill:#155196;fill-opacity:1;fill-rule:nonzero;stroke:none"
                       id="path10426" />
                    <g
                       id="g10428"
                       transform="translate(10.47,1.4914)">
                      <path
                         d="M 0,0 C 0,0.865 -0.028,2.468 -0.265,2.886 -0.363,3.053 -0.613,3.151 -0.962,3.179 L -1.31,3.207 c -0.084,0.097 -0.057,0.278 0.028,0.334 0.529,-0.028 1.045,-0.042 1.588,-0.042 0.586,0 0.962,0.014 1.465,0.042 C 1.882,3.471 1.868,3.29 1.798,3.207 L 1.464,3.179 C 1.115,3.151 0.836,3.025 0.766,2.844 0.558,2.384 0.572,0.781 0.572,0 v -1.575 c 0,-1.213 -0.196,-2.495 -0.976,-3.332 -0.6,-0.655 -1.632,-1.017 -2.663,-1.017 -0.962,0 -1.924,0.181 -2.607,0.766 -0.739,0.613 -1.087,1.631 -1.087,3.29 v 3.29 c 0,1.45 -0.028,1.687 -0.837,1.757 l -0.348,0.028 c -0.084,0.055 -0.056,0.292 0.028,0.334 0.696,-0.028 1.171,-0.042 1.728,-0.042 0.572,0 1.032,0.014 1.715,0.042 0.083,-0.042 0.111,-0.279 0.028,-0.334 L -4.782,3.179 C -5.59,3.109 -5.618,2.872 -5.618,1.422 v -3.011 c 0,-2.244 0.697,-3.722 2.83,-3.722 2.021,0 2.788,1.589 2.788,3.708 z"
                         style="fill:#155196;fill-opacity:1;fill-rule:nonzero;stroke:none"
                         id="path10430" />
                      <g
                         id="g10432"
                         transform="translate(4.8931,-0.599)">
                        <path
                           d="m 0,0 c 0,-0.251 0,-0.405 0.042,-0.46 0.041,-0.042 0.251,-0.07 0.962,-0.07 0.502,0 1.032,0.056 1.436,0.362 0.377,0.293 0.696,0.781 0.696,1.729 0,1.102 -0.682,2.147 -2.23,2.147 C 0.042,3.708 0,3.652 0,3.262 Z m -1.143,1.993 c 0,1.325 -0.041,1.562 -0.614,1.631 L -2.202,3.68 C -2.3,3.75 -2.3,3.973 -2.189,4.029 -1.408,4.098 -0.446,4.14 0.92,4.14 1.785,4.14 2.607,4.07 3.248,3.722 3.917,3.374 4.406,2.746 4.406,1.77 4.406,0.446 3.36,-0.279 2.663,-0.558 2.593,-0.641 2.663,-0.781 2.732,-0.892 3.848,-2.691 4.587,-3.806 5.534,-4.601 5.772,-4.81 6.12,-4.963 6.496,-4.991 6.566,-5.019 6.58,-5.13 6.511,-5.186 6.385,-5.228 6.162,-5.256 5.897,-5.256 4.712,-5.256 4.001,-4.907 3.011,-3.5 2.649,-2.983 2.077,-2.021 1.645,-1.394 1.436,-1.088 1.213,-0.948 0.655,-0.948 0.028,-0.948 0,-0.962 0,-1.255 v -1.756 c 0,-1.464 0.028,-1.632 0.837,-1.743 l 0.292,-0.042 c 0.084,-0.07 0.056,-0.307 -0.027,-0.348 -0.628,0.028 -1.102,0.041 -1.66,0.041 -0.585,0 -1.087,-0.013 -1.742,-0.041 -0.083,0.041 -0.111,0.251 -0.028,0.348 l 0.349,0.042 c 0.809,0.098 0.836,0.279 0.836,1.743 z"
                           style="fill:#155196;fill-opacity:1;fill-rule:nonzero;stroke:none"
                           id="path10434" />
                        <g
                           id="g10436"
                           transform="translate(15.3486,-2.7328)">
                          <path
                             d="M 0,0 C 0,-0.418 0,-2.077 0.042,-2.44 0.014,-2.523 -0.07,-2.593 -0.223,-2.593 -0.39,-2.356 -0.795,-1.868 -2.008,-0.488 L -5.242,3.193 C -5.618,3.625 -6.566,4.768 -6.859,5.074 H -6.886 C -6.942,4.907 -6.956,4.586 -6.956,4.169 v -3.04 c 0,-0.655 0.028,-2.467 0.25,-2.886 0.099,-0.153 0.363,-0.236 0.712,-0.264 l 0.432,-0.042 c 0.083,-0.111 0.069,-0.279 -0.028,-0.349 -0.627,0.028 -1.116,0.042 -1.632,0.042 -0.584,0 -0.961,-0.014 -1.449,-0.042 -0.097,0.07 -0.111,0.265 -0.028,0.349 l 0.377,0.042 c 0.321,0.028 0.543,0.125 0.613,0.279 0.195,0.501 0.181,2.202 0.181,2.871 v 4.029 c 0,0.391 -0.013,0.683 -0.306,1.004 -0.196,0.195 -0.53,0.293 -0.865,0.334 l -0.237,0.028 c -0.083,0.084 -0.083,0.293 0.028,0.349 0.586,-0.042 1.325,-0.042 1.576,-0.042 0.222,0 0.46,0.014 0.64,0.042 0.28,-0.711 1.939,-2.551 2.384,-3.067 l 1.353,-1.52 c 0.947,-1.087 1.645,-1.854 2.3,-2.523 h 0.028 c 0.055,0.07 0.055,0.293 0.055,0.586 v 2.983 c 0,0.655 -0.013,2.467 -0.278,2.886 -0.084,0.125 -0.307,0.209 -0.864,0.278 l -0.237,0.028 c -0.098,0.084 -0.085,0.307 0.027,0.349 0.642,-0.028 1.115,-0.042 1.645,-0.042 0.6,0 0.962,0.014 1.436,0.042 C 1.269,6.803 1.269,6.608 1.185,6.524 L 0.99,6.496 C 0.544,6.427 0.265,6.315 0.209,6.204 -0.028,5.702 0,3.973 0,3.332 Z"
                             style="fill:#155196;fill-opacity:1;fill-rule:nonzero;stroke:none"
                             id="path10438" />
                          <g
                             id="g10440"
                             transform="translate(4.5448,2.1053)">
                            <path
                               d="m 0,0 c -0.111,-0.321 -0.097,-0.335 0.293,-0.335 h 1.715 c 0.404,0 0.432,0.056 0.306,0.432 L 1.561,2.37 C 1.45,2.704 1.325,3.081 1.241,3.248 H 1.213 C 1.171,3.178 1.031,2.844 0.878,2.425 Z M 2.76,-1.241 C 2.663,-0.934 2.607,-0.892 2.189,-0.892 H 0.084 c -0.349,0 -0.432,-0.042 -0.53,-0.335 l -0.488,-1.464 c -0.209,-0.627 -0.307,-1.003 -0.307,-1.157 0,-0.167 0.07,-0.251 0.405,-0.278 l 0.46,-0.042 c 0.098,-0.07 0.098,-0.293 -0.028,-0.349 -0.363,0.028 -0.795,0.028 -1.45,0.042 -0.46,0 -0.962,-0.028 -1.339,-0.042 -0.083,0.056 -0.11,0.279 -0.027,0.349 l 0.46,0.042 c 0.334,0.027 0.641,0.181 0.836,0.683 0.251,0.641 0.642,1.547 1.227,3.108 l 1.422,3.764 c 0.195,0.502 0.279,0.767 0.237,0.99 0.335,0.098 0.571,0.348 0.725,0.53 0.084,0 0.181,-0.028 0.209,-0.126 C 2.077,4.21 2.301,3.569 2.51,2.956 l 1.909,-5.605 c 0.405,-1.199 0.585,-1.408 1.185,-1.477 l 0.377,-0.042 c 0.097,-0.07 0.069,-0.293 0,-0.349 -0.571,0.028 -1.061,0.042 -1.687,0.042 -0.669,0 -1.199,-0.028 -1.603,-0.042 -0.112,0.056 -0.126,0.279 -0.028,0.349 l 0.405,0.042 c 0.292,0.027 0.487,0.111 0.487,0.25 0,0.154 -0.07,0.405 -0.181,0.739 z"
                               style="fill:#155196;fill-opacity:1;fill-rule:nonzero;stroke:none"
                               id="path10442" />
                            <g
                               id="g10444"
                               transform="translate(7.556,2.6348)">
                              <path
                                 d="M 0,0 C 0,1.464 -0.028,1.687 -0.907,1.756 L -1.255,1.784 C -1.339,1.84 -1.311,2.091 -1.227,2.133 -0.446,2.105 0.028,2.091 0.586,2.091 1.129,2.091 1.603,2.105 2.3,2.133 2.384,2.091 2.411,1.84 2.328,1.784 L 1.994,1.756 C 1.17,1.687 1.143,1.464 1.143,0 v -4.852 c 0,-0.878 0.042,-1.24 0.292,-1.505 0.154,-0.154 0.419,-0.32 1.52,-0.32 1.185,0 1.478,0.055 1.701,0.18 0.279,0.168 0.641,0.67 0.92,1.381 0.084,0.07 0.349,0.014 0.349,-0.084 0,-0.153 -0.391,-1.575 -0.586,-1.952 -0.711,0.028 -2.036,0.042 -3.47,0.042 H 0.586 c -0.586,0 -1.032,-0.014 -1.813,-0.042 -0.084,0.042 -0.112,0.265 -0.028,0.349 l 0.418,0.042 C -0.028,-6.677 0,-6.482 0,-5.019 Z"
                                 style="fill:#155196;fill-opacity:1;fill-rule:nonzero;stroke:none"
                                 id="path10446" />
                              <g
                                 id="g10448"
                                 transform="translate(18.458,-2.8997)">
                                <path
                                   d="m 0,0 c 0,2.3 -1.018,4.782 -3.68,4.782 -1.451,0 -3.332,-0.99 -3.332,-4.043 0,-2.064 1.003,-4.74 3.749,-4.74 C -1.589,-4.001 0,-2.746 0,0 m -8.407,0.292 c 0,2.789 2.092,4.922 4.964,4.922 3.219,0 4.837,-2.328 4.837,-4.782 0,-2.816 -2.147,-4.865 -4.837,-4.865 -3.096,0 -4.964,2.216 -4.964,4.725"
                                   style="fill:#155196;fill-opacity:1;fill-rule:nonzero;stroke:none"
                                   id="path10450" />
                                <g
                                   id="g10452"
                                   transform="translate(4.962,1.0593)">
                                <path
                                   d="m 0,0 c 0,-0.376 0.0429999,-0.376 0.461,-0.376 h 0.947 c 0.572,0 1.018,0.028 1.186,0.084 0.153,0.055 0.264,0.125 0.348,0.487 l 0.126,0.558 c 0.07,0.084 0.306,0.084 0.361,0 0,-0.335 -0.055,-0.892 -0.055,-1.408 0,-0.502 0.055,-1.032 0.055,-1.352 -0.055,-0.084 -0.263,-0.084 -0.361,0 l -0.14,0.543 c -0.056,0.251 -0.181,0.446 -0.447,0.53 -0.195,0.056 -0.542,0.07 -1.073,0.07 H 0.461 C 0.0429999,-0.864 0,-0.878 0,-1.241 V -3.178 C 0,-4.642 0.028,-4.851 0.851,-4.921 L 1.325,-4.963 C 1.408,-5.019 1.381,-5.27 1.297,-5.311 0.475,-5.283 0,-5.27 -0.557,-5.27 c -0.613,0 -1.087,-0.013 -1.743,-0.041 -0.083,0.041 -0.111,0.265 -0.027,0.348 l 0.348,0.042 c 0.809,0.098 0.836,0.279 0.836,1.743 V 1.84 c 0,1.464 -0.027,1.659 -0.836,1.757 l -0.223,0.028 c -0.084,0.055 -0.055,0.306 0.027,0.348 0.587,-0.028 1.061,-0.042 1.618,-0.042 h 2.565 c 0.893,0 1.701,0 1.882,0.042 0,-0.641 0.014,-1.31 0.043,-1.84 C 3.89,2.05 3.694,2.008 3.598,2.091 3.486,2.719 3.318,3.22 2.621,3.415 2.314,3.485 1.855,3.499 1.269,3.499 H 0.419 C 0,3.499 0,3.471 0,2.942 Z"
                                   style="fill:#155196;fill-opacity:1;fill-rule:nonzero;stroke:none"
                                   id="path10454" />
                                <g
                                   id="g10456"
                                   transform="translate(17.3425,-2.8997)">
                                <path
                                   d="M 0,0 C 0,-0.418 0,-2.077 0.041,-2.44 0.014,-2.523 -0.07,-2.593 -0.222,-2.593 -0.39,-2.356 -0.794,-1.868 -2.006,-0.488 L -5.242,3.193 C -5.619,3.625 -6.566,4.768 -6.859,5.074 H -6.887 C -6.943,4.907 -6.957,4.586 -6.957,4.169 v -3.04 c 0,-0.655 0.029,-2.467 0.251,-2.886 0.099,-0.153 0.364,-0.236 0.711,-0.264 l 0.432,-0.042 c 0.084,-0.111 0.07,-0.279 -0.027,-0.349 -0.627,0.028 -1.116,0.042 -1.632,0.042 -0.584,0 -0.962,-0.014 -1.449,-0.042 -0.097,0.07 -0.111,0.265 -0.027,0.349 l 0.376,0.042 c 0.321,0.028 0.543,0.125 0.613,0.279 0.195,0.501 0.181,2.202 0.181,2.871 v 4.029 c 0,0.391 -0.014,0.683 -0.306,1.004 -0.196,0.195 -0.531,0.293 -0.864,0.334 l -0.238,0.028 c -0.083,0.084 -0.083,0.293 0.029,0.349 0.585,-0.042 1.324,-0.042 1.575,-0.042 0.222,0 0.46,0.014 0.64,0.042 0.28,-0.711 1.939,-2.551 2.385,-3.067 l 1.351,-1.52 c 0.95,-1.087 1.646,-1.854 2.301,-2.523 h 0.028 c 0.056,0.07 0.056,0.293 0.056,0.586 v 2.983 c 0,0.655 -0.015,2.467 -0.28,2.886 -0.082,0.125 -0.306,0.209 -0.863,0.278 l -0.237,0.028 c -0.098,0.084 -0.084,0.307 0.027,0.349 0.641,-0.028 1.116,-0.042 1.644,-0.042 0.601,0 0.963,0.014 1.437,0.042 C 1.268,6.803 1.268,6.608 1.184,6.524 L 0.99,6.496 C 0.544,6.427 0.265,6.315 0.209,6.204 -0.029,5.702 0,3.973 0,3.332 Z"
                                   style="fill:#155196;fill-opacity:1;fill-rule:nonzero;stroke:none"
                                   id="path10458" />
                                <g
                                   id="g10460"
                                   transform="translate(3.416,4.7401)">
                                <path
                                   d="M 0,0 C 0,1.45 -0.028,1.659 -0.851,1.756 L -1.073,1.784 C -1.157,1.84 -1.13,2.091 -1.046,2.133 -0.446,2.105 0.027,2.091 0.599,2.091 H 3.22 c 0.892,0 1.714,0 1.883,0.042 C 5.185,1.896 5.269,0.892 5.325,0.279 5.269,0.195 5.047,0.167 4.977,0.251 4.767,0.906 4.642,1.394 3.917,1.575 3.625,1.645 3.179,1.659 2.564,1.659 H 1.561 C 1.143,1.659 1.143,1.631 1.143,1.101 v -2.788 c 0,-0.39 0.041,-0.39 0.461,-0.39 h 0.808 c 0.586,0 1.017,0.028 1.184,0.083 0.168,0.056 0.265,0.14 0.335,0.488 l 0.112,0.572 c 0.069,0.083 0.306,0.083 0.363,-0.014 0,-0.335 -0.057,-0.878 -0.057,-1.408 0,-0.502 0.057,-1.032 0.057,-1.338 C 4.349,-3.792 4.112,-3.792 4.043,-3.708 l -0.126,0.543 c -0.056,0.251 -0.153,0.46 -0.432,0.53 -0.195,0.056 -0.53,0.07 -1.073,0.07 H 1.604 c -0.42,0 -0.461,-0.014 -0.461,-0.377 v -1.965 c 0,-0.739 0.041,-1.213 0.265,-1.45 0.167,-0.167 0.459,-0.32 1.687,-0.32 1.073,0 1.477,0.055 1.784,0.209 0.251,0.139 0.627,0.627 0.99,1.352 0.097,0.07 0.293,0.028 0.348,-0.098 C 6.12,-5.702 5.771,-6.775 5.59,-7.152 4.336,-7.124 3.095,-7.11 1.855,-7.11 H 0.599 c -0.599,0 -1.073,-0.014 -1.896,-0.042 -0.084,0.042 -0.111,0.265 -0.026,0.349 l 0.458,0.042 C -0.07,-6.691 0,-6.482 0,-5.019 Z"
                                   style="fill:#155196;fill-opacity:1;fill-rule:nonzero;stroke:none"
                                   id="path10462" />
                                <g
                                   id="g10464"
                                   transform="translate(14.7915,-1.4083)">
                                <path
                                   d="m 0,0 c 0,0.865 -0.028,2.468 -0.265,2.886 -0.097,0.167 -0.348,0.265 -0.697,0.293 l -0.349,0.028 c -0.083,0.097 -0.056,0.278 0.029,0.334 0.529,-0.028 1.046,-0.042 1.588,-0.042 0.586,0 0.962,0.014 1.464,0.042 C 1.881,3.471 1.869,3.29 1.798,3.207 L 1.463,3.179 C 1.114,3.151 0.837,3.025 0.766,2.844 0.557,2.384 0.571,0.781 0.571,0 v -1.575 c 0,-1.213 -0.195,-2.495 -0.976,-3.332 -0.599,-0.655 -1.631,-1.017 -2.663,-1.017 -0.961,0 -1.923,0.181 -2.606,0.766 -0.738,0.613 -1.088,1.631 -1.088,3.29 v 3.29 c 0,1.45 -0.028,1.687 -0.836,1.757 l -0.348,0.028 c -0.084,0.055 -0.057,0.292 0.027,0.334 0.697,-0.028 1.172,-0.042 1.729,-0.042 0.572,0 1.032,0.014 1.714,0.042 0.084,-0.042 0.111,-0.279 0.029,-0.334 L -4.781,3.179 C -5.59,3.109 -5.618,2.872 -5.618,1.422 v -3.011 c 0,-2.244 0.697,-3.722 2.83,-3.722 2.021,0 2.788,1.589 2.788,3.708 z"
                                   style="fill:#155196;fill-opacity:1;fill-rule:nonzero;stroke:none"
                                   id="path10466" />
                                <g
                                   id="g10468"
                                   transform="translate(4.8925,-0.599)">
                                <path
                                   d="m 0,0 c 0,-0.251 0,-0.405 0.041,-0.46 0.042,-0.042 0.251,-0.07 0.963,-0.07 0.501,0 1.032,0.056 1.436,0.362 0.377,0.293 0.697,0.781 0.697,1.729 0,1.102 -0.684,2.147 -2.23,2.147 C 0.041,3.708 0,3.652 0,3.262 Z m -1.143,1.993 c 0,1.325 -0.043,1.562 -0.614,1.631 L -2.203,3.68 c -0.098,0.07 -0.098,0.293 0.014,0.349 0.781,0.069 1.743,0.111 3.108,0.111 0.866,0 1.688,-0.07 2.329,-0.418 0.669,-0.348 1.158,-0.976 1.158,-1.952 0,-1.324 -1.047,-2.049 -1.744,-2.328 -0.069,-0.083 0,-0.223 0.07,-0.334 C 3.847,-2.691 4.586,-3.806 5.534,-4.601 5.771,-4.81 6.12,-4.963 6.497,-4.991 6.566,-5.019 6.581,-5.13 6.511,-5.186 6.386,-5.228 6.162,-5.256 5.896,-5.256 4.712,-5.256 4.001,-4.907 3.012,-3.5 2.648,-2.983 2.077,-2.021 1.645,-1.394 1.435,-1.088 1.213,-0.948 0.656,-0.948 0.027,-0.948 0,-0.962 0,-1.255 V -3.011 C 0,-4.475 0.027,-4.643 0.837,-4.754 L 1.129,-4.796 C 1.213,-4.866 1.184,-5.103 1.102,-5.144 0.474,-5.116 0,-5.103 -0.557,-5.103 c -0.586,0 -1.087,-0.013 -1.744,-0.041 -0.084,0.041 -0.111,0.251 -0.028,0.348 l 0.35,0.042 c 0.807,0.098 0.836,0.279 0.836,1.743 z"
                                   style="fill:#155196;fill-opacity:1;fill-rule:nonzero;stroke:none"
                                   id="path10470" />
                                <g
                                   id="g10472"
                                   transform="translate(14.612,-0.8924)">
                                <path
                                   d="m 0,0 c 0,2.3 -1.018,4.782 -3.68,4.782 -1.452,0 -3.332,-0.99 -3.332,-4.043 0,-2.064 1.003,-4.74 3.75,-4.74 C -1.59,-4.001 0,-2.746 0,0 m -8.407,0.292 c 0,2.789 2.091,4.922 4.963,4.922 3.22,0 4.838,-2.328 4.838,-4.782 0,-2.816 -2.146,-4.865 -4.838,-4.865 -3.096,0 -4.963,2.216 -4.963,4.725"
                                   style="fill:#155196;fill-opacity:1;fill-rule:nonzero;stroke:none"
                                   id="path10474" />
                                <g
                                   id="g10476"
                                   transform="translate(5.1575,-4.433)">
                                <path
                                   d="m 0,0 c -1.17,0 -1.91,0.362 -2.175,0.516 -0.167,0.306 -0.347,1.296 -0.376,1.951 0.07,0.098 0.279,0.126 0.335,0.042 0.209,-0.711 0.781,-2.077 2.397,-2.077 1.172,0 1.743,0.767 1.743,1.603 0,0.614 -0.126,1.297 -1.143,1.952 l -1.324,0.864 c -0.696,0.46 -1.506,1.255 -1.506,2.398 0,1.324 1.032,2.398 2.845,2.398 0.431,0 0.933,-0.07 1.295,-0.182 C 2.273,9.424 2.468,9.382 2.579,9.382 2.705,9.047 2.83,8.267 2.83,7.681 2.775,7.597 2.551,7.556 2.481,7.639 2.3,8.308 1.924,9.215 0.586,9.215 c -1.367,0 -1.659,-0.907 -1.659,-1.548 0,-0.808 0.67,-1.38 1.184,-1.715 L 1.227,5.256 C 2.105,4.712 2.97,3.903 2.97,2.579 2.97,1.045 1.813,0 0,0"
                                   style="fill:#155196;fill-opacity:1;fill-rule:nonzero;stroke:none"
                                   id="path10478" />
                                <g
                                   id="g10480"
                                   transform="translate(6.0643,8.4618)">
                                <path
                                   d="M 0,0 C 1.017,0.795 2.314,1.185 3.764,1.185 4.516,1.185 5.577,1.031 6.231,0.85 6.399,0.809 6.497,0.781 6.621,0.795 6.636,0.474 6.706,-0.404 6.817,-1.255 6.747,-1.352 6.537,-1.366 6.441,-1.283 6.231,-0.334 5.604,0.753 3.583,0.753 c -2.133,0 -3.945,-1.352 -3.945,-4.238 0,-2.928 1.854,-4.545 4.14,-4.545 1.799,0 2.593,1.171 2.913,1.994 0.099,0.069 0.307,0.041 0.362,-0.056 C 6.957,-6.817 6.595,-7.737 6.386,-8.002 6.217,-8.03 6.05,-8.086 5.897,-8.141 5.59,-8.253 4.586,-8.462 3.694,-8.462 c -1.254,0 -2.453,0.251 -3.47,0.934 -1.116,0.767 -1.979,2.036 -1.979,3.834 0,1.547 0.696,2.871 1.755,3.694"
                                   style="fill:#155196;fill-opacity:1;fill-rule:nonzero;stroke:none"
                                   id="path10482" />
                                <g
                                   id="g10484"
                                   transform="translate(9.1173,-1.1573)">
                                <path
                                   d="M 0,0 C 0,1.478 -0.027,1.715 -0.85,1.784 L -1.199,1.813 C -1.283,1.868 -1.255,2.119 -1.17,2.161 -0.473,2.133 0,2.119 0.586,2.119 1.143,2.119 1.618,2.133 2.314,2.161 2.399,2.119 2.426,1.868 2.342,1.813 L 1.994,1.784 C 1.171,1.715 1.143,1.478 1.143,0 v -4.963 c 0,-1.477 0.028,-1.672 0.851,-1.77 l 0.348,-0.042 c 0.084,-0.056 0.057,-0.307 -0.028,-0.348 -0.696,0.027 -1.171,0.041 -1.728,0.041 -0.586,0 -1.059,-0.014 -1.756,-0.041 -0.085,0.041 -0.113,0.264 -0.029,0.348 l 0.349,0.042 C -0.027,-6.635 0,-6.44 0,-4.963 Z"
                                   style="fill:#155196;fill-opacity:1;fill-rule:nonzero;stroke:none"
                                   id="path10486" />
                                <g
                                   id="g10488"
                                   transform="translate(4.7117,0.0281999)">
                                <path
                                   d="M 0,0 C 0,1.45 -0.027,1.659 -0.849,1.756 L -1.073,1.784 C -1.157,1.84 -1.129,2.091 -1.045,2.133 -0.446,2.105 0.028,2.091 0.6,2.091 h 2.621 c 0.893,0 1.715,0 1.882,0.042 C 5.187,1.896 5.271,0.892 5.326,0.279 5.271,0.195 5.047,0.167 4.977,0.251 4.767,0.906 4.642,1.394 3.918,1.575 3.625,1.645 3.178,1.659 2.565,1.659 H 1.562 C 1.143,1.659 1.143,1.631 1.143,1.101 v -2.788 c 0,-0.39 0.043,-0.39 0.461,-0.39 h 0.808 c 0.585,0 1.017,0.028 1.186,0.083 0.166,0.056 0.264,0.14 0.335,0.488 l 0.11,0.572 c 0.071,0.083 0.306,0.083 0.362,-0.014 0,-0.335 -0.056,-0.878 -0.056,-1.408 0,-0.502 0.056,-1.032 0.056,-1.338 C 4.349,-3.792 4.114,-3.792 4.043,-3.708 l -0.125,0.543 c -0.056,0.251 -0.154,0.46 -0.432,0.53 -0.195,0.056 -0.53,0.07 -1.074,0.07 H 1.604 c -0.418,0 -0.461,-0.014 -0.461,-0.377 v -1.965 c 0,-0.739 0.043,-1.213 0.265,-1.45 0.169,-0.167 0.461,-0.32 1.688,-0.32 1.073,0 1.476,0.055 1.784,0.209 0.251,0.139 0.627,0.627 0.989,1.352 0.099,0.07 0.294,0.028 0.35,-0.098 C 6.12,-5.702 5.772,-6.775 5.591,-7.152 4.335,-7.124 3.096,-7.11 1.855,-7.11 H 0.6 c -0.6,0 -1.073,-0.014 -1.896,-0.042 -0.084,0.042 -0.112,0.265 -0.028,0.349 l 0.46,0.042 C -0.07,-6.691 0,-6.482 0,-5.019 Z"
                                   style="fill:#155196;fill-opacity:1;fill-rule:nonzero;stroke:none"
                                   id="path10490" />
                                <g
                                   id="g10492"
                                   transform="translate(15.6421,-4.7401)">
                                <path
                                   d="m 0,0 c 0,-0.418 0,-2.077 0.042,-2.44 -0.027,-0.083 -0.112,-0.153 -0.265,-0.153 -0.168,0.237 -0.571,0.725 -1.783,2.105 L -5.242,3.193 C -5.618,3.625 -6.566,4.768 -6.858,5.074 H -6.886 C -6.942,4.907 -6.957,4.586 -6.957,4.169 v -3.04 c 0,-0.655 0.029,-2.467 0.251,-2.886 0.099,-0.153 0.363,-0.236 0.711,-0.264 l 0.432,-0.042 c 0.084,-0.111 0.07,-0.279 -0.026,-0.349 -0.628,0.028 -1.117,0.042 -1.633,0.042 -0.584,0 -0.961,-0.014 -1.45,-0.042 -0.096,0.07 -0.111,0.265 -0.027,0.349 l 0.377,0.042 c 0.321,0.028 0.543,0.125 0.613,0.279 0.195,0.501 0.181,2.202 0.181,2.871 v 4.029 c 0,0.391 -0.015,0.683 -0.306,1.004 -0.196,0.195 -0.531,0.293 -0.865,0.334 l -0.238,0.028 c -0.082,0.084 -0.082,0.293 0.029,0.349 0.586,-0.042 1.324,-0.042 1.575,-0.042 0.224,0 0.461,0.014 0.642,0.042 0.278,-0.711 1.938,-2.551 2.384,-3.067 l 1.351,-1.52 c 0.95,-1.087 1.646,-1.854 2.3,-2.523 h 0.029 c 0.055,0.07 0.055,0.293 0.055,0.586 v 2.983 c 0,0.655 -0.014,2.467 -0.279,2.886 -0.082,0.125 -0.306,0.209 -0.864,0.278 l -0.236,0.028 c -0.099,0.084 -0.084,0.307 0.027,0.349 0.642,-0.028 1.116,-0.042 1.644,-0.042 0.601,0 0.962,0.014 1.437,0.042 C 1.268,6.803 1.268,6.608 1.184,6.524 L 0.99,6.496 C 0.544,6.427 0.266,6.315 0.21,6.204 -0.029,5.702 0,3.973 0,3.332 Z"
                                   style="fill:#155196;fill-opacity:1;fill-rule:nonzero;stroke:none"
                                   id="path10494" />
                                <g
                                   id="g10496"
                                   transform="translate(4.0016,5.8692)">
                                <path
                                   d="M 0,0 C 1.018,0.795 2.313,1.185 3.763,1.185 4.517,1.185 5.576,1.031 6.231,0.85 6.398,0.809 6.497,0.781 6.622,0.795 6.635,0.474 6.704,-0.404 6.817,-1.255 6.748,-1.352 6.538,-1.366 6.44,-1.283 6.231,-0.334 5.605,0.753 3.582,0.753 c -2.132,0 -3.945,-1.352 -3.945,-4.238 0,-2.928 1.854,-4.545 4.14,-4.545 1.799,0 2.594,1.171 2.915,1.994 0.096,0.069 0.306,0.041 0.362,-0.056 C 6.955,-6.817 6.594,-7.737 6.384,-8.002 6.217,-8.03 6.05,-8.086 5.897,-8.141 5.591,-8.253 4.586,-8.462 3.694,-8.462 c -1.255,0 -2.454,0.251 -3.471,0.934 -1.115,0.767 -1.98,2.036 -1.98,3.834 0,1.547 0.697,2.871 1.757,3.694"
                                   style="fill:#155196;fill-opacity:1;fill-rule:nonzero;stroke:none"
                                   id="path10498" />
                                <g
                                   id="g10500"
                                   transform="translate(9.116,-1.1291)">
                                <path
                                   d="M 0,0 C 0,1.45 -0.027,1.659 -0.849,1.756 L -1.073,1.784 C -1.157,1.84 -1.129,2.091 -1.045,2.133 -0.446,2.105 0.029,2.091 0.6,2.091 h 2.621 c 0.893,0 1.715,0 1.882,0.042 C 5.187,1.896 5.271,0.892 5.326,0.279 5.271,0.195 5.047,0.167 4.977,0.251 4.767,0.906 4.642,1.394 3.918,1.575 3.625,1.645 3.179,1.659 2.565,1.659 H 1.562 C 1.143,1.659 1.143,1.631 1.143,1.101 v -2.788 c 0,-0.39 0.043,-0.39 0.461,-0.39 h 0.808 c 0.585,0 1.017,0.028 1.186,0.083 0.166,0.056 0.264,0.14 0.334,0.488 l 0.111,0.572 c 0.071,0.083 0.307,0.083 0.362,-0.014 0,-0.335 -0.055,-0.878 -0.055,-1.408 0,-0.502 0.055,-1.032 0.055,-1.338 C 4.35,-3.792 4.114,-3.792 4.043,-3.708 l -0.125,0.543 c -0.056,0.251 -0.154,0.46 -0.432,0.53 -0.194,0.056 -0.53,0.07 -1.074,0.07 H 1.604 c -0.418,0 -0.461,-0.014 -0.461,-0.377 v -1.965 c 0,-0.739 0.043,-1.213 0.265,-1.45 0.169,-0.167 0.461,-0.32 1.688,-0.32 1.073,0 1.476,0.055 1.784,0.209 0.251,0.139 0.627,0.627 0.989,1.352 0.099,0.07 0.294,0.028 0.35,-0.098 C 6.12,-5.702 5.772,-6.775 5.591,-7.152 4.336,-7.124 3.096,-7.11 1.855,-7.11 H 0.6 c -0.6,0 -1.073,-0.014 -1.895,-0.042 -0.084,0.042 -0.113,0.265 -0.028,0.349 l 0.459,0.042 C -0.07,-6.691 0,-6.482 0,-5.019 Z"
                                   style="fill:#155196;fill-opacity:1;fill-rule:nonzero;stroke:none"
                                   id="path10502" />
                                </g>
                                </g>
                                </g>
                                </g>
                                </g>
                                </g>
                                </g>
                                </g>
                                </g>
                                </g>
                                </g>
                                </g>
                                </g>
                              </g>
                            </g>
                          </g>
                        </g>
                      </g>
                    </g>
                  </g>
                </g>
              </g>
            </g>
          </g>
        </g>
      </g>
    </g>
  </g>
</svg>
