<?xml version="1.0" encoding="UTF-8" standalone="no"?>
<!-- Created with Inkscape (http://www.inkscape.org/) -->

<svg
   width="1000mm"
   height="1000mm"
   viewBox="0 0 1000 1000"
   version="1.1"
   id="svg1808"
   inkscape:version="1.2 (dc2aedaf03, 2022-05-15)"
   sodipodi:docname="naturemicro.svg"
   xmlns:inkscape="http://www.inkscape.org/namespaces/inkscape"
   xmlns:sodipodi="http://sodipodi.sourceforge.net/DTD/sodipodi-0.dtd"
   xmlns="http://www.w3.org/2000/svg"
   xmlns:svg="http://www.w3.org/2000/svg">
  <sodipodi:namedview
     id="namedview1810"
     pagecolor="#ffffff"
     bordercolor="#000000"
     borderopacity="0.25"
     inkscape:showpageshadow="2"
     inkscape:pageopacity="0.0"
     inkscape:pagecheckerboard="0"
     inkscape:deskcolor="#d1d1d1"
     inkscape:document-units="mm"
     showgrid="false"
     inkscape:zoom="0.2102413"
     inkscape:cx="-570.77272"
     inkscape:cy="563.63806"
     inkscape:window-width="3000"
     inkscape:window-height="1890"
     inkscape:window-x="-12"
     inkscape:window-y="-12"
     inkscape:window-maximized="1"
     inkscape:current-layer="layer1" />
  <defs
     id="defs1805">
    <clipPath
       clipPathUnits="userSpaceOnUse"
       id="clipPath43">
      <path
         d="m 538.52,7276.56 h 1126.77 v 306.223 H 538.52 Z"
         id="path41" />
    </clipPath>
  </defs>
  <g
     inkscape:label="Layer 1"
     inkscape:groupmode="layer"
     id="layer1">
    <g
       id="g37"
       transform="matrix(0.84311794,0,0,-0.84311794,-429.03587,6764.0893)">
      <g
         id="g39"
         clip-path="url(#clipPath43)">
        <path
           d="m 614.262,7560.85 c 2.722,-3.85 3.281,-11.53 3.281,-16.62 0,-10.74 -0.121,-17.53 -0.121,-22.39 0,-19.33 0,-19.01 6.91,-20.8 1.691,-0.45 3.949,-0.57 3.949,-1.82 0,-1.13 -1.359,-1.35 -3.168,-1.35 -1.8,0 -10.73,0.57 -14.922,0.57 -4.179,0 -13.679,-0.57 -15.718,-0.57 -2.821,0 -4.059,0.11 -4.059,1.02 0,1.47 3.149,1.35 5.758,2.25 3.172,1.15 5.199,1.93 5.769,6 0.563,4.18 0.563,10.17 0.563,21.83 0,14.35 0.117,22.83 -3.281,26.78 -3.391,3.97 -6.891,5.1 -12.77,5.1 -6,0 -11.199,-4.18 -13.121,-7.57 -2.719,-4.76 -2.828,-14.71 -2.828,-24.09 0,-12.68 0.109,-18.65 1.019,-22.96 0.45,-2.37 2.372,-3.61 4.75,-4.64 1.809,-0.79 5.309,-1.12 5.309,-2.48 0,-1.37 -2.027,-1.24 -3.609,-1.24 -1.59,0 -12.551,0.57 -15.379,0.57 -2.832,0 -14.699,-0.57 -15.832,-0.57 -2.039,0 -2.707,0.11 -2.707,1.13 0,1.36 2.359,1.59 5.078,2.26 3.512,0.91 5.308,1.47 5.879,4.97 0.793,5.31 0.902,14.47 0.902,28.61 0,9.72 0,15.82 -1.473,17.76 -0.668,0.9 -2.257,1.69 -4.179,1.91 -2.489,0.33 -3.949,0.33 -3.949,1.36 0,0.91 0.449,1.13 1.128,1.36 6.774,2.25 13,6.56 19.442,12.1 0.57,0.46 1.59,1.25 2.379,1.25 1.242,0 1.472,-1.49 1.472,-3.29 v -7.57 c 0,-1.01 0.219,-2.15 1.137,-2.15 2.711,0 9.152,12.32 23.961,12.32 9.27,0 14.699,-3.84 18.43,-9.04"
           style="fill:#7c51a1;fill-opacity:1;fill-rule:nonzero;stroke:none"
           id="path45" />
        <path
           d="m 562.59,7499 c 1.629,0 5.848,-0.19 9.578,-0.34 2.75,-0.12 5.129,-0.23 5.801,-0.23 h 0.711 c 1.687,0 2.34,0.2 2.34,0.68 0,0.5 -1.762,0.98 -2.821,1.27 -0.761,0.21 -1.543,0.43 -2.152,0.71 -2.219,0.95 -4.559,2.29 -5.078,5.04 -0.93,4.39 -1.031,10.69 -1.031,23.07 0,10.53 0.218,19.66 2.91,24.35 2.148,3.81 7.648,7.85 13.601,7.85 6.399,0 9.86,-1.36 13.199,-5.27 3.418,-4 3.418,-12.2 3.418,-25.79 v -1.38 c 0,-11.78 0,-17.67 -0.57,-21.89 -0.617,-4.48 -3.047,-5.36 -6.129,-6.46 -0.929,-0.31 -1.898,-0.52 -2.769,-0.68 -1.289,-0.27 -2.629,-0.53 -2.629,-1.05 0,-0.45 2.199,-0.45 3.508,-0.45 0.82,0 2.929,0.09 5.371,0.21 3.511,0.15 7.859,0.36 10.34,0.36 2.539,0 6.781,-0.21 10.191,-0.37 2.16,-0.11 4.027,-0.2 4.738,-0.2 2.313,0 2.602,0.41 2.602,0.78 0,0.51 -1.289,0.79 -2.332,1 -0.41,0.1 -0.821,0.18 -1.207,0.27 l -0.34,0.09 c -6.981,1.83 -6.981,2.2 -6.981,21.25 0,1.97 0.02,4.23 0.039,6.97 0.04,4.02 0.079,9.02 0.079,15.43 0,3.55 -0.309,12.24 -3.18,16.3 -4.309,6.02 -10.02,8.8 -17.969,8.8 -10.14,0 -16.32,-5.94 -20,-9.5 -1.762,-1.71 -2.922,-2.82 -3.961,-2.82 -0.629,0 -1.699,0.36 -1.699,2.71 v 7.58 c 0,2.39 -0.461,2.73 -0.91,2.73 -0.602,0 -1.602,-0.8 -2.031,-1.14 -7.411,-6.36 -13.469,-10.13 -19.61,-12.18 -0.609,-0.2 -0.75,-0.32 -0.75,-0.82 0,-0.36 0.922,-0.49 2.422,-0.68 l 1.051,-0.14 c 1.976,-0.22 3.738,-1.04 4.558,-2.13 1.579,-2.07 1.579,-8.09 1.579,-18.09 0,-14.98 -0.137,-23.55 -0.911,-28.7 -0.636,-3.96 -2.886,-4.53 -6.296,-5.43 -0.5,-0.12 -0.981,-0.24 -1.442,-0.33 -1.648,-0.36 -3.219,-0.73 -3.219,-1.38 0,-0.39 0,-0.57 2.149,-0.57 0.43,0 2.539,0.09 4.98,0.2 4.059,0.16 9.11,0.37 10.852,0.37 m 16.09,-1.71 h -0.711 c -0.692,0 -3.082,0.12 -5.852,0.25 -3.711,0.14 -7.929,0.34 -9.527,0.34 -1.723,0 -6.762,-0.23 -10.813,-0.38 -2.55,-0.11 -4.57,-0.21 -5.019,-0.21 -1.762,0 -3.27,0 -3.27,1.71 0,1.55 1.899,1.98 4.102,2.48 0.449,0.11 0.918,0.2 1.398,0.31 3.52,0.92 4.961,1.42 5.469,4.52 0.75,5.08 0.891,13.6 0.891,28.53 0,9.41 0,15.63 -1.352,17.41 -0.519,0.7 -1.898,1.48 -3.797,1.7 l -1.051,0.14 c -1.98,0.23 -3.402,0.41 -3.402,1.79 0,1.27 0.781,1.64 1.524,1.89 5.988,2 11.929,5.69 19.25,11.98 0.617,0.5 1.75,1.39 2.738,1.39 2.039,0 2.039,-2.71 2.039,-3.85 v -7.58 c 0,-0.37 0.043,-1.58 0.57,-1.58 0.582,0 1.84,1.21 3.172,2.5 3.809,3.67 10.188,9.83 20.789,9.83 8.352,0 14.352,-2.94 18.891,-9.28 2.949,-4.16 3.39,-12.41 3.39,-16.96 0,-6.41 -0.043,-11.42 -0.082,-15.45 -0.019,-2.72 -0.039,-4.98 -0.039,-6.95 0,-18.55 0,-18.55 6.129,-20.14 l 0.352,-0.09 c 0.371,-0.09 0.758,-0.19 1.148,-0.27 1.512,-0.32 3.231,-0.67 3.231,-2.11 0,-1.92 -2.52,-1.92 -3.731,-1.92 -0.73,0 -2.527,0.1 -4.801,0.21 -3.386,0.16 -7.617,0.38 -10.128,0.38 -2.45,0 -6.79,-0.22 -10.282,-0.36 -2.457,-0.12 -4.578,-0.23 -5.429,-0.23 -2.59,0 -4.637,0 -4.637,1.59 0,1.44 1.719,1.8 3.539,2.14 0.867,0.19 1.769,0.36 2.609,0.66 3.032,1.09 4.86,1.75 5.391,5.53 0.559,4.15 0.559,10.02 0.559,21.75 v 1.38 c 0,13.34 0.011,21.37 -3.149,25.05 -3.09,3.61 -6.32,4.9 -12.34,4.9 -5.519,0 -10.633,-3.75 -12.621,-7.29 -2.762,-4.82 -2.762,-15.8 -2.762,-23.8 0,-12.29 0.102,-18.55 1,-22.86 0.43,-2.21 2.383,-3.34 4.43,-4.21 0.543,-0.25 1.293,-0.45 2,-0.67 1.883,-0.51 3.652,-1 3.652,-2.35 0,-1.82 -2.25,-1.82 -3.468,-1.82"
           style="fill:#7c51a1;fill-opacity:1;fill-rule:nonzero;stroke:none"
           id="path47" />
        <path
           d="m 663.336,7532.92 c -2.152,0 -19.223,-8.37 -19.223,-19.9 0,-6.44 4.973,-9.06 8.703,-9.06 3.957,0 7.008,2.27 9.618,6 3.043,4.41 3.382,11.98 3.382,19.8 0,2.37 -0.781,3.16 -2.48,3.16 m 1.129,-25.32 c -3.61,-5.22 -10.512,-11.31 -20.238,-11.31 -9.614,0 -13.454,7.67 -13.454,13 0,11.76 11.864,17.41 21.032,22.05 14.691,7.35 14.922,5.43 14.922,20.92 0,4.52 0.226,8.01 -0.793,10.05 -2.039,4.09 -4.75,4.76 -8.707,4.76 -10.403,0 -13.793,-9.61 -16.051,-17.08 -1.02,-3.16 -5.102,-4.97 -7.922,-4.97 -1.578,0 -3.84,1.13 -3.84,3.74 0,7.12 11.41,22.04 31.09,22.04 9.391,0 20.242,-1.92 20.242,-13.92 0,-9.82 -1.242,-36.18 -1.242,-41.14 0,-4.98 1.012,-9.73 5.762,-9.73 4.98,0 7.699,4.18 8.711,4.18 0.679,0 0.898,-0.68 0.898,-1.24 0,-2.84 -5.98,-11.53 -16.051,-11.53 -6.789,0 -11.199,4.51 -12.777,9.49 -0.113,0.58 -0.332,1.03 -0.902,1.03 -0.34,0 -0.559,-0.12 -0.68,-0.34"
           style="fill:#7c51a1;fill-opacity:1;fill-rule:nonzero;stroke:none"
           id="path49" />
        <path
           d="m 663.336,7532.36 c -2.16,0 -18.66,-8.36 -18.66,-19.34 0,-6.23 4.871,-8.48 8.14,-8.48 3.508,0 6.418,1.82 9.149,5.75 3.031,4.37 3.289,12.34 3.289,19.46 0,2.2 -0.649,2.61 -1.918,2.61 m -10.52,-28.96 c -3.722,0 -9.269,2.56 -9.269,9.62 0,11.91 17.406,20.46 19.789,20.46 2.109,0 3.051,-1.14 3.051,-3.73 0,-7.61 -0.274,-15.46 -3.492,-20.11 -2.93,-4.19 -6.219,-6.24 -10.079,-6.24 m 4.411,64.23 c 4.238,0 7.097,-0.83 9.207,-5.07 0.921,-1.83 0.902,-4.63 0.871,-8.2 -0.008,-0.66 -0.02,-1.38 -0.02,-2.11 0,-13.78 -0.199,-14.14 -10.691,-19.2 -1.328,-0.65 -2.84,-1.37 -4.539,-2.21 l -0.758,-0.39 c -8.891,-4.5 -19.961,-10.07 -19.961,-21.16 0,-4.81 3.5,-12.45 12.891,-12.45 10.918,0 17.468,7.75 19.777,11.07 0.09,0.18 0.402,0.59 1.141,0.59 0.769,0 1.261,-0.5 1.46,-1.48 1.379,-4.34 5.329,-9.05 12.219,-9.05 9.852,0 15.492,8.62 15.492,10.98 0,0.11 -0.019,0.68 -0.339,0.68 -0.153,-0.04 -0.68,-0.49 -1.09,-0.83 -1.492,-1.25 -3.981,-3.35 -7.621,-3.35 -6.321,0 -6.321,7.75 -6.321,10.28 0,2.08 0.211,7.88 0.461,14.58 0.348,9.3 0.778,20.84 0.778,26.57 0,9.12 -6.25,13.35 -19.68,13.35 -19.828,0 -30.527,-15.25 -30.527,-21.48 0,-2.19 1.918,-3.18 3.277,-3.18 2.48,0 6.422,1.59 7.383,4.59 2.558,8.45 6.16,17.47 16.59,17.47 m -13,-71.91 c -10.211,0 -14.012,8.32 -14.012,13.57 0,11.77 11.398,17.53 20.57,22.16 l 0.762,0.39 c 1.707,0.86 3.219,1.59 4.558,2.23 10.059,4.84 10.059,4.84 10.059,18.18 0,0.75 0,1.45 0.012,2.13 0.027,3.41 0.051,6.1 -0.75,7.67 -1.871,3.76 -4.231,4.45 -8.199,4.45 -9.661,0 -13.071,-8.61 -15.512,-16.68 -1.07,-3.32 -5.219,-5.37 -8.461,-5.37 -1.828,0 -4.41,1.34 -4.41,4.3 0,7.98 12.019,22.61 31.66,22.61 5.152,0 20.812,0 20.812,-14.48 0,-5.75 -0.429,-17.32 -0.781,-26.61 -0.25,-6.7 -0.469,-12.48 -0.469,-14.54 0,-6.25 1.649,-9.16 5.2,-9.16 3.218,0 5.429,1.86 6.89,3.08 0.809,0.69 1.297,1.1 1.821,1.1 0.878,0 1.468,-0.71 1.468,-1.8 0,-2.91 -6.082,-12.09 -16.621,-12.09 -7.508,0 -11.859,5.32 -13.32,9.89 -0.129,0.61 -0.27,0.61 -0.359,0.61 -0.11,0 -0.168,-0.02 -0.18,-0.02 -2.449,-3.53 -9.289,-11.62 -20.738,-11.62"
           style="fill:#7c51a1;fill-opacity:1;fill-rule:nonzero;stroke:none"
           id="path51" />
        <path
           d="m 904.289,7567.29 c -12.551,0 -18.883,-10.86 -18.883,-16.4 0,-2.02 2.262,-2.59 9.953,-2.59 9.047,0 21.7,0.68 21.7,8.93 0,3.18 -3.27,10.06 -12.77,10.06 m 20.699,-23.74 c -9.84,0 -21.949,0.9 -36.191,0.9 -3.731,0 -5.309,-0.11 -5.309,-7 0,-16.52 7.231,-30.99 25.782,-30.99 13.898,0 20.007,9.74 21.136,9.74 0.903,0 1.133,-0.45 1.133,-1.04 0,-2.82 -13.23,-18.77 -30.641,-18.77 -18.878,0 -33.582,13.79 -33.582,35.64 0,22.95 17.411,38.77 37.762,38.77 15.149,0 26.692,-11.41 26.692,-23.07 0,-4.18 -2.262,-4.18 -6.782,-4.18"
           style="fill:#7c51a1;fill-opacity:1;fill-rule:nonzero;stroke:none"
           id="path53" />
        <path
           d="m 904.289,7566.72 c -12.031,0 -18.32,-10.29 -18.32,-15.81 0,-1.37 1.449,-2.05 9.39,-2.05 9.84,0 21.141,0.95 21.141,8.37 0,2.98 -3.07,9.49 -12.211,9.49 m -8.93,-18.99 c -7.41,0 -10.519,0.44 -10.519,3.18 0,5.91 6.68,16.94 19.449,16.94 9.981,0 13.34,-7.29 13.34,-10.62 0,-9.5 -15.609,-9.5 -22.27,-9.5 m 9.719,22.51 c -21.199,0 -37.199,-16.44 -37.199,-38.23 0,-20.63 13.578,-35.05 33.019,-35.05 17.5,0 30.079,16.01 30.079,18.21 0,0.27 0,0.45 -0.571,0.45 -0.078,-0.05 -0.636,-0.6 -1.129,-1.07 -2.679,-2.59 -8.968,-8.65 -20.007,-8.65 -16.5,0 -26.352,11.8 -26.352,31.54 0,7.26 1.91,7.57 5.879,7.57 7.793,0 15.031,-0.27 21.422,-0.52 5.301,-0.18 10.308,-0.38 14.769,-0.38 4.821,0 6.219,0.16 6.219,3.62 0,13.27 -13.769,22.51 -26.129,22.51 m -4.18,-74.41 c -20.101,0 -34.14,14.88 -34.14,36.18 0,22.43 16.469,39.36 38.32,39.36 16.301,0 27.25,-12.23 27.25,-23.64 0,-4.74 -2.922,-4.74 -7.34,-4.74 -4.48,0 -9.5,0.19 -14.808,0.38 -6.383,0.24 -13.614,0.52 -21.383,0.52 -3.547,0 -4.75,0 -4.75,-6.45 0,-27.45 17.641,-30.42 25.223,-30.42 10.589,0 16.636,5.85 19.23,8.34 0.977,0.96 1.43,1.39 1.906,1.39 1.094,0 1.692,-0.57 1.692,-1.58 0,-3.12 -13.309,-19.34 -31.2,-19.34"
           style="fill:#7c51a1;fill-opacity:1;fill-rule:nonzero;stroke:none"
           id="path55" />
        <path
           d="m 817.32,7554.73 c -1.019,0.13 -1.808,0.34 -1.808,0.91 0,1.03 1.019,1.38 3.058,2.16 2.371,0.9 11.86,6.22 16.16,10.41 2.149,2.15 3.059,2.36 3.739,2.36 0.781,0 1.582,-0.56 1.582,-2.71 v -8.15 c 0,-1.45 0.461,-1.69 0.91,-1.69 2.258,0 7.789,12.1 18.527,12.1 6.114,0 10.071,-4.41 10.071,-9.73 0,-5.43 -4.071,-8.8 -8.707,-8.8 -6.102,0 -7.352,6.3 -12.883,6.3 -2.84,0 -3.957,-2.02 -4.981,-3.16 -2.828,-3.14 -3.058,-12.2 -3.058,-25.43 0,-12.32 -0.219,-21.93 1.359,-24.32 1.813,-2.81 8.832,-3.84 10.973,-4.27 1.808,-0.35 3.277,-0.25 3.277,-1.7 0,-1.14 -2.148,-1.14 -3.398,-1.14 -1.231,0 -13.34,0.57 -18.422,0.57 -5.09,0 -16.059,-0.57 -17.418,-0.57 -1.36,0 -3.281,0.09 -3.281,1.14 0,1.24 1.921,1.45 3.628,1.91 1.352,0.33 6.442,1.36 7.461,4.19 1.012,2.82 1.243,8.82 1.243,28.05 0,19.21 -0.34,21.13 -8.032,21.57"
           style="fill:#7c51a1;fill-opacity:1;fill-rule:nonzero;stroke:none"
           id="path57" />
        <path
           d="m 833.723,7499 c 3.418,0 9.968,-0.25 14.308,-0.41 2.121,-0.11 3.711,-0.16 4.121,-0.16 1.868,0 2.828,0.2 2.828,0.57 0,0.61 -0.257,0.75 -1.847,0.98 -0.313,0.06 -0.633,0.09 -0.973,0.15 -0.25,0.07 -0.539,0.12 -0.879,0.18 -3.051,0.57 -8.73,1.66 -10.461,4.37 -1.488,2.25 -1.48,9.93 -1.461,20.59 l 0.012,4.02 c 0,13.44 0.219,22.5 3.199,25.82 0.153,0.18 0.313,0.36 0.481,0.59 0.949,1.16 2.262,2.76 4.922,2.76 2.918,0 4.726,-1.62 6.476,-3.19 1.801,-1.61 3.5,-3.14 6.403,-3.14 4.05,0 8.148,2.85 8.148,8.27 0,5.3 -4,9.16 -9.508,9.16 -7.101,0 -11.82,-5.45 -14.941,-9.08 -1.641,-1.87 -2.621,-3.02 -3.59,-3.02 -0.981,0 -1.481,0.76 -1.481,2.25 v 8.15 c 0,0.98 -0.167,2.16 -1.007,2.16 -0.371,0 -1.121,0 -3.34,-2.22 -4.403,-4.3 -14.024,-9.64 -16.371,-10.53 l -0.321,-0.14 c -1.761,-0.67 -2.359,-0.93 -2.359,-1.49 0,0 0.16,-0.21 1.301,-0.34 8.219,-0.48 8.539,-2.94 8.539,-22.15 0,-19.83 -0.25,-25.36 -1.281,-28.22 -1.059,-2.95 -5.782,-4.07 -7.559,-4.48 l -0.301,-0.07 c -0.261,-0.08 -0.551,-0.15 -0.832,-0.22 -1.379,-0.32 -2.359,-0.61 -2.359,-1.16 0,-0.05 0.082,-0.57 2.723,-0.57 0.457,0 2.019,0.07 4.089,0.16 3.957,0.16 9.95,0.41 13.321,0.41 m 18.429,-1.7 c -0.422,0 -2.019,0.08 -4.16,0.15 -4.332,0.16 -10.883,0.43 -14.269,0.43 -3.352,0 -9.321,-0.27 -13.282,-0.42 -2.089,-0.08 -3.671,-0.16 -4.128,-0.16 -1.161,0 -3.852,0 -3.852,1.7 0,1.47 1.641,1.88 3.23,2.27 0.27,0.05 0.539,0.12 0.809,0.2 l 0.32,0.07 c 1.461,0.35 5.91,1.41 6.762,3.76 0.961,2.67 1.211,8.41 1.211,27.85 0,19.42 -0.422,20.62 -7.5,21.03 -0.66,0.07 -2.344,0.25 -2.344,1.46 0,1.36 1.16,1.81 3.082,2.56 l 0.328,0.12 c 2.293,0.88 11.684,6.11 15.981,10.29 2.109,2.1 3.18,2.53 4.133,2.53 0.797,0 2.136,-0.43 2.136,-3.28 v -8.15 c 0,-0.75 0.121,-1.12 0.352,-1.12 0.449,0 1.672,1.41 2.738,2.64 3.051,3.52 8.172,9.45 15.793,9.45 6.16,0 10.629,-4.32 10.629,-10.28 0,-5.36 -3.98,-9.4 -9.269,-9.4 -3.34,0 -5.282,1.75 -7.153,3.43 -1.668,1.5 -3.25,2.91 -5.726,2.91 -2.121,0 -3.153,-1.25 -4.051,-2.37 -0.18,-0.22 -0.352,-0.42 -0.512,-0.61 -2.699,-3.02 -2.91,-12.29 -2.91,-25.07 l -0.008,-4.02 c -0.019,-10.07 -0.031,-18.02 1.27,-19.97 1.48,-2.32 7.258,-3.41 9.73,-3.89 0.34,-0.05 0.649,-0.12 0.891,-0.16 0.308,-0.05 0.617,-0.11 0.91,-0.14 1.379,-0.22 2.816,-0.43 2.816,-2.11 0,-1.7 -2.476,-1.7 -3.957,-1.7"
           style="fill:#7c51a1;fill-opacity:1;fill-rule:nonzero;stroke:none"
           id="path59" />
        <path
           d="m 717.031,7580.19 c 0,-3.06 -0.34,-7.8 -0.34,-10.98 0,-1.57 0.68,-2.37 1.813,-2.37 l 34.719,1.36 c 3.269,0.12 3.609,-0.68 3.609,-4.06 0,-6.68 -0.219,-13.01 -0.449,-44.56 0,-7.8 3.73,-13.23 14.469,-13.23 5.992,0 12.101,2.82 14.589,7.35 1.801,3.28 1.922,12.99 1.922,21.15 0,16.95 0,25.2 -1.922,26.9 -1.589,1.48 -4.07,1.7 -7.007,2.03 -3.282,0.45 -4.532,0.45 -4.532,1.6 0,1.01 0.45,1.46 2.711,1.58 l 22.957,0.56 c 2.602,0.12 3.282,-0.81 3.282,-2.95 0,-5.86 -1.129,-24.86 -1.129,-39.78 0,-9.06 0.109,-15.72 1.238,-17.76 0.793,-1.46 2.371,-1.93 5.66,-1.93 1.133,0 3.731,0.24 4.41,0.24 0.672,0 1.129,-0.46 1.129,-1.14 0,-0.79 -0.797,-1.26 -2.828,-1.58 -3.059,-0.57 -15.379,-3.62 -20.699,-5.89 -0.903,-0.34 -2.371,-0.9 -2.711,-0.9 -1.129,0 -1.469,0.8 -1.469,2.6 0,2.37 0.231,4.3 0.231,7.46 0,1.25 -0.231,2.48 -1.364,2.48 -1.797,0 -10.398,-11.98 -24.187,-11.98 -8.262,0 -19.789,4.77 -19.789,20.82 0,8.93 0.558,35.16 0.558,38.43 0,6.45 -0.218,6.45 -13,6.45 -4.179,0 -7.582,-0.11 -9.949,-0.22 -2.262,-0.12 -2.601,-0.34 -2.82,-4.07 -0.352,-5.66 -0.57,-14.25 -0.57,-32.91 0,-7.81 -0.11,-12.55 1.578,-15.72 1.589,-2.82 3.961,-3.83 8.031,-3.83 5.308,0 11.082,2.82 11.648,2.82 0.563,0 0.91,-0.34 0.91,-0.79 0,-1.48 -10.636,-10.98 -21.949,-10.98 -12.211,0 -14.918,9.05 -14.918,21.5 0,6.22 0.789,35.39 0.789,37.43 0,2.02 -0.109,4.39 -3.39,4.39 h -4.969 c -0.68,0 -1.25,0.25 -1.25,0.79 0,1.48 1.359,1.59 3.73,3.28 5.43,3.86 13.457,10.18 17.297,15.95 0.91,1.36 1.364,2.48 2.383,2.48 1.008,0 1.578,-0.67 1.578,-2.02"
           style="fill:#7c51a1;fill-opacity:1;fill-rule:nonzero;stroke:none"
           id="path61" />
        <path
           d="m 785.328,7508.95 c 1.27,0 1.918,-1.04 1.918,-3.06 0,-1.71 -0.078,-3.09 -0.117,-4.3 -0.063,-1.07 -0.109,-2.07 -0.109,-3.16 0,-2.02 0.457,-2.04 0.898,-2.04 0.289,0.04 1.672,0.56 2.34,0.81 l 0.18,0.07 c 5.41,2.3 17.839,5.36 20.8,5.91 2.36,0.39 2.36,0.87 2.36,1.02 0,0.37 -0.2,0.57 -0.571,0.57 -0.289,0 -0.937,-0.04 -1.679,-0.11 -0.961,-0.05 -2.09,-0.11 -2.731,-0.11 -3.051,0 -5.148,0.36 -6.148,2.2 -1.211,2.2 -1.313,9.16 -1.313,18.04 0,9.17 0.422,19.69 0.762,28.14 0.211,5.25 0.371,9.39 0.371,11.64 0,2.02 -0.59,2.48 -2.691,2.38 l -22.961,-0.56 c -2.168,-0.12 -2.168,-0.5 -2.168,-1.01 0,-0.45 0.551,-0.58 2.898,-0.88 l 1.551,-0.2 c 2.82,-0.32 5.262,-0.6 6.91,-2.14 2.102,-1.84 2.102,-9.3 2.102,-27.32 0,-8.61 -0.153,-18.09 -1.992,-21.43 -2.481,-4.48 -8.68,-7.62 -15.079,-7.62 -9.98,0 -15.043,4.62 -15.043,13.78 0.141,18.82 0.274,28.56 0.364,34.98 0.047,4.25 0.09,6.9 0.09,9.59 0,3.36 -0.352,3.59 -3.043,3.5 l -34.7,-1.37 h -0.007 c -1.5,0 -2.383,1.11 -2.383,2.93 0,1.62 0.082,3.66 0.172,5.62 0.078,1.89 0.16,3.86 0.16,5.36 0,1.48 -0.711,1.48 -1.02,1.48 -0.472,0 -0.801,-0.5 -1.402,-1.43 -0.149,-0.25 -0.32,-0.53 -0.508,-0.8 -4.09,-6.16 -12.68,-12.75 -17.441,-16.11 -0.758,-0.53 -1.43,-0.93 -1.969,-1.25 -1.18,-0.68 -1.531,-0.91 -1.531,-1.57 0,-0.14 0.359,-0.21 0.691,-0.21 h 4.981 c 3.949,0 3.949,-3.24 3.949,-4.97 0,-0.75 -0.102,-5.11 -0.242,-10.62 -0.231,-9.65 -0.547,-22.86 -0.547,-26.81 0,-14.87 4.16,-20.94 14.359,-20.94 11.098,0 21.098,9.19 21.379,10.44 0,0.16 -0.219,0.2 -0.352,0.2 -0.078,-0.02 -0.589,-0.2 -1.089,-0.39 -2.098,-0.79 -6.45,-2.43 -10.559,-2.43 -4.398,0 -6.871,1.19 -8.512,4.14 -1.668,3.11 -1.668,7.43 -1.66,14.64 v 1.34 c 0,16.49 0.172,26.34 0.57,32.95 0.231,3.84 0.672,4.46 3.364,4.59 2.117,0.09 5.566,0.23 9.976,0.23 12.801,0 13.571,0 13.571,-7.02 0,-1.23 -0.09,-5.69 -0.188,-11.34 -0.16,-9.1 -0.383,-21.53 -0.383,-27.1 0,-14.93 10.364,-20.25 19.223,-20.25 9.918,0 17.098,6.35 20.98,9.75 1.797,1.6 2.547,2.25 3.219,2.25 m 2.602,-13.68 c -2.032,0 -2.032,2.14 -2.032,3.16 0,1.12 0.04,2.12 0.098,3.21 0.063,1.27 0.121,2.56 0.121,4.25 0,1.93 -0.57,1.93 -0.789,1.93 -0.32,-0.05 -1.469,-1.07 -2.48,-1.96 -3.989,-3.5 -11.379,-10.04 -21.719,-10.04 -9.391,0 -20.352,5.61 -20.352,21.38 0,5.57 0.219,18.03 0.391,27.12 0.102,5.63 0.18,10.09 0.18,11.32 0,5.9 0,5.9 -12.442,5.9 -4.379,0 -7.808,-0.13 -9.918,-0.25 -1.929,-0.09 -2.09,-0.09 -2.289,-3.52 -0.402,-6.59 -0.57,-16.43 -0.57,-32.88 v -1.34 c -0.012,-7.03 -0.012,-11.25 1.508,-14.1 1.441,-2.56 3.551,-3.56 7.531,-3.56 3.91,0 8.141,1.59 10.172,2.36 0.957,0.36 1.25,0.48 1.476,0.48 0.864,0 1.481,-0.57 1.481,-1.37 0,-2 -11.238,-11.54 -22.508,-11.54 -13.652,0 -15.5,11.16 -15.5,22.07 0,3.95 0.328,17.18 0.57,26.84 0.129,5.5 0.239,9.84 0.239,10.59 0,2.23 -0.211,3.84 -2.828,3.84 h -4.981 c -1.101,0 -1.812,0.52 -1.812,1.34 0,1.34 0.882,1.86 2.089,2.55 0.543,0.31 1.153,0.68 1.883,1.18 4.688,3.34 13.16,9.82 17.149,15.82 0.191,0.27 0.351,0.54 0.511,0.77 0.649,1.06 1.219,1.97 2.34,1.97 0.649,0 2.141,-0.27 2.141,-2.61 0,-1.52 -0.07,-3.5 -0.16,-5.41 -0.082,-1.95 -0.172,-3.97 -0.172,-5.57 0,-1.79 0.941,-1.79 1.238,-1.79 l 34.703,1.34 c 0.199,0.02 0.391,0.02 0.559,0.02 3.301,0 3.629,-1.41 3.629,-4.63 0,-2.71 -0.028,-5.35 -0.09,-9.6 -0.078,-6.43 -0.219,-16.15 -0.348,-34.97 0,-8.52 4.547,-12.66 13.91,-12.66 6.008,0 11.797,2.91 14.09,7.05 1.707,3.11 1.848,12.42 1.848,20.88 0,16.09 0,24.96 -1.731,26.48 -1.378,1.29 -3.648,1.56 -6.289,1.86 l -1.558,0.2 c -2.582,0.33 -3.879,0.51 -3.879,2 0,1.64 1.187,2.03 3.25,2.12 l 22.969,0.59 c 0.148,0 0.289,0 0.437,0 2.434,0 3.422,-1.02 3.422,-3.52 0,-2.27 -0.172,-6.43 -0.371,-11.68 -0.34,-8.44 -0.758,-18.94 -0.758,-28.1 0,-8.4 0.09,-15.54 1.168,-17.49 0.652,-1.21 2,-1.64 5.16,-1.64 0.629,0 1.723,0.09 2.672,0.14 0.758,0.04 1.438,0.09 1.738,0.09 0.993,0 1.7,-0.71 1.7,-1.69 0,-1.4 -1.579,-1.86 -3.297,-2.13 -2.91,-0.55 -15.211,-3.57 -20.571,-5.86 l -0.203,-0.07 c -1.609,-0.6 -2.367,-0.87 -2.726,-0.87"
           style="fill:#7c51a1;fill-opacity:1;fill-rule:nonzero;stroke:none"
           id="path63" />
        <path
           d="m 639.297,7416.54 c 1.621,-2.29 2.691,-5.55 3.398,-9.08 l 5.571,6.4 c 5.05,4.62 14.293,15.59 30.98,15.59 13.223,0 20.981,-5.5 26.301,-12.91 3.871,-5.5 4.691,-16.47 4.691,-23.73 0,-15.31 -0.172,-25.01 -0.172,-31.95 0,-27.59 0,-27.1 9.84,-29.69 2.422,-0.63 5.653,-0.79 5.653,-2.58 0,-1.61 -1.942,-1.93 -4.524,-1.93 -2.578,0 -15.328,0.79 -21.297,0.79 -5.961,0 -19.531,-0.79 -22.429,-0.79 -4.032,0 -5.813,0.15 -5.813,1.45 0,2.09 4.512,1.94 8.242,3.23 4.508,1.62 7.41,2.73 8.219,8.55 0.809,5.99 0.809,14.51 0.809,31.15 0,20.48 0.152,32.59 -4.68,38.23 -4.84,5.65 -9.848,7.27 -18.238,7.27 -6.52,0 -12.391,-3.48 -15.891,-7.28 l -6.519,-6.52 c 0.41,-3.49 0.539,-7.02 0.539,-9.93 0,-15.31 -0.168,-25.01 -0.168,-31.95 0,-27.59 0,-27.1 9.847,-29.69 2.41,-0.63 5.653,-0.79 5.653,-2.58 0,-1.61 -1.954,-1.93 -4.524,-1.93 -2.578,0 -15.328,0.79 -21.297,0.79 -5.972,0 -19.519,-0.79 -22.429,-0.79 -4.032,0 -5.813,0.15 -5.813,1.45 0,2.09 4.512,1.94 8.231,3.23 4.511,1.62 7.421,2.73 8.23,8.55 0.801,5.99 0.801,14.51 0.801,31.15 0,20.48 0.16,32.59 -4.68,38.23 -4.84,5.65 -9.84,7.27 -18.23,7.27 -8.563,0 -15.969,-5.98 -18.719,-10.82 -3.871,-6.77 -4.043,-20.98 -4.043,-34.37 0,-18.08 0.172,-26.63 1.461,-32.76 0.648,-3.38 3.398,-5.16 6.781,-6.62 2.578,-1.11 7.578,-1.59 7.578,-3.54 0,-1.94 -2.91,-1.77 -5.168,-1.77 -2.25,0 -17.91,0.79 -21.941,0.79 -4.031,0 -20.981,-0.79 -22.578,-0.79 -2.91,0 -3.883,0.15 -3.883,1.6 0,1.94 3.391,2.28 7.262,3.23 5,1.3 7.578,2.1 8.398,7.1 1.133,7.58 1.281,20.67 1.281,40.83 0,13.87 0,22.58 -2.101,25.33 -0.957,1.29 -3.219,2.43 -5.969,2.76 -3.551,0.48 -5.641,0.48 -5.641,1.92 0,1.29 0.653,1.61 1.61,1.93 9.679,3.25 18.562,9.36 27.762,17.28 0.8,0.65 2.25,1.78 3.378,1.78 1.77,0 2.102,-2.1 2.102,-4.69 v -10.81 c 0,-1.45 0.32,-3.07 1.617,-3.07 3.863,0 13.07,17.6 34.203,17.6 13.231,0 20.989,-5.5 26.309,-12.91"
           style="fill:#7c51a1;fill-opacity:1;fill-rule:nonzero;stroke:none"
           id="path65" />
        <path
           d="m 565.547,7328.03 c 2.32,0 8.359,-0.26 13.68,-0.49 3.921,-0.17 7.308,-0.31 8.261,-0.31 l 1,-0.01 c 2.629,0 3.61,0.33 3.61,1.22 0,0.9 -2.352,1.53 -4.243,2.06 -1.058,0.28 -2.16,0.59 -3.007,0.96 -3.262,1.4 -6.379,3.24 -7.102,7.03 -1.328,6.31 -1.469,15.27 -1.469,32.87 0,15.01 0.309,27.98 4.11,34.65 3.051,5.38 10.82,11.1 19.211,11.1 9.058,0 13.949,-1.96 18.66,-7.46 4.82,-5.64 4.82,-17.34 4.82,-36.75 v -1.86 c 0,-16.78 0,-25.22 -0.812,-31.22 -0.879,-6.24 -4.289,-7.46 -8.598,-9.02 -1.289,-0.45 -2.68,-0.72 -3.902,-0.96 -2.118,-0.43 -3.95,-0.79 -3.95,-1.72 0,-0.76 1.762,-0.89 5.243,-0.89 1.179,0 4.199,0.13 7.687,0.28 5,0.24 11.211,0.52 14.742,0.52 3.61,0 9.66,-0.29 14.508,-0.54 3.102,-0.13 5.781,-0.26 6.781,-0.26 3.489,0 3.961,0.68 3.961,1.37 0,0.92 -1.781,1.29 -3.5,1.65 -0.59,0.11 -1.179,0.24 -1.73,0.39 l -0.492,0.12 c -9.77,2.55 -9.77,3.07 -9.77,30.11 0,2.79 0.02,6.03 0.063,9.9 0.046,5.75 0.109,12.88 0.109,22.05 0,2.39 -0.102,6.03 -0.539,9.86 l -0.031,0.27 6.711,6.72 c 3.308,3.59 9.339,7.44 16.289,7.44 9.07,0 13.949,-1.96 18.66,-7.46 4.828,-5.64 4.82,-17.35 4.82,-36.76 v -1.85 c 0,-16.78 0,-25.22 -0.812,-31.22 -0.868,-6.24 -4.278,-7.46 -8.59,-9.02 -1.297,-0.45 -2.688,-0.72 -3.91,-0.96 -2.118,-0.43 -3.95,-0.79 -3.95,-1.72 0,-0.76 1.762,-0.89 5.243,-0.89 1.179,0 4.187,0.13 7.668,0.28 5.011,0.24 11.23,0.52 14.761,0.52 3.617,0 9.66,-0.29 14.52,-0.54 3.097,-0.13 5.769,-0.26 6.777,-0.26 3.492,0 3.961,0.68 3.961,1.37 0,0.92 -1.777,1.29 -3.508,1.65 -0.582,0.11 -1.179,0.24 -1.73,0.39 l -0.492,0.12 c -9.77,2.55 -9.77,3.07 -9.77,30.11 0,2.79 0.031,6.03 0.063,9.9 0.046,5.75 0.109,12.88 0.109,22.05 0,5.07 -0.449,17.53 -4.582,23.39 -6.199,8.65 -14.41,12.68 -25.84,12.68 -14.59,0 -23.437,-8.55 -28.73,-13.65 -0.68,-0.67 -1.297,-1.26 -1.868,-1.78 l -6.281,-7.23 -0.219,1.13 c -0.781,3.86 -1.89,6.85 -3.312,8.85 -6.199,8.65 -14.41,12.68 -25.848,12.68 -14.57,0 -23.429,-8.54 -28.722,-13.65 -2.469,-2.38 -4.098,-3.94 -5.481,-3.94 -0.816,0 -2.18,0.47 -2.18,3.63 v 10.81 c 0,3.63 -0.777,4.12 -1.539,4.12 -0.968,0 -2.41,-1.17 -3.031,-1.65 -10.566,-9.1 -19.187,-14.46 -27.937,-17.38 -0.879,-0.28 -1.211,-0.48 -1.211,-1.39 0,-0.72 1.179,-0.88 3.648,-1.18 0.461,-0.06 0.961,-0.12 1.492,-0.19 2.75,-0.33 5.25,-1.5 6.352,-2.97 2.219,-2.9 2.219,-11.47 2.219,-25.67 0,-21.39 -0.2,-33.6 -1.301,-40.91 -0.891,-5.51 -4.039,-6.33 -8.809,-7.57 -0.722,-0.19 -1.422,-0.33 -2.09,-0.48 -2.55,-0.57 -4.75,-1.06 -4.75,-2.2 0,-0.8 0.149,-1.04 3.321,-1.04 0.597,0 3.597,0.12 7.078,0.25 5.801,0.25 13.012,0.55 15.5,0.55 m 22.941,-1.93 h -1 c -0.972,0 -4.371,0.14 -8.312,0.31 -5.309,0.22 -11.328,0.49 -13.629,0.49 -2.461,0 -9.668,-0.3 -15.449,-0.53 -3.629,-0.16 -6.5,-0.27 -7.129,-0.27 -2.492,0 -4.453,0 -4.453,2.17 0,2.04 2.492,2.6 5.64,3.3 0.653,0.15 1.34,0.3 2.051,0.47 5.121,1.34 7.231,2.06 7.981,6.64 1.078,7.26 1.281,19.42 1.281,40.75 0,13.47 0,22.39 -1.992,24.99 -0.918,1.23 -3.161,2.23 -5.59,2.53 -0.532,0.07 -1.032,0.12 -1.489,0.19 -2.793,0.33 -4.64,0.56 -4.64,2.3 0,1.67 0.98,2.13 1.988,2.47 8.602,2.87 17.102,8.16 27.57,17.16 0.789,0.63 2.391,1.91 3.75,1.91 2.672,0 2.672,-3.55 2.672,-5.24 v -10.81 c 0,-0.93 0.129,-2.52 1.047,-2.52 0.934,0 2.672,1.69 4.692,3.65 5.421,5.22 14.48,13.94 29.511,13.94 11.828,0 20.328,-4.17 26.77,-13.13 1.371,-1.94 2.461,-4.68 3.25,-8.18 l 4.828,5.55 c 0.609,0.57 1.223,1.15 1.902,1.81 5.41,5.21 14.457,13.95 29.508,13.95 11.82,0 20.332,-4.17 26.762,-13.13 4.168,-5.92 4.789,-17.61 4.789,-24.05 0,-9.17 -0.059,-16.31 -0.109,-22.06 -0.032,-3.87 -0.059,-7.1 -0.059,-9.89 0,-26.69 0,-26.69 8.93,-29.01 l 0.488,-0.13 c 0.539,-0.15 1.109,-0.26 1.672,-0.38 2.168,-0.45 4.398,-0.92 4.398,-2.75 0,-2.5 -3.429,-2.5 -5.082,-2.5 -1.039,0 -3.597,0.11 -6.84,0.28 -4.84,0.22 -10.867,0.52 -14.457,0.52 -3.5,0 -9.711,-0.29 -14.711,-0.51 -3.492,-0.16 -6.519,-0.29 -7.718,-0.29 -3.563,0 -6.371,0 -6.371,2.02 0,1.84 2.25,2.29 4.859,2.82 1.191,0.24 2.531,0.51 3.75,0.93 4.262,1.53 7.07,2.54 7.851,8.1 0.797,5.93 0.797,14.34 0.797,31.07 v 1.85 c 0.012,19.14 0.012,30.71 -4.539,36.03 -4.468,5.2 -9.129,7.06 -17.808,7.06 -6.59,0 -12.313,-3.66 -15.481,-7.09 l -6.34,-6.35 c 0.418,-3.79 0.508,-7.36 0.508,-9.72 0,-9.17 -0.058,-16.31 -0.109,-22.06 -0.028,-3.87 -0.059,-7.1 -0.059,-9.89 0,-26.69 0,-26.69 8.93,-29.01 l 0.5,-0.13 c 0.531,-0.15 1.101,-0.26 1.672,-0.38 2.16,-0.45 4.398,-0.92 4.398,-2.75 0,-2.5 -3.429,-2.5 -5.09,-2.5 -1.031,0 -3.589,0.11 -6.832,0.28 -4.847,0.22 -10.867,0.52 -14.457,0.52 -3.5,0 -9.703,-0.29 -14.691,-0.5 -3.5,-0.17 -6.531,-0.3 -7.738,-0.3 -3.563,0 -6.371,0 -6.371,2.02 0,1.84 2.25,2.29 4.847,2.82 1.192,0.24 2.543,0.51 3.762,0.93 4.25,1.53 7.07,2.54 7.851,8.1 0.797,5.93 0.797,14.34 0.797,31.07 v 1.86 c 0,19.14 0.012,30.7 -4.547,36.02 -4.46,5.2 -9.121,7.06 -17.8,7.06 -7.961,0 -15.332,-5.43 -18.231,-10.53 -3.961,-6.95 -3.961,-22.64 -3.961,-34.09 0,-17.51 0.141,-26.43 1.449,-32.66 0.622,-3.28 3.461,-4.91 6.442,-6.21 0.781,-0.33 1.84,-0.62 2.859,-0.91 2.602,-0.71 5.063,-1.38 5.063,-3.14 0,-2.34 -2.961,-2.34 -4.731,-2.34"
           style="fill:#7c51a1;fill-opacity:1;fill-rule:nonzero;stroke:none"
           id="path67" />
        <path
           d="m 754.098,7466.28 c 3.199,0 5.898,-1.11 8.121,-3.33 2.277,-2.15 3.418,-4.78 3.418,-7.9 0,-3.12 -1.141,-5.77 -3.418,-8 -2.223,-2.23 -4.922,-3.33 -8.121,-3.33 -3.192,0 -5.942,1.1 -8.219,3.33 -2.293,2.23 -3.434,4.88 -3.434,8 0,3.12 1.102,5.75 3.313,7.9 2.277,2.22 5.058,3.33 8.34,3.33"
           style="fill:#7c51a1;fill-opacity:1;fill-rule:nonzero;stroke:none"
           id="path69" />
        <path
           d="m 754.098,7465.71 c -3.121,0 -5.789,-1.07 -7.942,-3.17 -2.121,-2.06 -3.148,-4.5 -3.148,-7.49 0,-2.99 1.07,-5.46 3.258,-7.6 2.172,-2.11 4.8,-3.18 7.832,-3.18 3.07,0 5.59,1.04 7.718,3.18 2.161,2.11 3.262,4.66 3.262,7.6 0,2.93 -1.09,5.45 -3.25,7.49 -2.133,2.14 -4.66,3.17 -7.73,3.17 m 0,-22.56 c -3.332,0 -6.231,1.17 -8.61,3.49 -2.39,2.32 -3.601,5.15 -3.601,8.41 0,3.26 1.172,6.06 3.48,8.31 2.371,2.3 5.309,3.48 8.731,3.48 3.34,0 6.211,-1.18 8.519,-3.5 2.371,-2.23 3.59,-5.03 3.59,-8.29 0,-3.25 -1.211,-6.08 -3.602,-8.41 -2.308,-2.32 -5.179,-3.49 -8.507,-3.49"
           style="fill:#7c51a1;fill-opacity:1;fill-rule:nonzero;stroke:none"
           id="path71" />
        <path
           d="m 1175.04,7466.28 c 3.2,0 5.9,-1.11 8.12,-3.33 2.29,-2.15 3.42,-4.78 3.42,-7.9 0,-3.12 -1.13,-5.77 -3.42,-8 -2.22,-2.23 -4.92,-3.33 -8.12,-3.33 -3.19,0 -5.94,1.1 -8.22,3.33 -2.29,2.23 -3.42,4.88 -3.42,8 0,3.12 1.09,5.75 3.3,7.9 2.3,2.22 5.06,3.33 8.34,3.33"
           style="fill:#7c51a1;fill-opacity:1;fill-rule:nonzero;stroke:none"
           id="path73" />
        <path
           d="m 1175.04,7465.71 c -3.14,0 -5.74,-1.03 -7.93,-3.17 -2.13,-2.06 -3.15,-4.5 -3.15,-7.49 0,-2.99 1.06,-5.46 3.25,-7.6 2.17,-2.11 4.8,-3.18 7.83,-3.18 3.03,0 5.62,1.07 7.71,3.18 2.17,2.11 3.28,4.66 3.28,7.6 0,2.93 -1.11,5.45 -3.26,7.49 -2.12,2.14 -4.64,3.17 -7.73,3.17 m 0,-22.56 c -3.32,0 -6.23,1.17 -8.61,3.49 -2.39,2.32 -3.6,5.15 -3.6,8.41 0,3.26 1.17,6.06 3.48,8.31 2.38,2.3 5.31,3.48 8.73,3.48 3.34,0 6.21,-1.18 8.52,-3.5 2.38,-2.23 3.59,-5.03 3.59,-8.29 0,-3.25 -1.21,-6.08 -3.59,-8.41 -2.31,-2.32 -5.18,-3.49 -8.52,-3.49"
           style="fill:#7c51a1;fill-opacity:1;fill-rule:nonzero;stroke:none"
           id="path75" />
        <path
           d="m 1074.25,7404.65 v -59.31 c 3.94,-3.61 7.99,-6.34 12.17,-8.21 4.23,-1.82 8.55,-2.71 12.95,-2.71 7.03,0 13.54,3.6 19.57,10.82 6.1,7.2 9.15,17.71 9.15,31.49 0,12.69 -3.05,22.43 -9.15,29.22 -6.03,6.85 -12.88,10.26 -20.6,10.27 -4.09,0 -8.19,-0.97 -12.28,-2.93 -3.08,-1.43 -7.02,-4.31 -11.81,-8.64 m 0,6.91 c 10.27,13.34 21.34,20.02 33.23,20.02 10.89,0 20.37,-4.35 28.49,-13.08 8.09,-8.66 12.15,-20.53 12.15,-35.62 0,-17.6 -6.25,-31.77 -18.75,-42.52 -10.74,-9.22 -22.71,-13.83 -35.89,-13.84 -6.19,0 -12.47,1.05 -18.88,3.13 -6.33,2.1 -12.82,5.23 -19.45,9.41 v 102.7 c 0,11.26 -0.31,18.17 -0.93,20.78 -0.54,2.6 -1.43,4.36 -2.66,5.3 -1.24,0.94 -2.78,1.41 -4.64,1.41 -2.16,0 -4.86,-0.59 -8.1,-1.75 l -1.62,3.8 31.84,12.13 h 5.21"
           style="fill:#7c51a1;fill-opacity:1;fill-rule:evenodd;stroke:none"
           id="path77" />
        <path
           d="m 1074.81,7345.6 c 3.83,-3.48 7.81,-6.16 11.83,-7.96 4.13,-1.76 8.42,-2.66 12.73,-2.66 6.82,0 13.27,3.57 19.13,10.62 5.99,7.08 9.02,17.54 9.02,31.13 0,12.5 -3.03,22.2 -9,28.84 -5.88,6.69 -12.67,10.09 -20.19,10.09 -3.98,0 -8.03,-0.96 -12.03,-2.87 -2.99,-1.4 -6.86,-4.22 -11.49,-8.4 z m 24.56,-11.74 c -4.47,0 -8.9,0.92 -13.18,2.76 -4.21,1.86 -8.35,4.67 -12.33,8.31 l -0.18,0.17 v 59.79 l 0.19,0.18 c 4.8,4.34 8.82,7.28 11.95,8.73 4.15,2 8.37,2.99 12.51,2.99 7.85,0 14.93,-3.53 21.03,-10.47 6.17,-6.86 9.29,-16.81 9.29,-29.59 0,-13.84 -3.12,-24.57 -9.28,-31.85 -6.1,-7.31 -12.83,-11.02 -20,-11.02 m -43.66,5.52 c 6.47,-4.06 12.88,-7.15 19.06,-9.19 6.35,-2.07 12.64,-3.12 18.7,-3.12 13.01,0.03 24.97,4.64 35.53,13.73 12.31,10.58 18.55,24.74 18.55,42.09 0,14.86 -4.03,26.71 -12,35.22 -7.95,8.57 -17.41,12.92 -28.07,12.92 -11.65,-0.01 -22.68,-6.67 -32.79,-19.8 l -1.01,-1.32 v 72.96 h -4.54 l -31.2,-11.89 1.19,-2.77 c 5.94,2.05 10.01,2.17 12.76,0.09 1.37,-1.05 2.31,-2.91 2.88,-5.64 0.63,-2.64 0.94,-9.5 0.94,-20.9 z m 37.76,-13.43 v 0 c -6.18,0 -12.59,1.06 -19.05,3.18 -6.36,2.1 -12.94,5.26 -19.58,9.46 l -0.26,0.17 v 103 c 0,11.15 -0.31,18.11 -0.91,20.65 -0.51,2.45 -1.34,4.12 -2.46,4.98 -2.5,1.89 -6.44,1.65 -12.2,-0.41 l -0.5,-0.18 -2.07,4.82 32.6,12.36 h 5.77 v -70.78 c 10.06,12.59 21.04,18.94 32.67,18.96 11,0 20.72,-4.47 28.91,-13.28 8.15,-8.72 12.29,-20.83 12.29,-35.99 0,-17.69 -6.38,-32.14 -18.95,-42.93 -10.78,-9.3 -22.97,-14 -36.26,-14.01"
           style="fill:#7c51a1;fill-opacity:1;fill-rule:nonzero;stroke:none"
           id="path79" />
        <path
           d="m 992.68,7425.25 c -4.09,0 -8.219,-1.16 -12.399,-3.48 -4.082,-2.23 -7.41,-6.2 -9.949,-11.89 -2.543,-5.7 -3.82,-13.02 -3.82,-21.97 0,-14.44 3.039,-26.87 9.14,-37.34 6.18,-10.46 14.278,-15.69 24.309,-15.69 7.489,0 13.669,2.89 18.529,8.66 4.86,5.77 7.3,15.69 7.3,29.77 0,17.6 -4.05,31.44 -12.15,41.55 -5.49,6.91 -12.48,10.39 -20.96,10.39 m 3.59,7.04 c 16.05,0 28.93,-5.72 38.66,-17.11 8.27,-9.73 12.4,-20.93 12.4,-33.54 0,-8.89 -2.28,-17.85 -6.84,-26.94 -4.54,-9.11 -10.84,-15.95 -18.87,-20.56 -7.95,-4.62 -16.82,-6.94 -26.62,-6.94 -15.988,0 -28.687,5.96 -38.098,17.86 -7.953,10.03 -11.929,21.28 -11.929,33.76 0,9.09 2.398,18.09 7.179,27.06 4.86,9 11.231,15.64 19.098,19.91 7.883,4.32 16.211,6.5 25.02,6.5"
           style="fill:#7c51a1;fill-opacity:1;fill-rule:evenodd;stroke:none"
           id="path81" />
        <path
           d="m 992.68,7424.68 c -3.957,0 -8.039,-1.13 -12.117,-3.4 -3.973,-2.17 -7.231,-6.08 -9.723,-11.63 -2.5,-5.63 -3.77,-12.94 -3.77,-21.74 0,-14.26 3.051,-26.72 9.071,-37.05 6.031,-10.21 14.05,-15.41 23.82,-15.41 7.289,0 13.369,2.85 18.099,8.47 4.75,5.62 7.16,15.51 7.16,29.38 0,17.39 -4.04,31.25 -12.02,41.2 -5.35,6.75 -12.26,10.18 -20.52,10.18 m 7.281,-90.35 c -10.199,0 -18.539,5.38 -24.789,15.96 -6.133,10.5 -9.231,23.17 -9.231,37.62 0,8.97 1.301,16.44 3.872,22.21 2.589,5.77 6.019,9.86 10.199,12.16 4.25,2.34 8.508,3.53 12.668,3.53 8.63,0 15.83,-3.56 21.4,-10.6 8.14,-10.16 12.27,-24.25 12.27,-41.91 0,-14.14 -2.5,-24.27 -7.43,-30.12 -4.95,-5.86 -11.33,-8.85 -18.959,-8.85 m -3.691,97.39 c -8.661,0 -16.981,-2.17 -24.75,-6.43 -7.739,-4.19 -14.09,-10.81 -18.868,-19.67 -4.722,-8.84 -7.113,-17.86 -7.113,-26.8 0,-12.29 3.973,-23.53 11.801,-33.4 9.262,-11.72 21.93,-17.65 37.66,-17.65 9.66,0 18.52,2.31 26.34,6.85 7.9,4.55 14.18,11.39 18.65,20.32 4.49,8.99 6.77,17.96 6.77,26.69 0,12.43 -4.12,23.6 -12.25,33.19 -9.58,11.22 -22.45,16.9 -38.24,16.9 M 995,7326.64 v 0 c -16.098,0 -29.059,6.09 -38.551,18.08 -7.988,10.09 -12.039,21.55 -12.039,34.1 0,9.13 2.43,18.32 7.242,27.32 4.899,9.08 11.399,15.84 19.328,20.14 7.93,4.37 16.442,6.57 25.29,6.57 16.14,0 29.29,-5.83 39.09,-17.3 8.32,-9.81 12.53,-21.2 12.53,-33.92 0,-8.9 -2.32,-18.05 -6.89,-27.19 -4.58,-9.15 -11,-16.14 -19.1,-20.8 -7.99,-4.63 -17.04,-7 -26.9,-7"
           style="fill:#7c51a1;fill-opacity:1;fill-rule:nonzero;stroke:none"
           id="path83" />
        <path
           d="m 1245.33,7425.25 c -4.08,0 -8.22,-1.16 -12.4,-3.48 -4.08,-2.23 -7.4,-6.2 -9.94,-11.89 -2.54,-5.7 -3.83,-13.02 -3.83,-21.97 0,-14.44 3.04,-26.87 9.14,-37.34 6.19,-10.46 14.28,-15.69 24.31,-15.69 7.49,0 13.68,2.89 18.54,8.66 4.85,5.77 7.29,15.69 7.29,29.77 0,17.6 -4.05,31.44 -12.15,41.55 -5.49,6.91 -12.48,10.39 -20.96,10.39 m 3.58,7.04 c 16.07,0 28.94,-5.72 38.67,-17.11 8.28,-9.73 12.4,-20.93 12.4,-33.54 0,-8.89 -2.28,-17.85 -6.84,-26.94 -4.54,-9.11 -10.84,-15.95 -18.86,-20.56 -7.95,-4.62 -16.82,-6.94 -26.63,-6.94 -15.99,0 -28.69,5.96 -38.1,17.86 -7.95,10.03 -11.92,21.28 -11.92,33.76 0,9.09 2.39,18.09 7.17,27.06 4.86,9 11.23,15.64 19.1,19.91 7.88,4.32 16.21,6.5 25.01,6.5"
           style="fill:#7c51a1;fill-opacity:1;fill-rule:evenodd;stroke:none"
           id="path85" />
        <path
           d="m 1245.33,7424.68 c -3.97,0 -8.05,-1.13 -12.13,-3.4 -3.95,-2.17 -7.23,-6.08 -9.71,-11.63 -2.5,-5.63 -3.77,-12.95 -3.77,-21.74 0,-14.26 3.05,-26.72 9.08,-37.05 6.02,-10.21 14.05,-15.41 23.81,-15.41 7.29,0 13.37,2.85 18.09,8.47 4.77,5.63 7.18,15.51 7.18,29.38 0,17.39 -4.05,31.25 -12.03,41.2 -5.35,6.75 -12.26,10.18 -20.52,10.18 m 7.28,-90.35 c -10.19,0 -18.53,5.38 -24.78,15.96 -6.13,10.5 -9.24,23.17 -9.24,37.62 0,8.96 1.31,16.43 3.87,22.21 2.6,5.76 6.02,9.86 10.2,12.16 4.25,2.34 8.51,3.53 12.67,3.53 8.63,0 15.84,-3.56 21.41,-10.6 8.14,-10.16 12.26,-24.25 12.26,-41.91 0,-14.14 -2.5,-24.27 -7.42,-30.12 -4.95,-5.86 -11.33,-8.85 -18.97,-8.85 m -3.7,97.39 c -8.64,0 -16.98,-2.17 -24.73,-6.43 -7.75,-4.19 -14.1,-10.81 -18.89,-19.67 -4.71,-8.83 -7.11,-17.86 -7.11,-26.8 0,-12.29 3.98,-23.53 11.82,-33.4 9.25,-11.72 21.93,-17.65 37.64,-17.65 9.66,0 18.53,2.31 26.34,6.85 7.91,4.55 14.18,11.39 18.65,20.32 4.51,8.98 6.78,17.95 6.78,26.69 0,12.44 -4.12,23.61 -12.25,33.19 -9.58,11.22 -22.45,16.9 -38.25,16.9 m -1.27,-105.08 v 0 c -16.08,0 -29.05,6.09 -38.54,18.08 -7.99,10.09 -12.05,21.55 -12.05,34.1 0,9.13 2.44,18.32 7.25,27.32 4.9,9.08 11.4,15.84 19.33,20.14 7.93,4.37 16.45,6.57 25.28,6.57 16.15,0 29.31,-5.83 39.1,-17.3 8.32,-9.8 12.52,-21.2 12.52,-33.92 0,-8.91 -2.31,-18.05 -6.88,-27.19 -4.57,-9.13 -11,-16.14 -19.1,-20.8 -7.99,-4.63 -17.04,-7 -26.91,-7"
           style="fill:#7c51a1;fill-opacity:1;fill-rule:nonzero;stroke:none"
           id="path87" />
        <path
           d="m 1396.05,7425.25 c -4.09,0 -8.21,-1.16 -12.39,-3.48 -4.09,-2.23 -7.41,-6.2 -9.95,-11.89 -2.53,-5.7 -3.83,-13.02 -3.83,-21.97 0,-14.44 3.05,-26.87 9.14,-37.34 6.18,-10.46 14.28,-15.69 24.32,-15.69 7.48,0 13.68,2.89 18.52,8.66 4.85,5.77 7.3,15.69 7.3,29.77 0,17.6 -4.05,31.44 -12.14,41.55 -5.5,6.91 -12.48,10.39 -20.97,10.39 m 3.59,7.04 c 16.04,0 28.93,-5.72 38.66,-17.11 8.29,-9.73 12.4,-20.93 12.4,-33.54 0,-8.89 -2.29,-17.85 -6.84,-26.94 -4.54,-9.11 -10.84,-15.95 -18.86,-20.56 -7.95,-4.62 -16.82,-6.94 -26.62,-6.94 -15.99,0 -28.7,5.96 -38.11,17.86 -7.95,10.03 -11.93,21.28 -11.93,33.76 0,9.09 2.41,18.09 7.18,27.06 4.87,9 11.23,15.64 19.11,19.91 7.87,4.32 16.21,6.5 25.01,6.5"
           style="fill:#7c51a1;fill-opacity:1;fill-rule:evenodd;stroke:none"
           id="path89" />
        <path
           d="m 1396.05,7424.68 c -3.96,0 -8.05,-1.13 -12.12,-3.4 -3.97,-2.17 -7.23,-6.08 -9.72,-11.63 -2.5,-5.63 -3.76,-12.94 -3.76,-21.74 0,-14.26 3.05,-26.72 9.07,-37.05 6.03,-10.21 14.05,-15.41 23.82,-15.41 7.29,0 13.36,2.85 18.09,8.47 4.77,5.62 7.16,15.51 7.16,29.38 0,17.39 -4.04,31.25 -12.02,41.2 -5.36,6.75 -12.25,10.18 -20.52,10.18 m 7.29,-90.35 c -10.2,0 -18.54,5.38 -24.79,15.96 -6.12,10.5 -9.23,23.17 -9.23,37.62 0,8.97 1.29,16.44 3.86,22.21 2.61,5.77 6.02,9.86 10.2,12.16 4.26,2.34 8.51,3.53 12.67,3.53 8.63,0 15.84,-3.56 21.41,-10.6 8.13,-10.16 12.27,-24.25 12.27,-41.91 0,-14.14 -2.5,-24.27 -7.43,-30.12 -4.96,-5.86 -11.34,-8.85 -18.96,-8.85 m -3.7,97.39 c -8.64,0 -16.98,-2.17 -24.75,-6.43 -7.75,-4.19 -14.09,-10.81 -18.87,-19.67 -4.72,-8.84 -7.11,-17.86 -7.11,-26.8 0,-12.29 3.97,-23.53 11.8,-33.4 9.27,-11.72 21.93,-17.65 37.67,-17.65 9.66,0 18.51,2.31 26.32,6.85 7.91,4.54 14.19,11.39 18.66,20.32 4.5,8.99 6.78,17.96 6.78,26.69 0,12.43 -4.12,23.6 -12.25,33.19 -9.59,11.22 -22.46,16.9 -38.25,16.9 m -1.26,-105.08 v 0 c -16.11,0 -29.06,6.09 -38.56,18.08 -7.98,10.09 -12.03,21.55 -12.03,34.1 0,9.12 2.42,18.32 7.23,27.32 4.91,9.08 11.41,15.84 19.34,20.14 7.93,4.37 16.44,6.57 25.28,6.57 16.15,0 29.29,-5.83 39.11,-17.3 8.3,-9.81 12.52,-21.2 12.52,-33.92 0,-8.9 -2.32,-18.05 -6.89,-27.19 -4.58,-9.15 -11,-16.15 -19.11,-20.8 -7.98,-4.63 -17.04,-7 -26.89,-7"
           style="fill:#7c51a1;fill-opacity:1;fill-rule:nonzero;stroke:none"
           id="path91" />
        <path
           d="m 871.977,7407.31 c -1.418,0.16 -2.528,0.48 -2.528,1.28 0,1.41 1.418,1.88 4.27,2.98 3.308,1.27 16.59,8.7 22.59,14.54 3.007,3.02 4.257,3.32 5.211,3.32 1.109,0 2.218,-0.79 2.218,-3.79 v -11.39 c 0,-2.05 0.629,-2.36 1.262,-2.36 3.156,0 10.898,16.9 25.906,16.9 8.532,0 14.063,-6.16 14.063,-13.58 0,-7.58 -5.692,-12.33 -12.16,-12.33 -8.532,0 -10.27,8.85 -18.012,8.85 -3.949,0 -5.527,-2.85 -6.957,-4.42 -3.942,-4.43 -4.262,-17.06 -4.262,-35.56 0,-17.21 -0.32,-30.64 1.891,-33.96 2.531,-3.95 12.32,-5.36 15.328,-6.02 2.531,-0.46 4.582,-0.3 4.582,-2.34 0,-1.59 -3,-1.59 -4.742,-1.59 -1.731,0 -18.637,0.79 -25.75,0.79 -7.11,0 -22.438,-0.79 -24.328,-0.79 -1.903,0 -4.582,0.14 -4.582,1.59 0,1.73 2.679,2.04 5.05,2.68 1.891,0.46 9.012,1.89 10.43,5.84 1.422,3.95 1.742,12.32 1.742,39.18 0,26.87 -0.48,29.55 -11.222,30.18"
           style="fill:#7c51a1;fill-opacity:1;fill-rule:nonzero;stroke:none"
           id="path93" />
        <path
           d="m 894.887,7329.19 c 4.769,0 13.922,-0.35 19.98,-0.59 2.91,-0.1 5.211,-0.19 5.77,-0.19 1.25,0 4.179,0 4.179,1 0,1.12 -0.679,1.3 -2.777,1.61 -0.422,0.05 -0.871,0.12 -1.34,0.21 -0.359,0.07 -0.801,0.17 -1.312,0.25 -4.199,0.82 -12.028,2.31 -14.391,6 -2.047,3.09 -2.019,13.75 -1.988,28.52 l 0.012,5.76 c 0,18.71 0.296,31.34 4.398,35.93 0.219,0.24 0.441,0.51 0.68,0.81 1.308,1.6 3.101,3.81 6.699,3.81 3.992,0 6.492,-2.24 8.902,-4.42 2.547,-2.28 4.949,-4.43 9.11,-4.43 5.757,0 11.597,4.03 11.597,11.76 0,7.54 -5.679,13.01 -13.5,13.01 -10.027,0 -16.668,-7.66 -21.058,-12.74 -2.16,-2.5 -3.59,-4.16 -4.852,-4.16 -1.828,0 -1.828,2.21 -1.828,2.94 v 11.38 c 0,1.46 -0.281,3.23 -1.641,3.23 -0.871,0 -2.05,-0.39 -4.82,-3.17 -6.109,-5.95 -19.519,-13.41 -22.789,-14.66 l -0.441,-0.17 c -2.571,-1 -3.457,-1.39 -3.457,-2.31 0,-0.1 0.136,-0.49 2.019,-0.7 11.289,-0.66 11.719,-4.1 11.719,-30.74 0,-27.69 -0.352,-35.42 -1.77,-39.37 -1.429,-3.96 -7.91,-5.5 -10.351,-6.09 l -0.469,-0.12 c -0.379,-0.08 -0.762,-0.18 -1.148,-0.28 -2.102,-0.51 -3.481,-0.91 -3.481,-1.86 0,-0.3 0.391,-1 4.02,-1 0.629,0 2.879,0.09 5.73,0.2 5.527,0.24 13.899,0.58 18.598,0.58 m 25.75,-1.91 c -0.578,0 -2.778,0.07 -5.821,0.19 -6.046,0.25 -15.179,0.6 -19.929,0.6 -4.68,0 -13.028,-0.35 -18.559,-0.59 -2.969,-0.12 -5.109,-0.2 -5.769,-0.2 -1.411,0 -5.141,0 -5.141,2.13 0,1.92 2.199,2.45 4.34,2.96 0.371,0.09 0.75,0.18 1.121,0.29 l 0.5,0.11 c 2.277,0.54 8.328,1.99 9.551,5.38 1.347,3.75 1.699,11.77 1.699,38.98 0,26.53 -0.289,29 -10.68,29.62 -0.941,0.11 -3.062,0.33 -3.062,1.82 0,1.74 1.492,2.31 4.191,3.36 l 0.43,0.17 c 3.219,1.23 16.398,8.57 22.41,14.41 2.891,2.89 4.328,3.48 5.609,3.48 1.032,0 2.77,-0.56 2.77,-4.34 v -11.38 c 0,-1.82 0.48,-1.82 0.699,-1.82 0.742,0 2.32,1.84 4,3.77 4.25,4.92 11.363,13.15 21.91,13.15 8.481,0 14.633,-5.95 14.633,-14.15 0,-7.36 -5.473,-12.9 -12.73,-12.9 -4.59,0 -7.27,2.41 -9.86,4.73 -2.359,2.12 -4.59,4.12 -8.152,4.12 -3.059,0 -4.59,-1.87 -5.828,-3.4 -0.242,-0.3 -0.481,-0.58 -0.711,-0.84 -3.82,-4.28 -4.11,-17.27 -4.11,-35.17 l -0.011,-5.76 c -0.039,-14.03 -0.059,-25.09 1.801,-27.89 2.109,-3.3 9.91,-4.8 13.66,-5.51 0.519,-0.11 0.968,-0.19 1.32,-0.26 0.441,-0.08 0.871,-0.14 1.281,-0.21 1.93,-0.27 3.75,-0.55 3.75,-2.72 0,-2.13 -3.32,-2.13 -5.312,-2.13"
           style="fill:#7c51a1;fill-opacity:1;fill-rule:nonzero;stroke:none"
           id="path95" />
        <path
           d="m 1478.34,7329.84 c -3.57,-3.63 -6.27,-7 -8.11,-10.14 -1.81,-3.11 -2.72,-5.99 -2.72,-8.61 0,-3.43 2.2,-6.41 6.61,-8.96 7.6,-4.42 18.59,-6.61 32.95,-6.61 13.68,0 23.77,2.28 30.24,6.84 6.52,4.46 9.79,9.25 9.79,14.37 0,3.7 -1.94,6.32 -5.82,7.88 -3.96,1.57 -11.78,2.5 -23.49,2.78 -17.11,0.43 -30.25,1.25 -39.45,2.45 m 20.98,95.36 c -5.63,0 -10.34,-2.09 -14.14,-6.29 -3.79,-4.2 -5.69,-10.61 -5.69,-19.28 0,-11.22 2.58,-19.93 7.74,-26.11 3.96,-4.68 8.97,-7.04 15.06,-7.04 5.78,0 10.52,2.02 14.25,6.09 3.73,4.06 5.58,10.39 5.59,19.07 0,11.29 -2.62,20.13 -7.87,26.54 -3.88,4.68 -8.86,7.02 -14.94,7.02 m -19.83,-59.77 c -6.4,2.91 -11.31,6.96 -14.72,12.14 -3.42,5.25 -5.12,11.04 -5.12,17.38 0,9.66 3.87,17.96 11.62,24.94 7.83,6.95 17.82,10.43 29.99,10.43 9.96,0 18.58,-2.27 25.89,-6.82 0,0 17.8,-1.8 29.22,-1.66 19.81,0.25 43.02,0 43.02,0 v -3.95 h -2.38 c -3.44,0 -6.01,-0.71 -7.76,-2.12 -1.68,-1.36 -2.52,-3.06 -2.52,-5.11 0,-2.77 1.26,-6.61 3.76,-11.52 l 25.44,-49.23 23.37,53.93 c 1.29,2.89 1.94,5.79 1.94,8.64 0,1.27 -0.26,2.22 -0.8,2.86 -0.62,0.79 -1.55,1.39 -2.85,1.8 -1.29,0.5 -3.59,0.75 -6.85,0.75 v 3.95 h 33.99 v -3.95 c -2.82,-0.28 -4.98,-0.84 -6.51,-1.69 -1.51,-0.86 -3.19,-2.45 -5,-4.81 -0.69,-0.98 -1.99,-3.73 -3.88,-8.19 l -42.54,-97.4 c -4.11,-9.46 -9.5,-16.6 -16.18,-21.42 -6.62,-4.83 -13,-7.25 -19.18,-7.25 -4.47,0 -8.16,1.21 -11.04,3.62 -2.89,2.43 -4.35,5.18 -4.35,8.32 0,2.98 1.04,5.39 3.09,7.23 2.13,1.79 5.02,2.66 8.67,2.66 2.5,0 5.93,-0.75 10.26,-2.33 3.04,-1.08 4.94,-1.61 5.7,-1.61 2.28,0 4.75,1.12 7.41,3.32 2.75,2.2 5.48,6.46 8.21,12.79 l 7.41,16.92 -37.52,73.65 c -1.14,2.19 -2.96,4.94 -5.46,8.21 -1.91,2.48 -3.46,4.16 -4.68,5.02 -0.68,0.43 -1.55,0.87 -2.56,1.27 -0.1,-0.47 -20.88,-2.29 -20.88,-2.29 4.25,-5.12 6.37,-11.66 6.37,-19.61 0,-9.09 -3.71,-16.87 -11.16,-23.34 -7.45,-6.46 -17.43,-9.69 -29.99,-9.69 -5.17,0 -10.46,0.71 -15.85,2.12 -3.35,-2.68 -5.62,-5.07 -6.85,-7.12 -1.13,-2 -1.7,-3.72 -1.7,-5.11 0,-1.23 0.6,-2.39 1.82,-3.53 1.29,-1.13 3.76,-1.95 7.41,-2.45 2.12,-0.29 7.45,-0.54 15.97,-0.75 15.64,-0.36 25.8,-0.86 30.44,-1.5 7.07,-0.91 12.68,-3.36 16.88,-7.34 4.26,-3.98 6.38,-8.88 6.38,-14.71 0,-8.02 -4.01,-15.54 -12.08,-22.58 -11.86,-10.37 -27.34,-15.57 -46.41,-15.57 -14.68,0 -27.07,3.09 -37.18,9.29 -5.69,3.53 -8.54,7.23 -8.54,11.07 0,1.71 0.41,3.41 1.25,5.12 1.3,2.63 3.97,6.29 7.98,10.97 0.54,0.62 4.4,4.48 11.63,11.52 -3.94,2.19 -6.76,4.14 -8.44,5.85 -1.59,1.77 -2.39,3.77 -2.39,5.97 0,2.48 1.07,5.39 3.19,8.73 2.2,3.34 7.22,8.05 15.06,14.18"
           style="fill:#7c51a1;fill-opacity:1;fill-rule:nonzero;stroke:none"
           id="path97" />
        <path
           d="m 1499.32,7424.64 c -5.43,0 -10.06,-2.05 -13.71,-6.1 -3.69,-4.07 -5.56,-10.43 -5.56,-18.91 0,-11.03 2.57,-19.7 7.61,-25.75 3.85,-4.53 8.77,-6.83 14.63,-6.83 5.59,0 10.24,1.98 13.84,5.9 3.6,3.91 5.44,10.21 5.44,18.69 0,11.12 -2.62,19.92 -7.74,26.18 -3.75,4.53 -8.63,6.82 -14.51,6.82 m 2.97,-58.72 c -6.21,0 -11.43,2.43 -15.49,7.24 -5.22,6.27 -7.87,15.17 -7.87,26.47 0,8.77 1.95,15.39 5.84,19.66 3.89,4.31 8.79,6.48 14.55,6.48 6.23,0 11.4,-2.44 15.37,-7.23 5.31,-6.48 8.01,-15.52 8.01,-26.9 -0.02,-8.78 -1.94,-15.33 -5.74,-19.45 -3.81,-4.16 -8.74,-6.27 -14.67,-6.27 m -23.75,-36.69 c -3.42,-3.49 -6.05,-6.79 -7.8,-9.8 -1.77,-3.02 -2.67,-5.83 -2.67,-8.35 0,-3.18 2.13,-6.03 6.33,-8.46 7.5,-4.34 18.48,-6.53 32.67,-6.53 13.52,0 23.58,2.25 29.91,6.72 6.33,4.34 9.54,9.02 9.54,13.91 0,3.47 -1.77,5.88 -5.47,7.37 -3.86,1.53 -11.69,2.45 -23.27,2.73 -16.89,0.42 -30.08,1.23 -39.24,2.41 m 28.53,-34.28 c -14.39,0 -25.56,2.25 -33.24,6.69 -4.57,2.65 -6.87,5.82 -6.87,9.44 0,2.72 0.93,5.72 2.81,8.91 1.82,3.17 4.59,6.6 8.17,10.25 l 0.21,0.19 0.27,-0.04 c 9.11,-1.19 22.36,-2.02 39.39,-2.44 11.71,-0.28 19.66,-1.23 23.67,-2.81 4.11,-1.66 6.18,-4.48 6.18,-8.42 0,-5.28 -3.38,-10.28 -10.04,-14.84 -6.52,-4.6 -16.8,-6.93 -30.55,-6.93 m 60.73,3.45 c -3.5,0 -6.3,-0.85 -8.3,-2.53 -1.9,-1.7 -2.88,-4 -2.88,-6.81 0,-2.92 1.39,-5.58 4.14,-7.88 2.76,-2.31 6.36,-3.49 10.68,-3.49 6.02,0 12.35,2.41 18.83,7.15 6.58,4.75 11.98,11.87 16.02,21.17 l 42.52,97.41 c 1.98,4.64 3.24,7.29 3.94,8.3 1.86,2.41 3.6,4.07 5.2,4.96 1.51,0.84 3.6,1.41 6.22,1.72 v 2.87 h -32.86 v -2.82 c 3.08,-0.03 5.19,-0.27 6.48,-0.78 1.36,-0.44 2.4,-1.11 3.09,-1.98 0.62,-0.75 0.92,-1.8 0.92,-3.23 0,-2.91 -0.67,-5.89 -2,-8.85 l -23.82,-55.01 -25.99,50.28 c -2.54,4.97 -3.82,8.93 -3.82,11.78 0,2.21 0.91,4.08 2.72,5.55 1.84,1.49 4.57,2.24 8.11,2.24 h 1.83 v 2.83 c -2.33,0.02 -11.56,0.1 -22.5,0.1 -7.4,0 -14.1,-0.03 -19.94,-0.11 -11.33,-0.13 -29.12,1.65 -29.3,1.67 l -0.23,0.08 c -7.19,4.47 -15.8,6.73 -25.59,6.73 -11.97,0 -21.93,-3.46 -29.63,-10.29 -7.57,-6.83 -11.42,-15.08 -11.42,-24.52 0,-6.19 1.68,-11.93 5.02,-17.07 3.34,-5.07 8.22,-9.08 14.49,-11.93 l 0.84,-0.38 -0.74,-0.58 c -7.75,-6.05 -12.78,-10.78 -14.93,-14.04 -2.05,-3.23 -3.1,-6.07 -3.1,-8.43 0,-2.05 0.76,-3.91 2.26,-5.58 1.61,-1.64 4.4,-3.58 8.29,-5.75 l 0.66,-0.37 -0.55,-0.53 c -8.92,-8.7 -11.23,-11.03 -11.59,-11.46 -3.97,-4.64 -6.63,-8.29 -7.91,-10.87 -0.79,-1.65 -1.18,-3.24 -1.18,-4.86 0,-3.61 2.77,-7.18 8.27,-10.61 9.96,-6.09 22.38,-9.18 36.89,-9.18 18.83,0 34.32,5.18 46.03,15.41 7.89,6.89 11.89,14.35 11.89,22.18 0,5.62 -2.09,10.43 -6.21,14.28 -4.08,3.88 -9.65,6.3 -16.57,7.22 -4.58,0.62 -14.79,1.12 -30.38,1.48 -8.63,0.21 -13.87,0.46 -16.03,0.75 -3.79,0.51 -6.31,1.36 -7.71,2.59 -1.33,1.24 -2,2.56 -2,3.94 0,1.52 0.6,3.33 1.78,5.39 1.25,2.11 3.59,4.57 6.97,7.29 l 0.23,0.19 0.28,-0.08 c 5.31,-1.4 10.6,-2.11 15.7,-2.11 12.35,0 22.31,3.22 29.61,9.57 7.3,6.3 10.97,14.01 10.97,22.91 0,7.78 -2.09,14.25 -6.24,19.24 l -0.68,0.83 1.07,0.09 c 7.12,0.62 18.54,1.72 20.44,2.14 l 0.07,0.35 0.62,-0.25 c 1.07,-0.42 1.94,-0.85 2.67,-1.32 1.29,-0.91 2.85,-2.58 4.81,-5.13 2.58,-3.38 4.39,-6.09 5.52,-8.3 l 37.65,-73.88 -0.11,-0.24 -7.42,-16.95 c -2.73,-6.35 -5.55,-10.73 -8.36,-13 -2.81,-2.31 -5.36,-3.43 -7.77,-3.43 -0.53,0 -1.72,0.17 -5.89,1.64 -4.23,1.53 -7.63,2.3 -10.08,2.3 m 3.64,-21.84 c -4.59,0 -8.43,1.27 -11.41,3.76 -3.01,2.52 -4.52,5.46 -4.52,8.74 0,3.14 1.09,5.72 3.25,7.67 2.24,1.87 5.26,2.8 9.04,2.8 2.59,0 6.11,-0.8 10.46,-2.38 3.69,-1.29 5.03,-1.56 5.51,-1.56 2.11,0 4.49,1.07 7.06,3.18 2.67,2.15 5.37,6.38 8.04,12.57 l 7.31,16.7 -37.41,73.41 c -1.09,2.15 -2.87,4.8 -5.4,8.12 -1.87,2.42 -3.39,4.07 -4.56,4.89 -0.6,0.39 -1.39,0.79 -2.33,1.15 -1.32,-0.39 -5.6,-0.93 -19.68,-2.17 3.86,-5.07 5.84,-11.5 5.84,-19.13 0,-9.24 -3.83,-17.23 -11.37,-23.77 -7.52,-6.52 -17.73,-9.83 -30.35,-9.83 -5.11,0 -10.39,0.69 -15.72,2.07 -3.15,-2.57 -5.33,-4.86 -6.48,-6.8 -1.08,-1.89 -1.64,-3.51 -1.64,-4.83 0,-1.07 0.54,-2.08 1.64,-3.11 1.2,-1.05 3.59,-1.83 7.1,-2.31 2.07,-0.28 7.43,-0.52 15.91,-0.73 15.62,-0.36 25.89,-0.87 30.5,-1.51 7.16,-0.93 12.95,-3.45 17.18,-7.49 4.36,-4.07 6.57,-9.16 6.57,-15.11 0,-8.17 -4.13,-15.91 -12.27,-23.03 -11.91,-10.41 -27.65,-15.69 -46.77,-15.69 -14.73,0 -27.34,3.15 -37.48,9.36 -5.86,3.64 -8.81,7.53 -8.81,11.56 0,1.78 0.43,3.58 1.31,5.35 1.31,2.67 4.02,6.41 8.05,11.1 0.54,0.64 4.17,4.25 11.13,11.02 -3.65,2.08 -6.31,3.96 -7.9,5.6 -1.71,1.89 -2.55,4.02 -2.55,6.35 0,2.61 1.07,5.57 3.26,9.05 2.2,3.31 6.92,7.81 14.47,13.75 -6.05,2.91 -10.8,6.92 -14.12,11.94 -3.46,5.33 -5.21,11.28 -5.21,17.69 0,9.77 3.98,18.31 11.8,25.37 7.9,7.02 18.12,10.57 30.38,10.57 9.95,0 18.72,-2.29 26.06,-6.82 1.64,-0.17 18.31,-1.81 29.04,-1.66 5.84,0.08 12.56,0.11 19.96,0.11 12.6,0 22.97,-0.11 23.06,-0.11 h 0.56 v -5.06 H 1597 c -3.28,0 -5.77,-0.69 -7.4,-2.01 -1.55,-1.26 -2.3,-2.79 -2.3,-4.67 0,-2.67 1.23,-6.46 3.7,-11.27 l 24.88,-48.17 22.9,52.84 c 1.26,2.83 1.88,5.65 1.88,8.4 0,1.14 -0.21,1.98 -0.66,2.52 -0.55,0.7 -1.43,1.25 -2.59,1.63 -1.23,0.48 -3.47,0.73 -6.67,0.73 h -0.56 v 5.06 h 35.11 v -5.01 l -0.51,-0.05 c -2.7,-0.28 -4.82,-0.82 -6.28,-1.64 -1.46,-0.82 -3.09,-2.38 -4.83,-4.65 -0.64,-0.92 -1.89,-3.56 -3.83,-8.08 l -42.52,-97.41 c -4.12,-9.47 -9.63,-16.77 -16.36,-21.64 -6.7,-4.88 -13.27,-7.36 -19.52,-7.36"
           style="fill:#7c51a1;fill-opacity:1;fill-rule:nonzero;stroke:none"
           id="path99" />
        <path
           d="m 866.266,7366.36 c -2.75,-12.57 -8.129,-22.27 -16.161,-29.07 -8.031,-6.74 -16.91,-10.1 -26.652,-10.1 -11.59,0 -21.699,4.55 -30.316,13.65 -8.614,9.09 -12.922,21.39 -12.922,36.88 0,15 4.75,27.18 14.262,36.56 9.589,9.37 21.07,14.07 34.449,14.07 10.027,0 18.277,-2.5 24.738,-7.5 6.473,-4.94 9.711,-10.08 9.711,-15.42 0,-2.64 -0.941,-4.79 -2.789,-6.46 -1.781,-1.6 -4.32,-2.4 -7.59,-2.4 -4.383,0 -7.691,1.31 -9.922,3.96 -1.258,1.46 -2.121,4.24 -2.558,8.34 -0.371,4.1 -1.86,7.22 -4.461,9.36 -2.602,2.09 -6.211,3.14 -10.809,3.14 -7.43,0 -13.422,-2.57 -17.961,-7.72 -6.012,-6.8 -9.019,-15.8 -9.019,-26.98 0,-11.38 2.968,-21.46 8.918,-30.21 6.019,-8.68 14.121,-13.02 24.3,-13.02 7.282,0 13.821,2.32 19.621,6.98 4.09,3.2 8.059,8.99 11.93,17.4"
           style="fill:#7c51a1;fill-opacity:1;fill-rule:nonzero;stroke:none"
           id="path101" />
        <path
           d="m 828.926,7427.79 c -13.168,0 -24.621,-4.69 -34.051,-13.93 -9.359,-9.21 -14.098,-21.37 -14.098,-36.15 0,-15.26 4.297,-27.54 12.77,-36.49 8.469,-8.93 18.527,-13.47 29.91,-13.47 9.57,0 18.41,3.35 26.289,9.97 7.789,6.61 13.129,16.12 15.871,28.32 l -2.301,1.03 c -3.878,-8.3 -7.761,-13.9 -11.859,-17.1 -5.859,-4.71 -12.582,-7.09 -19.973,-7.09 -10.328,0 -18.66,4.46 -24.757,13.26 -5.993,8.81 -9.02,19.07 -9.02,30.53 0,11.28 3.078,20.47 9.16,27.37 4.629,5.22 10.821,7.89 18.379,7.89 4.719,0 8.481,-1.09 11.16,-3.25 2.731,-2.26 4.289,-5.54 4.668,-9.77 0.434,-3.94 1.25,-6.64 2.434,-8.02 2.109,-2.49 5.297,-3.76 9.5,-3.76 3.109,0 5.527,0.76 7.199,2.25 1.731,1.55 2.598,3.59 2.598,6.04 0,5.12 -3.188,10.17 -9.481,14.98 -6.328,4.9 -14.539,7.39 -24.398,7.39 m -5.469,-101.16 c -11.699,0 -22.039,4.64 -30.73,13.82 -8.68,9.16 -13.082,21.7 -13.082,37.26 0,15.09 4.863,27.53 14.441,36.97 9.648,9.45 21.371,14.23 34.84,14.23 10.121,0 18.558,-2.57 25.09,-7.62 6.582,-5.03 9.922,-10.37 9.922,-15.87 0,-2.79 -1,-5.1 -2.973,-6.88 -1.891,-1.68 -4.559,-2.54 -7.957,-2.54 -4.543,0 -8.031,1.4 -10.363,4.16 -1.348,1.57 -2.227,4.4 -2.688,8.64 -0.359,3.93 -1.789,6.95 -4.262,9 -2.468,1.99 -5.988,3 -10.449,3 -7.219,0 -13.121,-2.53 -17.531,-7.51 -5.899,-6.68 -8.879,-15.64 -8.879,-26.62 0,-11.22 2.961,-21.29 8.809,-29.9 5.882,-8.47 13.902,-12.77 23.839,-12.77 7.133,0 13.614,2.31 19.274,6.86 3.988,3.11 7.937,8.89 11.769,17.18 l 0.231,0.52 4.16,-1.88 -0.102,-0.45 c -2.761,-12.64 -8.261,-22.52 -16.339,-29.38 -8.09,-6.79 -17.18,-10.22 -27.02,-10.22"
           style="fill:#7c51a1;fill-opacity:1;fill-rule:nonzero;stroke:none"
           id="path103" />
        <path
           d="m 1332.34,7370.4 c 0,-17.68 0.15,-26.06 1.4,-32.06 0.64,-3.32 3.28,-5.05 6.55,-6.47 2.51,-1.11 7.34,-1.58 7.34,-3.47 0,-1.91 -2.79,-1.75 -4.98,-1.75 -2.18,0 -17.34,0.8 -21.25,0.8 -3.9,0 -20.31,-0.8 -21.86,-0.8 -2.82,0 -3.77,0.16 -3.77,1.59 0,1.88 3.29,2.21 7.04,3.16 4.84,1.26 7.34,2.05 8.12,6.94 1.11,7.42 1.25,20.22 1.25,39.96 0,13.57 0,76.02 -2.03,78.71 -0.94,1.25 -3.11,2.36 -5.77,2.68 -3.45,0.47 -5.48,0.47 -5.48,1.89 0,1.27 0.64,1.58 1.57,1.9 9.37,3.16 17.96,9.15 26.87,16.9 0.79,0.63 2.2,1.73 3.29,1.73 1.71,0 2.02,-2.05 2.02,-4.57 v -10.58 c 0,-1.42 -0.31,-83.45 -0.31,-96.56"
           style="fill:#7c51a1;fill-opacity:1;fill-rule:nonzero;stroke:none"
           id="path105" />
        <path
           d="m 1321.41,7328.02 c 2.25,0 8.07,-0.26 13.22,-0.49 3.81,-0.16 7.09,-0.3 8.03,-0.3 l 0.98,-0.01 c 2.5,0 3.44,0.31 3.44,1.18 0,0.87 -2.25,1.49 -4.07,1.99 -1.03,0.3 -2.11,0.6 -2.94,0.97 -3.15,1.37 -6.18,3.14 -6.88,6.87 -1.27,6.15 -1.42,14.95 -1.42,32.17 0,9.87 0.19,59.21 0.27,82.93 0.03,7.99 0.05,13.27 0.05,13.64 v 10.57 c 0,3.54 -0.74,4.01 -1.46,4.01 -0.94,0 -2.38,-1.17 -2.93,-1.61 -10.23,-8.88 -18.57,-14.14 -27.05,-17 -0.88,-0.29 -1.17,-0.48 -1.17,-1.35 0,-0.68 1.13,-0.86 3.5,-1.16 0.46,-0.05 0.95,-0.12 1.48,-0.18 2.66,-0.32 5.08,-1.46 6.15,-2.9 1.43,-1.89 2.15,-28.47 2.15,-79.06 0,-20.87 -0.2,-32.79 -1.27,-40.04 -0.82,-5.15 -3.49,-6.08 -8.53,-7.4 -0.69,-0.17 -1.37,-0.32 -2.02,-0.48 -2.46,-0.55 -4.6,-1.03 -4.6,-2.14 0,-0.77 0.15,-1 3.19,-1 0.59,0 3.52,0.12 6.9,0.25 5.59,0.25 12.58,0.54 14.98,0.54 m 22.23,-1.93 -0.98,0.01 c -0.96,0 -4.26,0.13 -8.08,0.31 -5.12,0.22 -10.96,0.48 -13.17,0.48 -2.38,0 -9.35,-0.29 -14.94,-0.53 -3.53,-0.15 -6.31,-0.26 -6.94,-0.26 -2.41,0 -4.31,0 -4.31,2.13 0,2.01 2.42,2.54 5.47,3.25 0.63,0.14 1.31,0.3 1.99,0.47 4.82,1.26 6.98,2 7.7,6.49 1.05,7.15 1.25,19.03 1.25,39.85 0,68.17 -1.35,77.52 -1.92,78.38 -0.74,1 -2.69,2.15 -5.39,2.45 -0.54,0.08 -1.03,0.15 -1.48,0.2 -2.7,0.34 -4.5,0.57 -4.5,2.27 0,1.63 0.92,2.07 1.96,2.43 8.32,2.81 16.56,7.98 26.68,16.78 1.15,0.94 2.48,1.88 3.65,1.88 2.6,0 2.6,-3.48 2.6,-5.14 v -10.57 c 0,-0.37 -0.02,-5.67 -0.06,-13.64 -0.08,-23.72 -0.27,-73.07 -0.27,-82.93 0,-17.16 0.13,-25.9 1.4,-31.94 0.61,-3.22 3.36,-4.82 6.22,-6.07 0.77,-0.35 1.81,-0.62 2.8,-0.9 2.51,-0.71 4.89,-1.36 4.89,-3.09 0,-2.31 -2.99,-2.31 -4.57,-2.31"
           style="fill:#7c51a1;fill-opacity:1;fill-rule:nonzero;stroke:none"
           id="path107" />
        <path
           d="m 764.547,7371.39 c 0,-18.09 0.16,-26.64 1.449,-32.79 0.641,-3.39 3.352,-5.16 6.699,-6.6 2.563,-1.15 7.512,-1.62 7.512,-3.56 0,-1.96 -2.871,-1.78 -5.109,-1.78 -2.243,0 -17.731,0.8 -21.731,0.8 -3.992,0 -20.769,-0.8 -22.359,-0.8 -2.883,0 -3.844,0.16 -3.844,1.62 0,1.93 3.363,2.25 7.191,3.23 4.95,1.29 7.512,2.09 8.301,7.09 1.121,7.6 1.289,20.68 1.289,40.86 0,13.9 0,22.63 -2.078,25.37 -0.953,1.29 -3.191,2.42 -5.91,2.75 -3.519,0.47 -5.602,0.47 -5.602,1.95 0,1.27 0.653,1.59 1.602,1.92 9.59,3.23 18.379,9.35 27.488,17.28 0.801,0.66 2.231,1.78 3.352,1.78 1.75,0 2.078,-2.1 2.078,-4.68 v -10.82 c 0,-1.46 -0.328,-30.21 -0.328,-43.62"
           style="fill:#7c51a1;fill-opacity:1;fill-rule:nonzero;stroke:none"
           id="path109" />
        <path
           d="m 753.363,7328.03 c 2.301,0 8.274,-0.25 13.543,-0.49 3.891,-0.16 7.25,-0.32 8.188,-0.32 h 1.011 c 2.579,0 3.54,0.33 3.54,1.22 0,0.89 -2.309,1.54 -4.168,2.05 -1.063,0.3 -2.161,0.6 -3.012,0.98 -3.219,1.4 -6.301,3.22 -7.031,7.03 -1.309,6.29 -1.45,15.28 -1.45,32.9 0,10.09 0.18,29.05 0.27,38.16 0.031,3.06 0.051,5.09 0.051,5.45 v 10.82 c 0,3.63 -0.758,4.11 -1.508,4.11 -0.961,0 -2.442,-1.19 -3,-1.64 -10.442,-9.09 -18.973,-14.46 -27.652,-17.39 -0.899,-0.3 -1.219,-0.49 -1.219,-1.4 0,-0.7 1.168,-0.87 3.609,-1.18 0.469,-0.06 0.969,-0.11 1.5,-0.2 2.719,-0.31 5.192,-1.48 6.289,-2.96 2.192,-2.9 2.192,-11.48 2.192,-25.69 0,-21.36 -0.2,-33.56 -1.301,-40.96 -0.828,-5.26 -3.559,-6.22 -8.719,-7.56 -0.723,-0.18 -1.422,-0.34 -2.09,-0.5 -2.609,-0.58 -4.679,-1.06 -4.679,-2.18 0,-0.81 0.148,-1.06 3.277,-1.06 0.601,0 3.59,0.13 7.043,0.27 5.726,0.24 12.867,0.54 15.316,0.54 m 22.742,-1.94 h -1.011 c -0.969,0 -4.34,0.15 -8.239,0.32 -5.261,0.23 -11.218,0.49 -13.492,0.49 -2.429,0 -9.547,-0.3 -15.269,-0.54 -3.61,-0.15 -6.457,-0.27 -7.09,-0.27 -2.457,0 -4.399,0 -4.399,2.19 0,2.03 2.45,2.58 5.551,3.29 0.66,0.14 1.348,0.3 2.059,0.48 4.941,1.29 7.16,2.05 7.89,6.64 1.079,7.33 1.282,19.48 1.282,40.79 0,13.49 0,22.41 -1.973,25.01 -0.91,1.24 -3.129,2.24 -5.527,2.53 -0.532,0.07 -1.032,0.13 -1.492,0.19 -2.77,0.34 -4.598,0.58 -4.598,2.3 0,1.67 0.937,2.12 1.976,2.48 8.543,2.88 16.961,8.17 27.301,17.17 1.172,0.95 2.52,1.91 3.723,1.91 2.637,0 2.637,-3.54 2.637,-5.24 v -10.82 c 0,-0.36 -0.02,-2.4 -0.047,-5.46 -0.09,-9.11 -0.274,-28.07 -0.274,-38.15 0,-17.54 0.141,-26.47 1.434,-32.68 0.629,-3.31 3.43,-4.94 6.367,-6.22 0.781,-0.34 1.84,-0.64 2.859,-0.92 2.571,-0.72 5,-1.39 5,-3.14 0,-2.35 -3.039,-2.35 -4.668,-2.35"
           style="fill:#7c51a1;fill-opacity:1;fill-rule:nonzero;stroke:none"
           id="path111" />
        <path
           d="m 1185.5,7371.39 c 0,-18.09 0.17,-26.64 1.46,-32.79 0.62,-3.39 3.33,-5.16 6.69,-6.6 2.54,-1.15 7.5,-1.62 7.5,-3.56 0,-1.96 -2.87,-1.78 -5.09,-1.78 -2.25,0 -17.74,0.8 -21.74,0.8 -3.99,0 -20.76,-0.8 -22.37,-0.8 -2.87,0 -3.82,0.16 -3.82,1.62 0,1.93 3.34,2.25 7.18,3.23 4.95,1.29 7.5,2.09 8.31,7.09 1.11,7.6 1.28,20.68 1.28,40.86 0,13.9 0,22.63 -2.09,25.37 -0.95,1.29 -3.19,2.42 -5.89,2.75 -3.53,0.47 -5.61,0.47 -5.61,1.95 0,1.27 0.64,1.59 1.6,1.92 9.57,3.23 18.38,9.35 27.48,17.28 0.8,0.66 2.24,1.78 3.36,1.78 1.75,0 2.07,-2.1 2.07,-4.68 v -10.82 c 0,-1.46 -0.32,-30.21 -0.32,-43.62"
           style="fill:#7c51a1;fill-opacity:1;fill-rule:nonzero;stroke:none"
           id="path113" />
        <path
           d="m 1174.32,7328.03 c 2.3,0 8.27,-0.25 13.53,-0.49 3.9,-0.16 7.26,-0.32 8.21,-0.32 h 0.99 c 2.58,0 3.55,0.33 3.55,1.22 0,0.89 -2.32,1.54 -4.17,2.05 -1.06,0.3 -2.16,0.6 -3.01,0.98 -3.22,1.4 -6.31,3.22 -7.03,7.03 -1.31,6.27 -1.45,15.26 -1.45,32.9 0,10.09 0.18,29.05 0.27,38.16 0.03,3.06 0.05,5.09 0.05,5.45 v 10.82 c 0,3.63 -0.76,4.11 -1.51,4.11 -0.95,0 -2.46,-1.19 -3,-1.64 -10.43,-9.09 -18.97,-14.45 -27.66,-17.39 -0.9,-0.3 -1.21,-0.49 -1.21,-1.4 0,-0.7 1.17,-0.87 3.61,-1.18 0.47,-0.06 0.96,-0.11 1.51,-0.2 2.71,-0.31 5.18,-1.48 6.26,-2.96 2.21,-2.9 2.21,-11.48 2.21,-25.69 0,-21.36 -0.2,-33.55 -1.29,-40.96 -0.86,-5.26 -3.57,-6.22 -8.73,-7.56 -0.72,-0.18 -1.42,-0.34 -2.09,-0.5 -2.61,-0.58 -4.69,-1.06 -4.69,-2.18 0,-0.81 0.16,-1.06 3.29,-1.06 0.6,0 3.59,0.13 7.04,0.27 5.73,0.24 12.87,0.54 15.32,0.54 m 22.73,-1.94 h -0.99 c -0.98,0 -4.36,0.15 -8.24,0.32 -5.28,0.23 -11.23,0.49 -13.5,0.49 -2.43,0 -9.55,-0.3 -15.27,-0.54 -3.62,-0.15 -6.46,-0.27 -7.09,-0.27 -2.46,0 -4.4,0 -4.4,2.19 0,2.03 2.44,2.58 5.55,3.29 0.66,0.14 1.35,0.3 2.06,0.48 4.94,1.29 7.16,2.05 7.89,6.64 1.08,7.33 1.28,19.49 1.28,40.79 0,13.49 0,22.41 -1.97,25.01 -0.91,1.24 -3.13,2.24 -5.53,2.53 -0.53,0.07 -1.04,0.13 -1.49,0.19 -2.77,0.34 -4.6,0.58 -4.6,2.3 0,1.67 0.93,2.11 1.98,2.48 8.54,2.89 16.96,8.17 27.29,17.17 1.17,0.95 2.52,1.91 3.73,1.91 2.64,0 2.64,-3.54 2.64,-5.24 v -10.82 c 0,-0.36 -0.02,-2.4 -0.05,-5.46 -0.09,-9.11 -0.28,-28.07 -0.28,-38.15 0,-17.56 0.15,-26.5 1.44,-32.68 0.62,-3.3 3.43,-4.94 6.37,-6.22 0.78,-0.34 1.84,-0.64 2.85,-0.92 2.58,-0.72 5,-1.39 5,-3.14 0,-2.35 -3.03,-2.35 -4.67,-2.35"
           style="fill:#7c51a1;fill-opacity:1;fill-rule:nonzero;stroke:none"
           id="path115" />
      </g>
    </g>
  </g>
</svg>
