<svg height="32" viewBox="0 0 276 32" width="276" xmlns="http://www.w3.org/2000/svg"><g fill="#1a1919" fill-rule="evenodd"><path d="m5.664 7.392.064.032v3.743h.096c.768-2.111 2.655-3.839 5.407-3.839 3.584 0 4.672 1.791 4.672 5.184v6.751c0 2.048.128 4.16.64 5.759h-5.791c.479-1.503.543-3.359.543-5.567v-6.432c0-1.568-.64-2.303-2.336-2.303-1.312 0-2.303.351-3.04 1.023v7.712c0 2.208.064 4.064.544 5.567h-5.791c.512-1.599.64-3.711.64-5.759v-6.24c0-1.696-.608-3.2-1.312-4z"/><path d="m26.143 21.694v-6.271c-.352.513-.8.832-2.08 1.44-1.632.8-2.208 1.664-2.208 3.52 0 1.504.832 2.464 2.176 2.464 1.312 0 1.76-.481 2.112-1.153zm-1.504-14.366c4.48 0 6.144 1.76 6.144 5.407v7.648c0 1.376.544 1.792 1.632 1.792.191 0 .735-.096.927-.256-.095.512-.159.8-.287 1.12-.512 1.44-1.44 2.367-3.328 2.367-2.208 0-3.328-1.536-3.392-3.168h-.064c-.736 2.208-2.176 3.168-4.448 3.168-2.783 0-4.575-1.664-4.575-4.287 0-2.752 2.496-3.936 5.087-4.96 2.464-.992 3.808-1.696 3.808-3.456v-.351c0-1.953-.608-2.945-2.432-2.945-1.152 0-1.568.513-1.824 1.632-.352 1.664-1.024 2.273-2.143 2.273-.993 0-1.889-.672-1.889-1.888 0-2.433 3.329-4.096 6.784-4.096z"/><path d="m43.327 23.135c-.608 1.376-2.08 2.271-4.16 2.271-3.552 0-4.928-1.792-4.928-5.055v-10.207h-1.695v-.128l6.207-6.368.096.032v4.032h4.416l-.448 2.432h-3.968v9.471c0 1.823.768 2.528 2.4 2.528 1.248 0 1.92-.193 2.464-.48-.096.608-.16.96-.384 1.472"/><path d="m49.311 7.584v11.967c0 1.792.704 2.784 2.432 2.784 1.471 0 2.56-.481 3.199-1.313v-8.094c0-1.761-.191-3.265-.735-4.8l5.343-.544v12.255c0 2.687.288 3.903.704 5.183h-5.184v-3.456h-.064c-.735 2.208-2.175 3.808-5.151 3.808-3.776 0-5.152-2.271-5.152-5.663v-6.783c0-1.761-.16-3.265-.736-4.8z"/><path d="m66.911 11.775c.768-3.2 2.239-4.447 4.191-4.447 1.793 0 2.688.928 2.688 2.4 0 1.343-.736 2.399-2.143 2.399-.8 0-1.28-.352-1.632-.703-.416-.353-.672-.736-1.056-.736-.928 0-1.952 1.536-1.952 4.191v4.288c0 2.144.16 4.256.576 5.855h-5.792c.512-1.599.64-3.711.64-5.759v-6.24c0-1.696-.608-3.2-1.312-4l5.664-1.631.064.032v4.351z"/><path d="m77.919 14.304 5.791-.513c-.064-2.752-.48-4.384-2.4-4.384-1.952 0-3.104 1.569-3.391 4.897zm3.455 11.102c-4.415 0-8.095-2.943-8.095-8.575 0-5.727 3.488-9.535 8.191-9.535 4.48 0 6.56 2.848 6.56 8.191h-10.175v.512c0 4.319 2.239 6.016 5.279 6.016 2.752 0 4-1.12 4.8-1.92l.096.288c-.736 2.592-2.816 5.023-6.656 5.023z"/><path d="m98.846 7.392.064.032v3.743h.096c.768-2.111 2.464-3.839 5.216-3.839 3.135 0 4.192 1.376 4.416 3.839h.031c.769-2.111 2.433-3.839 5.184-3.839 3.584 0 4.512 1.791 4.512 5.184v6.751c0 2.048.128 4.16.64 5.759h-5.792c.48-1.503.544-3.359.544-5.567v-6.432c0-1.568-.48-2.303-2.175-2.303-1.312 0-2.112.256-2.849 1.023v7.52c0 2.048.128 4.16.641 5.759h-5.792c.48-1.503.544-3.359.544-5.567v-6.432c0-1.568-.48-2.303-2.176-2.303-1.312 0-2.016.223-2.848 1.023v7.712c0 2.208.064 4.064.544 5.567h-5.791c.512-1.599.64-3.711.64-5.759v-6.24c0-1.696-.608-3.2-1.312-4z"/><path d="m120.318 3.584c0-1.536 1.152-2.752 2.785-2.752 1.663 0 2.815 1.216 2.815 2.752 0 1.504-1.152 2.752-2.815 2.752-1.633 0-2.785-1.248-2.785-2.752zm5.28 15.679c0 2.048.128 4.16.64 5.759h-5.92c.513-1.599.64-3.711.64-5.759v-6.24c0-1.696-.607-3.2-1.312-4l6.016-1.631.064.032-.128 4.319z"/><path d="m135.357 25.406c-4.639 0-7.775-3.263-7.775-8.671 0-6.047 4.096-9.407 8.352-9.407 3.967 0 5.631 1.76 5.631 3.583 0 1.313-.768 2.145-2.112 2.145-1.184 0-1.76-.769-1.984-2.273-.159-1.183-.575-1.407-1.696-1.407-2.239 0-3.615 2.367-3.615 6.239 0 4.48 1.92 6.335 4.927 6.335 1.888 0 3.616-.575 4.608-1.567l.064.256c-.512 2.08-2.432 4.767-6.4 4.767"/><path d="m147.997 11.775c.768-3.2 2.24-4.447 4.192-4.447 1.792 0 2.688.928 2.688 2.4 0 1.343-.736 2.399-2.144 2.399-.8 0-1.28-.352-1.632-.703-.416-.353-.672-.736-1.056-.736-.928 0-1.952 1.536-1.952 4.191v4.288c0 2.144.16 4.256.576 5.855h-5.792c.513-1.599.641-3.711.641-5.759v-6.24c0-1.696-.608-3.2-1.312-4l5.663-1.631.064.032v4.351z"/><path d="m166.3 16.447c0-5.664-1.343-7.008-3.583-7.008-2.112 0-3.328 1.537-3.328 6.848 0 5.663 1.344 7.008 3.584 7.008 2.111 0 3.327-1.536 3.327-6.848zm5.024-.095c0 5.567-4.032 9.054-8.351 9.054-4.384 0-8.608-3.296-8.608-9.023 0-5.568 4.032-9.055 8.352-9.055 4.383 0 8.607 3.295 8.607 9.024z"/><path d="m180.38 23.263c2.912 0 3.936-2.624 3.936-6.911 0-4.161-.96-5.888-3.52-5.888-1.215 0-2.559.64-3.071 1.344v10.558c.735.576 1.695.897 2.655.897zm-2.687-12.287h.064c.544-1.664 2.815-3.68 5.439-3.68 3.584 0 6.144 2.559 6.144 8.415 0 5.151-2.624 9.695-8.96 9.695-3.039 0-5.407-.704-7.295-1.632v-17.886c0-2.208-.544-3.456-1.216-4.287l5.888-1.569.064.032-.128 4.576z"/><path d="m190.749 3.584c0-1.536 1.151-2.752 2.783-2.752 1.664 0 2.816 1.216 2.816 2.752 0 1.504-1.152 2.752-2.816 2.752-1.632 0-2.783-1.248-2.783-2.752zm5.279 15.679c0 2.048.128 4.16.64 5.759h-5.919c.512-1.599.64-3.711.64-5.759v-6.24c0-1.696-.608-3.2-1.312-4l6.015-1.631.064.032-.128 4.319z"/><path d="m209.947 16.447c0-5.664-1.343-7.008-3.583-7.008-2.112 0-3.328 1.537-3.328 6.848 0 5.663 1.344 7.008 3.584 7.008 2.111 0 3.327-1.536 3.327-6.848zm5.024-.095c0 5.567-4.032 9.054-8.351 9.054-4.384 0-8.608-3.296-8.608-9.023 0-5.568 4.032-9.055 8.352-9.055 4.383 0 8.607 3.295 8.607 9.024z"/><path d="m221.596 19.263c0 2.048.128 4.16.64 5.759h-5.92c.512-1.599.64-3.711.64-5.759v-13.631c0-1.696-.608-3.2-1.312-4l6.016-1.632.064.032c-.097 1.504-.128 4.128-.128 4.96z"/><path d="m235.515 16.447c0-5.664-1.344-7.008-3.584-7.008-2.112 0-3.328 1.537-3.328 6.848 0 5.663 1.344 7.008 3.584 7.008 2.112 0 3.328-1.536 3.328-6.848zm5.024-.095c0 5.567-4.032 9.054-8.352 9.054-4.384 0-8.607-3.296-8.607-9.023 0-5.568 4.031-9.055 8.351-9.055 4.383 0 8.608 3.295 8.608 9.024z"/><path d="m251.195 13.184c0-2.561-1.152-3.872-2.784-3.872-1.76 0-2.72 1.183-2.72 4.127 0 2.56 1.152 3.872 2.816 3.872 1.728 0 2.688-1.184 2.688-4.127zm-2.752 16.638c4.384 0 6.207-1.343 6.207-2.816 0-1.056-.671-1.407-2.047-1.407-1.856 0-6.08.191-6.912.288-.768.095-1.312.863-1.312 1.632 0 1.376 1.216 2.303 4.064 2.303zm4.8-21.054h.095c.832-1.504 2.4-2.241 3.392-2.241 1.536 0 2.496.801 2.496 2.017 0 1.151-.576 2.079-1.728 2.079-.895 0-1.248-.479-1.536-.863-.288-.353-.544-.737-1.184-.737-.287 0-.575.096-.831.256.959 1.153 1.568 2.464 1.568 3.84 0 4.064-3.36 6.208-7.072 6.208-.992 0-2.016-.16-2.944-.448-.512.32-.704.767-.704 1.376 0 .672.48 1.183 1.568 1.183 2.048 0 5.184-.191 7.232-.191 2.847 0 4.543 1.216 4.543 3.968 0 4.191-3.743 6.495-9.695 6.495-5.536 0-7.839-1.536-7.839-3.328 0-1.568 2.015-2.367 4.415-2.751v-.097c-1.696-.319-3.167-1.664-3.167-3.519 0-1.825 1.279-2.976 3.007-3.456v-.128c-2.016-.864-3.487-2.56-3.487-4.928 0-4.064 3.359-6.207 7.071-6.207 1.76 0 3.584.479 4.8 1.472z"/><path d="m261.243 12.64c-.864-2.241-1.536-3.617-2.304-4.96h6.208c-.16 1.343.16 2.464.8 4.416l2.303 6.943h.064l2.369-7.103c.511-1.569.703-2.945.287-4.256h4.352c-.768 1.343-1.6 2.847-2.432 5.151l-3.616 9.856c-2.367 6.431-4.575 9.055-7.679 9.055-1.6 0-2.528-.832-2.528-2.08 0-1.088.736-1.76 1.76-1.76 1.088 0 1.44.865 2.112.865.928 0 2.176-1.953 2.912-4.193z"/></g></svg>