<?xml version="1.0" encoding="UTF-8" standalone="no"?>
<!-- Created with Inkscape (http://www.inkscape.org/) -->

<svg
   width="1000mm"
   height="1000mm"
   viewBox="0 0 1000 1000"
   version="1.1"
   id="svg1808"
   inkscape:version="1.2 (dc2aedaf03, 2022-05-15)"
   sodipodi:docname="neuroscience.svg"
   xml:space="preserve"
   xmlns:inkscape="http://www.inkscape.org/namespaces/inkscape"
   xmlns:sodipodi="http://sodipodi.sourceforge.net/DTD/sodipodi-0.dtd"
   xmlns="http://www.w3.org/2000/svg"
   xmlns:svg="http://www.w3.org/2000/svg"><sodipodi:namedview
     id="namedview1810"
     pagecolor="#ffffff"
     bordercolor="#000000"
     borderopacity="0.25"
     inkscape:showpageshadow="2"
     inkscape:pageopacity="0.0"
     inkscape:pagecheckerboard="0"
     inkscape:deskcolor="#d1d1d1"
     inkscape:document-units="mm"
     showgrid="false"
     inkscape:zoom="0.2973261"
     inkscape:cx="1631.2056"
     inkscape:cy="1975.9449"
     inkscape:window-width="3000"
     inkscape:window-height="1890"
     inkscape:window-x="-12"
     inkscape:window-y="-12"
     inkscape:window-maximized="1"
     inkscape:current-layer="layer1" /><defs
     id="defs1805"><clipPath
       clipPathUnits="userSpaceOnUse"
       id="clipPath43"><path
         d="m 538.52,7276.56 h 1126.77 v 306.223 H 538.52 Z"
         id="path41" /></clipPath><clipPath
       clipPathUnits="userSpaceOnUse"
       id="clipPath3367"><path
         d="m 52.441,738.595 h 277.625 v -72 H 52.441"
         id="path3365" /></clipPath><clipPath
       clipPathUnits="userSpaceOnUse"
       id="clipPath3627"><path
         d="m 473.442,735.931 h 76.479 v -22.337 h -76.479 z"
         id="path3625" /></clipPath><clipPath
       clipPathUnits="userSpaceOnUse"
       id="clipPath4680"><path
         d="M 0.029999,782.986 H 584.957 V 0.03 H 0.029999 Z"
         id="path4678" /></clipPath><clipPath
       clipPathUnits="userSpaceOnUse"
       id="clipPath5252"><path
         d="M 0.029999,782.986 H 584.957 V 0.03 H 0.029999 Z"
         id="path5250" /></clipPath><clipPath
       clipPathUnits="userSpaceOnUse"
       id="clipPath5557"><path
         d="M 46.35,612.564 H 176.551 V 578.199 H 46.35 Z"
         id="path5555" /></clipPath><clipPath
       clipPathUnits="userSpaceOnUse"
       id="clipPath5585"><path
         d="M 46.35,612.564 H 176.551 V 578.199 H 46.35 Z"
         id="path5583" /></clipPath><clipPath
       clipPathUnits="userSpaceOnUse"
       id="clipPath5643"><path
         d="M 46.35,612.564 H 176.551 V 578.199 H 46.35 Z"
         id="path5641" /></clipPath></defs><g
     inkscape:label="Layer 1"
     inkscape:groupmode="layer"
     id="layer1"><path
       style="fill:#d2232a;fill-opacity:1;stroke-width:0.47137"
       d="m 240.88561,554.96895 c -5.46395,-0.60477 -10.7749,-1.99916 -14.38648,-3.77712 -3.70876,-1.82581 -7.81424,-5.98823 -9.46694,-9.59817 -2.26358,-4.94433 -2.36223,-8.42336 -0.93838,-33.0957 1.35241,-23.43499 1.31555,-25.00358 -0.62904,-26.76339 -0.50243,-0.4547 -1.723,-1.10353 -2.71237,-1.44185 -1.38481,-0.47354 -1.83317,-0.89719 -1.94799,-1.84065 l -0.14912,-1.22557 h 18.91746 18.91745 l -0.14911,1.22557 c -0.11509,0.94533 -0.56353,1.36726 -1.96148,1.84528 -3.29366,1.12632 -4.58528,2.99073 -5.22003,7.535 -0.64428,4.6126 -2.68417,41.27096 -2.42627,43.60182 0.67569,6.10651 3.33768,10.20914 8.15272,12.56492 2.17443,1.06385 3.46897,1.34001 7.00654,1.49474 6.00072,0.26244 9.72029,-0.96263 13.1842,-4.34234 2.92354,-2.85249 4.20598,-6.29829 4.69786,-12.62276 0.34557,-4.4431 -1.40736,-38.83702 -2.1753,-42.6816 -0.5653,-2.83006 -2.40024,-5.109 -4.48409,-5.56909 -2.39136,-0.52798 -2.54649,-0.6412 -2.54649,-1.85831 v -1.19323 h 11.81558 11.81559 l -0.14911,1.27951 c -0.11581,0.99324 -0.46554,1.34405 -1.56327,1.56795 -3.74315,0.76349 -4.94949,2.73701 -4.94924,8.09678 9e-5,1.88792 0.4392,11.59908 0.97581,21.58036 0.53662,9.98129 0.84181,19.73072 0.67817,21.66538 -0.87562,10.35345 -6.22302,17.14165 -16.57175,21.03691 -6.49311,2.44399 -15.63124,3.41252 -23.73481,2.51556 z m 371.20465,-0.28131 c -0.79987,-0.61341 -1.83572,-0.66217 -6.83489,-0.32178 -3.24067,0.22064 -10.24053,0.38168 -15.55524,0.35784 -8.79205,-0.0394 -10.06989,-0.15197 -14.17581,-1.24804 -14.51654,-3.87526 -23.61046,-10.46094 -29.17132,-21.12543 -3.214,-6.16375 -4.01739,-9.87773 -4.02183,-18.59248 -0.005,-8.60196 0.52798,-11.28276 3.46335,-17.44072 5.04306,-10.57959 15.58466,-17.8932 29.23702,-20.28414 5.15143,-0.90218 15.15018,-0.8774 20.79641,0.0515 2.46292,0.40521 6.28946,0.85176 8.50344,0.99232 3.87393,0.24597 4.08315,0.20702 5.55855,-1.0344 0.8432,-0.70951 1.59663,-1.21059 1.67431,-1.11352 0.24548,0.30688 6.49143,32.07879 6.33334,32.21668 -0.083,0.0723 -0.57696,0.26208 -1.09773,0.42152 -0.80717,0.24715 -1.10809,-0.12596 -2.04033,-2.53021 -2.76934,-7.14197 -9.37806,-14.7629 -15.31564,-17.66146 -13.59914,-6.63869 -27.58652,0.55432 -31.22894,16.05959 -0.58832,2.50432 -0.70796,4.71566 -0.52025,9.61575 0.28466,7.43253 0.97503,10.31947 3.93557,16.45849 6.84237,14.18831 23.79216,20.17317 37.10241,13.1006 3.57869,-1.90157 7.70403,-6.04854 9.65113,-9.70163 1.5263,-2.86361 2.0566,-3.25742 3.31397,-2.46106 0.52549,0.33281 -0.18756,2.72432 -3.68706,12.36627 -2.38617,6.57452 -4.48232,12.09848 -4.65814,12.27546 -0.17584,0.17691 -0.74382,-0.004 -1.26232,-0.40119 z m 277.16614,0 c -0.7999,-0.61341 -1.8357,-0.66217 -6.8349,-0.32178 -3.2407,0.22064 -10.2405,0.38168 -15.5552,0.35784 -8.7921,-0.0394 -10.0699,-0.15197 -14.1759,-1.24804 -14.5165,-3.87526 -23.6104,-10.46094 -29.1713,-21.12543 -3.214,-6.16375 -4.0174,-9.87773 -4.0218,-18.59248 -0.01,-8.60196 0.528,-11.28276 3.4633,-17.44072 5.0431,-10.57959 15.5847,-17.8932 29.2371,-20.28414 5.1514,-0.90218 15.1502,-0.8774 20.7964,0.0515 2.4629,0.40521 6.2894,0.85176 8.5034,0.99232 3.8739,0.24597 4.0832,0.20702 5.5586,-1.0344 0.8432,-0.70951 1.5966,-1.21059 1.6743,-1.11352 0.2455,0.30688 6.4914,32.07879 6.3333,32.21668 -0.083,0.0723 -0.5769,0.26208 -1.0977,0.42152 -0.8072,0.24715 -1.1081,-0.12596 -2.0403,-2.53021 -2.7694,-7.14197 -9.3781,-14.7629 -15.3157,-17.66146 -13.5991,-6.63869 -27.5865,0.55432 -31.2289,16.05959 -0.5883,2.50432 -0.708,4.71566 -0.5203,9.61575 0.2847,7.43253 0.975,10.31947 3.9356,16.45849 6.8424,14.18831 23.7922,20.17317 37.1024,13.1006 3.5787,-1.90157 7.704,-6.04854 9.6511,-9.70163 1.5263,-2.86361 2.0566,-3.25742 3.314,-2.46106 0.5255,0.33281 -0.1875,2.72432 -3.687,12.36627 -2.3862,6.57452 -4.4824,12.09848 -4.6582,12.27546 -0.1758,0.17691 -0.7438,-0.004 -1.2623,-0.40119 z m -691.94485,-0.42371 c -0.77255,-0.57018 -5.78066,-0.67531 -32.17106,-0.67531 H 133.8844 v -1.41412 c 0,-1.20864 0.17815,-1.41411 1.22557,-1.41411 0.7558,0 1.81655,-0.591 2.76743,-1.54187 2.53445,-2.53446 2.66869,-4.45602 2.51038,-35.93213 l -0.13985,-27.8109 -1.17843,-2.35684 c -0.98039,-1.9608 -1.51507,-2.47323 -3.18176,-3.04939 -1.55886,-0.53887 -2.00333,-0.92805 -2.00333,-1.75414 v -1.06163 l 29.81423,-0.1313 c 26.78642,-0.11794 29.96978,-0.21144 31.34616,-0.92011 0.84257,-0.43382 1.53197,-0.69815 1.53197,-0.58739 0,0.11081 1.27269,5.92689 2.82822,12.92475 1.55552,6.99787 2.82823,12.83711 2.82823,12.97609 0,0.13897 -0.47587,0.42872 -1.0575,0.64388 -0.96869,0.35834 -1.20487,0.0777 -2.81266,-3.34287 -3.01983,-6.42459 -9.14987,-11.47374 -16.2015,-13.34477 -3.27962,-0.8702 -10.46068,-1.02775 -13.1907,-0.28938 -2.26907,0.61368 -3.82421,2.12713 -4.45859,4.33904 -0.25305,0.88239 -0.4601,4.12529 -0.4601,7.20648 v 5.60213 l 6.51853,-0.20803 c 9.08827,-0.29004 11.27617,-1.51865 12.49735,-7.01788 0.38324,-1.72571 0.8238,-2.59862 1.36409,-2.70266 0.98823,-0.19033 0.80568,-0.96611 3.63714,15.4564 2.30536,13.37117 2.34634,14.16388 0.72986,14.12239 -0.25926,-0.007 -0.98738,-1.11704 -1.61807,-2.4675 -0.63067,-1.35046 -2.43366,-3.74475 -4.00664,-5.32065 -3.80776,-3.81483 -5.68492,-4.44098 -13.31409,-4.44098 h -5.80817 l 0.004,14.25898 c 0.001,8.35384 0.20426,14.98497 0.4895,16.01198 1.27063,4.57515 5.10506,6.34868 12.69581,5.87218 5.25674,-0.32998 8.4864,-1.20351 12.81762,-3.46684 5.45544,-2.8508 11.19712,-8.90393 14.7531,-15.55337 1.1328,-2.11826 1.43651,-2.38861 2.30943,-2.0559 0.5528,0.21068 0.98155,0.68942 0.95278,1.06385 -0.0711,0.92415 -9.18107,28.33054 -9.55183,28.73549 -0.16212,0.17691 -0.70639,0.018 -1.20963,-0.35353 z m 209.33415,-0.0142 c -15.63094,-2.82407 -25.79447,-11.41447 -30.18892,-25.51621 -4.80857,-15.43062 -1.01328,-32.36657 9.43432,-42.09945 7.5017,-6.98852 17.06481,-10.6766 28.93041,-11.15723 13.03378,-0.52794 23.28008,2.29809 31.2063,8.60704 9.4271,7.50359 14.91557,23.00209 13.10196,36.99779 -2.37213,18.30584 -13.35015,29.63786 -32.17064,33.20806 -4.70323,0.89218 -15.26912,0.87139 -20.31343,-0.0399 z m 18.23106,-10.25318 c 2.24307,-1.31452 4.83185,-4.17214 6.17465,-6.81585 4.49742,-8.85457 3.86768,-30.6649 -1.18362,-40.99257 -1.83775,-3.75736 -6.03009,-8.30248 -9.11811,-9.88534 -3.2287,-1.65498 -7.62527,-1.73989 -10.5435,-0.20365 -4.22543,2.22442 -7.65559,7.20996 -9.3001,13.51719 -0.40557,1.55552 -0.86354,5.37363 -1.01769,8.48468 -0.86116,17.37865 4.63633,32.0449 13.61956,36.33443 3.38863,1.61808 8.17409,1.43334 11.36881,-0.43889 z m 43.20966,9.99728 c 0,-0.5391 -0.53618,-7.6681 -1.19151,-15.8422 -0.65533,-8.17412 -1.13259,-14.91226 -1.06058,-14.97367 0.072,-0.0615 0.58533,-0.25109 1.14073,-0.42154 0.90302,-0.27712 1.0702,-0.0465 1.58064,2.18046 2.17012,9.46774 10.35164,17.89405 19.82102,20.41407 3.39081,0.90236 11.27582,0.88998 14.84565,-0.0233 5.04239,-1.29005 8.35603,-4.43288 8.96661,-8.50437 0.65666,-4.37907 -0.89604,-7.33213 -4.92234,-9.36157 -1.19766,-0.6037 -7.14896,-2.71565 -13.22507,-4.69322 -6.07612,-1.97757 -12.59244,-4.35896 -14.48073,-5.292 -8.63235,-4.26532 -12.51644,-11.92291 -10.87012,-21.43068 0.92305,-5.33075 2.73359,-8.96513 6.22397,-12.49367 3.08887,-3.12265 7.77678,-5.7306 12.73363,-7.08387 5.9273,-1.61823 17.44473,-1.37357 27.28521,0.57963 4.40091,0.87351 7.10129,0.58487 9.45194,-1.01031 1.46257,-0.99252 1.68043,-1.03505 1.68628,-0.3291 0.005,0.44588 0.63653,5.99332 1.40643,12.32768 0.76983,6.33433 1.35019,11.55788 1.28957,11.60787 -0.0606,0.0501 -0.5344,0.2207 -1.05291,0.37937 -0.77916,0.23842 -1.18714,-0.18074 -2.35151,-2.41615 -2.96544,-5.69308 -10.33355,-11.36441 -16.68711,-12.84435 -6.93609,-1.61561 -14.5096,1.10656 -16.32838,5.86895 -1.41798,3.71295 0.11259,7.22636 4.01556,9.21749 0.9689,0.49429 6.72242,2.4007 12.78556,4.23646 14.01664,4.24389 17.00396,5.66833 21.67595,10.33595 2.80013,2.79749 3.81486,4.19505 4.65135,6.40629 1.42764,3.77384 1.69763,8.10191 0.77639,12.44699 -2.2434,10.58138 -8.92526,16.8932 -21.32566,20.14454 -3.99932,1.04861 -5.94394,1.25224 -13.84461,1.44982 -8.33481,0.20844 -9.88525,0.11544 -16.63123,-0.99696 -9.62449,-1.58716 -12.38523,-1.59897 -14.64914,-0.0627 -1.67843,1.13902 -1.71559,1.14299 -1.71559,0.18403 z m 259.51749,0.26981 c -0.77259,-0.57018 -5.78066,-0.67531 -32.17108,-0.67531 h -31.25608 v -1.41412 c 0,-1.20864 0.17816,-1.41411 1.22556,-1.41411 0.7558,0 1.81656,-0.591 2.76742,-1.54187 2.53446,-2.53446 2.66872,-4.45602 2.51037,-35.93213 l -0.13985,-27.8109 -1.17843,-2.35684 c -0.98039,-1.9608 -1.51507,-2.47323 -3.18176,-3.04939 -1.55886,-0.53887 -2.00331,-0.92805 -2.00331,-1.75414 v -1.06163 l 29.81421,-0.1313 c 26.78641,-0.11794 29.96982,-0.21144 31.34616,-0.92011 0.84258,-0.43382 1.53197,-0.69815 1.53197,-0.58739 0,0.11081 1.27269,5.92689 2.82822,12.92475 1.55552,6.99788 2.82823,12.83712 2.82823,12.9761 0,0.13896 -0.47585,0.42871 -1.05748,0.64387 -0.96871,0.35834 -1.20487,0.0777 -2.81267,-3.34287 -3.01984,-6.42459 -9.14988,-11.47374 -16.20154,-13.34477 -3.2796,-0.8702 -10.46066,-1.02774 -13.19065,-0.28938 -2.26909,0.61368 -3.82424,2.12713 -4.4586,4.33904 -0.25304,0.88239 -0.46011,4.12529 -0.46011,7.20648 v 5.60214 l 6.51853,-0.20804 c 9.08827,-0.29003 11.27619,-1.51865 12.49737,-7.01788 0.38324,-1.72571 0.82378,-2.59862 1.36406,-2.70266 0.98828,-0.19033 0.80571,-0.96611 3.63714,15.4564 2.30539,13.37117 2.34635,14.16388 0.72987,14.12239 -0.25925,-0.007 -0.98738,-1.11704 -1.61807,-2.4675 -0.63065,-1.35046 -2.43364,-3.74475 -4.00665,-5.32064 -3.80773,-3.81484 -5.68493,-4.44099 -13.31406,-4.44099 h -5.80819 l 0.005,14.25898 c 0,8.35384 0.20426,14.98497 0.48949,16.01198 1.27062,4.57516 5.10508,6.34868 12.6958,5.87218 5.24664,-0.32933 8.48643,-1.20355 12.78567,-3.45006 5.47038,-2.85844 10.36878,-7.93578 14.33202,-14.85566 1.56514,-2.73277 1.92494,-3.09004 2.78255,-2.76296 0.54181,0.2066 0.96145,0.68199 0.9327,1.05643 -0.0711,0.92414 -9.18107,28.33053 -9.55182,28.73548 -0.16212,0.17691 -0.70638,0.018 -1.20962,-0.35353 z m 236.62819,0 c -0.7726,-0.57018 -5.7806,-0.67531 -32.171,-0.67531 H 900.805 v -1.41412 c 0,-1.20864 0.1781,-1.41411 1.2255,-1.41411 0.7558,0 1.8166,-0.591 2.7675,-1.54187 2.5344,-2.53446 2.6687,-4.45602 2.5103,-35.93213 l -0.1398,-27.8109 -1.1784,-2.35684 c -0.9805,-1.9608 -1.5151,-2.47323 -3.1818,-3.04939 -1.5589,-0.53887 -2.0033,-0.92805 -2.0033,-1.75414 v -1.06163 l 29.8142,-0.1313 c 26.7864,-0.11794 29.9698,-0.21144 31.3462,-0.92011 0.8425,-0.43382 1.5319,-0.69815 1.5319,-0.58739 0,0.11081 1.2727,5.92689 2.8282,12.92475 1.5556,6.99788 2.8283,12.83712 2.8283,12.9761 0,0.13896 -0.4759,0.42871 -1.0575,0.64387 -0.9687,0.35834 -1.2049,0.0777 -2.8127,-3.34287 -3.0198,-6.42459 -9.1499,-11.47374 -16.2015,-13.34477 -3.2796,-0.8702 -10.4607,-1.02774 -13.1907,-0.28938 -2.2691,0.61368 -3.8242,2.12713 -4.4586,4.33904 -0.253,0.88239 -0.4601,4.12529 -0.4601,7.20648 v 5.60214 l 6.5185,-0.20804 c 9.0883,-0.29003 11.2762,-1.51865 12.4974,-7.01788 0.3832,-1.72571 0.8238,-2.59862 1.3641,-2.70266 0.9883,-0.19033 0.8057,-0.96611 3.6371,15.4564 2.3054,13.37117 2.3464,14.16388 0.7299,14.12239 -0.2593,-0.007 -0.9874,-1.11704 -1.6181,-2.4675 -0.6306,-1.35046 -2.4336,-3.74475 -4.0066,-5.32064 -3.8078,-3.81484 -5.685,-4.44099 -13.3141,-4.44099 h -5.8082 l 0.01,14.25898 c 0,8.35384 0.2042,14.98497 0.4894,16.01198 1.2707,4.57516 5.1051,6.34868 12.6959,5.87218 5.2466,-0.32933 8.4864,-1.20355 12.7856,-3.45006 5.4704,-2.85844 10.3688,-7.93578 14.332,-14.85566 1.5652,-2.73277 1.925,-3.09004 2.7826,-2.76296 0.5418,0.2066 0.9614,0.68199 0.9327,1.05643 -0.071,0.92414 -9.1811,28.33053 -9.5518,28.73548 -0.1621,0.17691 -0.7064,0.018 -1.2097,-0.35353 z M 24.997721,551.46749 c 0,-2.10089 0.016,-2.12116 1.61363,-2.12116 3.22793,0 5.97096,-3.61185 6.84801,-9.01698 0.63637,-3.92181 0.66543,-78.28734 0.0321,-82.15473 -0.88426,-5.39976 -3.85122,-9.23033 -7.14935,-9.23033 -1.27912,0 -1.3444,-0.10298 -1.3444,-2.12116 v -2.12118 h 31.34617 31.34617 v 2.01398 c 0,1.81014 -0.16355,2.10206 -1.61577,2.88413 -2.16602,1.16648 -2.93457,3.05664 -2.21687,5.45215 0.65636,2.19073 1.76187,3.65356 14.43847,19.10541 l 9.898789,12.06589 0.1322,-12.62963 c 0.14947,-14.27867 -0.31639,-17.95055 -2.69367,-21.23227 -1.43649,-1.98302 -3.90299,-3.41732 -5.876619,-3.41732 -1.13763,0 -1.22501,-0.15126 -1.22501,-2.12116 v -2.12118 h 16.497969 16.49799 v 2.05911 c 0,2.04183 -0.016,2.06121 -1.86341,2.30904 -4.27729,0.5737 -6.3545,3.95289 -7.09233,11.53772 -0.58804,6.04492 -0.57954,71.11657 0.0107,77.18149 0.72527,7.46041 2.84506,10.86289 7.1254,11.43699 1.75699,0.23567 1.82025,0.30754 1.82025,2.06757 v 1.82341 H 115.03017 98.532181 v -1.83303 c 0,-1.7238 0.0989,-1.85157 1.659879,-2.14441 1.9174,-0.35971 4.641,-2.579 5.76194,-4.69505 1.09455,-2.06625 0.97606,-7.33393 -0.24156,-10.73799 -0.52663,-1.47226 -1.71189,-3.81339 -2.63393,-5.20251 -1.41663,-2.1342 -50.909009,-59.57281 -54.337839,-63.06201 l -1.15805,-1.17843 0.15696,38.18105 c 0.14537,35.37921 0.21975,38.37036 1.01289,40.7606 1.16332,3.50588 3.79037,6.14083 6.12245,6.14083 h 1.70526 v 2.12116 2.12118 h -15.79093 -15.79092 z m 264.439099,0.76598 c 0,-1.13168 0.23559,-1.40232 1.42833,-1.64085 2.02904,-0.40583 3.62321,-2.35421 4.23642,-5.17777 0.36777,-1.69337 0.4825,-11.30843 0.37778,-31.65705 -0.13415,-26.07287 -0.23416,-29.37763 -0.92703,-30.64022 -1.01022,-1.84083 -2.21302,-2.86254 -3.81922,-3.24415 -0.98992,-0.2352 -1.29628,-0.58884 -1.29628,-1.4964 v -1.18845 l 31.22834,0.14769 c 35.21439,0.16658 34.36322,0.0837 38.31887,3.72995 2.70914,2.49721 3.71635,5.16235 3.40705,9.0154 -0.52973,6.59933 -5.23306,12.16716 -15.26458,18.07027 -0.81891,0.48192 -0.68485,0.75326 1.74669,3.53529 7.67742,8.78406 12.06097,16.78424 17.62937,32.17437 1.03833,2.86977 4.25717,6.3119 6.28095,6.71665 1.26845,0.2537 1.50009,0.50928 1.50009,1.65522 v 1.35519 h -19.5619 -19.5619 v -1.41411 c 0,-1.17264 0.19038,-1.41411 1.11486,-1.41411 0.61318,0 1.69991,-0.46022 2.41498,-1.02269 1.23011,-0.96758 1.2873,-1.18235 1.06208,-3.98811 -0.38131,-4.75024 -5.43535,-14.22832 -12.96053,-24.3055 -3.3432,-4.47697 -3.25642,-4.43375 -6.45878,-3.21621 l -1.19922,0.45593 v 11.4038 c 0,13.75908 0.43748,16.96218 2.61394,19.13864 0.94453,0.94453 2.00515,1.53414 2.75969,1.53414 1.04749,0 1.22557,0.20546 1.22557,1.41411 v 1.41411 h -18.14778 -18.14779 z m 34.02847,-43.23927 c 4.52904,-1.61461 7.89268,-3.55181 10.39025,-5.98401 2.5697,-2.50245 3.78287,-5.02943 4.03792,-8.4108 0.48697,-6.45653 -3.04032,-9.93681 -10.0432,-9.90934 -4.44998,0.0178 -7.18883,1.1043 -8.06457,3.20022 -0.77243,1.84871 -0.96434,22.33226 -0.20921,22.33226 0.24379,0 1.99376,-0.55275 3.88881,-1.22833 z m 300.17355,43.18035 c 0,-1.20864 0.17816,-1.41411 1.22557,-1.41411 1.93385,0 4.20594,-2.61496 4.83966,-5.56992 0.71991,-3.35691 0.74448,-56.56584 0.0278,-59.90833 -0.64904,-3.02633 -1.90189,-4.59236 -4.23263,-5.29068 -1.47799,-0.44275 -1.86042,-0.78426 -1.86042,-1.66114 v -1.10382 h 18.38347 18.38347 v 1.07512 c 0,0.84198 -0.43447,1.2253 -2.00333,1.76764 -1.66666,0.57616 -2.20135,1.08859 -3.18176,3.04939 l -1.17843,2.35684 -0.13985,27.8109 c -0.15838,31.47611 -0.024,33.39767 2.51038,35.93213 0.95085,0.95087 2.01163,1.54187 2.76742,1.54187 1.04749,0 1.22557,0.20547 1.22557,1.41411 v 1.41412 h -18.38347 -18.38347 z m 116.89999,0.0524 c 0,-1.17971 0.21769,-1.4025 1.6294,-1.66733 1.9067,-0.3577 3.30695,-1.9435 4.1433,-4.69232 0.68524,-2.25214 0.86973,-56.40019 0.20543,-60.29386 -0.46293,-2.71328 -2.51825,-5.27454 -4.56047,-5.68298 -1.12682,-0.22536 -1.41766,-0.52773 -1.41766,-1.47374 v -1.19022 h 22.15445 22.15444 v 1.35915 c 0,0.9384 -0.27698,1.43155 -0.89477,1.5931 -0.49205,0.12863 -1.24903,0.77479 -1.68213,1.43576 -0.7393,1.12827 -0.735,1.31789 0.0698,3.09999 0.4715,1.04403 4.46327,6.29974 8.87058,11.67939 l 8.0133,9.78115 0.1289,-8.68988 c 0.186,-12.54383 -0.8135,-16.0312 -4.9746,-17.35732 -1.6109,-0.51339 -1.98924,-0.84954 -1.98924,-1.76763 v -1.13371 h 11.54864 11.5486 v 1.19022 c 0,0.9378 -0.2916,1.24852 -1.3749,1.46517 -1.6651,0.33305 -3.4644,2.18181 -4.2969,4.41517 -0.7942,2.13053 -1.2413,48.46004 -0.5469,56.66781 0.5606,6.62662 1.4374,8.51223 4.366,9.38966 1.5911,0.47671 1.8527,0.74418 1.8527,1.89458 v 1.3395 h -11.5486 -11.54864 v -1.30848 c 0,-1.07512 0.35324,-1.4744 1.98064,-2.23901 2.933,-1.37804 3.8338,-2.89377 3.8009,-6.3955 -0.048,-5.07785 -1.1879,-6.65979 -22.27953,-30.91652 l -19.09052,-21.95537 -0.12435,25.86883 c -0.13825,28.77466 -0.0415,30.0395 2.48855,32.56969 0.85148,0.85146 1.99357,1.54814 2.53801,1.54814 0.78563,0 0.98987,0.2918 0.98987,1.41411 v 1.41411 h -11.07722 -11.07722 z"
       id="path9481" /></g></svg>
