<?xml version="1.0" encoding="UTF-8" standalone="no"?>
<!-- Created with Inkscape (http://www.inkscape.org/) -->

<svg
   width="1000mm"
   height="1000mm"
   viewBox="0 0 1000 1000"
   version="1.1"
   id="svg1808"
   inkscape:version="1.2 (dc2aedaf03, 2022-05-15)"
   sodipodi:docname="neuropsycho.svg"
   xml:space="preserve"
   xmlns:inkscape="http://www.inkscape.org/namespaces/inkscape"
   xmlns:sodipodi="http://sodipodi.sourceforge.net/DTD/sodipodi-0.dtd"
   xmlns="http://www.w3.org/2000/svg"
   xmlns:svg="http://www.w3.org/2000/svg"><sodipodi:namedview
     id="namedview1810"
     pagecolor="#ffffff"
     bordercolor="#000000"
     borderopacity="0.25"
     inkscape:showpageshadow="2"
     inkscape:pageopacity="0.0"
     inkscape:pagecheckerboard="0"
     inkscape:deskcolor="#d1d1d1"
     inkscape:document-units="mm"
     showgrid="false"
     inkscape:zoom="0.2973261"
     inkscape:cx="1634.5689"
     inkscape:cy="1974.2633"
     inkscape:window-width="2400"
     inkscape:window-height="1494"
     inkscape:window-x="-11"
     inkscape:window-y="-11"
     inkscape:window-maximized="1"
     inkscape:current-layer="layer1" /><defs
     id="defs1805"><clipPath
       clipPathUnits="userSpaceOnUse"
       id="clipPath43"><path
         d="m 538.52,7276.56 h 1126.77 v 306.223 H 538.52 Z"
         id="path41" /></clipPath><clipPath
       clipPathUnits="userSpaceOnUse"
       id="clipPath3367"><path
         d="m 52.441,738.595 h 277.625 v -72 H 52.441"
         id="path3365" /></clipPath><clipPath
       clipPathUnits="userSpaceOnUse"
       id="clipPath3627"><path
         d="m 473.442,735.931 h 76.479 v -22.337 h -76.479 z"
         id="path3625" /></clipPath><clipPath
       clipPathUnits="userSpaceOnUse"
       id="clipPath4680"><path
         d="M 0.029999,782.986 H 584.957 V 0.03 H 0.029999 Z"
         id="path4678" /></clipPath><clipPath
       clipPathUnits="userSpaceOnUse"
       id="clipPath5252"><path
         d="M 0.029999,782.986 H 584.957 V 0.03 H 0.029999 Z"
         id="path5250" /></clipPath><clipPath
       clipPathUnits="userSpaceOnUse"
       id="clipPath5557"><path
         d="M 46.35,612.564 H 176.551 V 578.199 H 46.35 Z"
         id="path5555" /></clipPath><clipPath
       clipPathUnits="userSpaceOnUse"
       id="clipPath5585"><path
         d="M 46.35,612.564 H 176.551 V 578.199 H 46.35 Z"
         id="path5583" /></clipPath><clipPath
       clipPathUnits="userSpaceOnUse"
       id="clipPath5643"><path
         d="M 46.35,612.564 H 176.551 V 578.199 H 46.35 Z"
         id="path5641" /></clipPath><clipPath
       clipPathUnits="userSpaceOnUse"
       id="clipPath11192"><path
         d="m 400.082,761.95203 h 159.59 v -14.23 h -159.59 z"
         id="path11190" /></clipPath></defs><g
     inkscape:label="Layer 1"
     inkscape:groupmode="layer"
     id="layer1"><g
       id="g11186"
       transform="matrix(5.9527543,0,0,-5.9527543,-2356.5899,4993.3594)"><g
         id="g11188"
         clip-path="url(#clipPath11192)"><g
           id="g11194"
           transform="translate(401.29001,760.90698)"><path
             d="M 0,0 H 0.03 L 5.3049998,-10.418 H 6.513 V 1.046 H 5.3049998 v -9.0320001 h -0.03 L 0.70700001,1.046 H -1.2079999 V -10.418 H 0 Z m 13.85,-6.5430002 c 0.163,1.9900002 -0.516,4.4950001 -2.858,4.4950001 -1.8119997,0 -3.2569999,-1.253 -3.2569999,-4.3029997 C 7.7350001,-9.401 9.1800003,-10.654 10.992,-10.654 c 1.4,0 2.49,0.7809999 2.932,1.8279998 l -0.825,0.5450001 c -0.413,-0.7080002 -1.135,-1.3999997 -1.989,-1.3999997 -1.1790002,0 -2.1659998,0.8099995 -2.1659998,3.1379996 z m -4.8770004,0.973 C 8.9879999,-4.421 9.6059999,-3.02 10.903,-3.02 c 1.209,0 1.769,-1.5029998 1.739,-2.5500002 z M 19.434,-8.4729996 c -0.457001,-0.545 -1.385,-1.2380008 -2.092001,-1.2380008 -0.928999,0 -1.075998,1.2530002 -1.075998,2.1070003 v 5.3200002 H 15.117 V -7.8979998 C 15.117,-10.02 16.045,-10.654 17.195,-10.654 c 0.927999,0 1.562,0.531 2.239,1.0749995 V -10.418 h 1.15 v 8.1340001 h -1.15 z m 3.726999,6.1889997 H 22.013 V -10.418 h 1.147999 v 4.6119998 C 23.604,-4.6269998 24.385,-3.006 25.888,-3.2119999 v 1.046 h -0.442001 c -1.207998,0 -1.797998,-0.8990002 -2.254999,-1.8720002 h -0.03 z m 6.292,-8.3700001 c 1.813002,0 3.257,1.253 3.257,4.3030002 0,3.0499997 -1.443998,4.3029997 -3.257,4.3029997 -1.813,0 -3.255998,-1.253 -3.255998,-4.3029997 0,-3.0500002 1.442998,-4.3030002 3.255998,-4.3030002 m 0,0.9730002 c -1.768,0 -2.106998,1.9439998 -2.106998,3.33 0,1.3849997 0.338998,3.3309998 2.106998,3.3309998 1.769001,0 2.107,-1.9460001 2.107,-3.3309998 0,-1.3860002 -0.337999,-3.33 -2.107,-3.33 M 35.082001,-4.362 c 0.353,0.708 1.015999,1.3109999 1.901001,1.3109999 1.605999,0 1.943996,-2.21 1.943996,-3.4319997 0,-2.3880005 -1.133999,-3.1680002 -1.929996,-3.1680002 -0.810002,0 -1.591004,0.8249998 -1.915001,1.5170002 z m 0,-5.1279998 C 35.626999,-10.168 36.261002,-10.654 37.159,-10.654 c 1.105,0 2.977002,1.0169999 2.977002,4.141 0,3.198 -1.621003,4.4649999 -3.021,4.4649999 -0.781002,0 -1.503002,-0.5159998 -2.033001,-1.076 v 0.8400002 H 33.931999 V -12.938 h 1.150002 z m 11.596,6.0269997 c -0.633003,0.9430001 -1.576999,1.415 -2.711002,1.415 -1.341,0 -2.490997,-0.855 -2.490997,-2.2549999 0,-2.9180002 4.287998,-1.9450001 4.287998,-3.9939999 0,-0.9280005 -0.751999,-1.3839999 -1.591,-1.3839999 -0.972999,0 -1.680999,0.4709998 -2.122001,1.3109999 L 41.137001,-8.9449997 C 41.799999,-10.079 42.861,-10.654 44.173,-10.654 c 1.532002,0 2.667,0.9730002 2.667,2.5639998 0,2.7400003 -4.288002,1.8710003 -4.288002,3.8610001 0,0.8250001 0.707001,1.2090001 1.459004,1.2090001 0.854,0 1.398998,-0.3989999 1.855999,-1.0760002 z M 53.75,-2.2839999 H 52.659 L 50.640999,-8.6359997 48.431,-2.2839999 H 47.265999 L 50.066002,-10.271 c -0.294003,-0.973 -0.678002,-1.945 -1.842003,-1.945 -0.236,0 -0.457001,0.059 -0.662998,0.118 l -0.177002,-0.973 c 0.310001,-0.103 0.560001,-0.161 0.884003,-0.161 1.620998,0 2.342998,1.089 2.784999,2.489 z m 6.291,-1.8270002 c -0.442001,1.2230001 -1.265998,2.063 -2.608001,2.063 -1.812001,0 -3.257,-1.253 -3.257,-4.3029997 0,-3.0500002 1.444999,-4.3030002 3.257,-4.3030002 1.311,0 2.358001,0.9579999 2.830001,2.1959998 l -0.929,0.4120007 c -0.353001,-0.7950001 -0.914002,-1.5910006 -1.901001,-1.6350003 -1.767998,0 -2.106999,1.9439998 -2.106999,3.33 C 55.326,-4.9660001 55.665001,-3.02 57.432999,-3.02 58.347,-2.991 58.789001,-3.802 59.069,-4.553 Z M 62.605,1.046 H 61.456001 V -10.418 H 62.605 v 6.1889999 c 0.456001,0.5450001 1.385002,1.2380002 2.091999,1.2380002 1.222999,0 1.076004,-1.254 1.076004,-2.1080001 v -5.319 h 1.148994 v 5.6140001 c 0,2.1209998 -0.927994,2.7559998 -2.077995,2.7559998 -0.927002,0 -1.562001,-0.5309999 -2.239002,-1.076 z m 8.767002,-11.7 c 1.811996,0 3.254997,1.253 3.254997,4.3030002 0,3.0499997 -1.443001,4.3029997 -3.254997,4.3029997 -1.813004,0 -3.257004,-1.253 -3.257004,-4.3029997 0,-3.0500002 1.444,-4.3030002 3.257004,-4.3030002 m 0,0.9730002 c -1.769005,0 -2.107003,1.9439998 -2.107003,3.33 0,1.3849997 0.337998,3.3309998 2.107003,3.3309998 1.766998,0 2.105995,-1.9460001 2.105995,-3.3309998 0,-1.3860002 -0.338997,-3.33 -2.105995,-3.33 M 77,-4.362 c 0.353996,0.708 1.016998,1.3109999 1.901001,1.3109999 1.606003,0 1.944,-2.21 1.944,-3.4319997 0,-2.3880005 -1.134002,-3.1680002 -1.93,-3.1680002 -0.809998,0 -1.591004,0.8249998 -1.915001,1.5170002 z m 0,-5.1279998 C 77.544998,-10.168 78.178001,-10.654 79.078003,-10.654 c 1.103996,0 2.976997,1.0169999 2.976997,4.141 0,3.198 -1.622001,4.4649999 -3.021003,4.4649999 -0.781998,0 -1.503998,-0.5159998 -2.033997,-1.076 v 0.8400002 H 75.849998 V -12.938 H 77 Z M 84.396004,1.046 h -1.148003 v -11.464 h 1.148003 v 6.1889999 c 0.456993,0.5450001 1.385994,1.2380002 2.092994,1.2380002 1.223,0 1.075005,-1.254 1.075005,-2.1080001 v -5.319 h 1.148994 v 5.6140001 c 0,2.1209998 -0.927993,2.7559998 -2.076995,2.7559998 -0.928002,0 -1.561005,-0.5309999 -2.239998,-1.076 z m 11.508995,-11.464 c -0.237,0.5740001 -0.206002,1.1929996 -0.222,1.7969997 v 4.0380001 c 0,1.8560002 -1.590996,2.5350001 -2.695999,2.5350001 -1.237999,0 -2.123002,-0.6789999 -2.800004,-1.6509998 L 90.998001,-4.303 c 0.470001,0.6930001 1.089996,1.283 1.988999,1.283 0.914001,0 1.546997,-0.5020001 1.546997,-1.4299998 v -0.4570003 l -0.368996,-0.104 c -1.797005,-0.4849997 -4.244003,-0.987 -4.244003,-3.3150001 0,-1.2810002 1.001999,-2.3279998 2.255004,-2.3279998 0.958001,0 1.695,0.619 2.357995,1.2669999 L 94.652,-10.418 Z m -1.371002,4.5680001 V -8.2370005 C 93.973,-8.9300003 93.134003,-9.5629997 92.219002,-9.5629997 c -0.691002,0 -1.221001,0.677 -1.221001,1.3549995 0,1.4600001 1.988999,1.901 3.080002,2.2260003 z m 3.757003,3.566 H 97.140999 V -10.418 H 98.291 v 4.6119998 c 0.442002,1.1790004 1.222,2.8000002 2.726,2.5940003 v 1.046 h -0.443 c -1.208003,0 -1.797,-0.8990002 -2.254,-1.8720002 H 98.291 Z M 103.035,-4.066 c 0.588,0.5290001 1.179,1.046 2.166,1.0750001 1.223,0 1.076,-1.254 1.076,-2.1080001 v -5.319 h 1.149 v 6.352 c 0.486,0.5149999 1.326,1.089 2.166,1.0750001 1.223,0 1.076,-1.254 1.076,-2.1080001 v -5.319 h 1.148 v 5.6140001 c 0,2.1209998 -0.926,2.7559998 -2.076,2.7559998 -1.017,-0.015 -1.74,-0.5009999 -2.491,-1.105 -0.428,0.736 -1.091,1.105 -1.96,1.105 -0.943,0 -1.547,-0.3839998 -2.254,-0.9579999 v 0.7220001 h -1.149 V -10.418 h 1.149 z m 15.973,-6.352 c -0.237,0.5740001 -0.207,1.1929996 -0.222,1.7969997 v 4.0380001 c 0,1.8560002 -1.591,2.5350001 -2.696,2.5350001 -1.238,0 -2.122,-0.6789999 -2.801,-1.6509998 L 114.1,-4.303 c 0.471,0.6930001 1.09,1.283 1.99,1.283 0.913,0 1.547,-0.5020001 1.547,-1.4299998 v -0.4570003 l -0.369,-0.104 c -1.797,-0.4849997 -4.244,-0.987 -4.244,-3.3150001 0,-1.2810002 1.001,-2.3279998 2.255,-2.3279998 0.958,0 1.695,0.619 2.358,1.2669999 L 117.755,-10.418 Z m -1.371,4.5680001 v -2.3870006 c -0.56,-0.6929998 -1.4,-1.3259992 -2.314,-1.3259992 -0.693,0 -1.223,0.677 -1.223,1.3549995 0,1.4600001 1.99,1.901 3.08,2.2260003 z m 8.235,1.7389998 c -0.441,1.2230001 -1.267,2.063 -2.607,2.063 -1.813,0 -3.256,-1.253 -3.256,-4.3029997 0,-3.0500002 1.443,-4.3030002 3.256,-4.3030002 1.311,0 2.358,0.9579999 2.829,2.1959998 l -0.928,0.4120007 c -0.353,-0.7950001 -0.914,-1.5910006 -1.901,-1.6350003 -1.769,0 -2.108,1.9439998 -2.108,3.33 0,1.3849997 0.339,3.3309998 2.108,3.3309998 0.914,0.029 1.355,-0.782 1.636,-1.533 z M 130.33701,-10.654 c 1.81298,0 3.25698,1.253 3.25698,4.3030002 0,3.0499997 -1.444,4.3029997 -3.25698,4.3029997 -1.81301,0 -3.25701,-1.253 -3.25701,-4.3029997 0,-3.0500002 1.444,-4.3030002 3.25701,-4.3030002 m 0,0.9730002 c -1.76902,0 -2.10701,1.9439998 -2.10701,3.33 0,1.3849997 0.33799,3.3309998 2.10701,3.3309998 1.76799,0 2.10699,-1.9460001 2.10699,-3.3309998 0,-1.3860002 -0.339,-3.33 -2.10699,-3.33 M 135.965,1.046 h -1.15 v -11.464 h 1.15 z m 4.48001,-11.7 c 1.81299,0 3.25699,1.253 3.25699,4.3030002 0,3.0499997 -1.444,4.3029997 -3.25699,4.3029997 -1.81201,0 -3.25801,-1.253 -3.25801,-4.3029997 0,-3.0500002 1.446,-4.3030002 3.25801,-4.3030002 m 0,0.9730002 c -1.76801,0 -2.10701,1.9439998 -2.10701,3.33 0,1.3849997 0.339,3.3309998 2.10701,3.3309998 1.76799,0 2.10699,-1.9460001 2.10699,-3.3309998 0,-1.3860002 -0.339,-3.33 -2.10699,-3.33 m 9.23799,4.804 c 0,-1.1210003 -0.648,-1.9310003 -1.828,-1.9310003 -1.06,0 -1.693,0.8990002 -1.693,1.915 0,1.0470001 0.692,1.9750001 1.797,1.9750001 1.149,0 1.724,-0.898 1.724,-1.9589998 M 148.38699,-10.035 c 0.61701,-0.044 1.974,-0.148 1.974,-1.002 0,-1.12 -1.459,-1.283 -2.28399,-1.283 -0.78099,0 -2.431,0.06 -2.431,1.18 0,0.737 0.914,1.105 1.533,1.2230002 z m 3.153,8.0310001 c -0.69198,0.073 -1.31099,-0.221 -1.84199,-0.619 -0.53099,0.3829999 -1.12,0.5749998 -1.76801,0.5749998 -1.63499,0 -2.87399,-1.1499999 -2.87399,-2.7999999 0,-0.9580002 0.30901,-1.4439998 0.899,-2.1370001 -0.457,-0.5450001 -1.018,-0.7659998 -1.018,-1.4879995 0,-0.5900001 0.533,-0.9430008 1.018,-1.1340008 -0.679,-0.295 -1.414,-0.7519996 -1.414,-1.5919996 0,-1.002 0.82401,-2.033 3.47701,-2.033 3.25599,0 3.44799,1.517 3.44799,2.121 0,3.0799999 -5.423,1.7829999 -5.423,2.8140001 0,0.3990001 0.44099,0.664 0.69299,0.8699999 0.427,-0.1620002 0.83901,-0.25 1.31201,-0.25 1.577,0 2.741,1.2220001 2.741,2.8000002 0,0.604 -0.162,1.1779999 -0.502,1.6789998 0.295,0.162 0.502,0.178 0.82601,0.178 h 0.42698 z m 6.85102,-0.28 h -1.09002 l -2.01899,-6.3519998 -2.211,6.3519998 h -1.164 l 2.8,-7.9870001 c -0.295,-0.973 -0.67799,-1.945 -1.841,-1.945 -0.237,0 -0.459,0.059 -0.664,0.118 l -0.17701,-0.973 c 0.31002,-0.103 0.56002,-0.161 0.88501,-0.161 1.62,0 2.342,1.089 2.784,2.489 l 2.69701,8.4590001"
             style="fill:#6e6c6c;fill-opacity:1;fill-rule:nonzero;stroke:none"
             id="path11196" /></g></g></g></g></svg>
