<?xml version="1.0" encoding="utf-8"?>
<!-- Generator: Adobe Illustrator 26.3.1, SVG Export Plug-In . SVG Version: 6.00 Build 0)  -->
<svg version="1.1"
	 id="svg3612" xmlns:inkscape="http://www.inkscape.org/namespaces/inkscape" xmlns:svg="http://www.w3.org/2000/svg" xmlns:sodipodi="http://sodipodi.sourceforge.net/DTD/sodipodi-0.dtd" inkscape:version="1.2 (dc2aedaf03, 2022-05-15)"
	 xmlns="http://www.w3.org/2000/svg" xmlns:xlink="http://www.w3.org/1999/xlink" x="0px" y="0px" viewBox="0 0 2834.6 576"
	 style="enable-background:new 0 0 2834.6 576;" xml:space="preserve">
<style type="text/css">
	.st0{fill:#231F20;}
</style>
<sodipodi:namedview  bordercolor="#000000" borderopacity="0.25" id="namedview3614" inkscape:current-layer="layer1" inkscape:cx="1793.1776" inkscape:cy="2164.1799" inkscape:deskcolor="#d1d1d1" inkscape:document-units="mm" inkscape:pagecheckerboard="0" inkscape:pageopacity="0.0" inkscape:showpageshadow="2" inkscape:window-height="1494" inkscape:window-maximized="1" inkscape:window-width="2400" inkscape:window-x="-11" inkscape:window-y="-11" inkscape:zoom="0.2102413" pagecolor="#ffffff" showgrid="false">
	</sodipodi:namedview>
<g>
	<g id="g2300" transform="matrix(0.35277777,0,0,-0.35277777,512.26422,559.80313)">
		<g>
			<g id="g2302">
				<g id="g2308" transform="translate(159.804,48.468399)">
					<path id="path2310" class="st0" d="M50.1,1014.8V426.3h-103h0v265.4h-267.8V426.3h-103v588.4h103v-234H-53v234h0H50.1z
						 M-526.9,426.3L-526.9,426.3h-103v588.4h103V426.3z M-731.5,426.3L-731.5,426.3h-108.8L-1108.1,859h-2.4V426.3h-98.1h0v588.4h0
						h108.7h0l268.6-433.5h1.7v433.5h98.1L-731.5,426.3z M413.1,722.6l-364,657.6h-1340.6c-67,0-121.2-54.3-121.2-121.1V184.9
						c0-66.9,54.2-121.1,121.2-121.1H47.9L413.1,722.6z"/>
				</g>
				<g id="g2312" transform="translate(161.7162,28.073303)">
					<path id="path2314" class="st0" d="M137.3,84.2L502.1,743l-363.7,657.6h91c49.8,0,110.4-35.7,134.5-79.4L683.7,743L362.9,163.4
						c-24.2-43.6-84.7-79.3-134.5-79.3H137.3z"/>
				</g>
				<g id="g2316" transform="translate(161.7162,28.073303)">
					<path id="path2318" class="st0" d="M137.3,84.2L502.2,743l-363.7,657.6h91c49.8,0,110.5-35.7,134.5-79.4L683.7,743L362.9,163.4
						c-24.2-43.6-84.7-79.3-134.5-79.3H137.3z"/>
				</g>
				<g id="g2320" transform="translate(177.4782,48.628693)">
					<path id="path2322" class="st0" d="M856.5,1022.1h152.1l-6.4-31.6H886l-11.4-54.7h107.6l-6.1-29.8H868.2l-12.5-61.1h116.9
						l-6.4-31.6H813.2L856.5,1022.1z"/>
				</g>
				<g id="g2324" transform="translate(183.1438,44.151001)">
					<path id="path2326" class="st0" d="M1115,817.8h-31.3l4.7,22l-0.6,0.6c-12-16.6-31.3-26.6-52.1-26.6
						c-30.4,0-44.2,15.8-44.2,40.1c0,5.6,0.3,13.5,1.4,18.7l20.2,96.6h33.3l-19.3-93.3c-1.2-5-2.4-10-2.4-14c0-5-1.4-21.6,23.2-21.6
						c25.7,0,43.2,24.6,47.9,47l17,81.9h33.3L1115,817.8z"/>
				</g>
				<g id="g2328" transform="translate(184.4808,47.393799)">
					<path id="path2330" class="st0" d="M1176,965.7h31.3l-4.7-22l0.6-0.6c12,16.6,31.3,26.6,52.1,26.6c30.4,0,44.2-15.8,44.2-40.1
						c0-5.5-0.3-13.4-1.4-18.7l-20.2-96.5h-33.3l19.3,93.3c1.2,4.9,2.3,9.9,2.3,14c0,5,1.2,21.6-23.1,21.6
						c-13.2,0-23.4-6.4-31.6-14.6c-7.6-7.9-13.7-20.2-16.3-32.5l-17-81.9h-33.3L1176,965.7z"/>
				</g>
				<g id="g2332" transform="translate(187.977,47.393799)">
					<path id="path2334" class="st0" d="M1335.6,965.7h33.3l-31.3-151.2h-33.3L1335.6,965.7z M1347.5,1023.3h33.1l-6.4-31.6h-33.1
						L1347.5,1023.3z"/>
				</g>
				<g id="g2336" transform="translate(191.27699,46.321304)">
					<path id="path2338" class="st0" d="M1486.1,916.8c0.6,18.7-11.7,27.8-29.8,27.8c-33.3,0-49.8-38.3-49.8-67.3
						c0-22.5,8.8-39.4,33.6-39.4c19.6,0,32.5,11.7,38,29.8h33.3c-10.8-38.6-37.4-56.1-76.9-56.1s-61.4,26.3-61.4,64.6
						c0,50.9,32.2,94.7,86,94.7c33.6,0,61.5-18.7,60.2-54.1H1486.1z"/>
				</g>
				<g id="g2340" transform="translate(195.1982,45.154907)">
					<path id="path2342" class="st0" d="M1665,863.6c-10.5-35.1-36.9-50.9-72.8-50.9c-38.3,0-66.1,25.1-66.1,66.1
						c0,46.5,29.8,93.3,83.9,93.3c53.8,0,64.3-40.1,64.3-69.6c0-7.3-0.9-13.8-1.8-18.7h-112.6c-0.6-3.5-0.6-6.7-0.6-9.6
						c0-20.8,10.8-35.1,36-35.1c17.8,0,31.6,8.8,36.2,24.6H1665z M1640.8,905.7c0.3,3.5,0.3,6.4,0.3,9.3c0,17.9-12,30.7-31.9,30.7
						c-24.9,0-39.2-16.7-45.9-40.1H1640.8z"/>
				</g>
				<g id="g2344" transform="translate(198.09891,48.628693)">
					<path id="path2346" class="st0" d="M1797.4,1022.1h36.6l-19.6-94.7l0.6-0.6l106.5,95.3h48.8l-100.3-86.3l65.5-122.5h-41.5
						l-52.3,99.7l-36.9-31.6l-14-68.2h-36.6L1797.4,1022.1z"/>
				</g>
				<g id="g2348" transform="translate(204.39169,45.154907)">
					<path id="path2350" class="st0" d="M2084.5,863.6c-10.5-35.1-36.9-50.9-72.8-50.9c-38.3,0-66.1,25.1-66.1,66.1
						c0,46.5,29.8,93.3,83.9,93.3c53.9,0,64.3-40.1,64.3-69.6c0-7.3-0.9-13.8-1.8-18.7h-112.6c-0.6-3.5-0.6-6.7-0.6-9.6
						c0-20.8,10.8-35.1,36-35.1c17.8,0,31.6,8.8,36.2,24.6H2084.5z M2060.3,905.7c0.3,3.5,0.3,6.4,0.3,9.3c0,17.9-12,30.7-31.9,30.7
						c-24.9,0-39.2-16.7-45.9-40.1H2060.3z"/>
				</g>
				<g id="g2352" transform="translate(205.32111,47.393799)">
					<path id="path2354" class="st0" d="M2126.9,965.7h31.3l-4.7-22l0.6-0.6c12,16.6,31.3,26.6,52.1,26.6
						c30.4,0,44.2-15.8,44.2-40.1c0-5.5-0.3-13.4-1.4-18.7l-20.2-96.5h-33.3l19.3,93.3c1.2,4.9,2.3,9.9,2.3,14
						c0,5,1.2,21.6-23.1,21.6c-13.2,0-23.4-6.4-31.6-14.6c-7.6-7.9-13.7-20.2-16.3-32.5l-17-81.9h-33.3L2126.9,965.7z"/>
				</g>
				<g id="g2356" transform="translate(208.8174,47.393799)">
					<path id="path2358" class="st0" d="M2286.5,965.7h31.3l-4.7-22l0.6-0.6c12,16.6,31.3,26.6,52.1,26.6
						c30.4,0,44.2-15.8,44.2-40.1c0-5.5-0.3-13.4-1.4-18.7l-20.2-96.5h-33.3l19.3,93.3c1.2,4.9,2.3,9.9,2.3,14
						c0,5,1.2,21.6-23.1,21.6c-13.2,0-23.4-6.4-31.6-14.6c-7.6-7.9-13.7-20.2-16.4-32.5l-17-81.9h-33.3L2286.5,965.7z"/>
				</g>
				<g id="g2360" transform="translate(214.7588,45.154907)">
					<path id="path2362" class="st0" d="M2557.6,863.6c-10.5-35.1-36.9-50.9-72.8-50.9c-38.3,0-66.1,25.1-66.1,66.1
						c0,46.5,29.8,93.3,83.9,93.3c53.9,0,64.3-40.1,64.3-69.6c0-7.3-0.9-13.8-1.8-18.7h-112.6c-0.6-3.5-0.6-6.7-0.6-9.6
						c0-20.8,10.8-35.1,36-35.1c17.8,0,31.6,8.8,36.2,24.6H2557.6z M2533.3,905.7c0.3,3.5,0.3,6.4,0.3,9.3c0,17.9-12,30.7-31.9,30.7
						c-24.9,0-39.2-16.7-45.9-40.1H2533.3z"/>
				</g>
				<g id="g2364" transform="translate(218.0343,44.151001)">
					<path id="path2366" class="st0" d="M2707,817.8h-31.9l4.7,20.5l-0.6,0.6c-13.1-19.5-29.6-25.1-47.4-25.1
						c-17.3,0-58.8,5.3-58.8,62c0,48.8,30.1,97.4,82.2,97.4c20.2,0,37.7-6.4,45.6-24.9h0.6l16.6,78.3h33.3L2707,817.8z
						 M2659.4,946.7c-37.2,0-53-37.2-53-71.1c0-22.5,11.7-35.7,34.5-35.7c34.2,0,51.8,40.1,51.8,70.5
						C2692.7,930.4,2683,946.7,2659.4,946.7"/>
				</g>
				<g id="g2368" transform="translate(219.00259,47.393799)">
					<path id="path2370" class="st0" d="M2751.2,965.7h35.1l15.8-110.6h0.6l57,110.6h35.7l-86.5-155.9
						c-15.8-28.7-27.2-55.3-64.6-55.3c-6.8,0-13.5,0.9-20.2,2.3l6.2,27.8c4.1-1.2,8.8-2.3,12.8-2.3c10,0,17.6,3.2,21.7,12.8
						l13.1,24.2L2751.2,965.7z"/>
				</g>
				<g id="g2372" transform="translate(224.3118,45.630997)">
					<path id="path2374" class="st0" d="M2993.4,885.3c-1.5-32.5,17.5-44.2,48-44.2c19.8,0,46.4,9,46.4,33.3
						c0,23.7-24.3,29.5-50,36.6c-18.4,4.9-57,14.3-57,54.1c0,37.7,28.3,64.9,77.8,64.9c43.6,0,79-17.6,77.2-66.7h-35.1
						c-0.3,26-14.3,36.8-42.7,36.8c-9.9,0-40.7-2.9-40.7-30.7c0-20.5,20.5-25.5,43.6-31.3c29.6-7.6,63.5-15.5,63.5-59.4
						c0-32.5-23.7-67.5-86.9-67.5c-49.1,0-80.7,21.9-79.3,74H2993.4z"/>
				</g>
				<g id="g2376" transform="translate(228.289,48.628693)">
					<path id="path2378" class="st0" d="M3174.9,1022.1h33.3l-16.4-78.9h0.6c11.4,15.2,30.7,25.5,49.7,25.5
						c30.4,0,44.2-15.8,44.2-40.1c0-5.5-0.3-13.4-1.5-18.7l-20.2-96.5h-33.3l19.4,93.3c1.2,4.9,2.3,10,2.3,14
						c0,5,1.2,21.6-23.1,21.6c-13.2,0-23.5-6.4-31.6-14.6c-7.6-7.9-13.8-20.2-16.4-32.5l-16.9-81.9h-33.3L3174.9,1022.1z"/>
				</g>
				<g id="g2380" transform="translate(231.52789,47.393799)">
					<path id="path2382" class="st0" d="M3322.7,965.7h31.6l-6.1-29.5l0.6-0.7c9,16.7,27.7,34.3,48.3,34.3c5.3,0,10.8,0,16.1-0.9
						L3406,937c-3.7,0.6-7.8,1.2-11.7,1.2c-34.5,0-49.1-26.3-55.6-56.7l-14-67h-33.3L3322.7,965.7z"/>
				</g>
				<g id="g2384" transform="translate(233.7428,47.393799)">
					<path id="path2386" class="st0" d="M3423.7,965.7h33.3l-31.3-151.2h-33.3L3423.7,965.7z M3435.7,1023.3h33l-6.4-31.6h-33
						L3435.7,1023.3z"/>
				</g>
				<g id="g2388" transform="translate(234.7594,47.393799)">
					<path id="path2390" class="st0" d="M3470.1,965.7h34.5l12.6-110.2h0.7l58.5,110.2h35.1l-83.7-151.2h-37.1L3470.1,965.7z"/>
				</g>
				<g id="g2392" transform="translate(240.6133,45.154907)">
					<path id="path2394" class="st0" d="M3737.2,863.6c-10.5-35.1-36.9-50.9-72.8-50.9c-38.3,0-66.2,25.1-66.2,66.1
						c0,46.5,29.9,93.3,84,93.3c53.8,0,64.3-40.1,64.3-69.6c0-7.3-0.9-13.8-1.8-18.7h-112.6c-0.6-3.5-0.6-6.7-0.6-9.6
						c0-20.8,10.8-35.1,36-35.1c17.8,0,31.6,8.8,36.3,24.6H3737.2z M3713,905.7c0.3,3.5,0.3,6.4,0.3,9.3c0,17.9-12,30.7-31.9,30.7
						c-24.8,0-39.1-16.7-45.9-40.1H3713z"/>
				</g>
				<g id="g2396" transform="translate(241.5432,47.393799)">
					<path id="path2398" class="st0" d="M3779.7,965.7h31.6l-6.2-29.5l0.6-0.7c9,16.7,27.8,34.3,48.3,34.3c5.3,0,10.8,0,16.1-0.9
						l-7.1-31.8c-3.7,0.6-7.8,1.2-11.7,1.2c-34.5,0-49.1-26.3-55.5-56.7l-14-67h-33.4L3779.7,965.7z"/>
				</g>
				<g id="g2400" transform="translate(245.46001,48.631699)">
					<path id="path2402" class="st0" d="M3958.4,1022.2h38.6l95.4-153.9h0.6v153.9h34.8V813.3h-38.6l-95.1,153.6h-0.9V813.3h-34.8
						V1022.2z"/>
				</g>
				<g id="g2404" transform="translate(252.5314,44.873093)">
					<path id="path2406" class="st0" d="M4281,850.7c0-4.1,0.5-7,1.7-8.8c1-1.8,3.1-2.6,6.2-2.6h3.6c1.3,0,2.8,0.2,4.6,0.6v-23.1
						c-1.2-0.4-2.6-0.9-4.5-1.4c-1.9-0.5-3.8-0.9-5.7-1.3c-2-0.5-3.9-0.7-5.9-0.9s-3.6-0.3-4.9-0.3c-6.9,0-12.5,1.4-17,4.1
						c-4.5,2.7-7.4,7.5-8.8,14.3c-6.6-6.4-14.7-11.1-24.4-14c-9.7-2.9-19-4.4-27.9-4.4c-6.8,0-13.4,0.9-19.6,2.8s-11.7,4.6-16.5,8.2
						c-4.8,3.6-8.6,8.2-11.4,13.8c-2.9,5.6-4.2,12.1-4.2,19.5c0,9.3,1.7,16.9,5.1,22.8c3.5,5.9,7.9,10.4,13.5,13.8
						c5.5,3.3,11.8,5.7,18.7,7.2c6.9,1.4,13.9,2.6,20.9,3.4c6,1.2,11.8,2,17.3,2.5c5.4,0.5,10.3,1.4,14.5,2.5c4.2,1.2,7.6,3,10,5.5
						c2.4,2.4,3.7,6.1,3.7,11c0,4.3-1.1,7.8-3.1,10.5s-4.6,4.8-7.6,6.3c-3,1.4-6.3,2.4-10.1,2.9c-3.6,0.5-7.2,0.8-10.5,0.8
						c-9.3,0-17-2-23.1-5.9c-6-3.9-9.5-9.9-10.2-18.1h-33.4c0.7,9.7,3,17.8,7.1,24.3c4.1,6.4,9.3,11.6,15.7,15.5
						c6.3,3.9,13.4,6.6,21.4,8.2c8,1.5,16.2,2.3,24.6,2.3c7.5,0,14.7-0.8,22-2.3c7.2-1.6,13.8-4.1,19.5-7.6
						c5.7-3.5,10.4-8,13.8-13.6c3.5-5.5,5.3-12.4,5.3-20.3V850.7z M4247.7,892.8c-5.1-3.3-11.4-5.3-18.8-6c-7.4-0.7-14.8-1.7-22.2-3
						c-3.5-0.6-6.9-1.4-10.3-2.5c-3.3-1.1-6.2-2.6-8.8-4.4c-2.5-1.9-4.5-4.3-6-7.3c-1.4-3-2.2-6.7-2.2-11c0-3.7,1.1-6.9,3.3-9.4
						c2.1-2.5,4.7-4.5,7.7-6c3-1.5,6.3-2.5,9.9-3.1c3.6-0.6,6.9-0.8,9.8-0.8c3.7,0,7.7,0.5,12,1.5c4.3,0.9,8.3,2.6,12.1,4.9
						c3.8,2.3,7,5.3,9.6,9c2.5,3.5,3.8,8,3.8,13.3V892.8z"/>
				</g>
				<g id="g2408" transform="translate(252.86501,47.394897)">
					<path id="path2410" class="st0" d="M4296.3,965.8h25.2v45.4h33.3v-45.4h30.1v-24.9h-30.1v-80.8c0-3.5,0.1-6.5,0.5-9
						c0.3-2.5,0.9-4.7,2-6.4c1.1-1.8,2.7-3.1,4.8-4c2.1-0.9,5.1-1.4,8.8-1.4c2.3,0,4.7,0,7,0.1c2.3,0.1,4.7,0.5,7,1.1v-25.8
						c-3.7-0.4-7.3-0.7-10.9-1.1c-3.5-0.4-7-0.7-10.8-0.7c-8.8,0-15.9,0.9-21.2,2.6c-5.4,1.6-9.6,4.1-12.6,7.3
						c-3,3.2-5,7.3-6.2,12.1c-1,4.8-1.6,10.4-1.8,16.7v89.2h-25.2V965.8z"/>
				</g>
				<path id="path2412" class="st0" d="M4657.3,1070.8h33.3v-31.6h-33.3V1070.8z M4657.3,1013.2h33.3V861.9h-33.3V1013.2z"/>
				<g id="g2414" transform="translate(258.0547,44.063003)">
					<path id="path2416" class="st0" d="M4533,813.7c-12.1,0-22.9,2-32.3,6c-9.5,4-17.5,9.5-24.1,16.5c-6.5,7-11.5,15.4-14.9,25.2
						c-3.5,9.7-5.2,20.5-5.2,32.2c0,11.5,1.7,22.1,5.2,31.9c3.4,9.8,8.4,18.1,14.9,25.2c6.5,7,14.5,12.5,24.1,16.6
						c9.4,4,20.2,6,32.3,6c12.1,0,22.8-2,32.3-6c9.4-4,17.4-9.5,24-16.6c6.6-7,11.5-15.4,15-25.2c3.4-9.7,5.1-20.4,5.1-31.9
						c0-11.7-1.7-22.4-5.1-32.2c-3.5-9.7-8.4-18.1-15-25.2c-6.5-7-14.5-12.5-24-16.5C4555.9,815.7,4545.1,813.7,4533,813.7
						 M4533,840.1c7.4,0,13.8,1.6,19.3,4.7c5.5,3.1,10,7.2,13.5,12.3c3.5,5.1,6.1,10.8,7.8,17.2c1.6,6.3,2.4,12.8,2.4,19.4
						c0,6.4-0.8,12.9-2.4,19.4c-1.7,6.4-4.2,12.1-7.8,17.1c-3.5,5-8,9-13.5,12.2c-5.4,3.1-11.9,4.7-19.3,4.7
						c-7.5,0-13.9-1.6-19.4-4.7c-5.4-3.1-10-7.1-13.4-12.2c-3.5-4.9-6.1-10.7-7.7-17.1c-1.7-6.4-2.5-12.9-2.5-19.4
						c0-6.6,0.7-13.1,2.5-19.4c1.6-6.3,4.2-12,7.7-17.2c3.5-5,8-9.1,13.4-12.3C4519.2,841.7,4525.6,840.1,4533,840.1"/>
				</g>
				<g id="g2418" transform="translate(260.1821,47.394897)">
					<path id="path2420" class="st0" d="M4630.1,965.8h31.6v-22.2l0.6-0.6c5.1,8.4,11.7,15,19.9,19.8c8.2,4.8,17.3,7.1,27.3,7.1
						c16.6,0,29.6-4.3,39.2-12.9c9.6-8.6,14.3-21.4,14.3-38.6V814.5h-33.3v95.1c-0.5,11.9-3,20.5-7.6,25.9c-4.7,5.4-12.1,8.1-22,8.1
						c-5.7,0-10.7-1-15.2-3.1c-4.6-2.1-8.3-4.8-11.5-8.5c-3.1-3.6-5.5-7.9-7.3-12.7c-1.8-4.9-2.7-10-2.7-15.5v-89.2h-33.3V965.8z"/>
				</g>
				<g id="g2422" transform="translate(266.39371,44.873093)">
					<path id="path2424" class="st0" d="M4913.5,850.7c0-4.1,0.6-7,1.6-8.8s3.1-2.6,6.2-2.6h3.6c1.3,0,2.8,0.2,4.6,0.6v-23.1
						c-1.2-0.4-2.6-0.9-4.5-1.4c-1.9-0.5-3.8-0.9-5.7-1.3c-2-0.5-3.9-0.7-5.9-0.9s-3.6-0.3-4.9-0.3c-6.9,0-12.5,1.4-17,4.1
						c-4.5,2.7-7.4,7.5-8.8,14.3c-6.6-6.4-14.7-11.1-24.4-14c-9.7-2.9-19-4.4-27.9-4.4c-6.8,0-13.4,0.9-19.6,2.8s-11.7,4.6-16.5,8.2
						c-4.8,3.6-8.6,8.2-11.4,13.8c-2.9,5.6-4.2,12.1-4.2,19.5c0,9.3,1.7,16.9,5.1,22.8s7.9,10.4,13.5,13.8
						c5.5,3.3,11.8,5.7,18.7,7.2c6.9,1.4,13.9,2.6,20.9,3.4c6.1,1.2,11.8,2,17.3,2.5c5.5,0.5,10.3,1.4,14.5,2.5
						c4.2,1.2,7.6,3,9.9,5.5c2.4,2.4,3.7,6.1,3.7,11c0,4.3-1.1,7.8-3.1,10.5c-2.1,2.8-4.6,4.8-7.6,6.3c-3,1.4-6.4,2.4-10.1,2.9
						c-3.6,0.5-7.2,0.8-10.5,0.8c-9.3,0-17.1-2-23.1-5.9c-6-3.9-9.5-9.9-10.2-18.1h-33.4c0.7,9.7,2.9,17.8,7,24.3
						c4.1,6.4,9.3,11.6,15.7,15.5c6.3,3.9,13.4,6.6,21.4,8.2c8,1.5,16.2,2.3,24.6,2.3c7.4,0,14.7-0.8,22-2.3
						c7.2-1.6,13.8-4.1,19.5-7.6c5.7-3.5,10.4-8,13.8-13.6c3.5-5.5,5.3-12.4,5.3-20.3V850.7z M4880.2,892.8
						c-5.1-3.3-11.4-5.3-18.8-6c-7.4-0.7-14.8-1.7-22.2-3c-3.5-0.6-6.9-1.4-10.3-2.5c-3.3-1.1-6.2-2.6-8.8-4.4
						c-2.5-1.9-4.5-4.3-6-7.3c-1.4-3-2.2-6.7-2.2-11c0-3.7,1.1-6.9,3.3-9.4c2.2-2.5,4.7-4.5,7.7-6c3-1.5,6.3-2.5,9.9-3.1
						c3.6-0.6,6.9-0.8,9.8-0.8c3.7,0,7.7,0.5,12,1.5c4.3,0.9,8.3,2.6,12.1,4.9c3.8,2.3,7,5.3,9.6,9c2.5,3.5,3.8,8,3.8,13.3V892.8z"
						/>
				</g>
				<path id="path2426" class="st0" d="M5211.5,1070.8h33.3V861.9h-33.3V1070.8z"/>
				<path id="path2428" class="st0" d="M5356.7,1070.8h36.6V861.9h-36.6V1070.8z"/>
				<g id="g2430" transform="translate(271.7153,47.394897)">
					<path id="path2432" class="st0" d="M5156.4,965.8h31.6v-22.2l0.5-0.6c5.1,8.4,11.8,15,20,19.8c8.2,4.8,17.3,7.1,27.2,7.1
						c16.6,0,29.7-4.3,39.2-12.9c9.6-8.6,14.3-21.4,14.3-38.6V814.5h-33.3v95.1c-0.5,11.9-2.9,20.5-7.6,25.9
						c-4.7,5.4-12,8.1-21.9,8.1c-5.7,0-10.7-1-15.2-3.1c-4.6-2.1-8.3-4.8-11.4-8.5c-3.2-3.6-5.5-7.9-7.4-12.7
						c-1.8-4.9-2.6-10-2.6-15.5v-89.2h-33.3V965.8z"/>
				</g>
				<g id="g2434" transform="translate(275.7514,45.192795)">
					<path id="path2436" class="st0" d="M5340.5,865.3c0.9-9.7,4.6-16.6,11.1-20.5c6.5-3.9,14.2-5.9,23.2-5.9
						c3.1,0,6.6,0.2,10.6,0.7c4,0.5,7.8,1.4,11.3,2.8c3.5,1.3,6.4,3.3,8.6,6c2.2,2.7,3.2,6.1,3,10.4c-0.2,4.3-1.7,7.8-4.7,10.5
						c-2.8,2.7-6.6,4.9-11.2,6.6c-4.6,1.7-9.8,3.1-15.7,4.2c-5.8,1.2-11.8,2.4-17.9,3.8c-6.2,1.4-12.2,3.1-18,5
						c-5.7,1.9-10.9,4.6-15.4,7.8c-4.7,3.4-8.3,7.6-11.1,12.8c-2.7,5.1-4.1,11.5-4.1,19.1c0,8.2,2,15.1,6,20.7
						c4,5.5,9.1,10,15.3,13.5c6.1,3.4,13,5.8,20.5,7.1c7.5,1.4,14.7,2.1,21.4,2.1c7.8,0,15.3-0.8,22.4-2.5
						c7.2-1.7,13.6-4.3,19.4-8.1c5.8-3.7,10.5-8.5,14.4-14.5c3.8-6,6.2-13.1,7.1-21.5h-34.8c-1.6,8-5.2,13.3-10.9,16
						c-5.8,2.8-12.4,4.1-19.8,4.1c-2.3,0-5.1-0.2-8.3-0.6c-3.3-0.4-6.2-1.1-9-2.2c-2.9-1.1-5.2-2.6-7.2-4.7c-2-2.1-2.9-4.8-2.9-8.1
						c0-4.1,1.4-7.4,4.2-9.9c2.8-2.5,6.6-4.6,11.1-6.3c4.7-1.7,9.9-3.1,15.8-4.2c5.9-1.2,11.9-2.4,18.2-3.8c6.1-1.4,12-3,17.9-5
						s11.1-4.6,15.7-7.9c4.6-3.3,8.3-7.5,11.2-12.6c2.8-5.1,4.2-11.3,4.2-18.7c0-9-2.1-16.6-6.2-22.8c-4.1-6.2-9.5-11.3-16-15.2
						c-6.5-3.9-13.8-6.7-21.9-8.4c-8-1.8-15.9-2.7-23.7-2.7c-9.6,0-18.5,1.1-26.6,3.3s-15.2,5.4-21.1,9.7c-6,4.4-10.6,9.9-14.1,16.4
						c-3.4,6.5-5.2,14.3-5.4,23.3H5340.5z"/>
				</g>
				<g id="g2438" transform="translate(278.02831,47.394897)">
					<path id="path2440" class="st0" d="M5444.4,965.8h25.2v45.4h33.3v-45.4h30.2v-24.9h-30.2v-80.8c0-3.5,0.1-6.5,0.5-9
						c0.3-2.5,1-4.7,2-6.4c1.2-1.8,2.7-3.1,4.9-4c2.1-0.9,5-1.4,8.8-1.4c2.3,0,4.7,0,7,0.1c2.3,0.1,4.7,0.5,7,1.1v-25.8
						c-3.7-0.4-7.3-0.7-10.9-1.1c-3.5-0.4-7.1-0.7-10.8-0.7c-8.7,0-15.9,0.9-21.2,2.6c-5.4,1.6-9.6,4.1-12.6,7.3
						c-3,3.2-5,7.3-6.2,12.1c-1,4.8-1.6,10.4-1.8,16.7v89.2h-25.2V965.8z"/>
				</g>
				<path id="path2442" class="st0" d="M5830.7,1070.8h33.3v-31.6h-33.3V1070.8z M5830.7,1013.2h33.3V861.9h-33.3V1013.2z"/>
				<g id="g2444" transform="translate(281.4108,47.394897)">
					<path id="path2446" class="st0" d="M5598.7,965.8h25.2v45.4h33.3v-45.4h30.1v-24.9h-30.1v-80.8c0-3.5,0.1-6.5,0.4-9
						c0.3-2.5,1-4.7,2.1-6.4c1.1-1.8,2.7-3.1,4.8-4c2.1-0.9,5.1-1.4,8.8-1.4c2.3,0,4.7,0,7,0.1c2.3,0.1,4.7,0.5,7,1.1v-25.8
						c-3.7-0.4-7.3-0.7-10.9-1.1c-3.5-0.4-7-0.7-10.8-0.7c-8.8,0-15.9,0.9-21.2,2.6c-5.4,1.6-9.6,4.1-12.6,7.3
						c-3,3.2-5,7.3-6.2,12.1c-1,4.8-1.6,10.4-1.8,16.7v89.2h-25.2V965.8z"/>
				</g>
				<g id="g2448" transform="translate(286.56281,44.151001)">
					<path id="path2450" class="st0" d="M5833.8,817.8h-32.7v21h-0.6c-4.1-7.6-10.2-13.7-18.3-18.3c-8.1-4.6-16.4-6.9-24.8-6.9
						c-19.9,0-34.2,4.9-43.1,14.8c-8.9,9.8-13.3,24.7-13.3,44.6v96h33.3v-92.7c0-13.3,2.6-22.6,7.7-28.1c5-5.5,12.2-8.2,21.3-8.2
						c7,0,12.9,1,17.5,3.2c4.7,2.1,8.5,5,11.5,8.6c2.9,3.6,5,8,6.3,13c1.2,5.1,1.9,10.5,1.9,16.4V969h33.3V817.8z"/>
				</g>
			</g>
		</g>
	</g>
	<g id="g2452" transform="matrix(0.35277777,0,0,-0.35277777,512.26422,559.80313)">
		<g>
			<g id="g2454">
				<g id="g2460" transform="translate(286.8829,47.394897)">
					<path id="path2462" class="st0" d="M5848.4,965.8h25.2v45.4h33.3v-45.4h30.2v-24.9h-30.2v-80.8c0-3.5,0.1-6.5,0.5-9
						c0.3-2.5,1-4.7,2-6.4c1.1-1.8,2.7-3.1,4.9-4c2.1-0.9,5-1.4,8.7-1.4c2.3,0,4.7,0,7,0.1s4.7,0.5,7,1.1v-25.8
						c-3.7-0.4-7.3-0.7-10.9-1.1c-3.5-0.4-7.1-0.7-10.8-0.7c-8.8,0-15.9,0.9-21.2,2.6c-5.4,1.6-9.6,4.1-12.6,7.3
						c-3,3.2-5.1,7.3-6.1,12.1c-1.1,4.8-1.7,10.4-1.9,16.7v89.2h-25.2V965.8z"/>
				</g>
				<g id="g2464" transform="translate(289.7435,45.588104)">
					<path id="path2466" class="st0" d="M5978.9,883.3c0-5.9,0.9-11.5,2.5-17c1.6-5.5,4.1-10.2,7.5-14.3c3.4-4.1,7.5-7.4,12.6-9.8
						c5.1-2.5,11.1-3.6,18.1-3.6c9.8,0,17.7,2.1,23.6,6.3c6,4.1,10.4,10.4,13.3,18.8h31.6c-1.8-8.2-4.8-15.5-9.1-21.9
						c-4.3-6.5-9.5-11.8-15.5-16.2c-6.1-4.4-12.8-7.7-20.4-9.9c-7.5-2.3-15.3-3.4-23.6-3.4c-11.8,0-22.4,2-31.5,5.9
						c-9.2,3.9-16.9,9.3-23.3,16.4c-6.3,7-11.1,15.4-14.4,25.1c-3.2,9.8-4.8,20.5-4.8,32.2c0,10.7,1.7,20.9,5.1,30.5
						c3.5,9.7,8.3,18.2,14.6,25.5c6.3,7.3,14,13.1,23,17.4c8.9,4.3,19.1,6.4,30.4,6.4c11.9,0,22.6-2.5,32.1-7.5
						c9.4-5,17.3-11.6,23.5-19.8c6.2-8.2,10.8-17.6,13.6-28.2c2.8-10.6,3.5-21.6,2.2-32.9H5978.9z M6056.8,905.3
						c-0.4,5.2-1.5,10.3-3.4,15.2c-1.9,4.9-4.4,9.1-7.6,12.7c-3.2,3.6-7.1,6.5-11.7,8.8c-4.6,2.2-9.7,3.4-15.4,3.4
						c-5.8,0-11.1-1.1-15.9-3.1c-4.8-2.1-8.9-4.8-12.3-8.4c-3.5-3.6-6.2-7.9-8.2-12.7c-2.1-4.9-3.2-10.2-3.4-15.8H6056.8z"/>
				</g>
			</g>
		</g>
	</g>
	<g>
		<g id="g2476" transform="matrix(0.35277777,0,0,-0.35277777,575.31671,547.01272)">
			<path id="path2478" class="st0" d="M913.7,457.5c-12.1,0-22.9,2-32.4,6c-9.5,4-17.4,9.5-24,16.5c-6.5,7-11.6,15.4-14.9,25.2
				c-3.5,9.7-5.1,20.5-5.1,32.2c0,11.5,1.7,22.1,5.1,31.9c3.4,9.8,8.4,18.2,14.9,25.2c6.5,7,14.5,12.5,24,16.6c9.5,4,20.3,6,32.4,6
				c12.1,0,22.8-2,32.3-6c9.5-4,17.4-9.5,24-16.6c6.6-7,11.5-15.4,15-25.2c3.4-9.7,5.1-20.4,5.1-31.9c0-11.7-1.7-22.4-5.1-32.2
				c-3.5-9.7-8.4-18.1-15-25.2c-6.5-7-14.5-12.5-24-16.5C936.5,459.5,925.8,457.5,913.7,457.5 M913.7,483.9c7.4,0,13.8,1.6,19.3,4.7
				c5.5,3.1,9.9,7.2,13.5,12.3c3.5,5.1,6.1,10.8,7.7,17.2c1.6,6.3,2.5,12.8,2.5,19.4c0,6.4-0.8,12.9-2.5,19.4
				c-1.7,6.4-4.2,12.1-7.7,17.1c-3.5,5-8,9-13.5,12.2s-11.9,4.7-19.3,4.7c-7.4,0-13.8-1.6-19.4-4.7c-5.4-3.1-9.9-7.1-13.4-12.2
				c-3.5-4.9-6.1-10.6-7.7-17.1c-1.7-6.4-2.5-12.9-2.5-19.4c0-6.6,0.8-13.1,2.5-19.4c1.7-6.3,4.2-12,7.7-17.2c3.5-5,8-9.1,13.4-12.3
				C899.9,485.5,906.3,483.9,913.7,483.9"/>
		</g>
	</g>
	<g>
		<g id="g2480" transform="matrix(0.35277777,0,0,-0.35277777,575.95415,545.8373)">
			<path id="path2482" class="st0" d="M996.1,609.6h24.9v12.6c0,9.5,1.2,17.3,3.5,23.2s5.5,10.5,9.4,13.8c3.9,3.2,8.3,5.4,13.3,6.4
				c5,1.1,10.2,1.6,15.7,1.6c10.7,0,18.5-0.7,23.4-2.1v-26.1c-2.1,0.6-4.5,1-6.9,1.4c-2.4,0.3-5.3,0.4-8.6,0.4
				c-4.5,0-8.3-1.1-11.6-3.2c-3.2-2.1-4.8-6.3-4.8-12.6v-15.5h28.4v-24.9h-28.4V458.3H1021v126.4h-24.9V609.6z"/>
		</g>
	</g>
	<g>
		<g id="g2484" transform="matrix(0.35277777,0,0,-0.35277777,578.40468,545.90362)">
			<path id="path2486" class="st0" d="M1313.1,601c-1.5,6.1-3.7,11.6-6.4,16.6c-2.7,5.1-6.2,9.5-10.5,13.2c-4.3,3.7-9.3,6.6-15,8.6
				c-5.8,2.1-12.5,3.1-20.1,3.1c-11.1,0-20.8-2.3-28.8-6.8c-8.1-4.5-14.7-10.5-19.8-18c-5.1-7.5-8.9-16.1-11.3-25.6
				c-2.4-9.6-3.7-19.4-3.7-29.3c0-9.9,1.3-19.7,3.7-29.2c2.4-9.6,6.2-18.1,11.3-25.6c5-7.5,11.7-13.5,19.8-18
				c8-4.5,17.7-6.8,28.8-6.8c8.2,0,15.4,1.4,21.6,4.2c6.2,2.8,11.7,6.8,16.1,11.7c4.5,5,8,10.8,10.5,17.4c2.6,6.6,4.2,13.7,5,21.4
				h35.7c-0.8-12.5-3.5-23.9-8-34.3c-4.6-10.3-10.8-19.2-18.6-26.8c-7.8-7.5-17-13.3-27.5-17.3c-10.5-4.1-22.1-6.2-34.8-6.2
				c-15.6,0-29.7,2.8-42,8.6c-12.4,5.7-22.8,13.6-31.4,23.5c-8.6,10-15.2,21.6-19.8,34.9c-4.6,13.2-6.9,27.4-6.9,42.4
				c0,14.9,2.3,28.9,6.9,42.2c4.6,13.3,11.1,24.9,19.8,34.8c8.6,9.9,19,17.9,31.4,23.7c12.4,5.9,26.4,8.8,42,8.8
				c11.7,0,22.7-1.6,33-4.8c10.4-3.3,19.5-7.9,27.4-14c7.9-6.2,14.3-13.6,19.2-22.4c4.9-8.8,7.9-18.8,9-30.2H1313.1z"/>
		</g>
	</g>
	<g>
		<g id="g2488" transform="matrix(0.35277777,0,0,-0.35277777,578.8634,545.40098)">
			<path id="path2490" class="st0" d="M1372.4,666h33.3v-77.5h0.6c4.1,6.8,10.2,12.5,18.3,17.1c8.1,4.6,17.2,6.9,27.1,6.9
				c16.6,0,29.7-4.3,39.2-12.9s14.4-21.4,14.4-38.6V457.1h-33.3v95.1c-0.5,11.9-3,20.5-7.6,25.9c-4.7,5.3-12,8-22,8
				c-5.6,0-10.7-1-15.2-3.1c-4.5-2.1-8.3-4.8-11.4-8.5c-3.1-3.6-5.5-7.8-7.3-12.7c-1.8-4.9-2.6-10-2.6-15.5v-89.2h-33.3V666z"/>
		</g>
	</g>
	<path id="path2492" class="st0" d="M1120.8,310.5h11.8v11.2h-11.8V310.5z M1120.8,330.8h11.8v53.4h-11.8V330.8z"/>
	<path id="path2494" class="st0" d="M1143.9,310.5h11.8v73.7h-11.8V310.5z"/>
	<g>
		<g id="g2496" transform="matrix(0.35277777,0,0,-0.35277777,582.16392,546.98171)">
			<path id="path2498" class="st0" d="M1799.3,461.5h-31.6V482h-0.6c-4.5-8.8-11.1-15-19.6-18.8c-8.6-3.8-17.6-5.7-27.2-5.7
				c-11.9,0-22.3,2.1-31.1,6.3c-8.9,4.2-16.3,9.9-22.1,17.2c-5.9,7.2-10.3,15.7-13.2,25.6c-2.9,9.9-4.4,20.4-4.4,31.8
				c0,13.7,1.9,25.5,5.5,35.4c3.7,10,8.6,18.2,14.8,24.6c6.2,6.4,13.2,11.2,21,14.2c7.9,3,15.9,4.5,24.2,4.5c4.7,0,9.5-0.4,14.4-1.3
				s9.6-2.3,14-4.2c4.5-2,8.7-4.4,12.4-7.5c3.8-3,7-6.6,9.5-10.7h0.6v77.3h33.4V461.5z M1682.8,535.5c0-6.4,0.8-12.7,2.5-19
				c1.6-6.2,4.2-11.8,7.6-16.7c3.5-4.9,7.8-8.8,13.1-11.7c5.3-2.9,11.5-4.4,18.7-4.4c7.5,0,13.8,1.6,19.2,4.7
				c5.4,3.1,9.8,7.2,13.2,12.3c3.5,5.1,6,10.8,7.6,17.1c1.6,6.3,2.5,12.8,2.5,19.4c0,16.8-3.8,29.8-11.3,39.3
				c-7.5,9.3-17.7,14-30.6,14c-7.8,0-14.4-1.6-19.7-4.8c-5.4-3.2-9.7-7.4-13.2-12.6c-3.5-5.2-5.9-11.1-7.3-17.6
				C1683.6,549.1,1682.8,542.4,1682.8,535.5"/>
		</g>
	</g>
	<g>
		<g id="g2500" transform="matrix(0.35277777,0,0,-0.35277777,583.00526,545.40098)">
			<path id="path2502" class="st0" d="M1908.1,666h36.6v-83.1h95.1V666h36.6V457.1h-36.6v94.2h-95.1v-94.2h-36.6V666z"/>
		</g>
	</g>
	<g>
		<g id="g2504" transform="matrix(0.35277777,0,0,-0.35277777,584.73376,546.47469)">
			<path id="path2506" class="st0" d="M2131.7,527.1c0-5.9,0.8-11.5,2.5-17c1.6-5.5,4.1-10.2,7.4-14.3c3.4-4.1,7.6-7.4,12.6-9.8
				c5-2.5,11.1-3.6,18.1-3.6c9.8,0,17.6,2.1,23.6,6.3c6,4.1,10.4,10.4,13.3,18.8h31.6c-1.8-8.2-4.8-15.5-9-21.9
				c-4.3-6.5-9.5-11.8-15.5-16.2c-6.1-4.4-12.8-7.7-20.3-10c-7.6-2.2-15.3-3.4-23.6-3.4c-11.8,0-22.4,2-31.6,5.9
				c-9.2,3.9-16.9,9.3-23.3,16.4c-6.3,7-11.1,15.4-14.4,25.1c-3.2,9.8-4.8,20.5-4.8,32.2c0,10.7,1.7,20.9,5.1,30.5
				c3.4,9.7,8.3,18.2,14.6,25.5c6.3,7.3,14,13.1,22.9,17.4c9,4.3,19.1,6.4,30.4,6.4c11.9,0,22.6-2.5,32-7.5
				c9.4-5,17.3-11.6,23.5-19.8c6.2-8.2,10.8-17.6,13.6-28.2c2.8-10.6,3.6-21.6,2.2-32.9H2131.7z M2209.6,549.1
				c-0.4,5.2-1.5,10.3-3.4,15.2c-1.8,4.9-4.4,9.1-7.6,12.7c-3.2,3.6-7.1,6.5-11.7,8.8c-4.6,2.2-9.7,3.4-15.4,3.4
				c-5.9,0-11.1-1.1-15.9-3.1c-4.8-2.1-8.9-4.8-12.3-8.4c-3.4-3.6-6.2-7.9-8.2-12.7c-2-4.9-3.2-10.2-3.4-15.8H2209.6z"/>
		</g>
	</g>
	<g>
		<g id="g2508" transform="matrix(0.35277777,0,0,-0.35277777,586.68886,546.72693)">
			<path id="path2510" class="st0" d="M2384.6,494.5c0-4.1,0.5-7,1.6-8.8c1-1.8,3.1-2.6,6.2-2.6h3.5c1.4,0,2.9,0.2,4.7,0.6v-23.1
				c-1.2-0.4-2.7-0.9-4.5-1.4c-1.9-0.5-3.7-0.9-5.7-1.3c-2-0.5-3.9-0.7-5.9-0.9c-2-0.2-3.6-0.3-4.9-0.3c-6.9,0-12.5,1.4-17,4.1
				c-4.5,2.7-7.4,7.5-8.8,14.3c-6.6-6.4-14.7-11.1-24.4-14c-9.7-2.9-19-4.4-27.9-4.4c-6.8,0-13.4,0.9-19.6,2.8
				c-6.2,1.9-11.7,4.6-16.6,8.2c-4.8,3.6-8.5,8.2-11.4,13.8c-2.8,5.6-4.2,12.1-4.2,19.5c0,9.3,1.7,16.9,5.1,22.8
				c3.4,5.9,7.9,10.4,13.5,13.8c5.5,3.3,11.8,5.7,18.7,7.2c6.9,1.4,13.9,2.6,20.9,3.4c6,1.2,11.8,2,17.3,2.5
				c5.5,0.5,10.3,1.4,14.5,2.5c4.2,1.2,7.5,3,9.9,5.5c2.4,2.4,3.7,6.1,3.7,11c0,4.3-1,7.8-3.1,10.5c-2.1,2.8-4.6,4.8-7.6,6.3
				c-3,1.4-6.4,2.4-10.1,2.9c-3.7,0.5-7.2,0.8-10.5,0.8c-9.3,0-17.1-2-23.1-5.9c-6.1-3.9-9.5-9.9-10.3-18.1h-33.4
				c0.6,9.7,2.9,17.8,7,24.3c4.1,6.4,9.3,11.6,15.7,15.5c6.3,3.9,13.5,6.6,21.5,8.2c8,1.5,16.2,2.3,24.6,2.3c7.4,0,14.7-0.8,22-2.3
				c7.2-1.6,13.7-4.1,19.4-7.6c5.7-3.5,10.4-8,13.9-13.6c3.5-5.5,5.3-12.4,5.3-20.3V494.5z M2351.2,536.6c-5.1-3.3-11.3-5.3-18.7-6
				c-7.4-0.7-14.8-1.7-22.2-3c-3.5-0.6-6.9-1.4-10.3-2.5c-3.3-1.1-6.2-2.6-8.8-4.4s-4.5-4.3-6-7.3c-1.4-3-2.2-6.7-2.2-11
				c0-3.7,1.1-6.9,3.3-9.4c2.1-2.5,4.7-4.5,7.7-6c3.1-1.5,6.3-2.5,10-3.1c3.6-0.6,6.9-0.8,9.8-0.8c3.7,0,7.7,0.5,12,1.5
				c4.3,0.9,8.3,2.6,12.1,4.9s6.9,5.3,9.5,9c2.6,3.5,3.8,8,3.8,13.3V536.6z"/>
		</g>
	</g>
	<path id="path2512" class="st0" d="M1439.1,310.5h11.8v73.7h-11.8V310.5z"/>
	<g>
		<g id="g2514" transform="matrix(0.35277777,0,0,-0.35277777,587.30213,545.8373)">
			<path id="path2516" class="st0" d="M2463.9,609.6h25.2v45.4h33.3v-45.4h30.2v-24.9h-30.2V504c0-3.5,0.1-6.5,0.4-9.1
				c0.3-2.5,1-4.7,2.1-6.4c1.1-1.8,2.7-3.1,4.9-4c2.1-0.9,5-1.4,8.8-1.4c2.3,0,4.7,0,7,0.1c2.3,0.1,4.7,0.5,7,1.1v-25.8
				c-3.7-0.4-7.3-0.7-10.9-1.1c-3.5-0.4-7.1-0.7-10.8-0.7c-8.8,0-15.9,0.9-21.2,2.6c-5.4,1.6-9.6,4.1-12.6,7.3
				c-3,3.2-5,7.3-6.2,12.1c-1,4.8-1.7,10.4-1.9,16.7v89.2h-25.2V609.6z"/>
		</g>
	</g>
	<g>
		<g id="g2518" transform="matrix(0.35277777,0,0,-0.35277777,588.11465,545.40098)">
			<path id="path2520" class="st0" d="M2569,666h33.3v-77.5h0.6c4.1,6.8,10.2,12.5,18.3,17.1c8.1,4.6,17.2,6.9,27.1,6.9
				c16.6,0,29.6-4.3,39.2-12.9c9.6-8.6,14.4-21.4,14.4-38.6V457.1h-33.3v95.1c-0.5,11.9-3,20.5-7.6,25.9c-4.7,5.3-12,8-22,8
				c-5.6,0-10.7-1-15.2-3.1c-4.5-2.1-8.3-4.8-11.5-8.5c-3.1-3.6-5.5-7.8-7.3-12.7c-1.8-4.9-2.6-10-2.6-15.5v-89.2H2569V666z"/>
		</g>
	</g>
	<g>
		<g id="g2522" transform="matrix(0.35277777,0,0,-0.35277777,590.95941,546.72693)">
			<path id="path2524" class="st0" d="M2936.9,494.5c0-4.1,0.5-7,1.6-8.8c1-1.8,3.1-2.6,6.3-2.6h3.5c1.4,0,2.9,0.2,4.7,0.6v-23.1
				c-1.2-0.4-2.7-0.9-4.5-1.4c-1.9-0.5-3.8-0.9-5.7-1.3c-2-0.5-3.9-0.7-5.9-0.9c-2-0.2-3.6-0.3-4.9-0.3c-6.9,0-12.5,1.4-17,4.1
				c-4.5,2.7-7.4,7.5-8.8,14.3c-6.6-6.4-14.7-11.1-24.4-14c-9.7-2.9-19-4.4-27.9-4.4c-6.8,0-13.4,0.9-19.6,2.8
				c-6.2,1.9-11.7,4.6-16.6,8.2c-4.8,3.6-8.5,8.2-11.4,13.8c-2.8,5.6-4.2,12.1-4.2,19.5c0,9.3,1.7,16.9,5.1,22.8
				c3.4,5.9,7.9,10.4,13.5,13.8c5.5,3.3,11.8,5.7,18.7,7.2c6.9,1.4,13.9,2.6,20.9,3.4c6.1,1.2,11.8,2,17.3,2.5
				c5.5,0.5,10.3,1.4,14.5,2.5c4.2,1.2,7.5,3,9.9,5.5c2.4,2.4,3.7,6.1,3.7,11c0,4.3-1.1,7.8-3.1,10.5c-2.1,2.8-4.6,4.8-7.6,6.3
				c-3,1.4-6.4,2.4-10.1,2.9c-3.7,0.5-7.2,0.8-10.5,0.8c-9.3,0-17.1-2-23.1-5.9c-6-3.9-9.5-9.9-10.2-18.1h-33.4
				c0.6,9.7,2.9,17.8,7,24.3c4.1,6.4,9.3,11.6,15.7,15.5c6.3,3.9,13.5,6.6,21.5,8.2c8,1.5,16.2,2.3,24.6,2.3c7.4,0,14.7-0.8,22-2.3
				c7.2-1.6,13.7-4.1,19.4-7.6c5.7-3.5,10.4-8,13.9-13.6c3.5-5.5,5.3-12.4,5.3-20.3V494.5z M2903.6,536.6c-5.1-3.3-11.3-5.3-18.7-6
				c-7.4-0.7-14.8-1.7-22.2-3c-3.5-0.6-6.9-1.4-10.3-2.5c-3.3-1.1-6.2-2.6-8.8-4.4c-2.5-1.9-4.5-4.3-6-7.3c-1.4-3-2.2-6.7-2.2-11
				c0-3.7,1.1-6.9,3.3-9.4c2.1-2.5,4.7-4.5,7.7-6c3.1-1.5,6.3-2.5,10-3.1c3.6-0.6,6.9-0.8,9.8-0.8c3.7,0,7.7,0.5,12,1.5
				c4.2,0.9,8.3,2.6,12.1,4.9s6.9,5.3,9.5,9c2.5,3.5,3.8,8,3.8,13.3V536.6z"/>
		</g>
	</g>
	<g>
		<g id="g2526" transform="matrix(0.35277777,0,0,-0.35277777,591.19182,545.8373)">
			<path id="path2528" class="st0" d="M2967,609.6h31.6v-22.2l0.6-0.6c5.1,8.4,11.8,15,19.9,19.8c8.2,4.8,17.3,7.1,27.3,7.1
				c16.6,0,29.6-4.3,39.2-12.9c9.6-8.6,14.4-21.4,14.4-38.6V458.3h-33.3v95.1c-0.5,11.9-3,20.5-7.6,25.9c-4.7,5.4-12,8.1-22,8.1
				c-5.6,0-10.7-1-15.2-3.1c-4.6-2.1-8.3-4.9-11.5-8.5c-3.1-3.6-5.5-7.9-7.3-12.7c-1.8-4.9-2.6-10-2.6-15.5v-89.2H2967V609.6z"/>
		</g>
	</g>
	<g>
		<g id="g2530" transform="matrix(0.35277777,0,0,-0.35277777,593.5029,546.98171)">
			<path id="path2532" class="st0" d="M3265.9,461.5h-31.6V482h-0.6c-4.5-8.8-11.1-15-19.6-18.8s-17.6-5.7-27.2-5.7
				c-11.9,0-22.3,2.1-31.1,6.3c-8.9,4.2-16.3,9.9-22.1,17.2c-5.9,7.2-10.3,15.7-13.2,25.6c-2.9,9.9-4.4,20.4-4.4,31.8
				c0,13.7,1.9,25.5,5.5,35.4c3.7,10,8.6,18.2,14.8,24.6c6.2,6.4,13.2,11.2,21,14.2c7.9,3,15.9,4.5,24.2,4.5c4.7,0,9.5-0.4,14.4-1.3
				s9.6-2.3,14-4.2s8.7-4.4,12.4-7.5c3.8-3,7-6.6,9.6-10.7h0.6v77.3h33.4V461.5z M3149.4,535.5c0-6.4,0.8-12.7,2.5-19
				c1.6-6.2,4.2-11.8,7.6-16.7c3.5-4.9,7.8-8.8,13.1-11.7c5.3-2.9,11.5-4.4,18.7-4.4c7.5,0,13.8,1.6,19.2,4.7
				c5.4,3.1,9.7,7.2,13.2,12.3c3.4,5.1,6,10.8,7.6,17.1c1.6,6.3,2.5,12.8,2.5,19.4c0,16.8-3.8,29.8-11.3,39.3
				c-7.5,9.3-17.6,14-30.5,14c-7.8,0-14.4-1.6-19.7-4.8c-5.4-3.2-9.7-7.4-13.2-12.6c-3.5-5.2-5.9-11.1-7.3-17.6
				C3150.2,549.1,3149.4,542.4,3149.4,535.5"/>
		</g>
	</g>
	<g>
		<g id="g2534" transform="matrix(0.35277777,0,0,-0.35277777,594.34213,545.40098)">
			<path id="path2536" class="st0" d="M3374.4,666h36.6v-83.1h95V666h36.6V457.1h-36.6v94.2h-95v-94.2h-36.6V666z"/>
		</g>
	</g>
	<g>
		<g id="g2538" transform="matrix(0.35277777,0,0,-0.35277777,596.87888,546.98171)">
			<path id="path2540" class="st0" d="M3702.5,461.5h-32.8v21h-0.6c-4.1-7.6-10.2-13.7-18.3-18.3c-8.1-4.6-16.4-6.9-24.8-6.9
				c-19.9,0-34.2,4.9-43.1,14.8c-8.9,9.8-13.3,24.7-13.3,44.6v96h33.3v-92.7c0-13.3,2.5-22.6,7.6-28.1c5-5.5,12.2-8.2,21.3-8.2
				c7,0,12.9,1,17.6,3.2c4.7,2.1,8.5,5,11.4,8.6c2.9,3.6,5,8,6.3,13c1.2,5.1,1.9,10.5,1.9,16.4v87.8h33.3V461.5z"/>
		</g>
	</g>
	<g>
		<g id="g2542" transform="matrix(0.35277777,0,0,-0.35277777,597.1073,545.8373)">
			<path id="path2544" class="st0" d="M3732.1,609.6h31.6v-21h0.9c2.5,3.7,5.2,7.1,8.2,10.2c2.9,3.2,6.2,5.8,9.7,7.9
				c3.6,2.1,7.8,3.8,12.5,5.1c4.7,1.3,10.1,1.9,16.1,1.9c9.1,0,17.7-2.1,25.6-6.2c8-4.1,13.6-10.4,16.8-19
				c5.6,7.8,12.2,13.9,19.6,18.4c7.5,4.5,16.6,6.7,27.8,6.7c16,0,28.4-3.9,37.3-11.7c8.9-7.8,13.4-20.9,13.4-39.3V458.3h-33.4v88.4
				c0,6-0.2,11.6-0.5,16.6c-0.4,4.9-1.6,9.2-3.5,12.9c-1.8,3.6-4.6,6.4-8.3,8.3s-8.8,2.9-15.2,2.9c-11.3,0-19.5-3.5-24.6-10.6
				c-5.1-7-7.6-16.9-7.6-29.8v-88.7H3825v97.2c0,10.5-1.9,18.5-5.6,23.8s-10.8,8.1-21,8.1c-4.3,0-8.4-0.9-12.4-2.7
				c-4-1.8-7.5-4.3-10.5-7.6c-3-3.3-5.5-7.4-7.3-12.3c-1.9-4.8-2.8-10.4-2.8-16.7v-89.8h-33.3V609.6z"/>
		</g>
	</g>
	<g>
		<g id="g2546" transform="matrix(0.35277777,0,0,-0.35277777,599.95168,546.72693)">
			<path id="path2548" class="st0" d="M4100,494.5c0-4.1,0.5-7,1.6-8.8c1.1-1.8,3.2-2.6,6.2-2.6h3.5c1.4,0,2.9,0.2,4.7,0.6v-23.1
				c-1.2-0.4-2.7-0.9-4.5-1.4s-3.8-0.9-5.7-1.3c-2-0.5-3.9-0.7-5.9-0.9c-2-0.2-3.6-0.3-5-0.3c-6.8,0-12.5,1.4-17,4.1
				c-4.5,2.7-7.5,7.5-8.8,14.3c-6.6-6.4-14.8-11.1-24.4-14c-9.7-2.9-19-4.4-27.9-4.4c-6.9,0-13.4,0.9-19.7,2.8
				c-6.2,1.9-11.7,4.6-16.5,8.2c-4.8,3.6-8.6,8.2-11.4,13.8c-2.8,5.6-4.2,12.1-4.2,19.5c0,9.3,1.7,16.9,5.1,22.8
				c3.4,5.9,7.9,10.4,13.5,13.8c5.5,3.3,11.8,5.7,18.7,7.2c6.9,1.4,13.9,2.6,20.9,3.4c6.1,1.2,11.8,2,17.3,2.5
				c5.4,0.5,10.3,1.4,14.5,2.5c4.2,1.2,7.5,3,9.9,5.5c2.4,2.4,3.7,6.1,3.7,11c0,4.3-1,7.8-3.1,10.5c-2.1,2.8-4.6,4.8-7.6,6.3
				c-3,1.4-6.4,2.4-10.2,2.9c-3.6,0.5-7.2,0.8-10.5,0.8c-9.4,0-17.1-2-23.1-5.9c-6-3.9-9.5-9.9-10.2-18.1h-33.4
				c0.6,9.7,2.9,17.8,7,24.3c4.1,6.4,9.3,11.6,15.7,15.5c6.3,3.9,13.5,6.6,21.5,8.2c8,1.5,16.2,2.3,24.6,2.3c7.4,0,14.7-0.8,22-2.3
				c7.1-1.6,13.7-4.1,19.4-7.6c5.7-3.5,10.4-8,13.8-13.6c3.5-5.5,5.3-12.4,5.3-20.3V494.5z M4066.6,536.6c-5.1-3.3-11.3-5.3-18.8-6
				c-7.4-0.7-14.8-1.7-22.2-3c-3.5-0.6-6.9-1.4-10.3-2.5c-3.3-1.1-6.2-2.6-8.7-4.4c-2.5-1.9-4.5-4.3-6-7.3c-1.5-3-2.2-6.7-2.2-11
				c0-3.7,1-6.9,3.2-9.4c2.1-2.5,4.7-4.5,7.7-6c3.1-1.5,6.3-2.5,10-3.1c3.6-0.6,6.9-0.8,9.8-0.8c3.7,0,7.7,0.5,12,1.5
				c4.3,0.9,8.3,2.6,12.1,4.9c3.8,2.3,6.9,5.3,9.5,9c2.5,3.5,3.8,8,3.8,13.3V536.6z"/>
		</g>
	</g>
	<g>
		<g id="g2550" transform="matrix(0.35277777,0,0,-0.35277777,600.18451,545.8373)">
			<path id="path2552" class="st0" d="M4130.1,609.6h31.6v-22.2l0.6-0.6c5.1,8.4,11.7,15,19.9,19.8c8.2,4.8,17.3,7.1,27.3,7.1
				c16.6,0,29.6-4.3,39.2-12.9s14.3-21.4,14.3-38.6V458.3h-33.3v95.1c-0.5,11.9-3,20.5-7.6,25.9s-12,8.1-22,8.1
				c-5.7,0-10.7-1-15.2-3.1c-4.6-2.1-8.3-4.9-11.5-8.5c-3.1-3.6-5.6-7.9-7.3-12.7c-1.8-4.9-2.7-10-2.7-15.5v-89.2h-33.3V609.6z"/>
		</g>
	</g>
	<g>
		<g id="g2554" transform="matrix(0.35277777,0,0,-0.35277777,602.02827,545.40098)">
			<path id="path2556" class="st0" d="M4368.5,666h86.6c15.9,0,29.8-2.8,41.5-8.2c11.7-5.5,21.2-12.9,28.7-22.4
				c7.4-9.5,12.9-20.5,16.5-33.2c3.6-12.6,5.5-26.2,5.5-40.7c0-14.4-1.8-27.9-5.5-40.7c-3.6-12.7-9-23.7-16.5-33.2
				c-7.5-9.5-17-16.9-28.7-22.4c-11.8-5.5-25.6-8.2-41.5-8.2h-86.6V666z M4405.1,486.9h36c14.3,0,25.9,1.9,35,5.6
				c9,3.8,16.2,9.1,21.3,15.8c5.2,6.8,8.7,14.6,10.6,23.7c1.8,9,2.8,18.8,2.8,29.4c0,10.6-1,20.3-2.8,29.4c-1.9,9-5.4,17-10.6,23.7
				c-5.1,6.7-12.3,11.9-21.3,15.8c-9.1,3.8-20.7,5.7-35,5.7h-36V486.9z"/>
		</g>
	</g>
	<g>
		<g id="g2558" transform="matrix(0.35277777,0,0,-0.35277777,603.7506,546.47469)">
			<path id="path2560" class="st0" d="M4591.3,527.1c0-5.9,0.8-11.5,2.5-17c1.6-5.5,4.1-10.2,7.4-14.3c3.3-4.1,7.5-7.4,12.6-9.8
				c5-2.5,11.1-3.6,18.1-3.6c9.7,0,17.6,2.1,23.5,6.3c6,4.1,10.4,10.4,13.4,18.8h31.6c-1.8-8.2-4.8-15.5-9.1-21.9
				c-4.2-6.5-9.5-11.8-15.5-16.2c-6.1-4.4-12.8-7.7-20.4-10c-7.5-2.2-15.3-3.4-23.5-3.4c-11.8,0-22.4,2-31.6,5.9
				c-9.2,3.9-16.9,9.3-23.3,16.4c-6.3,7-11.1,15.4-14.4,25.1c-3.2,9.8-4.8,20.5-4.8,32.2c0,10.7,1.7,20.9,5.2,30.5
				c3.4,9.7,8.3,18.2,14.5,25.5c6.3,7.3,14,13.1,23,17.4c9,4.3,19.1,6.4,30.4,6.4c11.9,0,22.6-2.5,32.1-7.5
				c9.5-5,17.3-11.6,23.5-19.8c6.2-8.2,10.8-17.6,13.6-28.2c2.8-10.6,3.5-21.6,2.2-32.9H4591.3z M4669.1,549.1
				c-0.3,5.2-1.5,10.3-3.4,15.2c-1.9,4.9-4.4,9.1-7.6,12.7s-7.1,6.5-11.7,8.8c-4.6,2.2-9.7,3.4-15.4,3.4c-5.8,0-11.1-1.1-15.9-3.1
				c-4.8-2.1-8.9-4.8-12.3-8.4c-3.4-3.6-6.2-7.9-8.2-12.7c-2.1-4.9-3.2-10.2-3.4-15.8H4669.1z"/>
		</g>
	</g>
	<g>
		<g id="g2562" transform="matrix(0.35277777,0,0,-0.35277777,604.63131,545.8373)">
			<path id="path2564" class="st0" d="M4705.2,609.6h36.3l38.3-116.2h0.6l36.9,116.2h34.5l-54.1-151.3h-37.5L4705.2,609.6z"/>
		</g>
	</g>
	<g>
		<g id="g2566" transform="matrix(0.35277777,0,0,-0.35277777,606.0504,546.47469)">
			<path id="path2568" class="st0" d="M4888.8,527.1c0-5.9,0.9-11.5,2.5-17s4.1-10.2,7.4-14.3c3.4-4.1,7.6-7.4,12.6-9.8
				c5.1-2.5,11.1-3.6,18.1-3.6c9.7,0,17.6,2.1,23.6,6.3c6,4.1,10.4,10.4,13.3,18.8h31.6c-1.8-8.2-4.8-15.5-9-21.9
				c-4.3-6.5-9.5-11.8-15.5-16.2c-6.1-4.4-12.8-7.7-20.4-10c-7.6-2.2-15.3-3.4-23.6-3.4c-11.8,0-22.4,2-31.5,5.9
				c-9.2,3.9-16.9,9.3-23.3,16.4c-6.3,7-11.1,15.4-14.4,25.1c-3.2,9.8-4.8,20.5-4.8,32.2c0,10.7,1.7,20.9,5.1,30.5
				c3.4,9.7,8.3,18.2,14.6,25.5c6.3,7.3,14,13.1,23,17.4c8.9,4.3,19.1,6.4,30.4,6.4c11.9,0,22.6-2.5,32.1-7.5
				c9.4-5,17.3-11.6,23.5-19.8c6.2-8.2,10.8-17.6,13.7-28.2c2.8-10.6,3.5-21.6,2.1-32.9H4888.8z M4966.6,549.1
				c-0.4,5.2-1.5,10.3-3.4,15.2c-1.9,4.9-4.3,9.1-7.6,12.7c-3.2,3.6-7.1,6.5-11.7,8.8c-4.6,2.2-9.7,3.4-15.4,3.4
				c-5.9,0-11.1-1.1-16-3.1c-4.7-2.1-8.8-4.8-12.3-8.4c-3.4-3.6-6.2-7.9-8.2-12.7c-2.1-4.9-3.2-10.2-3.4-15.8H4966.6z"/>
		</g>
	</g>
	<path id="path2570" class="st0" d="M2377.5,310.5h11.7v73.7h-11.7V310.5z"/>
	<g>
		<g id="g2572" transform="matrix(0.35277777,0,0,-0.35277777,608.06532,547.01272)">
			<path id="path2574" class="st0" d="M5149.4,457.5c-12.1,0-22.9,2-32.3,6c-9.5,4-17.5,9.5-24,16.5c-6.5,7-11.6,15.4-14.9,25.2
				c-3.4,9.7-5.1,20.5-5.1,32.2c0,11.5,1.7,22.1,5.1,31.9c3.4,9.8,8.4,18.2,14.9,25.2c6.5,7,14.5,12.5,24,16.6c9.4,4,20.2,6,32.3,6
				s22.9-2,32.3-6c9.5-4,17.5-9.5,24-16.6c6.6-7,11.6-15.4,15-25.2c3.4-9.7,5.1-20.4,5.1-31.9c0-11.7-1.8-22.4-5.1-32.2
				c-3.4-9.7-8.4-18.1-15-25.2c-6.5-7-14.5-12.5-24-16.5C5172.3,459.5,5161.4,457.5,5149.4,457.5 M5149.4,483.9
				c7.4,0,13.8,1.6,19.3,4.7c5.5,3.1,10,7.2,13.5,12.3c3.5,5.1,6.1,10.8,7.7,17.2c1.6,6.3,2.5,12.8,2.5,19.4
				c0,6.4-0.8,12.9-2.5,19.4c-1.6,6.4-4.2,12.1-7.7,17.1c-3.5,5-8,9-13.5,12.2s-11.9,4.7-19.3,4.7c-7.4,0-13.8-1.6-19.3-4.7
				s-10-7.1-13.5-12.2c-3.5-4.9-6.1-10.6-7.7-17.1c-1.7-6.4-2.5-12.9-2.5-19.4c0-6.6,0.8-13.1,2.5-19.4c1.6-6.3,4.2-12,7.7-17.2
				c3.5-5,8-9.1,13.5-12.3C5135.5,485.5,5142,483.9,5149.4,483.9"/>
		</g>
	</g>
	<g>
		<g id="g2576" transform="matrix(0.35277777,0,0,-0.35277777,608.82249,545.8373)">
			<path id="path2578" class="st0" d="M5247.3,609.6h31.6v-20.5h0.6c4.7,8.8,11.2,15.1,19.6,18.9c8.4,3.8,17.4,5.7,27.2,5.7
				c11.9,0,22.3-2.1,31.2-6.3c8.9-4.2,16.2-9.9,22.1-17.3c5.9-7.3,10.3-15.9,13.2-25.6c2.9-9.8,4.4-20.2,4.4-31.3
				c0-10.2-1.3-20-4-29.6c-2.6-9.5-6.6-18-12-25.3c-5.4-7.3-12.1-13.2-20.3-17.6s-17.9-6.6-29-6.6c-4.9,0-9.8,0.4-14.7,1.4
				c-4.8,0.8-9.5,2.3-14,4.2c-4.5,2-8.7,4.4-12.5,7.4c-3.8,3-6.9,6.6-9.5,10.7h-0.7v-75.5h-33.3V609.6z M5363.8,533.8
				c0,6.8-0.9,13.5-2.7,19.9c-1.8,6.4-4.4,12.1-7.9,17.1c-3.6,5-7.9,9-13.2,12c-5.3,3-11.3,4.6-18.1,4.6c-14,0-24.6-4.9-31.8-14.7
				c-7.1-9.7-10.7-22.7-10.7-38.9c0-7.6,0.9-14.7,2.8-21.2c1.9-6.6,4.6-12.1,8.3-16.8c3.7-4.7,8.1-8.4,13.3-11.1
				c5.1-2.7,11.1-4.1,18-4.1c7.6,0,14,1.6,19.3,4.7c5.3,3.1,9.6,7.2,13.1,12.2c3.4,5,5.8,10.6,7.3,17
				C5363,520.7,5363.8,527.2,5363.8,533.8"/>
		</g>
	</g>
	<g>
		<g id="g2580" transform="matrix(0.35277777,0,0,-0.35277777,610.12862,545.8373)">
			<path id="path2582" class="st0" d="M5416.2,609.6h31.6v-21h0.9c2.5,3.7,5.2,7.1,8.2,10.2c2.9,3.2,6.2,5.8,9.7,7.9
				c3.6,2.1,7.8,3.8,12.5,5.1c4.7,1.3,10.1,1.9,16.1,1.9c9.2,0,17.7-2.1,25.6-6.2c8-4.1,13.6-10.4,16.8-19
				c5.7,7.8,12.2,13.9,19.6,18.4c7.5,4.5,16.6,6.7,27.8,6.7c16,0,28.4-3.9,37.3-11.7c8.9-7.8,13.4-20.9,13.4-39.3V458.3h-33.4v88.4
				c0,6-0.2,11.6-0.5,16.6c-0.4,4.9-1.6,9.2-3.5,12.9c-1.8,3.6-4.6,6.4-8.3,8.3c-3.7,2-8.8,2.9-15.2,2.9c-11.3,0-19.5-3.5-24.6-10.6
				c-5.1-7-7.6-16.9-7.6-29.8v-88.7h-33.4v97.2c0,10.5-1.9,18.5-5.7,23.8s-10.8,8.1-21,8.1c-4.2,0-8.4-0.9-12.4-2.7
				c-4-1.8-7.5-4.3-10.5-7.6c-3.1-3.3-5.5-7.4-7.4-12.3c-1.9-4.8-2.8-10.4-2.8-16.7v-89.8h-33.3V609.6z"/>
		</g>
	</g>
	<g>
		<g id="g2584" transform="matrix(0.35277777,0,0,-0.35277777,612.21145,546.47469)">
			<path id="path2586" class="st0" d="M5685.6,527.1c0-5.9,0.9-11.5,2.5-17s4.1-10.2,7.4-14.3c3.4-4.1,7.6-7.4,12.6-9.8
				c5.1-2.5,11.1-3.6,18.1-3.6c9.8,0,17.7,2.1,23.6,6.3c5.9,4.1,10.4,10.4,13.3,18.8h31.6c-1.8-8.2-4.8-15.5-9.1-21.9
				c-4.3-6.5-9.5-11.8-15.5-16.2c-6.1-4.4-12.8-7.7-20.3-10c-7.6-2.2-15.4-3.4-23.6-3.4c-11.8,0-22.4,2-31.5,5.9
				c-9.2,3.9-16.9,9.3-23.3,16.4c-6.3,7-11.1,15.4-14.4,25.1c-3.2,9.8-4.8,20.5-4.8,32.2c0,10.7,1.7,20.9,5.1,30.5
				c3.5,9.7,8.3,18.2,14.6,25.5c6.3,7.3,14,13.1,23,17.4c8.9,4.3,19.1,6.4,30.4,6.4c11.9,0,22.6-2.5,32-7.5
				c9.4-5,17.3-11.6,23.5-19.8c6.2-8.2,10.8-17.6,13.7-28.2c2.8-10.6,3.5-21.6,2.2-32.9H5685.6z M5763.5,549.1
				c-0.4,5.2-1.5,10.3-3.4,15.2c-1.9,4.9-4.4,9.1-7.6,12.7c-3.2,3.6-7.1,6.5-11.7,8.8s-9.7,3.4-15.3,3.4c-5.9,0-11.2-1.1-15.9-3.1
				c-4.8-2.1-8.9-4.8-12.3-8.4c-3.5-3.6-6.2-7.9-8.2-12.7c-2.1-4.9-3.2-10.2-3.4-15.8H5763.5z"/>
		</g>
	</g>
	<g id="g2588" transform="matrix(0.35277777,0,0,-0.35277777,613.20582,545.8373)">
		<path id="path2590" class="st0" d="M5814.2,609.6h31.6v-22.2l0.6-0.6c5.1,8.4,11.7,15,19.9,19.8c8.2,4.8,17.3,7.1,27.3,7.1
			c16.6,0,29.6-4.3,39.1-12.9c9.7-8.6,14.4-21.4,14.4-38.6V458.3h-33.3v95.1c-0.5,11.9-3,20.5-7.6,25.9c-4.7,5.4-12,8.1-22,8.1
			c-5.7,0-10.7-1-15.2-3.1c-4.6-2.1-8.3-4.9-11.5-8.5c-3.1-3.6-5.6-7.9-7.3-12.7c-1.8-4.9-2.7-10-2.7-15.5v-89.2h-33.3V609.6z"/>
	</g>
	<g id="g2592" transform="matrix(0.35277777,0,0,-0.35277777,614.32381,545.8373)">
		<path id="path2594" class="st0" d="M5958.8,609.6h25.2v45.4h33.3v-45.4h30.1v-24.9h-30.1V504c0-3.5,0.1-6.5,0.5-9.1
			c0.3-2.5,0.9-4.7,2.1-6.4c1-1.8,2.7-3.1,4.8-4c2.1-0.9,5-1.4,8.7-1.4c2.3,0,4.7,0,7,0.1c2.3,0.1,4.7,0.5,7,1.1v-25.8
			c-3.7-0.4-7.3-0.7-10.8-1.1c-3.5-0.4-7.1-0.7-10.8-0.7c-8.8,0-15.9,0.9-21.2,2.6c-5.4,1.6-9.6,4.1-12.6,7.3
			c-3,3.2-5.1,7.3-6.1,12.1c-1.1,4.8-1.7,10.4-1.9,16.7v89.2h-25.2V609.6z"/>
	</g>
</g>
</svg>
