<?xml version="1.0" encoding="utf-8"?>
<!-- Generator: Adobe Illustrator 27.0.1, SVG Export Plug-In . SVG Version: 6.00 Build 0)  -->
<svg version="1.1" id="Layer_1" xmlns="http://www.w3.org/2000/svg" xmlns:xlink="http://www.w3.org/1999/xlink" x="0px" y="0px"
	 viewBox="0 0 215 88" style="enable-background:new 0 0 215 88;" xml:space="preserve">
<style type="text/css">
	.st0{fill:#296EC3;}
</style>
<g>
	<polygon class="st0" points="190.5,25.7 190.5,28.6 204.2,28.6 190.5,64.9 174.5,25.7 173.1,25.7 158.7,65.2 145.3,28.6 
		158.4,28.6 158.4,25.7 124.2,25.7 124.2,28.6 130.1,28.6 153,85.5 154.5,85.5 169,46.6 184.9,85.5 186.3,85.5 207.5,28.6 213,28.6 
		213,25.7 	"/>
	<path class="st0" d="M117.3,31.1c-4.8-4.4-11.3-6.6-19.4-6.6c-5.7,0-10.7,1.3-15,4c-4.3,2.7-7.7,6.4-10.1,11.2
		c-2.4,4.8-3.6,10.4-3.6,16.7c0,6,1.2,11.3,3.7,15.8c2.5,4.6,5.9,8.1,10.3,10.6c4.4,2.5,9.4,3.7,14.9,3.7c6.9,0,12.6-2,17.2-5.9
		c4-3.4,7.1-8.3,9.2-14.6l-2.8-0.7c-1.5,4.7-3.5,8.4-6.1,10.9c-3.5,3.3-6.2,4.4-10.9,4.4c-6.2,0-11.1-2.6-14.8-7.9
		c-3.5-5.1-5.3-12.1-5.4-21h40C124.8,45.2,124,37.5,117.3,31.1z M109.1,48.9H84.6c0.4-6.1,1.4-11.3,3.1-14.8
		c1.8-3.7,5.5-6.8,10.1-6.8c4.6,0,7.7,3.2,9.2,6.8C108.6,37.9,109.1,42.7,109.1,48.9z"/>
	<path class="st0" d="M41,1.4h-39v2.9H12v78.3H1.9v2.9h37.7v-2.9H27.2V47.1H41c16.4,0,28.7-8.4,28.7-22.9S57.3,1.4,41,1.4z
		 M27.2,4.3h10.5c6.8,0,15.1,4,15.1,20.2c0,17.8-10.1,19.8-16.7,19.8h-8.9V4.3z"/>
</g>
</svg>
